<svg width="162" height="200" viewBox="0 0 162 200" fill="none" xmlns="http://www.w3.org/2000/svg">
<g clip-path="url(#clip0_420_1193)">
<path d="M123.19 123.192C146.53 99.8512 146.53 62.0087 123.19 38.6681C99.8492 15.3276 62.0067 15.3276 38.6661 38.6681C15.3256 62.0087 15.3256 99.8512 38.6661 123.192C62.0067 146.532 99.8492 146.532 123.19 123.192Z" fill="#FDF0F7"/>
<path d="M0.599784 81.8944C0.345768 59.9657 8.99025 38.0111 26.309 21.9625C43.6277 5.91381 66.1776 -1.02202 88.027 0.904931L88.6223 0.363163C87.0996 0.220279 85.5695 0.117746 84.0322 0.0555645C62.4329 -0.769988 41.802 6.86439 25.9438 21.5537C10.0857 36.2429 0.883569 56.2368 0.0580164 77.8381C-0.00151865 79.3761 -0.0114414 80.9081 0.0143571 82.4362L0.599784 81.8944Z" fill="#FDF0F7"/>
<path d="M150.304 40.3489L150.737 39.952C143.527 27.7351 133.261 17.605 120.95 10.5575L120.497 10.9763C132.85 17.9651 143.134 28.0983 150.304 40.3469V40.3489Z" fill="#FDF0F7"/>
<path d="M160.64 70.9161C163.724 95.7323 155.25 121.638 135.546 139.891C103.034 170.008 52.0816 168.059 21.9648 135.547C16.3259 129.47 11.6656 122.552 8.15068 115.044L7.7002 115.46C11.2479 122.948 15.9213 129.849 21.558 135.922C36.2433 151.783 56.2351 160.971 77.8364 161.796C99.4377 162.622 120.067 154.988 135.925 140.296C151.783 125.605 160.971 105.621 161.797 84.0198C161.972 79.4742 161.768 74.9219 161.187 70.4101L160.64 70.9161Z" fill="#FDF0F7"/>
<path d="M22.508 48.908C25.0145 44.3348 28.0498 40.0719 31.5513 36.2072C55.7027 9.53751 96.6946 6.9914 123.952 30.0711L124.309 29.6742C111.014 18.4188 93.8654 12.7706 76.4841 13.9226C59.1028 15.0746 42.8495 22.9364 31.1564 35.848C27.5587 39.8161 24.445 44.1975 21.8809 48.9001L22.508 48.908Z" fill="#FDF0F7"/>
<path d="M14.4471 77.0899H13.8795C13.7465 79.4746 13.7386 81.8645 13.8557 84.25C14.6534 101.273 21.9384 117.344 34.2147 129.163L34.5719 128.766C20.1843 114.839 13.3913 95.8137 14.4471 77.0899Z" fill="#FDF0F7"/>
<path d="M139.983 48.908C139.308 47.6657 138.592 46.4439 137.835 45.2427L137.438 45.6733C138.1 46.7317 138.73 47.8099 139.328 48.908H139.983Z" fill="#FDF0F7"/>
<path d="M147.962 77.0899H147.395C147.922 85.914 146.681 94.7545 143.747 103.093C140.812 111.431 136.242 119.1 130.304 125.649C109.888 148.191 77.439 153.493 51.4262 140.663L51.0293 141.094C61.5229 146.307 73.1977 148.685 84.8944 147.991C96.591 147.297 107.903 143.555 117.706 137.137C127.509 130.719 135.463 121.849 140.778 111.406C146.093 100.964 148.584 89.3127 148.004 77.6099C147.984 77.4372 147.972 77.2626 147.962 77.0899Z" fill="#FDF0F7"/>
<path d="M108.116 147.665C109.094 147.256 110.076 146.819 111.037 146.367L110.809 145.887C109.858 146.335 108.882 146.768 107.909 147.175L108.116 147.665Z" fill="#FDF0F7"/>
<path d="M22.6357 123.795L22.209 124.113C22.842 124.964 23.5029 125.811 24.1717 126.629L24.5844 126.294C23.9196 125.486 23.2647 124.645 22.6357 123.795Z" fill="#FDF0F7"/>
<path d="M19.0775 118.56L18.625 118.834C19.1807 119.735 19.7621 120.636 20.3575 121.513L20.798 121.215C20.2027 120.348 19.6292 119.455 19.0775 118.56Z" fill="#FDF0F7"/>
<path d="M11.3674 101.217L10.8574 101.368C11.1571 102.388 11.4806 103.412 11.8239 104.415L12.326 104.244C11.9866 103.248 11.6691 102.23 11.3674 101.217Z" fill="#FDF0F7"/>
<path d="M31.0712 133.251L30.7061 133.648C31.478 134.373 32.2798 135.091 33.0875 135.784L33.4328 135.387C32.631 134.684 31.8372 133.97 31.0712 133.251Z" fill="#FDF0F7"/>
<path d="M15.9968 113.021L15.5205 113.259C15.9948 114.208 16.4969 115.161 17.0129 116.087L17.4772 115.829C16.9652 114.909 16.4671 113.964 15.9968 113.021Z" fill="#FDF0F7"/>
<path d="M13.4189 107.223L12.9248 107.421C13.3118 108.413 13.7186 109.406 14.1572 110.37L14.6434 110.156C14.2167 109.189 13.8039 108.205 13.4189 107.223Z" fill="#FDF0F7"/>
<path d="M102.106 149.864C103.118 149.542 104.136 149.197 105.132 148.832L104.95 148.332C103.958 148.695 102.949 149.04 101.945 149.356L102.106 149.864Z" fill="#FDF0F7"/>
<path d="M89.5684 152.102L89.6378 152.63C90.6896 152.491 91.7533 152.328 92.7971 152.144L92.7059 151.62C91.668 151.802 90.6122 151.975 89.5684 152.102Z" fill="#FDF0F7"/>
<path d="M95.8115 151.001L95.9246 151.521C96.9606 151.29 98.0064 151.034 99.0304 150.761L98.8935 150.247C97.8853 150.518 96.8474 150.784 95.8115 151.001Z" fill="#FDF0F7"/>
<path d="M35.8802 137.385L35.5508 137.804C36.3863 138.459 37.2475 139.106 38.1088 139.723L38.4184 139.29C37.567 138.679 36.7117 138.036 35.8802 137.385Z" fill="#FDF0F7"/>
<path d="M41.0397 141.082L40.75 141.529C41.6391 142.108 42.5539 142.676 43.4668 143.215L43.7367 142.759C42.8258 142.221 41.9248 141.656 41.0397 141.082Z" fill="#FDF0F7"/>
<path d="M54.2288 147.855C53.5621 147.595 52.8972 147.329 52.2443 147.061L52.0459 147.552C52.7941 147.869 53.5561 148.173 54.3201 148.466L54.2288 147.855Z" fill="#FDF0F7"/>
<path d="M46.5089 144.315L46.2568 144.783C47.1955 145.283 48.156 145.776 49.1145 146.226L49.3427 145.746C48.3922 145.291 47.4376 144.809 46.5089 144.315Z" fill="#FDF0F7"/>
<path d="M26.644 128.711L26.2471 129.064C26.9516 129.858 27.6858 130.652 28.43 131.4L28.811 131.029C28.0708 130.275 27.3465 129.495 26.644 128.711Z" fill="#FDF0F7"/>
<path d="M24.7663 35.4333L24.3496 35.088C23.6748 35.9096 23.01 36.7569 22.375 37.6043L22.8017 37.9238C23.4308 37.0883 24.0916 36.2489 24.7663 35.4333Z" fill="#FDF0F7"/>
<path d="M33.2857 25.9771C32.48 26.6657 31.6783 27.3821 30.9043 28.1065L31.2675 28.5034C32.0375 27.783 32.8312 27.0726 33.629 26.3899L33.2857 25.9771Z" fill="#FDF0F7"/>
<path d="M28.6185 30.3391C27.8763 31.0951 27.14 31.879 26.4355 32.6689L26.8324 33.0241C27.5369 32.2303 28.2672 31.4623 29.0035 30.7102L28.6185 30.3391Z" fill="#FDF0F7"/>
<path d="M37.8643 22.3872C37.1539 22.9011 36.4474 23.427 35.7588 23.9748L36.0783 24.3717C36.6855 23.8974 37.3087 23.431 37.9338 22.9825L37.8643 22.3872Z" fill="#FDF0F7"/>
<path d="M67.6322 10.3254L67.5389 9.80145C66.5962 9.96815 65.6477 10.1587 64.709 10.3651L64.7784 10.8929C65.729 10.6786 66.6875 10.494 67.6322 10.3254Z" fill="#FDF0F7"/>
<path d="M83.2754 152.654L83.3429 153.182C84.3788 153.136 85.4266 153.069 86.4605 152.983L86.4129 152.453C85.375 152.539 84.3173 152.608 83.2754 152.654Z" fill="#FDF0F7"/>
<path d="M20.5139 40.21C19.9186 41.0871 19.3232 41.996 18.7676 42.889L19.22 43.1708C19.7757 42.2758 20.3592 41.3848 20.9545 40.5096L20.5139 40.21Z" fill="#FDF0F7"/>
<path d="M17.1419 45.6455C16.624 46.5703 16.1179 47.5189 15.6377 48.4694L16.112 48.7096C16.5883 47.7669 17.0904 46.8243 17.6063 45.9055L17.1419 45.6455Z" fill="#FDF0F7"/>
<path d="M10.0649 63.4465C9.80693 64.4764 9.56879 65.5282 9.35645 66.5721L9.87837 66.6772C10.0887 65.6413 10.3249 64.5975 10.5809 63.5755L10.0649 63.4465Z" fill="#FDF0F7"/>
<path d="M14.2609 51.3609C13.8244 52.3293 13.4036 53.3216 13.0127 54.3079L13.5049 54.5063C13.9018 53.526 14.3125 52.5416 14.7452 51.5811L14.2609 51.3609Z" fill="#FDF0F7"/>
<path d="M11.8956 57.3144C11.5463 58.3185 11.2149 59.3445 10.9033 60.3626L11.4133 60.5154C11.715 59.5033 12.0424 58.4852 12.3897 57.489L11.8956 57.3144Z" fill="#FDF0F7"/>
<path d="M149.487 101.652C149.792 100.632 150.082 99.5922 150.336 98.5642L149.82 98.4332C149.564 99.4552 149.278 100.487 148.977 101.501L149.487 101.652Z" fill="#FDF0F7"/>
<path d="M145.807 51.853L146.294 51.6387C145.865 50.6683 145.407 49.6959 144.932 48.7433L144.456 48.9815C144.926 49.9261 145.381 50.8925 145.807 51.853Z" fill="#FDF0F7"/>
<path d="M135.885 35.6932L136.298 35.3578C135.627 34.5343 134.93 33.7167 134.226 32.9268L133.829 33.2801C134.528 34.0659 135.22 34.8776 135.885 35.6932Z" fill="#FDF0F7"/>
<path d="M113.895 144.94C114.829 144.448 115.768 143.926 116.673 143.392L116.405 142.934C115.498 143.464 114.567 143.981 113.639 144.47L113.895 144.94Z" fill="#FDF0F7"/>
<path d="M139.67 40.7775L140.108 40.4799C139.513 39.6027 138.894 38.7275 138.263 37.8762L137.834 38.1937C138.459 39.0371 139.074 39.9063 139.67 40.7775Z" fill="#FDF0F7"/>
<path d="M80.4236 9.21007V8.67822C79.3639 8.67822 78.2883 8.69807 77.2266 8.74371L77.2484 9.27357C78.3042 9.22991 79.3718 9.20809 80.4236 9.21007Z" fill="#FDF0F7"/>
<path d="M70.7755 9.84114L70.9283 9.81931C71.9761 9.68238 73.0378 9.56926 74.0856 9.47797L74.038 8.94811C72.9842 9.0394 71.9165 9.14656 70.8628 9.29342L70.71 9.31326L70.7755 9.84114Z" fill="#FDF0F7"/>
<path d="M86.762 9.50179L86.8096 8.97192C85.7538 8.87667 84.6802 8.80324 83.6205 8.75363L83.5967 9.28548C84.6485 9.3331 85.7141 9.40653 86.762 9.50179Z" fill="#FDF0F7"/>
<path d="M105.299 13.7327L105.498 13.2346C104.505 12.8615 103.481 12.5063 102.473 12.1789L102.309 12.6849C103.299 13.0084 104.309 13.3616 105.299 13.7327Z" fill="#FDF0F7"/>
<path d="M99.2529 11.7721L99.3938 11.2581C98.3717 10.9763 97.3259 10.7143 96.286 10.4762L96.1689 10.9941C97.2009 11.2303 98.2368 11.4922 99.2529 11.7721Z" fill="#FDF0F7"/>
<path d="M93.0496 10.3551L93.1468 9.8332C92.101 9.63475 91.0373 9.47401 89.9875 9.33112L89.916 9.859C90.9599 9.9999 92.0136 10.1686 93.0496 10.3551Z" fill="#FDF0F7"/>
<path d="M142.981 46.1714L143.444 45.9134C142.93 44.9867 142.39 44.0599 141.836 43.1609L141.384 43.4387C141.932 44.3318 142.469 45.2526 142.981 46.1714Z" fill="#FDF0F7"/>
<path d="M133.936 129.322C134.646 128.528 135.347 127.717 136.02 126.899L135.609 126.56C134.942 127.373 134.246 128.183 133.541 128.967L133.936 129.322Z" fill="#FDF0F7"/>
<path d="M137.996 124.391C138.633 123.543 139.26 122.67 139.859 121.793L139.423 121.493C138.827 122.362 138.204 123.232 137.571 124.073L137.996 124.391Z" fill="#FDF0F7"/>
<path d="M141.61 119.11C142.171 118.207 142.719 117.282 143.239 116.357L142.775 116.095C142.259 117.014 141.715 117.933 141.159 118.828L141.61 119.11Z" fill="#FDF0F7"/>
<path d="M119.399 141.721C120.286 141.148 121.175 140.544 122.04 139.935L121.733 139.501C120.874 140.112 119.99 140.709 119.109 141.287L119.399 141.721Z" fill="#FDF0F7"/>
<path d="M144.746 113.533C145.226 112.585 145.69 111.614 146.135 110.646L145.651 110.428C145.218 111.388 144.756 112.353 144.279 113.293L144.746 113.533Z" fill="#FDF0F7"/>
<path d="M124.601 138.024C125.434 137.373 126.268 136.694 127.076 136.006L126.73 135.609C125.936 136.294 125.101 136.966 124.273 137.613L124.601 138.024Z" fill="#FDF0F7"/>
<path d="M129.459 133.88C130.235 133.156 131.005 132.406 131.747 131.65L131.368 131.277C130.632 132.027 129.868 132.773 129.096 133.489L129.459 133.88Z" fill="#FDF0F7"/>
<path d="M151.128 70.0787L151.654 69.9993C151.493 68.9455 151.306 67.8858 151.102 66.8499L150.58 66.9531C150.782 67.9811 150.969 69.0329 151.128 70.0787Z" fill="#FDF0F7"/>
<path d="M147.379 107.701C147.776 106.709 148.149 105.704 148.5 104.7L148.004 104.526C147.659 105.518 147.284 106.524 146.893 107.502L147.379 107.701Z" fill="#FDF0F7"/>
<path d="M148.117 57.7629L148.621 57.5922C148.28 56.5861 147.908 55.576 147.523 54.5897L147.027 54.7881C147.408 55.7625 147.777 56.7647 148.117 57.7629Z" fill="#FDF0F7"/>
<path d="M149.896 63.8632L150.412 63.7362C150.162 62.7063 149.882 61.6684 149.586 60.6483L149.074 60.7972C149.37 61.8013 149.646 62.8333 149.896 63.8632Z" fill="#FDF0F7"/>
<path d="M152.346 76.3537C152.278 75.2999 152.185 74.2303 152.068 73.1685L151.54 73.2281C151.655 74.2799 151.738 75.3436 151.816 76.3894L152.346 76.3537Z" fill="#FDF0F7"/>
<path d="M151.046 95.4386C151.259 94.3987 151.443 93.341 151.618 92.2912L151.092 92.2079C150.927 93.2497 150.737 94.2995 150.526 95.3315L151.046 95.4386Z" fill="white"/>
<path d="M152.046 89.1239C152.166 88.0702 152.261 86.9985 152.334 85.9487L151.802 85.913C151.731 86.9648 151.636 88.0265 151.517 89.0743L152.046 89.1239Z" fill="white"/>
<path d="M152.479 82.7438C152.505 81.6841 152.505 80.6084 152.479 79.5487L151.947 79.5587C151.969 80.6104 151.967 81.6781 151.947 82.7339L152.479 82.7438Z" fill="white"/>
<path d="M101.198 119.267C98.5903 114.793 91.2476 113.827 95.1154 110.995C95.0063 111.073 96.5978 109.677 96.9848 109.239C97.1495 109.054 97.2666 108.929 97.3639 108.828C97.4194 108.723 97.4869 108.598 97.5861 108.431C97.7489 108.145 98.368 106.56 98.1815 107.223C98.3513 106.708 98.4925 106.184 98.6042 105.653C98.6518 105.383 98.6855 105.192 98.7113 105.069C98.7391 104.762 98.7729 104.454 98.7927 104.145C98.8364 103.313 98.876 102.482 98.886 101.648C98.9078 99.8164 98.886 97.9847 98.886 96.153C98.886 93.732 99.6798 91.8328 100.934 90.4417C98.6697 88.9811 96.2148 88.7886 95.3297 90.0448L95.0182 90.4833L93.629 92.44L93.5477 92.5551L92.5157 91.8268L93.883 89.886L95.2722 87.9154L96.3915 86.3278C97.3202 85.0101 96.1692 82.6009 93.8295 80.9498C91.4897 79.2987 88.8305 79.0228 87.9018 80.3386L86.7825 81.9262L85.3933 83.8968L84.026 85.8376L82.9921 85.1093L89.2413 76.2505C89.2909 76.181 89.3465 76.1215 89.3961 76.052L97.598 64.399C99.1003 62.2677 98.4156 59.1997 96.0739 57.5485C93.7322 55.8974 90.6106 56.2804 89.1083 58.4098L80.8925 70.0569C80.8429 70.1283 80.8032 70.1997 80.7595 70.2752H80.7456L62.6708 95.907L57.8961 105.264L56.5566 79.3741C57.2809 76.3239 57.7334 73.365 55.2091 71.5869C53.9981 70.7334 52.4978 70.3957 51.038 70.648C49.5781 70.9003 48.2782 71.722 47.4239 72.9324L45.9395 94.623C45.9395 94.623 43.441 100.545 45.1774 109.802L49.2476 117.99C49.4243 165.188 52.1569 149.016 49.4243 152.815L83.9407 156.722C84.919 152.815 84.1391 133.724 84.1391 133.724C85.5283 133.281 89.4616 132.094 91.4421 131.052C92.3867 130.554 93.9426 129.56 95.8279 127.236C99.2452 122.551 102.057 120.731 101.198 119.267Z" fill="#EDBDA9"/>
<path d="M113.015 50.059C110.669 48.406 107.552 48.7909 106.047 50.9223L97.8335 62.5673C97.7819 62.6408 97.7422 62.7102 97.6985 62.7856L97.6866 62.7757L79.5979 88.4194L79.5205 88.3639L79.5681 88.6715C80.1794 92.4579 80.4532 96.8615 81.7848 100.525L81.7987 100.539L81.8483 100.565C81.8721 100.404 82.0865 100.596 82.2055 100.753L82.277 100.793L82.4913 100.856C82.9914 101.019 83.4955 101.166 84.0035 101.297L84.1146 101.323V101.311C84.6723 100.549 85.226 99.7867 85.7677 99.0147C89.1414 94.2261 92.2531 89.2648 95.2159 84.2024C96.6765 81.6979 98.9012 80.3802 101.247 80.0349C101.168 79.3535 101.163 78.6655 101.231 77.983L100.959 78.3501L99.9271 77.6218L102.489 73.9842C102.747 73.534 103.047 73.1088 103.384 72.7141L106.174 68.757C106.224 68.6875 106.28 68.628 106.329 68.5586L114.537 56.9175C116.041 54.7782 115.355 51.7101 113.015 50.059Z" fill="#EDBDA9"/>
<path fill-rule="evenodd" clip-rule="evenodd" d="M105.423 119.767C105.413 120.499 105.114 121.197 104.591 121.71C104.069 122.223 103.365 122.508 102.633 122.505H59.2238C58.4917 122.508 57.788 122.223 57.2655 121.71C56.743 121.197 56.444 120.499 56.4336 119.767V32.6073C56.4435 31.875 56.7423 31.1762 57.2648 30.6629C57.7873 30.1497 58.4914 29.8635 59.2238 29.8667H102.633C103.365 29.8635 104.069 30.1497 104.592 30.6629C105.114 31.1762 105.413 31.875 105.423 32.6073V119.767Z" fill="#123544"/>
<path fill-rule="evenodd" clip-rule="evenodd" d="M100.956 40.0948H99.7827H97.5402H94.9901H92.8607H92.7159H89.8622H82.6862H80.1996H77.6475H75.2602H71.6802H69.4575H62.4443H62.1903H59.9637H58.6837V49.9757L58.6797 49.9717V52.6329L58.6837 52.6369V59.9776L58.6817 68.8681H58.6797V71.065H58.6817V93.1267H58.6797V95.1231H58.6817L58.6797 105.319V107.981V107.983V114.621H58.8384H61.1365H66.2327H69.134H69.4575H71.3368H71.6802H73.8829H74.2064H76.1433H82.9323H83.0414H85.4645H91.4815H93.9522H94.4979H97.4529H103.174V108.532V104.46V103.492V102.261V99.868V98.8242V96.1134V71.065V68.8681V63.0635V59.9776V46.8283V44.3794V40.0948H100.956Z" fill="white"/>
<path d="M92.3033 141.892H36.8027V199.998H92.3033V141.892Z" fill="white"/>
<path d="M81.6822 149.473C82.1814 149.501 82.6777 149.38 83.1084 149.127C83.5391 148.873 83.885 148.497 84.1021 148.047C84.3193 147.596 84.3981 147.092 84.3286 146.597C84.2591 146.102 84.0443 145.638 83.7115 145.265C83.3786 144.892 82.9427 144.626 82.4587 144.501C81.9747 144.376 81.4644 144.397 80.9924 144.561C80.5203 144.726 80.1076 145.027 79.8066 145.426C79.5055 145.825 79.3295 146.304 79.3008 146.803C79.2634 147.473 79.4932 148.13 79.9396 148.63C80.386 149.131 81.0127 149.434 81.6822 149.473Z" fill="#123544"/>
<path d="M94.6471 152.334H33.3994V200H94.6471V152.334Z" fill="#123544"/>
<path d="M73.3098 123.96C73.4805 123.267 73.6313 122.571 73.7504 121.882C73.6253 121.509 74.0064 114.113 65.3777 108.07C61.3849 105.272 56.6757 105.887 54.5186 106.085V123.946L73.3098 123.96Z" fill="#EDBDA9"/>
<path d="M111.386 98.6634C111.941 100.761 110.753 102.894 108.731 103.426L99.4331 105.895C97.4109 106.431 95.3212 105.165 94.7656 103.069C94.2099 100.973 95.3986 98.8381 97.4209 98.3062L106.726 95.8395C108.748 95.3037 110.838 96.5678 111.394 98.6634H111.386Z" fill="#EDBDA9"/>
<path d="M111.183 89.4633C111.721 91.6463 110.511 93.8173 108.479 94.3194L99.1514 96.6234C97.1193 97.1235 95.0356 95.7641 94.4978 93.5831C93.96 91.4002 95.1705 89.2291 97.2027 88.729L106.53 86.425C108.562 85.923 110.648 87.2843 111.183 89.4633Z" fill="#EDBDA9"/>
<path d="M110.377 77.215C111.489 79.5864 110.695 82.3191 108.574 83.3113L98.8495 87.8936C96.734 88.8858 94.1125 87.7745 92.9952 85.401C91.878 83.0295 92.6837 80.2969 94.7992 79.3007L104.523 74.7184C106.637 73.7262 109.26 74.8375 110.377 77.211V77.215Z" fill="#EDBDA9"/>
<path d="M141.213 35.4015H69.7593C67.9344 35.4015 66.4551 36.8809 66.4551 38.7057V73.3273C66.4551 75.1522 67.9344 76.6315 69.7593 76.6315H141.213C143.038 76.6315 144.517 75.1522 144.517 73.3273V38.7057C144.517 36.8809 143.038 35.4015 141.213 35.4015Z" fill="#FFD11D"/>
<path d="M84.699 59.1758C81.0296 59.1758 78.043 56.3975 78.043 52.9723V47.9971C78.043 44.5759 81.0197 42.8037 84.699 42.8037C88.3782 42.8037 91.351 44.5759 91.351 47.9971V52.9723C91.357 56.3936 88.3723 59.1758 84.699 59.1758ZM84.699 44.8239C82.0576 44.8239 79.9084 45.8837 79.9084 48.3008V52.7719C79.9084 55.189 82.0576 57.1556 84.699 57.1556C87.3404 57.1556 89.4876 55.189 89.4876 52.7719V48.3008C89.4935 45.8837 87.3443 44.8239 84.699 44.8239Z" fill="#123544"/>
<path d="M93.3986 52.1944H75.7365C75.6691 52.1944 75.6016 52.1944 75.5381 52.2043V64.9468H93.3986V52.1944Z" fill="#F76031"/>
<path d="M93.3966 64.9448H75.54V65.7743H93.3966V64.9448Z" fill="#123544"/>
<path d="M85.1474 55.2485H83.79V56.5325H85.1474V55.2485Z" fill="white"/>
<path d="M82.4307 55.2485H81.0713V56.5325H82.4307V55.2485Z" fill="white"/>
<path d="M87.8662 55.2485H86.5068V56.5325H87.8662V55.2485Z" fill="white"/>
<path d="M85.1474 57.8125H83.79V59.0965H85.1474V57.8125Z" fill="white"/>
<path d="M82.4307 57.8125H81.0713V59.0965H82.4307V57.8125Z" fill="white"/>
<path d="M87.8662 57.8125H86.5068V59.0965H87.8662V57.8125Z" fill="white"/>
<path d="M85.1474 60.3765H83.79V61.6604H85.1474V60.3765Z" fill="white"/>
<path d="M82.4307 60.3765H81.0713V61.6604H82.4307V60.3765Z" fill="white"/>
<path d="M87.8662 60.3765H86.5068V61.6604H87.8662V60.3765Z" fill="white"/>
<path d="M73.7598 85.6114V75.3178H84.9504L73.7598 85.6114Z" fill="#FFD11D"/>
<path d="M135.381 65.7743H99.6201V56.078H135.381V65.7743Z" fill="white"/>
<path d="M135.381 54.2642H99.6201V44.5679H135.381V54.2642Z" fill="white"/>
<path d="M109.403 61.1881C109.404 61.3947 109.343 61.5967 109.228 61.7686C109.114 61.9405 108.951 62.0746 108.76 62.1539C108.569 62.2332 108.359 62.2542 108.157 62.2141C107.954 62.1741 107.768 62.0748 107.622 61.9289C107.476 61.783 107.376 61.597 107.336 61.3945C107.295 61.1919 107.316 60.982 107.395 60.7911C107.474 60.6003 107.607 60.4371 107.779 60.3223C107.951 60.2075 108.153 60.1463 108.359 60.1463C108.496 60.146 108.632 60.1728 108.759 60.225C108.885 60.2772 109 60.3539 109.097 60.4507C109.194 60.5475 109.271 60.6624 109.324 60.789C109.376 60.9155 109.403 61.0511 109.403 61.1881Z" fill="#123544"/>
<path d="M113.179 61.1881C113.179 61.3947 113.118 61.5968 113.003 61.7688C112.889 61.9408 112.726 62.0749 112.535 62.1541C112.344 62.2334 112.134 62.2542 111.932 62.214C111.729 62.1738 111.543 62.0743 111.397 61.9282C111.25 61.7821 111.151 61.5959 111.111 61.3933C111.071 61.1906 111.091 60.9805 111.171 60.7897C111.25 60.5989 111.384 60.4359 111.556 60.3214C111.728 60.2068 111.93 60.1459 112.137 60.1463C112.413 60.1463 112.678 60.256 112.873 60.4514C113.069 60.6468 113.179 60.9118 113.179 61.1881Z" fill="#123544"/>
<path d="M116.955 61.1881C116.955 61.3947 116.894 61.5968 116.78 61.7688C116.665 61.9408 116.502 62.0749 116.311 62.1541C116.121 62.2334 115.911 62.2542 115.708 62.214C115.505 62.1738 115.319 62.0743 115.173 61.9282C115.027 61.7821 114.927 61.5959 114.887 61.3933C114.847 61.1906 114.868 60.9805 114.947 60.7897C115.026 60.5989 115.16 60.4359 115.332 60.3214C115.504 60.2068 115.706 60.1459 115.913 60.1463C116.189 60.1463 116.454 60.256 116.65 60.4514C116.845 60.6468 116.955 60.9118 116.955 61.1881Z" fill="#123544"/>
<path d="M120.731 61.1881C120.732 61.3947 120.671 61.5967 120.556 61.7686C120.442 61.9405 120.279 62.0746 120.088 62.1539C119.898 62.2332 119.688 62.2542 119.485 62.2141C119.282 62.1741 119.096 62.0748 118.95 61.9289C118.804 61.783 118.704 61.597 118.664 61.3945C118.623 61.1919 118.644 60.982 118.723 60.7911C118.802 60.6002 118.936 60.4371 119.107 60.3223C119.279 60.2075 119.481 60.1463 119.687 60.1463C119.964 60.1463 120.229 60.256 120.425 60.4513C120.621 60.6466 120.731 60.9116 120.731 61.1881Z" fill="#123544"/>
<path d="M124.506 61.1881C124.506 61.3947 124.445 61.5968 124.331 61.7688C124.216 61.9408 124.053 62.0749 123.862 62.1541C123.671 62.2334 123.461 62.2542 123.259 62.214C123.056 62.1738 122.87 62.0743 122.724 61.9282C122.578 61.7821 122.478 61.5959 122.438 61.3933C122.398 61.1906 122.419 60.9805 122.498 60.7897C122.577 60.5989 122.711 60.4359 122.883 60.3214C123.055 60.2068 123.257 60.1459 123.464 60.1463C123.74 60.1463 124.005 60.256 124.201 60.4514C124.396 60.6468 124.506 60.9118 124.506 61.1881Z" fill="#123544"/>
<path d="M128.282 61.1881C128.282 61.3947 128.222 61.5967 128.107 61.7686C127.993 61.9405 127.83 62.0746 127.639 62.1539C127.448 62.2332 127.238 62.2542 127.036 62.2141C126.833 62.1741 126.647 62.0748 126.501 61.9289C126.355 61.783 126.255 61.597 126.215 61.3945C126.174 61.1919 126.195 60.982 126.274 60.7911C126.353 60.6003 126.486 60.4371 126.658 60.3223C126.83 60.2075 127.032 60.1463 127.238 60.1463C127.375 60.146 127.511 60.1728 127.637 60.225C127.764 60.2772 127.879 60.3539 127.976 60.4507C128.073 60.5475 128.15 60.6624 128.203 60.789C128.255 60.9155 128.282 61.0511 128.282 61.1881Z" fill="#123544"/>
<path opacity="0.3" d="M97.1512 79.8186C97.8356 80.74 98.4493 81.7118 98.9869 82.7259C99.3907 83.5391 99.7079 84.3925 99.9335 85.272L96.9091 86.816C96.9091 86.816 95.6172 86.2345 94.742 84.3889C93.9066 82.6187 94.1268 81.3606 94.1268 81.3606L97.1512 79.8186Z" fill="white"/>
<path opacity="0.3" d="M50.4281 74.2819C50.4281 74.2819 49.4061 73.1368 47.4513 73.0535H47.3898C47.3223 74.2203 47.0346 78.4374 46.9473 79.8186H47.0068C48.162 79.7871 49.3101 79.6274 50.4301 79.3423L50.4281 74.2819Z" fill="white"/>
<path opacity="0.3" d="M99.6695 89.3303C100.157 90.3008 100.564 91.3097 100.886 92.3468C101.115 93.1761 101.248 94.0291 101.283 94.8889L97.8854 95.8712C97.8854 95.8712 96.7086 95.127 96.2304 93.2557C95.7759 91.4696 96.278 90.3146 96.278 90.3146L99.6695 89.3303Z" fill="white"/>
<path opacity="0.3" d="M99.2309 99.0008C99.6783 99.9155 100.054 100.864 100.354 101.837C100.573 102.614 100.706 103.412 100.751 104.218L97.7445 105.089C97.7445 105.089 96.6868 104.375 96.2363 102.623C95.8057 100.942 96.2363 99.876 96.2363 99.876L99.2309 99.0008Z" fill="white"/>
</g>
<defs>
<clipPath id="clip0_420_1193">
<rect width="161.854" height="200" fill="white"/>
</clipPath>
</defs>
</svg>
