<svg width="249" height="176" viewBox="0 0 249 176" fill="none" xmlns="http://www.w3.org/2000/svg">
<g clip-path="url(#clip0_420_546)">
<path d="M248.887 66.7989C247.65 42.6356 220.485 23.4714 186.282 21.1838C184.387 21.0565 182.623 20.3928 181.343 19.3239C166.392 6.86687 143.286 -0.755554 117.752 0.0588625C89.6102 0.954525 65.4548 11.8777 52.4388 27.5327C51.3787 28.8052 49.7156 29.7234 47.7941 30.0944C26.8238 34.1508 11.6691 47.4859 12.0606 62.8971C4.44699 70.5763 0 79.8384 0 89.8091C0 113.987 26.1612 134.005 60.2198 137.382C62.107 137.569 63.8357 138.289 65.0593 139.396C79.3605 152.317 102.06 160.67 127.609 160.67C155.774 160.67 180.468 150.525 194.274 135.297C195.399 134.057 197.107 133.195 199.047 132.885C220.48 129.459 236.44 116.329 236.44 100.654C236.439 99.2023 236.301 97.754 236.027 96.3283C244.619 87.9698 249.448 77.7221 248.887 66.7989Z" fill="#FDF0F7"/>
<path d="M154.047 64.2929C150.939 67.5642 151.766 66.5002 149.442 68.9102L147.298 70.9501L146.941 71.2888L146.673 71.5443L145.421 72.7346L144.388 73.7135L138.77 79.059C138.531 79.3096 127.768 88.0127 127.768 88.0127C126.922 88.5618 126.288 89.3821 125.97 90.3391C125.651 91.296 125.668 92.3327 126.017 93.279L136.332 121.24L136.453 121.569C136.538 121.798 136.603 122.034 136.649 122.274C136.723 122.664 136.745 123.061 136.714 123.456C136.705 123.579 136.69 123.701 136.67 123.822C136.612 124.182 136.51 124.534 136.364 124.869C136.24 125.156 136.086 125.428 135.905 125.682C134.917 127.053 133.828 128.349 132.648 129.558C131.476 130.764 130.24 131.905 128.944 132.975C127.671 134.027 126.229 135.121 124.59 136.223C123.939 136.663 123.252 137.104 122.535 137.547C122.512 137.56 122.49 137.575 122.468 137.59C121.941 137.927 121.49 138.372 121.146 138.895C120.802 139.418 120.572 140.007 120.471 140.625L120.374 141.236L115.351 172.099C115.351 172.124 115.343 172.151 115.337 172.181V172.192C115.239 172.829 114.967 174.774 114.797 176H71.9295C71.8972 174.479 72.8809 171.621 73.7825 169.56L92.2684 127.281C92.508 126.733 92.6346 126.142 92.6404 125.544C92.6463 124.946 92.5314 124.354 92.3026 123.801C91.0604 120.818 88.8766 113.759 90.0082 102.773C90.2039 100.865 90.3282 99.0896 90.3997 97.4412C90.4085 97.2346 90.4154 97.032 90.4232 96.8303C90.5426 93.1968 90.386 90.2103 90.1246 87.8453C90.0268 86.9546 89.8554 85.8289 89.6577 84.6768L89.6489 84.618C89.2388 82.2257 88.719 79.7296 88.5056 78.9827C88.3576 78.4735 88.3193 77.9387 88.3932 77.4136C88.4671 76.8885 88.6516 76.385 88.9343 75.9365C88.949 75.912 88.9637 75.8885 88.9794 75.866C88.995 75.8435 89.0097 75.819 89.0264 75.7955C89.1289 75.6491 89.2425 75.5107 89.366 75.3814C90.4966 74.196 92.239 72.8902 96.3512 78.4854C96.8406 79.153 97.3682 79.9214 97.9291 80.7975C98.1758 81.1812 98.4287 81.5865 98.6877 82.0133C98.7725 82.1507 98.8643 82.2837 98.9628 82.4117C105.381 90.6978 136.943 66.9818 144.137 61.3758L144.392 61.1801C144.733 60.9138 145.077 60.6466 145.425 60.3872C145.832 60.0818 146.248 59.7871 146.675 59.517C146.764 59.4602 146.853 59.4054 146.943 59.3525C147.061 59.282 147.18 59.2145 147.3 59.1479C147.7 58.9242 148.117 58.7317 148.547 58.5724C151.849 57.3615 153.339 58.1759 154.049 59.0129C154.76 59.8498 155.466 62.7991 154.047 64.2929Z" fill="#FAB36F"/>
<path d="M140.006 27.9329H103.286C99.4551 27.9329 96.3496 31.0384 96.3496 34.8691V116.889C96.3496 120.72 99.4551 123.825 103.286 123.825H140.006C143.837 123.825 146.942 120.72 146.942 116.889V34.8691C146.942 31.0384 143.837 27.9329 140.006 27.9329Z" fill="#5A22B6"/>
<path d="M96.4777 38.8521H96.6138V44.4503H96.4738C96.344 44.4503 96.2195 44.3987 96.1277 44.3069C96.0359 44.2151 95.9844 44.0906 95.9844 43.9608V39.3367C95.9857 39.207 96.0383 39.0832 96.1308 38.9924C96.2233 38.9015 96.3481 38.8511 96.4777 38.8521Z" fill="#270C62"/>
<path d="M96.5834 55.8638H96.6138V64.1842H96.5795C96.4238 64.1842 96.2744 64.1223 96.1642 64.0122C96.0541 63.902 95.9922 63.7526 95.9922 63.5969V56.4551C95.9917 56.3773 96.0066 56.3002 96.0361 56.2282C96.0657 56.1562 96.1092 56.0909 96.1642 56.0359C96.2192 55.9808 96.2846 55.9373 96.3566 55.9078C96.4285 55.8783 96.5056 55.8633 96.5834 55.8638Z" fill="#270C62"/>
<path d="M96.5834 64.752H96.6138V73.0723H96.5795C96.4237 73.0723 96.2743 73.0104 96.1642 72.9003C96.0541 72.7901 95.9922 72.6408 95.9922 72.485V65.3422C95.9922 65.1864 96.0541 65.0371 96.1642 64.9269C96.2743 64.8168 96.4237 64.7549 96.5795 64.7549L96.5834 64.752Z" fill="#270C62"/>
<path d="M145.806 116.889V34.8691C145.806 31.6487 143.195 29.038 139.975 29.038L103.254 29.038C100.034 29.038 97.4233 31.6487 97.4233 34.8691V116.889C97.4233 120.11 100.034 122.72 103.254 122.72H139.975C143.195 122.72 145.806 120.11 145.806 116.889Z" fill="#270C62"/>
<path d="M144.33 116.889V34.8691C144.33 32.464 142.38 30.5142 139.975 30.5142L103.255 30.5142C100.85 30.5142 98.9 32.464 98.9 34.8691V116.889C98.9 119.294 100.85 121.244 103.255 121.244H139.975C142.38 121.244 144.33 119.294 144.33 116.889Z" fill="white"/>
<path d="M137.244 101.41C137.237 101.66 137.262 101.909 137.318 102.152C137.892 104.616 139.275 104.843 140.95 104.904C141.11 104.904 141.261 104.904 141.404 104.898C142.458 104.832 143.173 104.364 144.362 103.473L150.776 96.1442C151.98 94.6582 152.076 92.5292 150.936 90.9943C150.616 90.5662 150.217 90.2033 149.761 89.9254C147.992 88.8311 145.681 89.2402 144.335 90.824L138.525 98.4102C137.831 99.2325 137.27 100.334 137.244 101.41Z" fill="#FAB36F"/>
<path d="M138.014 113.4C138.543 116.253 140.546 116.924 142.125 116.988C142.686 117.009 143.245 116.905 143.761 116.685C144.277 116.465 144.739 116.134 145.113 115.716L149.442 110.909C149.784 110.53 150.046 110.087 150.214 109.605C150.382 109.123 150.453 108.612 150.421 108.103C150.285 105.992 149.395 104.898 148.372 104.348C146.885 103.548 145.044 103.877 143.861 105.087L139.041 110.037C138.613 110.475 138.297 111.008 138.118 111.593C137.939 112.178 137.904 112.798 138.014 113.4Z" fill="#FAB36F"/>
<path d="M88.3936 78.9817C88.6099 79.7344 89.1356 82.2648 89.5477 84.6758C90.4061 84.2079 91.4956 82.5223 90.3219 78.7096C89.7983 77.0073 89.4087 76.4504 88.8683 75.865C88.5679 76.319 88.3699 76.8329 88.2879 77.3711C88.2059 77.9093 88.242 78.4588 88.3936 78.9817Z" fill="#F5CEA6"/>
<path d="M138.014 113.4C138.543 116.253 140.546 116.924 142.125 116.988C142.125 116.988 146.028 112.779 143.736 111.017C141.445 109.255 138.014 113.4 138.014 113.4Z" fill="#F5CEA6"/>
<path d="M137.244 101.41C137.237 101.66 137.262 101.909 137.318 102.152C137.892 104.616 139.275 104.843 140.95 104.904C141.11 104.904 141.261 104.904 141.404 104.898L141.906 104.221C141.906 104.221 145.808 100.012 143.517 98.2497C141.225 96.4877 137.793 100.63 137.793 100.63L137.244 101.41Z" fill="#F5CEA6"/>
<g opacity="0.31">
<path d="M96.3737 129.993C96.3248 129.938 94.3827 127.807 93.5125 128.783C92.8048 129.581 76.7034 162.841 74.5137 175.996H71.9295C71.8972 174.475 72.8809 171.617 73.7825 169.556L92.2684 127.281C92.508 126.733 92.6346 126.142 92.6404 125.544C92.6463 124.946 92.5314 124.353 92.3026 123.801C91.0604 120.818 88.8766 113.759 90.0082 102.773C90.2039 100.865 90.3282 99.0895 90.3997 97.4411C90.8147 100.759 90.5955 106.138 90.7629 110.298C91.0722 118.146 92.1548 120.914 93.4058 122.295L96.3737 129.993Z" fill="white"/>
</g>
<g style="mix-blend-mode:multiply">
<path d="M122.469 137.594C121.942 137.931 121.491 138.376 121.147 138.899C120.803 139.421 120.573 140.011 120.472 140.629L120.374 141.24L115.351 172.103L115.341 172.185V172.196L114.88 176H112.223L119.16 143.072C119.301 142.148 119.217 141.203 118.915 140.318L115.963 139.134L122.469 137.594Z" fill="#E9E9E9"/>
</g>
<path d="M163.854 31.9825C163.856 34.3165 163.397 36.6281 162.503 38.7841C161.609 40.9401 160.297 42.898 158.643 44.5452L149.682 53.4686C149.407 53.7414 149.035 53.8946 148.648 53.8946C148.26 53.8946 147.889 53.7414 147.613 53.4686L138.642 44.554C136.986 42.9089 135.672 40.9525 134.775 38.7975C133.879 36.6424 133.417 34.3313 133.417 31.9972V19.0565H136.317C140.103 19.0567 143.747 17.6174 146.51 15.0305L148.606 13.0679V13.0248L148.63 13.0463L148.64 13.0355L148.653 13.0248V13.0679L150.751 15.0256C153.518 17.6086 157.163 19.0432 160.949 19.0389H163.844L163.854 31.9825Z" fill="#7832FD"/>
<path d="M159.241 23.3998H157.222C154.581 23.403 152.038 22.4018 150.108 20.5992L148.639 19.2288V19.1985L148.623 19.2141L148.607 19.1985V19.2288L147.145 20.5992C145.218 22.4043 142.677 23.4096 140.037 23.4115H138.017V32.4406C138.017 34.0691 138.339 35.6815 138.964 37.1851C139.59 38.6886 140.507 40.0536 141.662 41.2014L147.921 47.4202C148.112 47.6105 148.372 47.7174 148.642 47.7174C148.912 47.7174 149.171 47.6105 149.363 47.4202L155.615 41.1946C156.769 40.0455 157.684 38.6795 158.308 37.1753C158.932 35.6711 159.252 34.0583 159.25 32.4298L159.241 23.3998Z" fill="#5A22B6"/>
<path d="M156.321 30.2538L155.281 28.1982C155.235 28.1097 155.168 28.0344 155.085 27.9792C155.002 27.924 154.907 27.8907 154.807 27.8826C154.708 27.8745 154.608 27.8917 154.518 27.9327C154.427 27.9737 154.348 28.0371 154.289 28.1169C154.289 28.1169 148.643 35.7227 148.484 35.7374C148.324 35.7521 145.617 33.3548 145.617 33.3548C145.535 33.2793 145.433 33.2288 145.323 33.2092C145.213 33.1896 145.099 33.2018 144.996 33.2442L143.59 33.8316C143.499 33.8703 143.419 33.9315 143.358 34.0093C143.297 34.0872 143.256 34.1792 143.24 34.2768C143.224 34.3745 143.233 34.4746 143.266 34.5679C143.299 34.6612 143.355 34.7446 143.429 34.8104L147.644 38.5066L148.389 39.1801C148.447 39.2321 148.515 39.2719 148.589 39.2974C148.662 39.3229 148.74 39.3334 148.818 39.3284C148.896 39.3234 148.972 39.3029 149.042 39.2682C149.112 39.2335 149.174 39.1852 149.225 39.1262L156.242 30.9038C156.318 30.8154 156.367 30.7065 156.381 30.5907C156.394 30.475 156.374 30.3577 156.321 30.2538Z" fill="white"/>
<path d="M127.771 49.0529C127.771 46.685 127.862 44.2565 125.597 42.8068C123.63 41.5489 119.873 41.6791 118.098 43.1983C116.274 44.7577 116.44 46.9356 116.44 49.0931V55.4723C116.44 56.4943 118.029 56.4962 118.029 55.4723C118.029 52.6424 117.862 49.7626 118.029 46.9376C118.2 44.0294 120.62 43.4802 123.015 43.6564C126.245 43.8953 126.182 46.64 126.182 49.0529C126.182 50.0748 127.771 50.0758 127.771 49.0529Z" fill="#270C62"/>
<path d="M127.527 51.7575H116.682C115.986 51.7575 115.318 52.0341 114.826 52.5264C114.333 53.0188 114.057 53.6865 114.057 54.3828V61.5364C114.057 63.2114 114.722 64.8178 115.906 66.0022C117.091 67.1866 118.697 67.852 120.372 67.852H123.836C125.511 67.8517 127.117 67.1862 128.302 66.0019C129.486 64.8175 130.151 63.2112 130.151 61.5364V54.3828C130.151 53.6867 129.875 53.0191 129.383 52.5268C128.89 52.0345 128.223 51.7578 127.527 51.7575Z" fill="#7832FD"/>
<path d="M122.105 59.8048C123.04 59.8048 123.799 59.0461 123.799 58.1103C123.799 57.1745 123.04 56.4159 122.105 56.4159C121.169 56.4159 120.41 57.1745 120.41 58.1103C120.41 59.0461 121.169 59.8048 122.105 59.8048Z" fill="white"/>
<path d="M122.74 58.958H121.468L120.684 62.899C120.677 62.9346 120.678 62.9713 120.687 63.0066C120.696 63.0418 120.712 63.0746 120.735 63.1027C120.758 63.1308 120.787 63.1534 120.82 63.169C120.853 63.1845 120.889 63.1926 120.925 63.1926H123.291C123.327 63.1926 123.363 63.1845 123.396 63.169C123.429 63.1534 123.458 63.1308 123.481 63.1027C123.504 63.0746 123.521 63.0418 123.529 63.0066C123.538 62.9713 123.539 62.9346 123.532 62.899L122.74 58.958Z" fill="white"/>
<path d="M130.979 96.1207H113.23C111.283 96.1207 109.704 97.6992 109.704 99.6465V100.714C109.704 102.661 111.283 104.239 113.23 104.239H130.979C132.926 104.239 134.505 102.661 134.505 100.714V99.6465C134.505 97.6992 132.926 96.1207 130.979 96.1207Z" fill="#7832FD"/>
<path d="M114.461 98.0001H115.566L116.334 100.457L117.093 98.0001H118.164L116.891 101.414H115.748L114.461 98.0001Z" fill="white"/>
<path d="M120.949 100.413H119.049C119.055 100.536 119.098 100.655 119.172 100.753C119.216 100.805 119.271 100.847 119.333 100.875C119.395 100.902 119.463 100.916 119.531 100.913C119.624 100.914 119.715 100.89 119.796 100.844C119.86 100.803 119.917 100.75 119.961 100.688L120.895 100.774C120.777 100.998 120.598 101.183 120.378 101.309C120.177 101.416 119.887 101.47 119.51 101.47C119.245 101.482 118.981 101.435 118.737 101.332C118.542 101.233 118.38 101.08 118.27 100.892C118.143 100.677 118.078 100.431 118.084 100.182C118.077 100.008 118.107 99.835 118.171 99.6733C118.235 99.5116 118.332 99.3651 118.456 99.2433C118.704 99.0044 119.046 98.885 119.482 98.885C119.77 98.8717 120.058 98.9268 120.321 99.0455C120.521 99.1488 120.684 99.3116 120.789 99.5115C120.905 99.7594 120.96 100.032 120.949 100.305V100.413ZM119.985 99.9588C119.982 99.8153 119.929 99.6772 119.837 99.5673C119.79 99.5244 119.734 99.4918 119.674 99.4716C119.613 99.4513 119.549 99.4438 119.486 99.4495C119.422 99.4552 119.36 99.474 119.305 99.5047C119.249 99.5354 119.2 99.5774 119.161 99.628C119.095 99.7268 119.057 99.8419 119.051 99.9608L119.985 99.9588Z" fill="white"/>
<path d="M121.392 98.9408H122.278V99.346C122.337 99.2063 122.428 99.0822 122.543 98.9838C122.642 98.916 122.76 98.8817 122.879 98.886C123.041 98.8921 123.198 98.9368 123.339 99.0162L123.045 99.6916C122.961 99.6524 122.872 99.6289 122.78 99.6221C122.721 99.6191 122.663 99.6318 122.612 99.6588C122.56 99.6858 122.517 99.7262 122.486 99.7758C122.388 99.9206 122.339 100.19 122.339 100.586V101.41H121.387L121.392 98.9408Z" fill="white"/>
<path d="M123.534 98.0001H124.483V98.6452H123.534V98.0001ZM123.534 98.9408H124.483V101.41H123.534V98.9408Z" fill="white"/>
<path d="M126.143 98.9408H126.595V99.6348H126.143V101.41H125.193V99.6309H124.839V98.9368H125.193V98.8253C125.194 98.7136 125.205 98.6022 125.226 98.4924C125.242 98.3862 125.284 98.2854 125.348 98.1988C125.415 98.1168 125.501 98.0528 125.599 98.0128C125.751 97.9582 125.912 97.9339 126.073 97.9413C126.316 97.9472 126.557 97.9668 126.798 98.0001L126.693 98.5727C126.602 98.5564 126.51 98.5473 126.418 98.5453C126.353 98.5396 126.289 98.5547 126.234 98.5884C126.193 98.6233 126.165 98.6713 126.154 98.7244C126.144 98.7961 126.14 98.8685 126.143 98.9408Z" fill="white"/>
<path d="M126.671 98.9408H127.671L128.181 100.587L128.655 98.9408H129.59L128.611 101.584C128.499 101.885 128.386 102.089 128.269 102.195C128.105 102.343 127.853 102.419 127.517 102.419C127.305 102.412 127.094 102.393 126.884 102.362L126.809 101.701C126.957 101.746 127.111 101.768 127.265 101.766C127.361 101.77 127.457 101.744 127.536 101.689C127.62 101.616 127.681 101.521 127.712 101.414L126.671 98.9408Z" fill="white"/>
<path d="M135.414 80.5998H108.796C106.554 80.5998 104.736 82.4172 104.736 84.6591C104.736 86.9011 106.554 88.7185 108.796 88.7185H135.414C137.656 88.7185 139.473 86.9011 139.473 84.6591C139.473 82.4172 137.656 80.5998 135.414 80.5998Z" fill="#7832FD"/>
<g style="mix-blend-mode:multiply">
<path d="M136.367 124.873C136.243 125.16 136.089 125.433 135.908 125.687C134.919 127.058 133.83 128.353 132.65 129.562C131.479 130.767 130.242 131.908 128.946 132.978C127.558 130.198 125.967 126.968 124.472 123.826C124.225 123.304 123.981 122.788 123.739 122.278H134.807C135.117 122.804 135.425 123.321 135.73 123.826C135.945 124.182 136.157 124.532 136.367 124.873Z" fill="#E9E9E9"/>
</g>
<path d="M137.869 84.9831C137.869 85.0575 137.869 85.131 137.869 85.2024C138.004 88.5961 141.277 89.2765 141.277 89.2765C141.399 89.2765 141.514 89.2764 141.623 89.2676C142.689 89.2089 143.18 88.8536 144.578 87.955L151.317 81.5385C152.462 80.1798 152.729 78.2623 151.936 76.6716C151.273 75.3423 150.263 74.7501 149.271 74.524C147.768 74.1833 146.2 74.6904 145.124 75.7965L138.636 82.5663C137.869 83.6627 137.869 84.9831 137.869 84.9831Z" fill="#FAB36F"/>
<path d="M193.524 176H152.088C145.708 171.25 136.439 164.969 135.85 164.69C135.426 164.489 133.193 162.3 132.927 161.912C132.438 161.201 128.243 150.239 126.526 142.057C126.254 140.761 126.045 139.533 125.921 138.426C125.79 137.236 126.802 136.683 127.966 136.455C128.026 136.441 128.085 136.431 128.145 136.421H128.151C128.187 136.415 128.225 136.41 128.262 136.406C128.299 136.402 128.318 136.4 128.347 136.399C128.376 136.396 128.404 136.394 128.433 136.394H128.605C128.624 136.394 128.643 136.394 128.661 136.394C128.727 136.397 128.792 136.405 128.857 136.416L128.921 136.425C128.933 136.427 128.944 136.429 128.956 136.432L128.984 136.438H128.997L129.087 136.459L129.177 136.482L129.265 136.509L129.299 136.521L129.333 136.532L129.405 136.559C129.447 136.574 129.489 136.592 129.531 136.609C129.59 136.635 129.647 136.661 129.704 136.69C129.733 136.704 129.763 136.719 129.791 136.736L129.877 136.782C129.935 136.815 129.99 136.849 130.046 136.886C130.074 136.902 130.102 136.921 130.13 136.939C130.187 136.978 130.244 137.018 130.3 137.059C130.324 137.078 130.35 137.098 130.376 137.117C130.403 137.135 130.43 137.158 130.457 137.18C130.483 137.203 130.525 137.235 130.554 137.264C130.584 137.294 130.615 137.315 130.645 137.343L130.708 137.397L130.756 137.441C130.81 137.49 130.865 137.538 130.918 137.595L130.992 137.67C131.017 137.695 131.042 137.719 131.065 137.746C131.089 137.773 131.115 137.796 131.139 137.822C131.237 137.92 131.33 138.031 131.422 138.139C131.444 138.167 131.469 138.194 131.49 138.223C131.49 138.223 131.499 138.233 131.504 138.237L131.623 138.387C131.67 138.444 131.714 138.501 131.757 138.558L131.841 138.667L131.997 138.884C132.017 138.912 132.036 138.94 132.055 138.969C132.119 139.06 132.179 139.149 132.238 139.239L132.28 139.302C132.332 139.381 132.382 139.46 132.43 139.537C132.449 139.567 132.467 139.595 132.486 139.624C132.517 139.675 132.546 139.722 132.578 139.776C132.587 139.793 132.597 139.809 132.606 139.826C132.685 139.957 132.758 140.084 132.826 140.206L132.856 140.258C132.869 140.285 132.885 140.312 132.898 140.337L132.945 140.421C132.958 140.446 132.97 140.47 132.983 140.493C132.996 140.515 132.998 140.523 133.006 140.538L133.012 140.547C133.04 140.6 133.066 140.645 133.09 140.695L133.113 140.742C133.144 140.802 133.172 140.857 133.196 140.908C133.204 140.924 133.212 140.941 133.221 140.956C133.237 140.992 133.254 141.025 133.267 141.054C133.28 141.082 133.28 141.078 133.284 141.091C133.303 141.128 133.317 141.159 133.326 141.179C133.326 141.171 133.319 141.16 133.313 141.148C133.307 141.137 133.305 141.127 133.301 141.114C133.282 141.065 133.255 140.996 133.22 140.908L133.203 140.865C133.186 140.821 133.168 140.773 133.147 140.722C132.58 139.275 130.879 134.963 130.297 133.8C130.07 133.346 129.835 132.877 129.596 132.396C128.277 129.748 126.798 126.74 125.403 123.808C125.155 123.286 124.911 122.77 124.669 122.259C124.507 121.912 124.344 121.568 124.186 121.227C122.47 117.539 121.014 114.201 120.344 112.166C120.209 111.772 120.098 111.371 120.01 110.964C119.989 110.858 119.97 110.754 119.952 110.65C119.811 109.84 119.789 109.013 119.888 108.196C120.232 105.547 122.024 103.944 124.782 105.425C125.17 105.632 125.541 105.869 125.893 106.133C126.315 106.45 126.708 106.803 127.068 107.189C127.753 107.921 128.525 109.362 128.612 109.523C128.873 110.005 129.466 111.111 130.268 112.579C130.519 113.038 130.79 113.535 131.079 114.057C131.154 114.196 131.231 114.334 131.309 114.476C132.431 116.508 133.774 118.904 135.127 121.231C135.637 122.107 136.149 122.973 136.651 123.805C136.65 123.807 136.65 123.81 136.651 123.812C138.137 126.278 139.536 128.447 140.549 129.705C140.606 129.777 140.663 129.845 140.719 129.91C140.775 129.976 140.83 130.039 140.882 130.098C140.962 130.185 141.036 130.264 141.109 130.335C141.132 130.359 141.155 130.381 141.178 130.403C141.202 130.424 141.247 130.465 141.282 130.5C141.351 130.56 141.423 130.617 141.495 130.671C141.53 130.698 141.567 130.724 141.604 130.749L141.644 130.775C141.667 130.792 141.692 130.808 141.716 130.822C141.79 130.869 141.863 130.913 141.939 130.952C142.088 131.031 142.243 131.099 142.403 131.157C142.463 131.18 142.524 131.199 142.585 131.219H142.593L142.68 131.244L142.731 131.259H142.75C142.759 131.262 142.767 131.265 142.776 131.266L142.801 131.272C142.824 131.279 142.848 131.284 142.872 131.289C142.926 131.302 142.982 131.314 143.037 131.323C143.092 131.331 143.123 131.338 143.166 131.344L143.217 131.352C143.234 131.355 143.251 131.358 143.268 131.359L143.366 131.372H143.376L143.454 131.377L143.552 131.386C143.588 131.386 143.624 131.392 143.661 131.393H143.745H143.827H143.935C143.981 131.393 144.025 131.393 144.07 131.393H144.192C144.233 131.393 144.274 131.393 144.314 131.385H144.354L144.437 131.379C144.518 131.372 144.599 131.363 144.68 131.353C144.722 131.353 144.763 131.344 144.802 131.336C144.841 131.329 144.883 131.326 144.924 131.319C145.005 131.306 145.087 131.292 145.167 131.277C145.247 131.261 145.327 131.244 145.409 131.227L145.521 131.201C145.558 131.192 145.597 131.184 145.633 131.173C145.708 131.155 145.783 131.136 145.856 131.116L145.968 131.084C146.04 131.063 146.114 131.041 146.186 131.018L146.402 130.95C146.544 130.903 146.685 130.852 146.821 130.8C146.846 130.791 146.87 130.783 146.894 130.773C146.904 130.769 146.914 130.765 146.924 130.761L147.022 130.721L147.12 130.681C147.186 130.655 147.251 130.627 147.315 130.599L147.511 130.517L147.695 130.434L147.873 130.35C148.018 130.28 148.157 130.211 148.287 130.143C148.339 130.117 148.39 130.089 148.439 130.064C148.465 130.05 148.488 130.036 148.513 130.025L148.583 129.986C148.63 129.961 148.675 129.937 148.719 129.911L148.784 129.876L148.904 129.806L149.029 129.733C149.089 129.699 149.143 129.666 149.192 129.635L149.324 129.553C149.352 129.536 149.378 129.519 149.404 129.5C149.482 129.444 149.556 129.383 149.626 129.317C149.643 129.301 149.662 129.283 149.682 129.263L149.716 129.233L149.774 129.178L149.802 129.153C150.624 128.424 153.179 126.558 157.133 127.294C157.38 127.339 157.62 127.379 157.852 127.412C157.95 127.427 158.048 127.439 158.146 127.452L158.31 127.472C158.59 127.504 158.86 127.529 159.119 127.545L159.203 127.551H159.251H159.336C159.395 127.551 159.451 127.557 159.508 127.559H159.517C159.577 127.559 159.636 127.559 159.694 127.559C159.8 127.559 159.902 127.559 160.003 127.559H160.284C160.293 127.56 160.302 127.56 160.312 127.559H160.443H160.486L160.611 127.554C160.68 127.554 160.747 127.547 160.807 127.542H160.833L161.012 127.529L161.118 127.52C161.376 127.495 161.618 127.464 161.842 127.422L161.96 127.401L162.065 127.382C162.261 127.346 162.446 127.302 162.615 127.26L162.706 127.236H162.726L162.755 127.228C162.943 127.175 163.112 127.122 163.263 127.068L163.307 127.051C163.353 127.035 163.396 127.019 163.437 127.002L163.467 126.992H163.479L163.509 126.98L163.526 126.974C163.633 126.93 163.728 126.887 163.808 126.848C163.929 126.792 164.047 126.728 164.161 126.658L164.174 126.65C164.181 126.646 164.188 126.641 164.194 126.636L164.205 126.629H164.212C164.275 126.589 164.34 126.554 164.407 126.522C164.434 126.509 164.464 126.495 164.496 126.48L164.546 126.459L164.6 126.436C164.638 126.421 164.678 126.405 164.721 126.39C165.447 126.135 166.221 126.045 166.987 126.126C167.705 126.196 168.41 126.369 169.08 126.639C169.348 126.744 169.626 126.869 169.916 127.014C170.025 127.069 170.138 127.127 170.251 127.189C170.31 127.221 170.371 127.25 170.433 127.275C170.507 127.305 170.582 127.33 170.659 127.349L170.743 127.369L170.832 127.386H170.841L170.872 127.392C170.928 127.4 170.986 127.409 171.051 127.417L171.186 127.431L171.277 127.439H171.309H171.342H171.374H171.459H171.509H171.814C171.862 127.439 171.911 127.439 171.963 127.439L172.052 127.433C172.082 127.433 172.114 127.433 172.15 127.433H172.209L172.269 127.427H172.328C172.434 127.417 172.543 127.406 172.657 127.392C172.743 127.381 172.833 127.368 172.924 127.354L173.027 127.339L173.152 127.318C173.218 127.306 173.287 127.295 173.356 127.281C173.507 127.252 173.664 127.216 173.827 127.183C174.102 127.118 174.395 127.04 174.708 126.945C174.77 126.928 174.831 126.908 174.896 126.888H174.911C176.56 126.373 177.865 126.613 178.924 127.267C181.115 128.627 182.224 131.77 183.102 133.675C184.405 136.492 184.813 145.688 185.972 149.386C187.126 152.968 189.484 168.854 193.524 176Z" fill="#FAB36F"/>
<path d="M125.6 113.373C123.125 114.592 122.166 113.275 121.893 112.815C121.638 112.385 121.404 111.943 121.185 111.494C120.67 110.437 120.241 109.341 119.904 108.215C120.249 105.566 122.04 103.962 124.799 105.443C125.018 105.753 125.228 106.066 125.436 106.364C126.219 107.476 127.074 108.843 127.576 109.971C127.784 110.434 128.117 112.136 125.6 113.373Z" fill="#F5CEA6"/>
<g style="mix-blend-mode:multiply">
<path d="M149.832 129.176C149.19 130.191 148.447 131.251 147.287 131.971C146.658 132.358 145.96 132.62 145.232 132.743C143.028 133.134 141.252 130.772 140.58 129.72C140.775 129.969 140.987 130.204 141.213 130.424C141.346 130.549 141.488 130.663 141.639 130.766C141.652 130.775 141.666 130.784 141.679 130.793C141.774 130.857 141.872 130.916 141.973 130.969C142.122 131.049 142.277 131.118 142.436 131.176C142.497 131.197 142.557 131.218 142.619 131.236L142.717 131.264L142.787 131.283L142.837 131.295C142.861 131.302 142.885 131.307 142.909 131.313C143.007 131.334 143.105 131.353 143.202 131.369C143.421 131.402 143.641 131.42 143.861 131.423C143.942 131.423 144.023 131.423 144.104 131.423C144.185 131.423 144.267 131.423 144.349 131.413C144.39 131.413 144.43 131.407 144.471 131.403C144.552 131.397 144.634 131.388 144.715 131.377L144.837 131.362L144.959 131.343C145.04 131.33 145.121 131.317 145.201 131.301C145.282 131.285 145.363 131.269 145.443 131.251L145.556 131.226L145.668 131.198C145.743 131.18 145.817 131.16 145.89 131.14L146.002 131.108C146.075 131.088 146.148 131.065 146.22 131.043L146.436 130.973C146.578 130.925 146.719 130.875 146.856 130.823L146.953 130.783C147.022 130.758 147.089 130.73 147.155 130.704C147.222 130.678 147.286 130.65 147.351 130.622C147.415 130.593 147.478 130.567 147.541 130.54L147.726 130.455L147.904 130.372C148.049 130.303 148.187 130.233 148.318 130.166L148.47 130.086L148.614 130.009C148.661 129.984 148.706 129.959 148.75 129.934L148.814 129.898L148.935 129.829C149.11 129.731 149.252 129.641 149.355 129.576C149.464 129.509 149.565 129.43 149.657 129.34C149.702 129.294 149.76 129.24 149.832 129.176Z" fill="#E9E9E9"/>
</g>
<g style="mix-blend-mode:multiply">
<path d="M164.762 126.402C164.39 126.989 163.577 127.754 161.795 128.402C159.75 129.146 158.53 128.259 157.88 127.432C162.251 128.063 164.243 126.649 164.243 126.649C164.407 126.548 164.581 126.466 164.762 126.402Z" fill="#E9E9E9"/>
</g>
<g style="mix-blend-mode:multiply">
<path d="M174.744 126.95C174.344 127.42 173.604 128.103 172.567 128.302C171.908 128.425 171.251 127.959 170.707 127.361C170.734 127.369 170.762 127.375 170.79 127.381C171.172 127.459 171.879 127.53 172.965 127.363C173.241 127.321 173.542 127.265 173.868 127.187C174.141 127.122 174.434 127.044 174.744 126.95Z" fill="#E9E9E9"/>
</g>
<g style="mix-blend-mode:multiply">
<path d="M138.424 156.325L135.546 149.342C133.821 144.094 132.285 140.977 131.063 139.126C130.794 138.718 130.54 138.371 130.303 138.078C129.52 137.105 128.917 136.707 128.541 136.538C128.455 136.499 128.365 136.469 128.274 136.446C128.233 136.436 128.191 136.429 128.149 136.424L128.259 136.41L128.344 136.402C128.373 136.399 128.402 136.397 128.43 136.397H128.603H128.658C128.724 136.401 128.789 136.408 128.854 136.419L128.918 136.429H128.953L128.981 136.436C128.986 136.435 128.99 136.435 128.994 136.436L129.084 136.456L129.173 136.479L129.262 136.507L129.297 136.517L129.33 136.529C129.354 136.537 129.378 136.546 129.401 136.556C129.444 136.571 129.486 136.588 129.529 136.607C129.572 136.625 129.644 136.658 129.7 136.687C129.728 136.701 129.759 136.716 129.786 136.733L129.872 136.779C129.93 136.812 129.986 136.846 130.042 136.883C130.069 136.899 130.097 136.918 130.124 136.936C130.183 136.975 130.239 137.015 130.295 137.056C130.32 137.075 130.345 137.094 130.371 137.114C130.398 137.133 130.425 137.155 130.452 137.177C130.478 137.2 130.52 137.233 130.55 137.261C130.579 137.29 130.61 137.312 130.64 137.34C130.669 137.367 130.683 137.376 130.703 137.396L130.751 137.439C130.805 137.489 130.86 137.536 130.913 137.592L130.987 137.667C131.013 137.691 131.036 137.716 131.061 137.742L131.134 137.819C131.232 137.917 131.325 138.029 131.417 138.136L131.485 138.219C131.485 138.224 131.494 138.23 131.499 138.235C131.539 138.284 131.579 138.333 131.619 138.384C131.658 138.435 131.71 138.499 131.754 138.555L131.835 138.664C131.889 138.737 131.941 138.809 131.992 138.881C132.012 138.91 132.032 138.937 132.05 138.966C132.114 139.057 132.175 139.146 132.233 139.236L132.275 139.299C132.327 139.378 132.373 139.456 132.426 139.532L132.48 139.62C132.512 139.671 132.542 139.718 132.578 139.772C132.588 139.79 132.597 139.805 132.607 139.822C132.686 139.953 132.759 140.082 132.826 140.201L132.856 140.254L132.899 140.333L132.945 140.417C132.958 140.442 132.97 140.466 132.983 140.489C132.996 140.511 132.999 140.519 133.007 140.534C133.007 140.537 133.007 140.541 133.007 140.545C133.034 140.596 133.06 140.642 133.084 140.692C133.092 140.709 133.1 140.724 133.107 140.738C133.139 140.799 133.166 140.855 133.192 140.905C133.198 140.921 133.206 140.937 133.215 140.952C133.232 140.989 133.248 141.022 133.261 141.05C133.274 141.077 133.274 141.075 133.279 141.087C133.297 141.124 133.311 141.155 133.32 141.175C133.322 141.18 133.325 141.186 133.328 141.191V141.183C133.328 141.175 133.321 141.164 133.316 141.152C133.311 141.141 133.308 141.131 133.303 141.119L133.222 140.912C133.216 140.898 133.211 140.883 133.205 140.869C133.189 140.825 133.17 140.777 133.149 140.726C136.024 146.687 138.388 156.174 138.424 156.325Z" fill="#E9E9E9"/>
</g>
<path d="M127.117 144.549L126.53 142.057C126.257 140.761 126.048 139.533 125.925 138.427C125.793 137.236 126.806 136.683 127.969 136.454C128.028 136.441 128.088 136.431 128.149 136.421H128.154L128.264 136.406L128.349 136.398C128.378 136.395 128.407 136.393 128.435 136.393H128.492C128.51 136.441 128.525 136.491 128.543 136.536C128.664 136.89 128.778 137.245 128.883 137.587C128.917 137.698 128.948 137.809 128.981 137.916C129.274 138.914 129.482 139.776 129.568 140.21C129.792 141.317 127.117 144.549 127.117 144.549Z" fill="#F5CEA6"/>
<path d="M137.873 85.2024C138.008 88.5961 141.28 89.2764 141.28 89.2764C141.403 89.2764 141.518 89.2764 141.627 89.2676L142.126 88.5922C142.126 88.5922 146.029 84.3831 143.737 82.6211C141.446 80.8592 138.014 85.0017 138.014 85.0017L137.873 85.2024Z" fill="#F5CEA6"/>
<path d="M213.648 23.158C213.925 23.8364 214.259 24.3326 214.646 24.6263L214.859 24.1985C213.992 23.5309 213.576 21.4969 213.488 20.7725H213.035C213.105 21.2917 213.212 21.8052 213.355 22.3093C213.437 22.5975 213.535 22.8808 213.648 23.158Z" fill="#E0AF03"/>
<path d="M198.573 102.781C199.94 102.826 201.305 102.651 202.616 102.264L202.784 102.78C201.435 103.178 200.03 103.357 198.623 103.309L198.573 102.781ZM190.459 71.7058L190.906 71.8898C190.621 73.3728 190.694 75.0007 191.114 76.5962L190.678 76.6814C190.236 74.9909 190.16 73.271 190.462 71.7019L190.459 71.7058ZM193.239 80.9717C194.176 82.2366 195.341 83.315 196.675 84.1511L196.506 84.6092C195.11 83.7342 193.891 82.6053 192.912 81.2811L193.239 80.9717ZM195.738 65.073L195.961 65.5683C194.72 66.1352 193.617 66.966 192.731 68.0028L192.381 67.6112C193.303 66.5294 194.449 65.6619 195.741 65.0691L195.738 65.073ZM209.764 98.4259L210.057 98.8762C208.974 99.7441 207.817 100.517 206.601 101.186L206.359 100.697C207.559 100.038 208.699 99.2772 209.767 98.422L209.764 98.4259ZM200.742 85.7486C202.106 86.0083 203.503 86.045 204.879 85.8573L204.995 86.3839C203.577 86.5768 202.137 86.5385 200.731 86.2703L200.742 85.7486ZM199.725 63.9033C201.134 63.6869 202.569 63.6941 203.976 63.9248V64.4495C202.609 64.225 201.215 64.2181 199.846 64.4289L199.725 63.9033ZM213.894 94.0611C214.325 93.3715 214.696 92.6461 215.003 91.893L215.422 92.1749C215.105 92.9517 214.722 93.7 214.277 94.4116C213.93 94.9517 213.543 95.466 213.121 95.9503L212.775 95.551C213.183 95.0824 213.557 94.5848 213.894 94.0621V94.0611ZM208.814 84.8344C209.108 84.7267 209.402 84.6122 209.695 84.4937C210.66 84.0984 211.6 83.6429 212.508 83.1301L212.753 83.6137C211.832 84.1337 210.88 84.5953 209.901 84.9959C209.607 85.1163 209.306 85.2327 209.006 85.3414L208.814 84.8344ZM216.418 82.7406L216.875 82.7895C216.953 84.416 216.873 86.0463 216.636 87.6574L216.185 87.4959C216.416 85.9223 216.494 84.3301 216.418 82.7415V82.7406ZM208.212 65.4988C209.606 66.3506 210.846 67.4322 211.879 68.6978L211.572 69.0355C210.579 67.8194 209.388 66.7805 208.048 65.9628L208.212 65.4988ZM218.948 78.0038L219.284 78.4159C218.327 79.4468 217.294 80.4057 216.196 81.285L215.902 80.8347C216.985 79.9672 218.004 79.0213 218.948 78.0048V78.0038ZM214.557 74.1187C214.43 73.8084 214.296 73.4981 214.157 73.1986L214.554 73.0028C214.697 73.3111 214.835 73.6303 214.966 73.9494C215.478 75.2064 215.888 76.5023 216.193 77.8247L215.752 77.8913C215.454 76.6045 215.055 75.3433 214.557 74.1197V74.1187ZM223.913 71.0284L224.311 71.3544C223.613 72.6411 222.84 73.8848 221.994 75.079L221.624 74.709C222.46 73.5293 223.224 72.3006 223.913 71.0294V71.0284ZM226.809 64.0785L226.816 64.056C226.979 63.6067 227.136 63.1535 227.281 62.7061L227.712 62.9528C227.566 63.4011 227.41 63.8573 227.245 64.3075C226.961 65.32 226.618 66.3152 226.219 67.2882L225.8 67.0112C226.192 66.0543 226.528 65.0758 226.809 64.0804V64.0785ZM228.942 53.5576L229.399 53.6555C229.339 55.2581 229.161 56.8541 228.866 58.4304L228.418 58.2493C228.708 56.7011 228.883 55.1336 228.942 53.5596V53.5576ZM217.513 27.0255C218.698 28.1593 219.82 29.3562 220.875 30.6111L220.57 30.9507C219.529 29.7128 218.422 28.5319 217.253 27.4131L217.513 27.0255ZM227.719 43.8884L228.15 43.7847C228.627 45.3995 228.973 47.0504 229.183 48.7211H228.73C228.525 47.0854 228.187 45.4692 227.719 43.8884ZM223.858 34.6205C224.783 36.0342 225.61 37.5096 226.334 39.0362L225.942 39.2319C225.232 37.7331 224.419 36.2846 223.511 34.8966L223.858 34.6205Z" fill="#E0AF03"/>
<path d="M210.939 33.3362L224.959 14.7378L192.591 19.0056L210.939 33.3362Z" fill="#F8D801"/>
<path d="M222.142 32.6745L220.064 21.2541L192.591 19.0056L222.142 32.6745Z" fill="#E0AF03"/>
<path d="M222.142 32.6745L217.573 24.503L214.205 29.0038L222.142 32.6745Z" fill="#E5C605"/>
<path d="M192.591 19.0056L217.573 24.503L210.939 33.3362L192.591 19.0056Z" fill="#F8D801"/>
<path d="M195.669 96.1256H167.62V113.626H195.669V96.1256Z" fill="#6E2EE8"/>
<path d="M181.644 103.574L167.62 113.625H195.669L181.644 103.574Z" fill="#6626D0"/>
<g style="mix-blend-mode:multiply" opacity="0.43">
<path d="M180.563 106.231L167.619 96.1246H195.669L182.716 106.198C182.4 106.415 182.028 106.534 181.644 106.54C181.261 106.546 180.885 106.438 180.563 106.231Z" fill="#C2C2C2"/>
</g>
<path d="M180.588 105.41L167.619 96.1246H195.669L182.702 105.412C182.395 105.634 182.025 105.754 181.645 105.753C181.265 105.753 180.896 105.633 180.588 105.41Z" fill="#7832FD"/>
<path d="M111.161 82.6162H112.415L112.317 83.4727C112.287 83.7125 112.24 83.9498 112.175 84.1824C112.318 84.111 112.413 84.062 112.459 84.0346C112.617 83.9485 112.738 83.8858 112.822 83.8476L113.605 83.4727L113.997 84.6709L113.124 84.852C112.889 84.8897 112.652 84.9107 112.414 84.9146C112.594 85.0526 112.763 85.2045 112.919 85.3688L113.506 86.01L112.484 86.7764L112.064 86.01C112.004 85.9003 111.906 85.6866 111.771 85.3688C111.684 85.5876 111.586 85.8017 111.477 86.01L111.051 86.7764L110.002 86.01L110.637 85.3688C110.8 85.2045 110.975 85.0527 111.16 84.9146C110.986 84.8996 110.757 84.867 110.475 84.8167L109.594 84.6748L110.003 83.4767L110.792 83.8349C110.875 83.8721 111.086 83.9896 111.411 84.1863C111.338 83.8692 111.293 83.6326 111.274 83.4767L111.161 82.6162Z" fill="white"/>
<path d="M118.044 82.6162H119.298L119.2 83.4727C119.171 83.7126 119.123 83.9499 119.058 84.1824C119.202 84.111 119.296 84.062 119.342 84.0346C119.5 83.9485 119.622 83.8858 119.705 83.8476L120.494 83.4727L120.885 84.6709L120.011 84.852C119.776 84.8897 119.539 84.9107 119.302 84.9146C119.482 85.0524 119.651 85.2043 119.807 85.3688L120.394 86.01L119.372 86.7764L118.952 86.01C118.892 85.9003 118.794 85.6869 118.658 85.3688C118.573 85.5878 118.474 85.8019 118.365 86.01L117.94 86.7764L116.89 86.01L117.525 85.3688C117.687 85.2045 117.862 85.0527 118.048 84.9146C117.873 84.8996 117.645 84.867 117.362 84.8167L116.481 84.6748L116.89 83.4767L117.679 83.8349C117.762 83.8721 117.968 83.9893 118.297 84.1863C118.225 83.8692 118.179 83.6326 118.161 83.4767L118.044 82.6162Z" fill="white"/>
<path d="M124.929 82.6162H126.183L126.085 83.4727C126.056 83.7127 126.008 83.9499 125.942 84.1824C126.085 84.111 126.179 84.062 126.225 84.0346C126.384 83.9485 126.505 83.8858 126.589 83.8476L127.378 83.4727L127.769 84.6709L126.895 84.852C126.66 84.8898 126.423 84.9107 126.185 84.9146C126.366 85.0521 126.535 85.204 126.69 85.3688L127.278 86.01L126.257 86.7764L125.837 86.01C125.776 85.9003 125.678 85.6866 125.543 85.3688C125.457 85.5876 125.359 85.8016 125.25 86.01L124.824 86.7764L123.773 86.01L124.41 85.3688C124.572 85.2043 124.746 85.0524 124.931 84.9146C124.757 84.8996 124.529 84.867 124.246 84.8167L123.365 84.6748L123.773 83.4767L124.562 83.8349C124.645 83.8721 124.851 83.9893 125.181 84.1863C125.11 83.8692 125.064 83.6323 125.045 83.4767L124.929 82.6162Z" fill="white"/>
<path d="M131.815 82.6162H133.069L132.971 83.4727C132.942 83.7126 132.895 83.9499 132.829 84.1824C132.973 84.111 133.068 84.062 133.113 84.0346C133.272 83.9485 133.393 83.8858 133.476 83.8476L134.265 83.4727L134.657 84.6709L133.783 84.852C133.548 84.8898 133.311 84.9107 133.073 84.9146C133.253 85.0521 133.422 85.204 133.578 85.3688L134.165 86.01L133.144 86.7764L132.725 86.01C132.664 85.9003 132.566 85.6866 132.431 85.3688C132.345 85.5877 132.247 85.8018 132.137 86.01L131.711 86.7764L130.661 86.01L131.297 85.3688C131.459 85.2043 131.634 85.0524 131.819 84.9146C131.645 84.8996 131.416 84.867 131.134 84.8167L130.253 84.6748L130.661 83.4767L131.45 83.8349C131.533 83.8721 131.739 83.9893 132.069 84.1863C131.997 83.8692 131.951 83.6323 131.933 83.4767L131.815 82.6162Z" fill="white"/>
</g>
<defs>
<clipPath id="clip0_420_546">
<rect width="248.932" height="176" fill="white"/>
</clipPath>
</defs>
</svg>
