<svg width="14" height="15" viewBox="0 0 14 15" fill="none" xmlns="http://www.w3.org/2000/svg">
<path d="M10.079 7.00553H3.92133C2.56683 7.00553 1.4585 8.11386 1.4585 9.46836V11.4558C1.4585 11.762 1.70641 12.0099 2.01266 12.0099C2.31891 12.0099 2.56683 11.762 2.56683 11.4558V10.5761C2.56683 10.2699 2.81475 10.0219 3.121 10.0219H10.8793C11.1856 10.0219 11.4335 10.2699 11.4335 10.5761V11.4558C11.4335 11.762 11.6814 12.0099 11.9877 12.0099C12.2939 12.0099 12.5418 11.762 12.5418 11.4558V9.46778C12.5418 8.11328 11.4335 7.00494 10.079 7.00494V7.00553Z" fill="white"/>
<path d="M10.8793 5.39262C10.5567 5.39262 10.2959 5.13129 10.2959 4.80929V4.10462C10.2959 3.6117 9.8946 3.21037 9.40168 3.21037H4.59851C4.10501 3.21037 3.70426 3.6117 3.70426 4.10462V4.80929C3.70426 5.13129 3.44351 5.39262 3.12093 5.39262C2.79835 5.39262 2.5376 5.13129 2.5376 4.80929V4.10462C2.5376 2.96828 3.46218 2.0437 4.59851 2.0437H9.4011C10.5374 2.0437 11.462 2.96828 11.462 4.10462V4.80929C11.462 5.13129 11.2018 5.39262 10.8793 5.39262Z" fill="white"/>
<path d="M8.67534 4.54913H5.32525C4.90966 4.54913 4.57275 4.88604 4.57275 5.30163V5.42588C4.57275 5.84148 4.90966 6.17838 5.32525 6.17838H8.67534C9.09093 6.17838 9.42784 5.84148 9.42784 5.42588V5.30163C9.42784 4.88604 9.09093 4.54913 8.67534 4.54913Z" fill="white"/>
</svg>
