<svg width="38" height="38" viewBox="0 0 38 38" fill="none" xmlns="http://www.w3.org/2000/svg">
<g clip-path="url(#clip0_130_13194)">
<path d="M21.5765 23.0497L18.9985 20.4717L16.4205 23.0497C16.0137 23.4565 15.3542 23.4565 14.9474 23.0497C14.5407 22.643 14.5406 21.9834 14.9474 21.5765L17.5254 18.9985L14.9474 16.4206C14.5407 16.0139 14.5406 15.3543 14.9474 14.9474C15.3542 14.5406 16.0138 14.5407 16.4205 14.9474L18.9985 17.5254L21.5765 14.9474C21.9834 14.5406 22.643 14.5407 23.0497 14.9474C23.4565 15.3543 23.4565 16.0137 23.0497 16.4206L20.4717 18.9985L23.0497 21.5765C23.4565 21.9834 23.4565 22.6428 23.0497 23.0497C22.6428 23.4565 21.9834 23.4565 21.5765 23.0497ZM18.9992 5.66592C15.4378 5.66592 12.0894 7.05289 9.57115 9.57118C7.05286 12.0895 5.6659 15.4378 5.6659 18.9993C5.6659 22.5607 7.05286 25.9091 9.57115 28.4274C12.0894 30.9456 15.4378 32.3326 18.9992 32.3326C22.5607 32.3326 25.909 30.9456 28.4273 28.4274C30.1514 26.7033 31.3684 24.5466 31.9469 22.1903C32.0841 21.6315 31.7425 21.0674 31.1839 20.9303C30.6251 20.7931 30.0609 21.1349 29.9238 21.6935C29.4359 23.6801 28.4091 25.4993 26.9542 26.9542C22.5679 31.3405 15.4306 31.3405 11.0443 26.9542C6.65796 22.5679 6.65796 15.4306 11.0443 11.0443C15.4306 6.65799 22.5679 6.65799 26.9542 11.0443C28.5227 12.6128 29.583 14.6059 30.0206 16.8084C30.1325 17.3726 30.6809 17.7392 31.2453 17.6271C31.8094 17.5151 32.1759 16.9667 32.064 16.4024C31.5458 13.7945 30.2883 11.4322 28.4273 9.57118C25.909 7.05289 22.5607 5.66592 18.9992 5.66592Z" fill="#FF7979"/>
</g>
<defs>
<clipPath id="clip0_130_13194">
<rect width="26.6667" height="26.6667" fill="white" transform="translate(0.143066 18.9993) rotate(-45)"/>
</clipPath>
</defs>
</svg>
