<svg width="26" height="26" viewBox="0 0 26 26" fill="none" xmlns="http://www.w3.org/2000/svg">
<rect width="26" height="26" rx="6" fill="#E60000" fill-opacity="0.08"/>
<rect x="0.25" y="0.25" width="25.5" height="25.5" rx="5.75" stroke="#E60000" stroke-opacity="0.61" stroke-width="0.5"/>
<g clip-path="url(#clip0_302_309)">
<path d="M12.4586 15.437V13.5411H10.5627C10.2635 13.5411 10.0211 13.2986 10.0211 12.9995C10.0211 12.7004 10.2635 12.4578 10.5627 12.4578H12.4586V10.562C12.4586 10.2629 12.701 10.0203 13.0002 10.0203C13.2994 10.0203 13.5419 10.2629 13.5419 10.562V12.4578H15.4377C15.7369 12.4578 15.9794 12.7004 15.9794 12.9995C15.9794 13.2986 15.7369 13.5411 15.4377 13.5411H13.5419V15.437C13.5419 15.7361 13.2994 15.9786 13.0002 15.9786C12.701 15.9786 12.4586 15.7361 12.4586 15.437ZM17.9028 8.09737C16.5933 6.78785 14.8522 6.06665 13.0002 6.06665C11.1483 6.06665 9.40714 6.78785 8.09762 8.09737C6.78809 9.40689 6.06689 11.1481 6.06689 13C6.06689 14.8519 6.78809 16.5931 8.09762 17.9026C9.40714 19.2121 11.1483 19.9333 13.0002 19.9333C14.2681 19.9333 15.5086 19.5878 16.5877 18.9341C16.8436 18.7791 16.9254 18.4461 16.7704 18.1903C16.6154 17.9343 16.2823 17.8526 16.0265 18.0075C15.1166 18.5586 14.0701 18.85 13.0002 18.85C9.77456 18.85 7.15023 16.2257 7.15023 13C7.15023 9.77432 9.77456 7.14998 13.0002 7.14998C16.2259 7.14998 18.8502 9.77432 18.8502 13C18.8502 14.1535 18.5072 15.2761 17.8583 16.2469C17.692 16.4955 17.7589 16.832 18.0076 16.9983C18.2562 17.1645 18.5926 17.0976 18.7589 16.849C19.5273 15.6995 19.9336 14.3685 19.9336 13C19.9336 11.1481 19.2124 9.40689 17.9028 8.09737Z" fill="#E60000"/>
</g>
<defs>
<clipPath id="clip0_302_309">
<rect width="13.8667" height="13.8667" fill="white" transform="translate(6.06689 6.06665)"/>
</clipPath>
</defs>
</svg>
