<svg width="24" height="24" viewBox="0 0 24 24" fill="none" xmlns="http://www.w3.org/2000/svg">
<path d="M16.485 12.867C16.8502 12.7365 17.0955 12.3878 17.0955 12C17.0955 11.6123 16.8502 11.2635 16.4865 11.133L14.814 10.53C13.1625 9.93526 11.874 8.64601 11.2785 6.99451L10.6755 5.32201C10.5442 4.95826 10.1962 4.71301 9.80997 4.71301C9.42297 4.71301 9.07422 4.95751 8.94222 5.32201L8.33997 6.99451C7.74447 8.64676 6.45597 9.93526 4.80372 10.53L3.13272 11.133C2.76747 11.2643 2.52222 11.6123 2.52222 12C2.52222 12.3878 2.76747 12.7358 3.13122 12.867L4.80372 13.47C6.45522 14.0648 7.74372 15.3533 8.33922 17.0055L8.94222 18.6788C9.07347 19.0425 9.42222 19.287 9.80922 19.287C10.1962 19.287 10.545 19.0418 10.6755 18.678L11.2785 17.0055C11.8732 15.354 13.1625 14.0655 14.814 13.47L16.485 12.867ZM14.3055 12.0585C12.2317 12.8055 10.614 14.4233 9.86697 16.497L9.80847 16.659L9.74997 16.497C9.00222 14.4233 7.38447 12.8055 5.31147 12.0585L5.15022 12L5.31222 11.9415C7.38597 11.1945 9.00372 9.57676 9.75072 7.50301L9.80922 7.34101L9.86772 7.50301C10.6147 9.57676 12.2325 11.1945 14.3055 11.9415L14.4675 12L14.3055 12.0585Z" fill="#5A5A5A"/>
<path d="M13.9109 5.59725L14.7577 5.9025C15.4904 6.1665 16.0612 6.738 16.3252 7.47L16.6297 8.316C16.7489 8.6475 17.0654 8.87025 17.4172 8.87025C17.7689 8.87025 18.0862 8.6475 18.2047 8.31675L18.5099 7.47C18.7739 6.73725 19.3454 6.16575 20.0774 5.9025L20.9249 5.59725C21.2542 5.478 21.4769 5.16225 21.4777 4.812C21.4784 4.46175 21.2579 4.1445 20.9249 4.023L20.0774 3.71775C19.3454 3.45375 18.7739 2.88225 18.5099 2.15025L18.2047 1.3035C18.0854 0.972 17.7697 0.75 17.4179 0.75C17.0654 0.75 16.7489 0.97275 16.6304 1.3035L16.3252 2.15025C16.0612 2.883 15.4897 3.45375 14.7577 3.71775L13.9087 4.02375C13.5787 4.14375 13.3567 4.461 13.3574 4.812C13.3582 5.163 13.5809 5.47875 13.9109 5.59725ZM17.4179 3.34125C17.7734 3.95025 18.2782 4.455 18.8864 4.80975C18.2774 5.16525 17.7727 5.67 17.4179 6.27825C17.0624 5.67 16.5577 5.1645 15.9494 4.80975C16.5577 4.45425 17.0624 3.9495 17.4179 3.34125Z" fill="#5A5A5A"/>
<path d="M20.9242 18.4028L20.0774 18.0975C19.3454 17.8335 18.7739 17.262 18.5099 16.53L18.2047 15.6833C18.0854 15.3525 17.7689 15.1298 17.4172 15.1298C17.0647 15.1298 16.7482 15.3525 16.6297 15.6833L16.3244 16.53C16.0604 17.2628 15.4889 17.8343 14.7569 18.0975L13.9109 18.402C13.5802 18.5205 13.3574 18.837 13.3567 19.188C13.3559 19.539 13.5772 19.8563 13.9102 19.977L14.7569 20.2823C15.4897 20.5463 16.0612 21.117 16.3244 21.8498L16.6289 22.6958C16.7489 23.0273 17.0654 23.25 17.4179 23.25C17.7704 23.25 18.0869 23.0273 18.2054 22.6965L18.5107 21.8498C18.7747 21.1178 19.3462 20.5463 20.0782 20.2823L20.9287 19.9763C21.2579 19.8555 21.4792 19.539 21.4784 19.188C21.4777 18.837 21.2542 18.522 20.9242 18.4028ZM17.4179 20.6588C17.0624 20.0498 16.5577 19.545 15.9494 19.1903C16.5577 18.8348 17.0632 18.33 17.4179 17.7218C17.7734 18.33 18.2782 18.8355 18.8864 19.1903C18.2782 19.5458 17.7727 20.0505 17.4179 20.6588Z" fill="#5A5A5A"/>
</svg>
