<svg width="40" height="40" viewBox="0 0 40 40" fill="none" xmlns="http://www.w3.org/2000/svg">
<g clip-path="url(#clip0_100_9907)">
<path d="M20 39.375C30.7005 39.375 39.375 30.7005 39.375 20C39.375 9.29948 30.7005 0.625 20 0.625C9.29948 0.625 0.625 9.29948 0.625 20C0.625 30.7005 9.29948 39.375 20 39.375Z" fill="#E4E4E4"/>
<path d="M20 37.5C29.665 37.5 37.5 29.665 37.5 20C37.5 10.335 29.665 2.5 20 2.5C10.335 2.5 2.5 10.335 2.5 20C2.5 29.665 10.335 37.5 20 37.5Z" fill="#8A673F"/>
<path d="M20 36.25C28.9746 36.25 36.25 28.9746 36.25 20C36.25 11.0254 28.9746 3.75 20 3.75C11.0254 3.75 3.75 11.0254 3.75 20C3.75 28.9746 11.0254 36.25 20 36.25Z" fill="#FFFFEC"/>
<path d="M20 36.25C28.9746 36.25 36.25 28.9746 36.25 20C36.25 11.0254 28.9746 3.75 20 3.75C11.0254 3.75 3.75 11.0254 3.75 20C3.75 28.9746 11.0254 36.25 20 36.25Z" fill="#FFFACD"/>
<path d="M34.2563 8.69562C34.0578 8.82855 33.8929 9.00569 33.7744 9.21312C34.541 10.1877 35.2016 11.2411 35.745 12.3556C36.1015 12.3357 36.4395 12.1906 36.6995 11.9459C36.9594 11.7013 37.1248 11.3727 37.1663 11.0181C36.7108 10.1479 36.1897 9.31358 35.6075 8.5225C35.3839 8.447 35.1461 8.42336 34.912 8.45335C34.6779 8.48335 34.4536 8.56619 34.2563 8.69562Z" fill="#FFF6BB"/>
<path d="M27.1106 36.75C27.0358 36.5248 26.91 36.32 26.7431 36.1512C22.6288 37.8651 18.0163 37.9478 13.8431 36.3825C13.6014 36.6445 13.4585 36.9825 13.4388 37.3385C13.4192 37.6944 13.5242 38.0461 13.7356 38.3331C18.0238 39.7991 22.6902 39.7155 26.9231 38.0969C27.0544 37.9013 27.1395 37.6784 27.172 37.445C27.2045 37.2117 27.1835 36.974 27.1106 36.75Z" fill="#C38C39"/>
<path d="M34.2032 31.3687C34.0302 31.206 33.8221 31.0852 33.5951 31.0156C32.3297 32.5757 30.8064 33.9075 29.0913 34.9531C29.1489 35.3052 29.3272 35.6262 29.5957 35.8611C29.8641 36.096 30.206 36.2302 30.5626 36.2406C32.0959 35.2408 33.4808 34.03 34.6763 32.6437C34.6991 32.4093 34.6684 32.1727 34.5865 31.9518C34.5045 31.7309 34.3734 31.5316 34.2032 31.3687Z" fill="#C38C39"/>
<path d="M38.0954 13.0756C37.8012 12.8742 37.446 12.7818 37.0909 12.8142C36.7359 12.8466 36.4033 13.0018 36.1504 13.2531C37.7 16.9728 37.9207 21.1129 36.7754 24.9762C36.9614 25.1251 37.1794 25.2286 37.4123 25.2787C37.6427 25.3281 37.8813 25.3243 38.1099 25.2674C38.3386 25.2105 38.5512 25.1022 38.7316 24.9506C39.7666 21.023 39.5432 16.8696 38.0929 13.0756H38.0954Z" fill="#FFDA6C"/>
<path d="M3.58119 12.155C3.78737 12.2727 4.01793 12.3414 4.25494 12.3556C4.79867 11.2414 5.45903 10.188 6.22494 9.21311C6.0482 8.90228 5.76833 8.66303 5.43379 8.53679C5.09925 8.41056 4.73109 8.40527 4.39307 8.52186C3.80947 9.31428 3.28712 10.15 2.83057 11.0219C2.86173 11.2552 2.94549 11.4785 3.07552 11.6748C3.20555 11.8711 3.37845 12.0353 3.58119 12.155Z" fill="#FFF6BB"/>
<path d="M10.6393 35.6025C10.7772 35.41 10.8691 35.1885 10.908 34.955C9.19431 33.9089 7.67233 32.5771 6.40803 31.0175C6.06727 31.1207 5.77308 31.3393 5.576 31.6359C5.37892 31.9324 5.29124 32.2883 5.32803 32.6425C6.52185 34.0291 7.90527 35.2404 9.4374 36.2406C9.67304 36.2325 9.90373 36.1708 10.112 36.0602C10.3202 35.9496 10.5006 35.7931 10.6393 35.6025Z" fill="#C38C39"/>
<path d="M2.58434 25.2787C2.8174 25.2283 3.0356 25.1245 3.22184 24.9756C2.07659 21.1126 2.29731 16.973 3.84684 13.2537C3.59409 13.0022 3.26149 12.8468 2.90642 12.8143C2.55135 12.7818 2.19606 12.8742 1.90184 13.0756C0.45136 16.8696 0.228164 21.0231 1.26371 24.9506C1.44398 25.102 1.65644 25.2101 1.88487 25.2669C2.11331 25.3237 2.35169 25.3275 2.58184 25.2781L2.58434 25.2787Z" fill="#FFDA6C"/>
<path d="M37.7387 25.3125C37.6299 25.3124 37.5214 25.3009 37.415 25.2781C37.1821 25.228 36.9641 25.1244 36.7781 24.9756C36.1251 27.1789 35.0433 29.2315 33.595 31.0156C33.9356 31.1191 34.2295 31.3378 34.4265 31.6343C34.6234 31.9308 34.7111 32.2866 34.6744 32.6406C34.0791 33.3327 33.4361 33.9822 32.75 34.5844C35.9737 31.7711 38.1741 27.9687 39.0069 23.7719C38.929 24.1681 38.839 24.56 38.7369 24.9475C38.457 25.182 38.1039 25.3112 37.7387 25.3125Z" fill="#F0AC47"/>
<path d="M36.4182 12.155C36.2123 12.2727 35.9819 12.3414 35.7451 12.3556C35.888 12.6498 36.0232 12.949 36.1507 13.2531C36.4036 13.0018 36.7362 12.8466 37.0913 12.8142C37.4463 12.7818 37.8015 12.8743 38.0957 13.0756C37.6513 11.9163 37.096 10.8026 36.4376 9.75C36.6951 10.1633 36.9374 10.5862 37.1645 11.0187C37.1344 11.2523 37.0516 11.476 36.9223 11.6729C36.793 11.8697 36.6206 12.0346 36.4182 12.155Z" fill="#F0AC47"/>
<path d="M5.74307 8.69561C5.94154 8.82854 6.10648 9.00568 6.22494 9.21311C7.86079 7.12198 9.95128 5.43073 12.3379 4.26761C14.7245 3.10448 17.3447 2.5 19.9996 2.5C22.6546 2.5 25.2747 3.10448 27.6614 4.26761C30.048 5.43073 32.1385 7.12198 33.7743 9.21311C33.9511 8.90203 34.2312 8.66265 34.5661 8.5365C34.9009 8.41035 35.2693 8.40539 35.6074 8.52249C33.7353 5.97571 31.2684 3.92576 28.422 2.55149C25.5755 1.17722 22.436 0.520385 19.2774 0.638303C16.1187 0.756221 13.0369 1.64531 10.3009 3.22798C7.56479 4.81066 5.25759 7.03884 3.58057 9.71811C3.83682 9.30895 4.10765 8.9102 4.39307 8.52186C4.6165 8.44633 4.85421 8.42273 5.08813 8.45283C5.32206 8.48294 5.54604 8.56597 5.74307 8.69561Z" fill="#FFDA6C"/>
<path d="M13.5001 36.995C13.5665 36.7671 13.6848 36.5577 13.8457 36.3831C12.824 36.0001 11.8405 35.5219 10.9082 34.955C10.8504 35.3064 10.6723 35.6267 10.4044 35.8612C10.1365 36.0957 9.79536 36.2299 9.43945 36.2406C10.7793 37.1136 12.2225 37.8167 13.7357 38.3338C13.5975 38.1431 13.5044 37.9235 13.4636 37.6915C13.4228 37.4596 13.4352 37.2214 13.5001 36.995Z" fill="#DB9327"/>
<path d="M29.36 35.6025C29.2222 35.4102 29.1303 35.1889 29.0913 34.9556C28.3392 35.4132 27.5536 35.8133 26.7413 36.1525C26.9925 36.4056 27.1476 36.7383 27.1799 37.0935C27.2122 37.4486 27.1196 37.8039 26.9181 38.0981C26.6681 38.1944 26.4125 38.2856 26.1562 38.37C27.7096 37.8505 29.1903 37.1349 30.5625 36.2406C30.3267 36.2326 30.0959 36.171 29.8875 36.0605C29.6792 35.9499 29.4988 35.7933 29.36 35.6025Z" fill="#DB9327"/>
<path d="M3.25 12.8856C3.47526 12.9606 3.68017 13.0866 3.84875 13.2537C3.97375 12.95 4.10896 12.6506 4.25438 12.3556C3.898 12.3359 3.56003 12.191 3.29994 11.9466C3.03985 11.7022 2.87432 11.3738 2.8325 11.0194C3.06 10.586 3.30333 10.1629 3.5625 9.75C2.90451 10.8026 2.34984 11.9163 1.90625 13.0756C2.1013 12.9445 2.32356 12.8592 2.5563 12.8263C2.78905 12.7934 3.02622 12.8137 3.25 12.8856Z" fill="#F0AC47"/>
<path d="M6.40498 31.0156C4.95665 29.2314 3.87492 27.1788 3.22186 24.9756C2.9433 25.1982 2.59623 25.3174 2.23969 25.313C1.88314 25.3085 1.53915 25.1807 1.26623 24.9512C1.16373 24.5637 1.07352 24.1716 0.995605 23.775C1.64607 27.056 3.13794 30.1117 5.32498 32.6425C5.2882 32.2883 5.37588 31.9324 5.57296 31.6359C5.77004 31.3393 6.06422 31.1207 6.40498 31.0175V31.0156Z" fill="#F0AC47"/>
<path d="M36.875 20C36.875 20.2125 36.8688 20.4188 36.8563 20.625C35.4688 20.6375 35.4625 21.875 34.0625 21.875C32.6625 21.875 32.6562 20.625 31.25 20.625C29.8438 20.625 29.8438 21.875 28.4375 21.875C27.0312 21.875 27.0312 20.625 25.625 20.625C24.2188 20.625 24.2188 21.875 22.8125 21.875C21.4062 21.875 21.4062 20.625 20 20.625C18.5938 20.625 18.5938 21.875 17.1875 21.875C15.7812 21.875 15.7812 20.625 14.375 20.625C12.9688 20.625 12.9688 21.875 11.5625 21.875C10.1562 21.875 10.1562 20.625 8.75 20.625C7.34375 20.625 7.34375 21.875 5.9375 21.875C4.53125 21.875 4.53125 20.6375 3.14375 20.625C3.13125 20.4188 3.125 20.2125 3.125 20C3.12559 19.3777 3.16106 18.7559 3.23125 18.1375C4.525 18.2063 4.56875 19.375 5.9375 19.375C7.34375 19.375 7.34375 18.125 8.75 18.125C10.1562 18.125 10.1562 19.375 11.5625 19.375C12.9688 19.375 12.9688 18.125 14.375 18.125C15.7812 18.125 15.7812 19.375 17.1875 19.375C18.5938 19.375 18.5938 18.125 20 18.125C21.4062 18.125 21.4062 19.375 22.8125 19.375C24.2188 19.375 24.2188 18.125 25.625 18.125C27.0312 18.125 27.0312 19.375 28.4375 19.375C29.8438 19.375 29.8438 18.125 31.25 18.125C32.6562 18.125 32.6562 19.375 34.0625 19.375C35.4313 19.375 35.475 18.2063 36.7688 18.1375C36.8389 18.7559 36.8744 19.3777 36.875 20Z" fill="#F8C351"/>
<path d="M36.8561 20.625C36.8262 21.4767 36.7322 22.3249 36.5748 23.1625C35.4748 23.3313 35.3561 24.375 34.0623 24.375C32.6561 24.375 32.6561 23.125 31.2498 23.125C29.8436 23.125 29.8436 24.375 28.4373 24.375C27.0311 24.375 27.0311 23.125 25.6248 23.125C24.2186 23.125 24.2186 24.375 22.8123 24.375C21.4061 24.375 21.4061 23.125 19.9998 23.125C18.5936 23.125 18.5936 24.375 17.1873 24.375C15.7811 24.375 15.7811 23.125 14.3748 23.125C12.9686 23.125 12.9686 24.375 11.5623 24.375C10.1561 24.375 10.1561 23.125 8.7498 23.125C7.34355 23.125 7.34355 24.375 5.9373 24.375C4.64355 24.375 4.5248 23.3313 3.4248 23.1625C3.26739 22.3249 3.17337 21.4767 3.14355 20.625C4.53105 20.6375 4.5373 21.875 5.9373 21.875C7.3373 21.875 7.34355 20.625 8.7498 20.625C10.1561 20.625 10.1561 21.875 11.5623 21.875C12.9686 21.875 12.9686 20.625 14.3748 20.625C15.7811 20.625 15.7811 21.875 17.1873 21.875C18.5936 21.875 18.5936 20.625 19.9998 20.625C21.4061 20.625 21.4061 21.875 22.8123 21.875C24.2186 21.875 24.2186 20.625 25.6248 20.625C27.0311 20.625 27.0311 21.875 28.4373 21.875C29.8436 21.875 29.8436 20.625 31.2498 20.625C32.6561 20.625 32.6561 21.875 34.0623 21.875C35.4686 21.875 35.4686 20.6375 36.8561 20.625Z" fill="#FFDF7C"/>
<path d="M36.3252 15.7125C36.5342 16.5084 36.6826 17.3191 36.7689 18.1375C35.4752 18.2063 35.4314 19.375 34.0627 19.375C32.6564 19.375 32.6564 18.125 31.2502 18.125C29.8439 18.125 29.8439 19.375 28.4377 19.375C27.0314 19.375 27.0314 18.125 25.6252 18.125C24.2189 18.125 24.2189 19.375 22.8127 19.375C21.4064 19.375 21.4064 18.125 20.0002 18.125C18.5939 18.125 18.5939 19.375 17.1877 19.375C15.7814 19.375 15.7814 18.125 14.3752 18.125C12.9689 18.125 12.9689 19.375 11.5627 19.375C10.1564 19.375 10.1564 18.125 8.7502 18.125C7.34395 18.125 7.34395 19.375 5.9377 19.375C4.56895 19.375 4.5252 18.2063 3.23145 18.1375C3.31782 17.3191 3.46617 16.5084 3.6752 15.7125C4.55645 15.9875 4.7502 16.875 5.9377 16.875C7.34395 16.875 7.34395 15.625 8.7502 15.625C10.1564 15.625 10.1564 16.875 11.5627 16.875C12.9689 16.875 12.9689 15.625 14.3752 15.625C15.7814 15.625 15.7814 16.875 17.1877 16.875C18.5939 16.875 18.5939 15.625 20.0002 15.625C21.4064 15.625 21.4064 16.875 22.8127 16.875C24.2189 16.875 24.2189 15.625 25.6252 15.625C27.0314 15.625 27.0314 16.875 28.4377 16.875C29.8439 16.875 29.8439 15.625 31.2502 15.625C32.6564 15.625 32.6564 16.875 34.0627 16.875C35.2502 16.875 35.4439 15.9875 36.3252 15.7125Z" fill="#FFDF7C"/>
<path d="M36.5748 23.1625C36.39 24.1275 36.1223 25.0747 35.7748 25.9938C35.2873 26.3625 34.9623 26.875 34.0623 26.875C32.6561 26.875 32.6561 25.625 31.2498 25.625C29.8436 25.625 29.8436 26.875 28.4373 26.875C27.0311 26.875 27.0311 25.625 25.6248 25.625C24.2186 25.625 24.2186 26.875 22.8123 26.875C21.4061 26.875 21.4061 25.625 19.9998 25.625C18.5936 25.625 18.5936 26.875 17.1873 26.875C15.7811 26.875 15.7811 25.625 14.3748 25.625C12.9686 25.625 12.9686 26.875 11.5623 26.875C10.1561 26.875 10.1561 25.625 8.7498 25.625C7.34355 25.625 7.34355 26.875 5.9373 26.875C5.0373 26.875 4.7123 26.3625 4.2248 25.9938C3.87729 25.0747 3.60963 24.1275 3.4248 23.1625C4.5248 23.3313 4.64355 24.375 5.9373 24.375C7.34355 24.375 7.34355 23.125 8.7498 23.125C10.1561 23.125 10.1561 24.375 11.5623 24.375C12.9686 24.375 12.9686 23.125 14.3748 23.125C15.7811 23.125 15.7811 24.375 17.1873 24.375C18.5936 24.375 18.5936 23.125 19.9998 23.125C21.4061 23.125 21.4061 24.375 22.8123 24.375C24.2186 24.375 24.2186 23.125 25.6248 23.125C27.0311 23.125 27.0311 24.375 28.4373 24.375C29.8436 24.375 29.8436 23.125 31.2498 23.125C32.6561 23.125 32.6561 24.375 34.0623 24.375C35.3561 24.375 35.4748 23.3313 36.5748 23.1625Z" fill="#FFBF54"/>
<path d="M35.6248 13.6188C35.9038 14.3006 36.1377 15 36.3248 15.7125C35.4436 15.9875 35.2498 16.875 34.0623 16.875C32.6561 16.875 32.6561 15.625 31.2498 15.625C29.8436 15.625 29.8436 16.875 28.4373 16.875C27.0311 16.875 27.0311 15.625 25.6248 15.625C24.2186 15.625 24.2186 16.875 22.8123 16.875C21.4061 16.875 21.4061 15.625 19.9998 15.625C18.5936 15.625 18.5936 16.875 17.1873 16.875C15.7811 16.875 15.7811 15.625 14.3748 15.625C12.9686 15.625 12.9686 16.875 11.5623 16.875C10.1561 16.875 10.1561 15.625 8.7498 15.625C7.34355 15.625 7.34355 16.875 5.9373 16.875C4.7498 16.875 4.55605 15.9875 3.6748 15.7125C3.86195 15 4.09579 14.3006 4.3748 13.6188C4.56802 13.8469 4.80687 14.0321 5.07598 14.1623C5.34509 14.2926 5.6385 14.365 5.9373 14.375C7.34355 14.375 7.34355 13.125 8.7498 13.125C10.1561 13.125 10.1561 14.375 11.5623 14.375C12.9686 14.375 12.9686 13.125 14.3748 13.125C15.7811 13.125 15.7811 14.375 17.1873 14.375C18.5936 14.375 18.5936 13.125 19.9998 13.125C21.4061 13.125 21.4061 14.375 22.8123 14.375C24.2186 14.375 24.2186 13.125 25.6248 13.125C27.0311 13.125 27.0311 14.375 28.4373 14.375C29.8436 14.375 29.8436 13.125 31.2498 13.125C32.6561 13.125 32.6561 14.375 34.0623 14.375C34.3611 14.365 34.6545 14.2926 34.9236 14.1623C35.1927 14.0321 35.4316 13.8469 35.6248 13.6188Z" fill="#FFC347"/>
<path d="M34.0626 26.875C34.9626 26.875 35.2876 26.3625 35.7751 25.9938C35.3263 27.1824 34.7412 28.315 34.0313 29.3688C32.6626 29.35 32.6438 28.125 31.2501 28.125C29.8438 28.125 29.8438 29.375 28.4376 29.375C27.0313 29.375 27.0313 28.125 25.6251 28.125C24.2188 28.125 24.2188 29.375 22.8126 29.375C21.4063 29.375 21.4063 28.125 20.0001 28.125C18.5938 28.125 18.5938 29.375 17.1876 29.375C15.7813 29.375 15.7813 28.125 14.3751 28.125C12.9688 28.125 12.9688 29.375 11.5626 29.375C10.1563 29.375 10.1563 28.125 8.7501 28.125C7.35635 28.125 7.3376 29.35 5.96885 29.3688C5.25903 28.315 4.67387 27.1824 4.2251 25.9938C4.7126 26.3625 5.0376 26.875 5.9376 26.875C7.34385 26.875 7.34385 25.625 8.7501 25.625C10.1563 25.625 10.1563 26.875 11.5626 26.875C12.9688 26.875 12.9688 25.625 14.3751 25.625C15.7813 25.625 15.7813 26.875 17.1876 26.875C18.5938 26.875 18.5938 25.625 20.0001 25.625C21.4063 25.625 21.4063 26.875 22.8126 26.875C24.2188 26.875 24.2188 25.625 25.6251 25.625C27.0313 25.625 27.0313 26.875 28.4376 26.875C29.8438 26.875 29.8438 25.625 31.2501 25.625C32.6563 25.625 32.6563 26.875 34.0626 26.875Z" fill="#FFDF7C"/>
<path d="M34.7188 11.75C35.057 12.3547 35.3596 12.9787 35.625 13.6188C35.4318 13.8469 35.1929 14.0321 34.9238 14.1623C34.6547 14.2926 34.3613 14.365 34.0625 14.375C32.6562 14.375 32.6562 13.125 31.25 13.125C29.8438 13.125 29.8438 14.375 28.4375 14.375C27.0312 14.375 27.0312 13.125 25.625 13.125C24.2188 13.125 24.2188 14.375 22.8125 14.375C21.4062 14.375 21.4062 13.125 20 13.125C18.5938 13.125 18.5938 14.375 17.1875 14.375C15.7812 14.375 15.7812 13.125 14.375 13.125C12.9688 13.125 12.9688 14.375 11.5625 14.375C10.1562 14.375 10.1562 13.125 8.75 13.125C7.34375 13.125 7.34375 14.375 5.9375 14.375C5.63869 14.365 5.34529 14.2926 5.07618 14.1623C4.80707 14.0321 4.56822 13.8469 4.375 13.6188C4.64041 12.9787 4.94301 12.3547 5.28125 11.75C5.49031 11.8322 5.71288 11.8746 5.9375 11.875C7.34375 11.875 7.34375 10.625 8.75 10.625C10.1562 10.625 10.1562 11.875 11.5625 11.875C12.9688 11.875 12.9688 10.625 14.375 10.625C15.7812 10.625 15.7812 11.875 17.1875 11.875C18.5938 11.875 18.5938 10.625 20 10.625C21.4062 10.625 21.4062 11.875 22.8125 11.875C24.2188 11.875 24.2188 10.625 25.625 10.625C27.0312 10.625 27.0312 11.875 28.4375 11.875C29.8438 11.875 29.8438 10.625 31.25 10.625C32.6562 10.625 32.6562 11.875 34.0625 11.875C34.2871 11.8746 34.5097 11.8322 34.7188 11.75Z" fill="#FFDF7C"/>
<path d="M34.7188 11.75C34.5097 11.8321 34.2871 11.8745 34.0625 11.875C32.6562 11.875 32.6562 10.625 31.25 10.625C29.8438 10.625 29.8438 11.875 28.4375 11.875C27.0312 11.875 27.0312 10.625 25.625 10.625C24.2188 10.625 24.2188 11.875 22.8125 11.875C21.4062 11.875 21.4062 10.625 20 10.625C18.5938 10.625 18.5938 11.875 17.1875 11.875C15.7812 11.875 15.7812 10.625 14.375 10.625C12.9688 10.625 12.9688 11.875 11.5625 11.875C10.1562 11.875 10.1562 10.625 8.75 10.625C7.34375 10.625 7.34375 11.875 5.9375 11.875C5.71288 11.8745 5.49031 11.8321 5.28125 11.75C5.94521 10.5684 6.7489 9.47089 7.675 8.48123C7.98105 8.24118 8.36116 8.11521 8.75 8.12498C10.1562 8.12498 10.1562 9.37498 11.5625 9.37498C12.9688 9.37498 12.9688 8.12498 14.375 8.12498C15.7812 8.12498 15.7812 9.37498 17.1875 9.37498C18.5938 9.37498 18.5938 8.12498 20 8.12498C21.4062 8.12498 21.4062 9.37498 22.8125 9.37498C24.2188 9.37498 24.2188 8.12498 25.625 8.12498C27.0312 8.12498 27.0312 9.37498 28.4375 9.37498C29.8438 9.37498 29.8438 8.12498 31.25 8.12498C31.6388 8.11521 32.0189 8.24118 32.325 8.48123C33.2511 9.47089 34.0548 10.5684 34.7188 11.75Z" fill="#FFC347"/>
<path d="M34.0312 29.3688C33.6009 30.0166 33.1247 30.6327 32.6062 31.2125C32.4335 31.0256 32.2237 30.8768 31.9901 30.7756C31.7566 30.6745 31.5045 30.6232 31.25 30.625C29.8438 30.625 29.8438 31.875 28.4375 31.875C27.0312 31.875 27.0312 30.625 25.625 30.625C24.2188 30.625 24.2188 31.875 22.8125 31.875C21.4062 31.875 21.4062 30.625 20 30.625C18.5938 30.625 18.5938 31.875 17.1875 31.875C15.7812 31.875 15.7812 30.625 14.375 30.625C12.9688 30.625 12.9688 31.875 11.5625 31.875C10.1562 31.875 10.1562 30.625 8.75 30.625C8.4955 30.6232 8.24342 30.6745 8.00988 30.7756C7.77634 30.8768 7.56649 31.0256 7.39375 31.2125C6.87534 30.6327 6.39912 30.0166 5.96875 29.3688C7.3375 29.35 7.35625 28.125 8.75 28.125C10.1562 28.125 10.1562 29.375 11.5625 29.375C12.9688 29.375 12.9688 28.125 14.375 28.125C15.7812 28.125 15.7812 29.375 17.1875 29.375C18.5938 29.375 18.5938 28.125 20 28.125C21.4062 28.125 21.4062 29.375 22.8125 29.375C24.2188 29.375 24.2188 28.125 25.625 28.125C27.0312 28.125 27.0312 29.375 28.4375 29.375C29.8438 29.375 29.8438 28.125 31.25 28.125C32.6438 28.125 32.6625 29.35 34.0312 29.3688Z" fill="#FFBF54"/>
<path d="M31.2498 30.625C31.5043 30.6231 31.7564 30.6745 31.9899 30.7756C32.2235 30.8768 32.4333 31.0256 32.6061 31.2125C31.5392 32.4109 30.3083 33.4524 28.9498 34.3062C28.7826 34.3509 28.6104 34.374 28.4373 34.375C27.0311 34.375 27.0311 33.125 25.6248 33.125C24.2186 33.125 24.2186 34.375 22.8123 34.375C21.4061 34.375 21.4061 33.125 19.9998 33.125C18.5936 33.125 18.5936 34.375 17.1873 34.375C15.7811 34.375 15.7811 33.125 14.3748 33.125C12.9686 33.125 12.9686 34.375 11.5623 34.375C11.3892 34.374 11.217 34.3509 11.0498 34.3062C9.69135 33.4524 8.46042 32.4109 7.39355 31.2125C7.56629 31.0256 7.77614 30.8768 8.00968 30.7756C8.24322 30.6745 8.4953 30.6231 8.7498 30.625C10.1561 30.625 10.1561 31.875 11.5623 31.875C12.9686 31.875 12.9686 30.625 14.3748 30.625C15.7811 30.625 15.7811 31.875 17.1873 31.875C18.5936 31.875 18.5936 30.625 19.9998 30.625C21.4061 30.625 21.4061 31.875 22.8123 31.875C24.2186 31.875 24.2186 30.625 25.6248 30.625C27.0311 30.625 27.0311 31.875 28.4373 31.875C29.8436 31.875 29.8436 30.625 31.2498 30.625Z" fill="#FBC04C"/>
<path d="M32.3248 8.48125C32.0188 8.2412 31.6386 8.11523 31.2498 8.125C29.8436 8.125 29.8436 9.375 28.4373 9.375C27.0311 9.375 27.0311 8.125 25.6248 8.125C24.2186 8.125 24.2186 9.375 22.8123 9.375C21.4061 9.375 21.4061 8.125 19.9998 8.125C18.5936 8.125 18.5936 9.375 17.1873 9.375C15.7811 9.375 15.7811 8.125 14.3748 8.125C12.9686 8.125 12.9686 9.375 11.5623 9.375C10.1561 9.375 10.1561 8.125 8.7498 8.125C8.36096 8.11523 7.98086 8.2412 7.6748 8.48125C8.43567 7.66289 9.27747 6.92371 10.1873 6.275C10.3626 6.46461 10.5753 6.61582 10.8119 6.71909C11.0486 6.82236 11.3041 6.87545 11.5623 6.875C12.9686 6.875 12.9686 5.625 14.3748 5.625C15.7811 5.625 15.7811 6.875 17.1873 6.875C18.5936 6.875 18.5936 5.625 19.9998 5.625C21.4061 5.625 21.4061 6.875 22.8123 6.875C24.2186 6.875 24.2186 5.625 25.6248 5.625C27.0311 5.625 27.0311 6.875 28.4373 6.875C28.6955 6.87545 28.951 6.82236 29.1877 6.71909C29.4243 6.61582 29.637 6.46461 29.8123 6.275C30.7221 6.92371 31.5639 7.66289 32.3248 8.48125Z" fill="#FFDF7C"/>
<path d="M29.8125 6.27499C29.6372 6.4646 29.4245 6.61581 29.1879 6.71908C28.9512 6.82235 28.6957 6.87544 28.4375 6.87499C27.0312 6.87499 27.0312 5.62499 25.625 5.62499C24.2187 5.62499 24.2187 6.87499 22.8125 6.87499C21.4062 6.87499 21.4062 5.62499 20 5.62499C18.5938 5.62499 18.5938 6.87499 17.1875 6.87499C15.7812 6.87499 15.7812 5.62499 14.375 5.62499C12.9688 5.62499 12.9688 6.87499 11.5625 6.87499C11.3043 6.87544 11.0488 6.82235 10.8121 6.71908C10.5755 6.61581 10.3628 6.4646 10.1875 6.27499C13.0493 4.22644 16.4805 3.12494 20 3.12494C23.5195 3.12494 26.9507 4.22644 29.8125 6.27499Z" fill="#EC782D"/>
<path d="M28.4373 34.375C28.6104 34.374 28.7826 34.3509 28.9498 34.3062C26.2664 35.985 23.165 36.8752 19.9998 36.8752C16.8346 36.8752 13.7332 35.985 11.0498 34.3062C11.217 34.3509 11.3892 34.374 11.5623 34.375C12.9686 34.375 12.9686 33.125 14.3748 33.125C15.7811 33.125 15.7811 34.375 17.1873 34.375C18.5936 34.375 18.5936 33.125 19.9998 33.125C21.4061 33.125 21.4061 34.375 22.8123 34.375C24.2186 34.375 24.2186 33.125 25.6248 33.125C27.0311 33.125 27.0311 34.375 28.4373 34.375Z" fill="#EC782D"/>
<path d="M8.75 19.375C10.1562 19.375 10.1562 20.625 11.5625 20.625C12.9688 20.625 12.9688 19.375 14.375 19.375C15.7812 19.375 15.7812 20.625 17.1875 20.625C18.5938 20.625 18.5938 19.375 20 19.375C21.4062 19.375 21.4062 20.625 22.8125 20.625C24.2188 20.625 24.2188 19.375 25.625 19.375C27.0312 19.375 27.0312 20.625 28.4375 20.625C29.8438 20.625 29.8438 19.375 31.25 19.375C32.6562 19.375 32.6562 20.625 34.0625 20.625C34.1605 20.6222 34.2581 20.6113 34.3544 20.5925C34.3631 20.3956 34.375 20.1994 34.375 20C34.375 19.7794 34.3681 19.5625 34.3581 19.3425C34.2606 19.361 34.1617 19.3719 34.0625 19.375C32.6562 19.375 32.6562 18.125 31.25 18.125C29.8438 18.125 29.8438 19.375 28.4375 19.375C27.0312 19.375 27.0312 18.125 25.625 18.125C24.2188 18.125 24.2188 19.375 22.8125 19.375C21.4062 19.375 21.4062 18.125 20 18.125C18.5938 18.125 18.5938 19.375 17.1875 19.375C15.7812 19.375 15.7812 18.125 14.375 18.125C12.9688 18.125 12.9688 19.375 11.5625 19.375C10.1562 19.375 10.1562 18.125 8.75 18.125C7.34375 18.125 7.34375 19.375 5.9375 19.375C5.83826 19.3719 5.73942 19.361 5.64188 19.3425C5.63188 19.5625 5.625 19.7794 5.625 20C5.625 20.1994 5.63687 20.3956 5.64562 20.5925C5.74186 20.6113 5.83948 20.6222 5.9375 20.625C7.34375 20.625 7.34375 19.375 8.75 19.375Z" fill="#FF813A"/>
<path d="M11.5626 23.125C12.9688 23.125 12.9688 21.875 14.3751 21.875C15.7813 21.875 15.7813 23.125 17.1876 23.125C18.5938 23.125 18.5938 21.875 20.0001 21.875C21.4063 21.875 21.4063 23.125 22.8126 23.125C24.2188 23.125 24.2188 21.875 25.6251 21.875C27.0313 21.875 27.0313 23.125 28.4376 23.125C29.8438 23.125 29.8438 21.875 31.2501 21.875C32.6445 21.875 32.6601 23.1012 34.032 23.1212C34.1232 22.7046 34.1965 22.2819 34.252 21.8531C34.1899 21.8638 34.1273 21.8711 34.0645 21.875C32.6582 21.875 32.6582 20.625 31.252 20.625C29.8457 20.625 29.8457 21.875 28.4395 21.875C27.0332 21.875 27.0332 20.625 25.627 20.625C24.2207 20.625 24.2207 21.875 22.8145 21.875C21.4082 21.875 21.4082 20.625 20.002 20.625C18.5957 20.625 18.5957 21.875 17.1895 21.875C15.7832 21.875 15.7832 20.625 14.377 20.625C12.9707 20.625 12.9707 21.875 11.5645 21.875C10.1582 21.875 10.1582 20.625 8.75195 20.625C7.3457 20.625 7.3457 21.875 5.93945 21.875C5.8766 21.8711 5.81401 21.8638 5.75195 21.8531C5.80695 22.2819 5.88029 22.7046 5.97195 23.1212C7.34008 23.1012 7.3557 21.875 8.75008 21.875C10.1563 21.875 10.1563 23.125 11.5626 23.125Z" fill="#FF813A"/>
<path d="M8.74994 16.875C10.1562 16.875 10.1562 18.125 11.5624 18.125C12.9687 18.125 12.9687 16.875 14.3749 16.875C15.7812 16.875 15.7812 18.125 17.1874 18.125C18.5937 18.125 18.5937 16.875 19.9999 16.875C21.4062 16.875 21.4062 18.125 22.8124 18.125C24.2187 18.125 24.2187 16.875 25.6249 16.875C27.0312 16.875 27.0312 18.125 28.4374 18.125C29.8437 18.125 29.8437 16.875 31.2499 16.875C32.6562 16.875 32.6562 18.125 34.0624 18.125C34.1254 18.1235 34.1881 18.1166 34.2499 18.1044C34.1945 17.6877 34.1218 17.2767 34.0318 16.8712C32.6599 16.8494 32.6437 15.625 31.2499 15.625C29.8437 15.625 29.8437 16.875 28.4374 16.875C27.0312 16.875 27.0312 15.625 25.6249 15.625C24.2187 15.625 24.2187 16.875 22.8124 16.875C21.4062 16.875 21.4062 15.625 19.9999 15.625C18.5937 15.625 18.5937 16.875 17.1874 16.875C15.7812 16.875 15.7812 15.625 14.3749 15.625C12.9687 15.625 12.9687 16.875 11.5624 16.875C10.1562 16.875 10.1562 15.625 8.74994 15.625C7.35619 15.625 7.33994 16.8494 5.97057 16.8712C5.88057 17.2762 5.80786 17.6873 5.75244 18.1044C5.81342 18.1164 5.87531 18.1233 5.93744 18.125C7.34369 18.125 7.34369 16.875 8.74994 16.875Z" fill="#FF813A"/>
<path d="M11.5623 25.625C12.9685 25.625 12.9685 24.375 14.3748 24.375C15.781 24.375 15.781 25.625 17.1873 25.625C18.5935 25.625 18.5935 24.375 19.9998 24.375C21.406 24.375 21.406 25.625 22.8123 25.625C24.2185 25.625 24.2185 24.375 25.6248 24.375C27.031 24.375 27.031 25.625 28.4373 25.625C29.8435 25.625 29.8435 24.375 31.2498 24.375C32.336 24.375 32.5948 25.1112 33.3016 25.4487C33.4516 25.0844 33.5885 24.7131 33.7085 24.3344C32.6535 24.14 32.5229 23.125 31.2498 23.125C29.8435 23.125 29.8435 24.375 28.4373 24.375C27.031 24.375 27.031 23.125 25.6248 23.125C24.2185 23.125 24.2185 24.375 22.8123 24.375C21.406 24.375 21.406 23.125 19.9998 23.125C18.5935 23.125 18.5935 24.375 17.1873 24.375C15.781 24.375 15.781 23.125 14.3748 23.125C12.9685 23.125 12.9685 24.375 11.5623 24.375C10.156 24.375 10.156 23.125 8.74977 23.125C7.47664 23.125 7.34602 24.14 6.29102 24.3344C6.41102 24.7131 6.54789 25.0844 6.69789 25.4487C7.40477 25.1112 7.66352 24.375 8.74977 24.375C10.156 24.375 10.156 25.625 11.5623 25.625Z" fill="#FF813A"/>
<path d="M11.5624 15.625C12.9687 15.625 12.9687 14.375 14.3749 14.375C15.7812 14.375 15.7812 15.625 17.1874 15.625C18.5937 15.625 18.5937 14.375 19.9999 14.375C21.4062 14.375 21.4062 15.625 22.8124 15.625C24.2187 15.625 24.2187 14.375 25.6249 14.375C27.0312 14.375 27.0312 15.625 28.4374 15.625C29.8437 15.625 29.8437 14.375 31.2499 14.375C32.5074 14.375 32.653 15.3638 33.6737 15.5744C33.5123 15.073 33.3233 14.581 33.1074 14.1006C32.5362 13.7331 32.2349 13.125 31.2499 13.125C29.8437 13.125 29.8437 14.375 28.4374 14.375C27.0312 14.375 27.0312 13.125 25.6249 13.125C24.2187 13.125 24.2187 14.375 22.8124 14.375C21.4062 14.375 21.4062 13.125 19.9999 13.125C18.5937 13.125 18.5937 14.375 17.1874 14.375C15.7812 14.375 15.7812 13.125 14.3749 13.125C12.9687 13.125 12.9687 14.375 11.5624 14.375C10.1562 14.375 10.1562 13.125 8.74992 13.125C7.76492 13.125 7.46367 13.7331 6.89242 14.1006C6.67655 14.581 6.48751 15.073 6.32617 15.5744C7.3468 15.3638 7.49242 14.375 8.74992 14.375C10.1562 14.375 10.1562 15.625 11.5624 15.625Z" fill="#FF813A"/>
<path d="M11.5625 28.125C12.9688 28.125 12.9688 26.875 14.375 26.875C15.7812 26.875 15.7812 28.125 17.1875 28.125C18.5938 28.125 18.5938 26.875 20 26.875C21.4062 26.875 21.4062 28.125 22.8125 28.125C24.2188 28.125 24.2188 26.875 25.625 26.875C27.0312 26.875 27.0312 28.125 28.4375 28.125C29.8438 28.125 29.8438 26.875 31.25 26.875C31.6672 26.8651 32.0739 27.007 32.3944 27.2744C32.5581 26.9962 32.7144 26.7119 32.8594 26.4231C32.6611 26.1858 32.4156 25.9923 32.1386 25.8549C31.8615 25.7175 31.5589 25.6392 31.25 25.625C29.8438 25.625 29.8438 26.875 28.4375 26.875C27.0312 26.875 27.0312 25.625 25.625 25.625C24.2188 25.625 24.2188 26.875 22.8125 26.875C21.4062 26.875 21.4062 25.625 20 25.625C18.5938 25.625 18.5938 26.875 17.1875 26.875C15.7812 26.875 15.7812 25.625 14.375 25.625C12.9688 25.625 12.9688 26.875 11.5625 26.875C10.1562 26.875 10.1562 25.625 8.75 25.625C8.44108 25.6392 8.13849 25.7175 7.86144 25.8549C7.58439 25.9923 7.33893 26.1858 7.14062 26.4231C7.28562 26.7131 7.44187 26.9962 7.60562 27.2744C7.9261 27.007 8.33275 26.8651 8.75 26.875C10.1562 26.875 10.1562 28.125 11.5625 28.125Z" fill="#FF813A"/>
<path d="M11.5625 13.125C12.9687 13.125 12.9687 11.875 14.375 11.875C15.7812 11.875 15.7812 13.125 17.1875 13.125C18.5937 13.125 18.5937 11.875 20 11.875C21.4062 11.875 21.4062 13.125 22.8125 13.125C24.2187 13.125 24.2187 11.875 25.625 11.875C27.0312 11.875 27.0312 13.125 28.4375 13.125C29.8437 13.125 29.8437 11.875 31.25 11.875C31.4828 11.8718 31.7141 11.9143 31.9306 12C31.6216 11.5347 31.2856 11.0879 30.9243 10.6619C29.845 10.8438 29.7212 11.875 28.4375 11.875C27.0312 11.875 27.0312 10.625 25.625 10.625C24.2187 10.625 24.2187 11.875 22.8125 11.875C21.4062 11.875 21.4062 10.625 20 10.625C18.5937 10.625 18.5937 11.875 17.1875 11.875C15.7812 11.875 15.7812 10.625 14.375 10.625C12.9687 10.625 12.9687 11.875 11.5625 11.875C10.2787 11.875 10.155 10.8437 9.07559 10.6625C8.71433 11.0885 8.37834 11.5353 8.06934 12.0006C8.28582 11.9147 8.51706 11.872 8.74996 11.875C10.1562 11.875 10.1562 13.125 11.5625 13.125Z" fill="#FF813A"/>
<path d="M14.3749 9.375C15.7811 9.375 15.7811 10.625 17.1874 10.625C18.5936 10.625 18.5936 9.375 19.9999 9.375C21.4061 9.375 21.4061 10.625 22.8124 10.625C24.2186 10.625 24.2186 9.375 25.6249 9.375C27.0311 9.375 27.0311 10.625 28.4374 10.625C29.3074 10.625 29.648 10.1544 30.1111 9.7925C29.8736 9.5575 29.6305 9.32813 29.3774 9.11C29.0974 9.28989 28.7701 9.38216 28.4374 9.375C27.0311 9.375 27.0311 8.125 25.6249 8.125C24.2186 8.125 24.2186 9.375 22.8124 9.375C21.4061 9.375 21.4061 8.125 19.9999 8.125C18.5936 8.125 18.5936 9.375 17.1874 9.375C15.7811 9.375 15.7811 8.125 14.3749 8.125C12.9686 8.125 12.9686 9.375 11.5624 9.375C11.2305 9.38166 10.9041 9.28941 10.6249 9.11C10.3749 9.32813 10.1286 9.5575 9.89111 9.7925C10.3517 10.1544 10.6924 10.625 11.5624 10.625C12.9686 10.625 12.9686 9.375 14.3749 9.375Z" fill="#FF813A"/>
<path d="M14.3751 29.375C15.7814 29.375 15.7814 30.625 17.1876 30.625C18.5939 30.625 18.5939 29.375 20.0001 29.375C21.4064 29.375 21.4064 30.625 22.8126 30.625C24.2189 30.625 24.2189 29.375 25.6251 29.375C27.0314 29.375 27.0314 30.625 28.4376 30.625C29.6876 30.625 29.8333 29.6394 30.8408 29.4219C31.1812 29.0352 31.5007 28.6304 31.7976 28.2094C31.6205 28.1534 31.4359 28.1249 31.2501 28.125C29.8439 28.125 29.8439 29.375 28.4376 29.375C27.0314 29.375 27.0314 28.125 25.6251 28.125C24.2189 28.125 24.2189 29.375 22.8126 29.375C21.4064 29.375 21.4064 28.125 20.0001 28.125C18.5939 28.125 18.5939 29.375 17.1876 29.375C15.7814 29.375 15.7814 28.125 14.3751 28.125C12.9689 28.125 12.9689 29.375 11.5626 29.375C10.1564 29.375 10.1564 28.125 8.75014 28.125C8.56439 28.1249 8.37974 28.1534 8.20264 28.2094C8.49961 28.6304 8.81903 29.0352 9.15951 29.4219C10.167 29.6394 10.3126 30.625 11.5626 30.625C12.9689 30.625 12.9689 29.375 14.3751 29.375Z" fill="#FF813A"/>
<path d="M17.1875 33.125C18.5938 33.125 18.5938 31.875 20 31.875C21.4063 31.875 21.4063 33.125 22.8125 33.125C24.2188 33.125 24.2188 31.875 25.625 31.875C25.8957 31.8774 26.163 31.9355 26.4103 32.0456C26.6576 32.1557 26.8796 32.3155 27.0625 32.515C27.4332 32.3056 27.7957 32.0825 28.145 31.8419C27.0363 31.6762 26.9219 30.625 25.625 30.625C24.2188 30.625 24.2188 31.875 22.8125 31.875C21.4063 31.875 21.4063 30.625 20 30.625C18.5938 30.625 18.5938 31.875 17.1875 31.875C15.7813 31.875 15.7813 30.625 14.375 30.625C13.0782 30.625 12.9638 31.6762 11.8525 31.8419C12.2019 32.0825 12.5644 32.3056 12.935 32.515C13.1183 32.3152 13.3407 32.1552 13.5884 32.0451C13.8362 31.935 14.1039 31.8771 14.375 31.875C15.7813 31.875 15.7813 33.125 17.1875 33.125Z" fill="#FF813A"/>
<path d="M22.8127 6.875C21.4064 6.875 21.4064 5.625 20.0002 5.625C18.5939 5.625 18.5939 6.875 17.1877 6.875C16.9238 6.87436 16.6629 6.8188 16.4217 6.71184C16.1804 6.60489 15.9641 6.44888 15.7864 6.25375C15.1994 6.43507 14.6248 6.65449 14.0664 6.91063C14.1681 6.89005 14.2714 6.87813 14.3752 6.875C15.7814 6.875 15.7814 8.125 17.1877 8.125C18.5939 8.125 18.5939 6.875 20.0002 6.875C21.4064 6.875 21.4064 8.125 22.8127 8.125C24.2189 8.125 24.2189 6.875 25.6252 6.875C25.7289 6.87813 25.8322 6.89005 25.9339 6.91063C25.3755 6.65449 24.8009 6.43507 24.2139 6.25375C24.0362 6.44888 23.8199 6.60489 23.5787 6.71184C23.3374 6.8188 23.0765 6.87436 22.8127 6.875Z" fill="#FF813A"/>
<path d="M5.625 20C5.625 19.7794 5.63188 19.5625 5.64188 19.3425C4.56563 19.1819 4.42 18.2006 3.23125 18.1375C3.16106 18.7559 3.12559 19.3777 3.125 20C3.125 20.2125 3.13125 20.4188 3.14375 20.625C4.46063 20.6369 4.5475 21.74 5.74812 21.8531C5.66751 21.2387 5.62638 20.6197 5.625 20Z" fill="#C33E11"/>
<path d="M36.7688 18.1375C35.5813 18.2 35.4344 19.1819 34.3581 19.3425C34.3681 19.5606 34.375 19.78 34.375 20C34.373 20.6198 34.3312 21.2387 34.25 21.8531C35.4506 21.74 35.5375 20.6369 36.8544 20.625C36.8669 20.4188 36.8731 20.2125 36.8731 20C36.8732 19.3777 36.8383 18.7559 36.7688 18.1375Z" fill="#C33E11"/>
<path d="M33.7085 24.3344C33.8249 24.3591 33.9433 24.3727 34.0622 24.375C35.356 24.375 35.4747 23.3313 36.5747 23.1625C36.7322 22.3249 36.8262 21.4767 36.856 20.625C35.5391 20.6369 35.4522 21.74 34.2516 21.8531C34.1445 22.6947 33.9628 23.525 33.7085 24.3344Z" fill="#E3511F"/>
<path d="M6.29105 24.3344C6.03676 23.525 5.855 22.6947 5.74793 21.8531C4.5473 21.74 4.46043 20.6369 3.14355 20.625C3.17337 21.4767 3.26739 22.3249 3.4248 23.1625C4.5248 23.3313 4.64355 24.375 5.9373 24.375C6.05624 24.3727 6.17469 24.3591 6.29105 24.3344Z" fill="#E3511F"/>
<path d="M34.0293 16.8712C34.2104 17.6839 34.3204 18.5107 34.358 19.3425C35.4343 19.1818 35.5799 18.2006 36.7687 18.1375C36.6823 17.3191 36.534 16.5084 36.3249 15.7125C35.4437 15.9875 35.2499 16.875 34.0624 16.875C34.0499 16.875 34.0418 16.8712 34.0293 16.8712Z" fill="#E3511F"/>
<path d="M5.97082 16.8712C5.95832 16.8712 5.9502 16.875 5.9377 16.875C4.7502 16.875 4.55645 15.9875 3.6752 15.7125C3.46617 16.5084 3.31782 17.3191 3.23145 18.1375C4.41895 18.2 4.56582 19.1818 5.64207 19.3425C5.67976 18.5107 5.78976 17.6839 5.97082 16.8712Z" fill="#E3511F"/>
<path d="M7.14043 26.4231C6.80267 25.7503 6.51866 25.0519 6.29105 24.3344C6.17469 24.3591 6.05624 24.3727 5.9373 24.375C4.64355 24.375 4.5248 23.3312 3.4248 23.1625C3.60963 24.1275 3.87729 25.0747 4.2248 25.9937C4.7123 26.3625 5.0373 26.875 5.9373 26.875C6.38137 26.8837 6.81192 26.722 7.14043 26.4231Z" fill="#C33E11"/>
<path d="M33.7087 24.3344C33.4811 25.0519 33.1971 25.7503 32.8594 26.4231C33.1879 26.722 33.6184 26.8837 34.0625 26.875C34.9625 26.875 35.2875 26.3625 35.775 25.9937C36.1225 25.0747 36.3902 24.1275 36.575 23.1625C35.475 23.3312 35.3562 24.375 34.0625 24.375C33.9436 24.3727 33.8251 24.3591 33.7087 24.3344Z" fill="#C33E11"/>
<path d="M5.97043 16.8712C6.18192 15.9185 6.49084 14.9901 6.8923 14.1006C6.6091 14.2866 6.27608 14.3823 5.9373 14.375C5.6385 14.365 5.34509 14.2925 5.07598 14.1623C4.80687 14.032 4.56802 13.8469 4.3748 13.6187C4.09579 14.3005 3.86195 14.9999 3.6748 15.7125C4.55605 15.9875 4.7498 16.875 5.9373 16.875C5.9498 16.875 5.95793 16.8712 5.97043 16.8712Z" fill="#C33E11"/>
<path d="M33.1074 14.1006C33.5089 14.9901 33.8178 15.9185 34.0293 16.8712C34.0418 16.8712 34.0499 16.875 34.0624 16.875C35.2499 16.875 35.4437 15.9875 36.3249 15.7125C36.1378 14.9999 35.9039 14.3005 35.6249 13.6187C35.4317 13.8469 35.1929 14.032 34.9237 14.1623C34.6546 14.2925 34.3612 14.365 34.0624 14.375C33.7236 14.3823 33.3906 14.2866 33.1074 14.1006Z" fill="#C33E11"/>
<path d="M7.14072 26.4231C6.81221 26.722 6.38166 26.8837 5.9376 26.875C5.0376 26.875 4.7126 26.3625 4.2251 25.9937C4.67387 27.1824 5.25903 28.3149 5.96885 29.3687C7.1276 29.3531 7.32635 28.4793 8.2026 28.2093C7.80595 27.6404 7.45106 27.0434 7.14072 26.4231Z" fill="#E3511F"/>
<path d="M32.8594 26.4231C32.5488 27.0434 32.1937 27.6404 31.7969 28.2093C32.6719 28.4793 32.8719 29.3531 34.0306 29.3687C34.7404 28.3149 35.3256 27.1824 35.7744 25.9937C35.2869 26.3625 34.9619 26.875 34.0619 26.875C33.618 26.8835 33.1877 26.7219 32.8594 26.4231Z" fill="#E3511F"/>
<path d="M31.2499 10.625C31.1405 10.6277 31.0315 10.6403 30.9243 10.6625C31.8118 11.6987 32.5469 12.8562 33.1074 14.1C33.3906 14.2863 33.7236 14.3822 34.0624 14.375C34.3612 14.365 34.6547 14.2926 34.9238 14.1623C35.1929 14.0321 35.4317 13.8469 35.6249 13.6188C35.3595 12.9787 35.0569 12.3547 34.7187 11.75C34.5096 11.8322 34.2871 11.8746 34.0624 11.875C32.6562 11.875 32.6562 10.625 31.2499 10.625Z" fill="#E3511F"/>
<path d="M6.8925 14.1006C7.453 12.8568 8.18811 11.6993 9.07562 10.6631C8.96844 10.6407 8.85946 10.6279 8.75 10.625C7.34375 10.625 7.34375 11.875 5.9375 11.875C5.71288 11.8746 5.49031 11.8322 5.28125 11.75C4.94301 12.3547 4.64041 12.9787 4.375 13.6188C4.56822 13.8469 4.80707 14.0321 5.07618 14.1623C5.34529 14.2926 5.63869 14.365 5.9375 14.375C6.27627 14.3824 6.6093 14.2867 6.8925 14.1006Z" fill="#E3511F"/>
<path d="M29.375 9.10998C29.9293 9.58742 30.4464 10.1064 30.9219 10.6625C31.0299 10.6401 31.1397 10.6276 31.25 10.625C32.6562 10.625 32.6562 11.875 34.0625 11.875C34.2871 11.8745 34.5097 11.8321 34.7187 11.75C34.0548 10.5684 33.2511 9.47089 32.325 8.48123C32.0189 8.24118 31.6388 8.11521 31.25 8.12498C30.2562 8.12498 29.9594 8.74373 29.375 9.10998Z" fill="#C33E11"/>
<path d="M8.75 10.625C8.85945 10.6277 8.96843 10.6403 9.07562 10.6625C9.55185 10.1063 10.0698 9.58733 10.625 9.10998C10.0406 8.74373 9.74375 8.12498 8.75 8.12498C8.36116 8.11521 7.98105 8.24118 7.675 8.48123C6.7489 9.47089 5.94521 10.5684 5.28125 11.75C5.49031 11.8321 5.71288 11.8745 5.9375 11.875C7.34375 11.875 7.34375 10.625 8.75 10.625Z" fill="#C33E11"/>
<path d="M11.5625 31.875C11.6599 31.8716 11.7569 31.8606 11.8525 31.8419C10.4282 30.8593 9.19191 29.6289 8.2025 28.2094C7.3275 28.4794 7.1275 29.3531 5.96875 29.3687C6.39912 30.0165 6.87534 30.6327 7.39375 31.2125C7.56649 31.0256 7.77634 30.8768 8.00988 30.7756C8.24342 30.6744 8.4955 30.6231 8.75 30.625C10.1562 30.625 10.1562 31.875 11.5625 31.875Z" fill="#C33E11"/>
<path d="M28.1475 31.8419C28.2431 31.8606 28.3401 31.8716 28.4375 31.875C29.8437 31.875 29.8437 30.625 31.25 30.625C31.5045 30.6231 31.7565 30.6744 31.9901 30.7756C32.2236 30.8768 32.4335 31.0256 32.6062 31.2125C33.1246 30.6327 33.6008 30.0165 34.0312 29.3687C32.8725 29.3531 32.6737 28.4794 31.7975 28.2094C30.808 29.6289 29.5718 30.8593 28.1475 31.8419Z" fill="#C33E11"/>
<path d="M17.1876 34.375C17.4373 34.3777 17.6846 34.3256 17.912 34.2225C17.1874 34.1174 16.4719 33.9567 15.772 33.7419C15.9509 33.9401 16.1692 34.0988 16.413 34.2078C16.6568 34.3168 16.9206 34.3738 17.1876 34.375Z" fill="#F03C00"/>
<path d="M22.8123 34.375C23.0793 34.3738 23.3431 34.3168 23.5869 34.2078C23.8306 34.0988 24.0489 33.9401 24.2279 33.7419C23.5279 33.9567 22.8125 34.1174 22.0879 34.2225C22.3153 34.3256 22.5626 34.3777 22.8123 34.375Z" fill="#F03C00"/>
<path d="M14.1873 33.1469C13.3705 32.7854 12.5892 32.3485 11.8536 31.8419C11.7575 31.8606 11.6601 31.8717 11.5623 31.875C10.1561 31.875 10.1561 30.625 8.7498 30.625C8.4953 30.6231 8.24322 30.6745 8.00968 30.7756C7.77614 30.8768 7.56629 31.0256 7.39355 31.2125C8.46042 32.4109 9.69135 33.4524 11.0498 34.3062C11.217 34.3509 11.3892 34.374 11.5623 34.375C12.8973 34.375 12.9792 33.2606 14.1873 33.1469Z" fill="#E3511F"/>
<path d="M28.4375 31.875C28.3401 31.8716 28.2431 31.8606 28.1475 31.8419C27.4115 32.3486 26.6298 32.7855 25.8125 33.1469C27.0206 33.2606 27.1025 34.375 28.4375 34.375C28.6106 34.374 28.7828 34.3509 28.95 34.3062C30.3085 33.4524 31.5394 32.4109 32.6062 31.2125C32.4335 31.0256 32.2237 30.8768 31.9901 30.7756C31.7566 30.6745 31.5045 30.6231 31.25 30.625C29.8438 30.625 29.8438 31.875 28.4375 31.875Z" fill="#E3511F"/>
<path d="M25.6251 5.625C25.3591 5.626 25.0962 5.68243 24.8532 5.79069C24.6103 5.89894 24.3925 6.05665 24.2139 6.25375C26.1134 6.83832 27.8709 7.81093 29.3751 9.11C29.9595 8.74375 30.2564 8.125 31.2501 8.125C31.639 8.11523 32.0191 8.2412 32.3251 8.48125C31.5643 7.66289 30.7225 6.92371 29.8126 6.275C29.6373 6.46461 29.4247 6.61582 29.188 6.71909C28.9513 6.82236 28.6958 6.87545 28.4376 6.875C27.0314 6.875 27.0314 5.625 25.6251 5.625Z" fill="#E3511F"/>
<path d="M10.6248 9.11C12.1297 7.81063 13.8881 6.83801 15.7886 6.25375C15.6096 6.05634 15.3915 5.89845 15.148 5.79018C14.9046 5.68192 14.6412 5.62565 14.3748 5.625C12.9686 5.625 12.9686 6.875 11.5623 6.875C11.3041 6.87545 11.0486 6.82236 10.8119 6.71909C10.5753 6.61582 10.3626 6.46461 10.1873 6.275C9.27747 6.92371 8.43567 7.66289 7.6748 8.48125C7.98086 8.2412 8.36096 8.11523 8.7498 8.125C9.74355 8.125 10.0404 8.74375 10.6248 9.11Z" fill="#E3511F"/>
<path d="M14.375 5.62499C14.641 5.62599 14.9039 5.68242 15.1469 5.79068C15.3899 5.89894 15.6076 6.05664 15.7862 6.25374C18.5329 5.41542 21.4671 5.41542 24.2137 6.25374C24.3924 6.05664 24.6101 5.89894 24.8531 5.79068C25.0961 5.68242 25.359 5.62599 25.625 5.62499C27.0312 5.62499 27.0312 6.87499 28.4375 6.87499C28.6957 6.87544 28.9512 6.82235 29.1879 6.71908C29.4245 6.61581 29.6372 6.4646 29.8125 6.27499C26.9507 4.22644 23.5195 3.12494 20 3.12494C16.4805 3.12494 13.0493 4.22644 10.1875 6.27499C10.3628 6.4646 10.5755 6.61581 10.8121 6.71908C11.0488 6.82235 11.3043 6.87544 11.5625 6.87499C12.9688 6.87499 12.9688 5.62499 14.375 5.62499Z" fill="#C33E11"/>
<path d="M25.8123 33.1469C25.2961 33.3765 24.7666 33.5752 24.2267 33.7419C24.0479 33.9399 23.8298 34.0985 23.5862 34.2075C23.3427 34.3165 23.0791 34.3735 22.8123 34.375C22.5626 34.3777 22.3154 34.3256 22.0879 34.2225C20.7033 34.4258 19.2963 34.4258 17.9117 34.2225C17.6843 34.3256 17.437 34.3777 17.1873 34.375C16.9203 34.3737 16.6565 34.3168 16.4127 34.2077C16.1689 34.0987 15.9506 33.94 15.7717 33.7419C15.2318 33.5752 14.7023 33.3765 14.1861 33.1469C12.9792 33.2606 12.8973 34.375 11.5623 34.375C11.3892 34.374 11.217 34.3509 11.0498 34.3062C13.7332 35.985 16.8346 36.8752 19.9998 36.8752C23.165 36.8752 26.2664 35.985 28.9498 34.3062C28.7826 34.3509 28.6104 34.374 28.4373 34.375C27.1023 34.375 27.0204 33.2606 25.8123 33.1469Z" fill="#C33E11"/>
<path d="M34.7813 14.2375L34.8187 11.875L35 0.625H35.625L36.25 39.375H34.375L34.5438 28.75L34.575 26.8563L34.6563 21.8875L34.7375 16.75L34.7813 14.2375Z" fill="#DCD9D0"/>
<path d="M38.75 0.625L39.375 39.375H37.5L38.125 0.625H38.75Z" fill="#DCD9D0"/>
<path d="M38.125 35.625V0.625L37.5 39.375H39.375L39.3344 36.8706C39.0107 36.8601 38.7037 36.7244 38.4782 36.492C38.2526 36.2597 38.126 35.9488 38.125 35.625Z" fill="#9C9C9C"/>
<path d="M35 35.625V0.625L34.375 39.375H36.25L36.2094 36.8706C35.8857 36.8601 35.5787 36.7244 35.3532 36.492C35.1276 36.2597 35.001 35.9488 35 35.625Z" fill="#9C9C9C"/>
<path d="M18.75 14.375C21.5114 14.375 23.75 12.1364 23.75 9.375C23.75 6.61358 21.5114 4.375 18.75 4.375C15.9886 4.375 13.75 6.61358 13.75 9.375C13.75 12.1364 15.9886 14.375 18.75 14.375Z" fill="#F06046"/>
<path d="M23.0968 8.89375C23.0671 9.30349 22.9878 9.70811 22.8606 10.0987C22.6562 10.7524 22.2652 11.332 21.7356 11.7662C20.8712 12.445 19.3124 12.5 18.8281 12.5H18.7399C18.3658 12.5145 17.9929 12.4501 17.6453 12.3109C17.2977 12.1718 16.9833 11.9611 16.7224 11.6925C16.332 11.3101 16.0311 10.8459 15.8413 10.3334C15.6516 9.82082 15.5777 9.27261 15.6249 8.72812C15.6296 8.26218 15.7381 7.80314 15.9424 7.38437C16.3749 6.54875 16.9481 6.25 18.1249 6.25C19.7662 6.25 20.6249 7.19312 20.6249 8.125C20.6007 8.61445 20.3954 9.07742 20.0489 9.42394C19.7024 9.77047 19.2394 9.97578 18.7499 10C18.5842 10 18.4252 9.93415 18.308 9.81694C18.1908 9.69973 18.1249 9.54076 18.1249 9.375C18.1249 9.20924 18.1908 9.05026 18.308 8.93305C18.4252 8.81584 18.5842 8.75 18.7499 8.75C18.908 8.72819 19.0546 8.65533 19.1675 8.5425C19.2803 8.42967 19.3531 8.28306 19.3749 8.125C19.3749 7.86562 18.9874 7.5 18.1249 7.5C17.2912 7.5 17.2156 7.64687 17.0481 7.96875C16.9333 8.22419 16.8742 8.50119 16.8749 8.78125C16.8397 9.13841 16.8814 9.499 16.9974 9.83864C17.1135 10.1783 17.301 10.4891 17.5474 10.75C17.6975 10.9211 17.8851 11.0552 18.0955 11.1419C18.3059 11.2286 18.5335 11.2656 18.7606 11.25C19.5242 11.3009 20.287 11.1393 20.9643 10.7831C21.3 10.4974 21.5472 10.1219 21.6768 9.70062C21.8254 9.22104 21.8924 8.7199 21.8749 8.21812C21.8731 7.96575 21.857 7.71368 21.8268 7.46312C21.7756 6.9492 21.577 6.46101 21.2549 6.05729C20.9328 5.65357 20.5009 5.35153 20.0112 5.1875C19.4092 5.00536 18.7751 4.95514 18.152 5.04026C17.5288 5.12539 16.9314 5.34385 16.4004 5.68078C15.8693 6.0177 15.4171 6.46515 15.0747 6.99264C14.7322 7.52013 14.5075 8.11525 14.4158 8.73745C14.3242 9.35964 14.3678 9.99428 14.5436 10.5981C14.7194 11.2019 15.0234 11.7608 15.4347 12.2365C15.846 12.7122 16.3551 13.0937 16.9272 13.3549C17.4993 13.6161 18.121 13.7508 18.7499 13.75C19.4467 13.7385 20.1221 13.5075 20.6799 13.09C22.9618 11.4256 23.23 10.1006 23.0968 8.89375Z" fill="#F89180"/>
<path d="M18.9757 5.00622C18.9233 5.00632 18.8727 5.02542 18.8332 5.05997C18.805 5.09576 18.7886 5.13945 18.7863 5.18497C18.7765 5.3383 18.8002 5.49192 18.8558 5.63515C18.9114 5.77839 18.9975 5.90779 19.1082 6.01435C19.3267 6.21763 19.5667 6.39659 19.8238 6.5481C20.1996 6.80065 20.5472 7.09274 20.8607 7.41935C20.907 7.46747 20.9707 7.51997 21.0301 7.49122C21.0532 7.47678 21.0722 7.45652 21.0851 7.43247C21.8976 6.1556 19.9745 4.90122 18.9757 5.00622Z" fill="#F8E2CD"/>
<path d="M17.6694 11.7613C17.3974 11.6395 17.1037 11.5733 16.8058 11.5667C16.5078 11.56 16.2115 11.613 15.9344 11.7225C15.8005 11.7791 15.6942 11.8859 15.6381 12.02C15.6224 12.0966 15.628 12.176 15.6543 12.2497C15.6807 12.3233 15.7267 12.3883 15.7875 12.4375C15.9174 12.5472 16.0635 12.6362 16.2206 12.7013L16.875 13.0138C17.1969 13.1837 17.5387 13.313 17.8925 13.3988C18.2544 13.4853 18.6354 13.4392 18.9662 13.2688C20.2069 12.5325 18.2844 11.9869 17.6694 11.7613Z" fill="#FCC4B5"/>
<path d="M21.3333 9.93752L20.4795 9.88939C20.1347 9.84016 19.7832 9.90607 19.4795 10.0769L19.0164 10.2913C18.912 10.3394 18.792 10.4656 18.8758 10.5413C18.9595 10.6169 19.0689 10.5038 19.1389 10.42C19.3027 10.2813 19.4964 10.1826 19.7049 10.1317C19.9134 10.0808 20.1309 10.0792 20.3402 10.1269L21.642 10.225C21.8127 10.2375 22.5202 10.2163 22.3252 9.88877C22.2283 9.72814 21.5039 9.94752 21.3333 9.93752Z" fill="#EB5844"/>
<path d="M18.75 4.375C17.7611 4.375 16.7944 4.66824 15.9722 5.21765C15.1499 5.76706 14.509 6.54795 14.1306 7.46158C13.7522 8.37521 13.6531 9.38055 13.8461 10.3505C14.039 11.3204 14.5152 12.2113 15.2145 12.9105C15.9137 13.6098 16.8046 14.086 17.7746 14.2789C18.7445 14.4719 19.7498 14.3728 20.6634 13.9944C21.577 13.616 22.3579 12.9751 22.9074 12.1529C23.4568 11.3306 23.75 10.3639 23.75 9.375C23.75 8.04892 23.2232 6.77715 22.2855 5.83947C21.3479 4.90178 20.0761 4.375 18.75 4.375ZM18.75 13.75C17.7688 13.7494 16.8163 13.419 16.0456 12.8119C15.2748 12.2048 14.7304 11.3562 14.5 10.4025C14.5414 10.242 14.6334 10.0991 14.7625 9.995C14.8638 9.91529 14.9918 9.87735 15.1202 9.88897C15.2486 9.90059 15.3677 9.96089 15.4531 10.0575C15.5156 10.1444 15.5869 10.275 15.6863 10.2362C15.7121 10.221 15.7335 10.1992 15.7484 10.1731C15.7633 10.147 15.7712 10.1175 15.7713 10.0875C15.8009 9.87455 15.7642 9.65764 15.6663 9.46625C15.6449 9.4182 15.613 9.3755 15.5731 9.34125C15.5025 9.29628 15.4191 9.27565 15.3356 9.2825C15.0125 9.2825 14.6556 9.3675 14.3894 9.18375L14.3838 9.18C14.4304 8.10786 14.87 7.09038 15.6185 6.32142C16.3671 5.55247 17.3724 5.08581 18.4429 5.01035C19.5134 4.9349 20.5743 5.25593 21.4233 5.91227C22.2724 6.56861 22.8503 7.51439 23.0469 8.56938C22.715 8.76375 22.4513 9.37437 22.245 9.60625C22.0809 9.75763 21.9527 9.94386 21.87 10.1513C21.8557 10.1891 21.8544 10.2307 21.8663 10.2694C21.9038 10.3675 22.0444 10.36 22.145 10.3319C22.3523 10.2712 22.5542 10.1937 22.7488 10.1C22.8657 10.0445 22.9783 9.98038 23.0856 9.90812C22.9556 10.967 22.4432 11.9419 21.6448 12.6494C20.8463 13.3569 19.8168 13.7483 18.75 13.75Z" fill="#B43A23"/>
<path d="M17.6989 6.86001C17.9459 6.82648 18.1962 6.82417 18.4439 6.85314C18.5318 6.85879 18.6173 6.88445 18.6939 6.92814C18.7683 6.99916 18.8248 7.08686 18.8587 7.18401C18.8926 7.28115 18.9029 7.38496 18.8889 7.48689C18.8928 7.52084 18.8853 7.55515 18.8676 7.58439C18.8496 7.60395 18.8267 7.61839 18.8014 7.62626C18.4215 7.77714 18.0169 7.85598 17.6082 7.85876C17.3132 7.85876 16.8339 7.72001 16.9326 7.31939C17.0064 7.03251 17.4501 6.89376 17.6989 6.86001Z" fill="#F8E2CD"/>
<path d="M26.25 16.875C29.0114 16.875 31.25 14.6364 31.25 11.875C31.25 9.11358 29.0114 6.875 26.25 6.875C23.4886 6.875 21.25 9.11358 21.25 11.875C21.25 14.6364 23.4886 16.875 26.25 16.875Z" fill="#F06046"/>
<path d="M30.5968 11.3937C30.5671 11.8035 30.4878 12.2081 30.3606 12.5987C30.1562 13.2524 29.7652 13.832 29.2356 14.2662C28.3712 14.945 26.8124 15 26.3281 15H26.2399C25.8658 15.0145 25.4929 14.9501 25.1453 14.8109C24.7977 14.6718 24.4833 14.4611 24.2224 14.1925C23.832 13.8101 23.5311 13.3459 23.3413 12.8334C23.1516 12.3208 23.0777 11.7726 23.1249 11.2281C23.1296 10.7622 23.2381 10.3031 23.4424 9.88437C23.8749 9.04875 24.4481 8.75 25.6249 8.75C27.2662 8.75 28.1249 9.69312 28.1249 10.625C28.1007 11.1145 27.8954 11.5774 27.5489 11.9239C27.2024 12.2705 26.7394 12.4758 26.2499 12.5C26.0842 12.5 25.9252 12.4341 25.808 12.3169C25.6908 12.1997 25.6249 12.0408 25.6249 11.875C25.6249 11.7092 25.6908 11.5503 25.808 11.4331C25.9252 11.3158 26.0842 11.25 26.2499 11.25C26.408 11.2282 26.5546 11.1553 26.6675 11.0425C26.7803 10.9297 26.8531 10.7831 26.8749 10.625C26.8749 10.3656 26.4874 10 25.6249 10C24.7912 10 24.7156 10.1469 24.5481 10.4687C24.4333 10.7242 24.3742 11.0012 24.3749 11.2812C24.3397 11.6384 24.3814 11.999 24.4974 12.3386C24.6135 12.6783 24.801 12.9891 25.0474 13.25C25.1975 13.4211 25.3851 13.5552 25.5955 13.6419C25.8059 13.7286 26.0335 13.7656 26.2606 13.75C27.0242 13.8009 27.787 13.6393 28.4643 13.2831C28.8 12.9974 29.0472 12.6219 29.1768 12.2006C29.3254 11.721 29.3924 11.2199 29.3749 10.7181C29.3731 10.4658 29.357 10.2137 29.3268 9.96312C29.2756 9.4492 29.077 8.96101 28.7549 8.55729C28.4328 8.15357 28.0009 7.85153 27.5112 7.6875C26.9092 7.50536 26.2751 7.45514 25.652 7.54026C25.0288 7.62539 24.4314 7.84385 23.9004 8.18078C23.3693 8.5177 22.9171 8.96515 22.5747 9.49264C22.2322 10.0201 22.0075 10.6152 21.9158 11.2374C21.8242 11.8596 21.8678 12.4943 22.0436 13.0981C22.2194 13.7019 22.5234 14.2608 22.9347 14.7365C23.346 15.2122 23.8551 15.5937 24.4272 15.8549C24.9993 16.1161 25.621 16.2508 26.2499 16.25C26.9467 16.2385 27.6221 16.0075 28.1799 15.59C30.4618 13.9256 30.73 12.6006 30.5968 11.3937Z" fill="#F89180"/>
<path d="M26.4757 7.50622C26.4233 7.50632 26.3727 7.52542 26.3332 7.55997C26.305 7.59576 26.2886 7.63945 26.2863 7.68497C26.2765 7.8383 26.3002 7.99192 26.3558 8.13515C26.4114 8.27839 26.4975 8.40779 26.6082 8.51435C26.8267 8.71763 27.0667 8.89659 27.3238 9.0481C27.6996 9.30065 28.0472 9.59274 28.3607 9.91935C28.407 9.96747 28.4707 10.02 28.5301 9.99122C28.5532 9.97678 28.5722 9.95652 28.5851 9.93247C29.3976 8.6556 27.4745 7.40122 26.4757 7.50622Z" fill="#F8E2CD"/>
<path d="M25.1694 14.2613C24.8974 14.1395 24.6037 14.0733 24.3058 14.0667C24.0078 14.06 23.7115 14.113 23.4344 14.2225C23.3005 14.2791 23.1942 14.3859 23.1381 14.52C23.1224 14.5966 23.128 14.676 23.1543 14.7497C23.1807 14.8233 23.2267 14.8883 23.2875 14.9375C23.4174 15.0472 23.5635 15.1362 23.7206 15.2013L24.375 15.5138C24.6969 15.6837 25.0387 15.813 25.3925 15.8988C25.7544 15.9853 26.1354 15.9392 26.4662 15.7688C27.7069 15.0325 25.7844 14.4869 25.1694 14.2613Z" fill="#FCC4B5"/>
<path d="M28.8333 12.4375L27.9795 12.3894C27.6347 12.3402 27.2832 12.4061 26.9795 12.5769L26.5164 12.7913C26.412 12.8394 26.292 12.9656 26.3758 13.0413C26.4595 13.1169 26.5689 13.0038 26.6389 12.92C26.8027 12.7813 26.9964 12.6826 27.2049 12.6317C27.4134 12.5808 27.6309 12.5792 27.8402 12.6269L29.142 12.725C29.3127 12.7375 30.0202 12.7163 29.8252 12.3888C29.7283 12.2281 29.0039 12.4475 28.8333 12.4375Z" fill="#EB5844"/>
<path d="M26.25 6.875C25.2611 6.875 24.2944 7.16824 23.4722 7.71765C22.6499 8.26706 22.009 9.04795 21.6306 9.96158C21.2522 10.8752 21.1531 11.8805 21.3461 12.8505C21.539 13.8204 22.0152 14.7113 22.7145 15.4105C23.4137 16.1098 24.3046 16.586 25.2746 16.7789C26.2445 16.9719 27.2498 16.8728 28.1634 16.4944C29.077 16.116 29.8579 15.4751 30.4074 14.6529C30.9568 13.8306 31.25 12.8639 31.25 11.875C31.25 10.5489 30.7232 9.27715 29.7855 8.33947C28.8479 7.40178 27.5761 6.875 26.25 6.875ZM26.25 16.25C25.2688 16.2494 24.3163 15.919 23.5456 15.3119C22.7748 14.7048 22.2304 13.8562 22 12.9025C22.0414 12.742 22.1334 12.5991 22.2625 12.495C22.3636 12.4162 22.4909 12.3788 22.6186 12.3904C22.7463 12.402 22.8647 12.4618 22.95 12.5575C23.0125 12.6444 23.0838 12.775 23.1831 12.7362C23.209 12.721 23.2304 12.6992 23.2453 12.6731C23.2602 12.647 23.2681 12.6175 23.2681 12.5875C23.2978 12.3745 23.2611 12.1576 23.1631 11.9662C23.1417 11.9182 23.1099 11.8755 23.07 11.8412C22.9994 11.7963 22.916 11.7756 22.8325 11.7825C22.5094 11.7825 22.1525 11.8675 21.8863 11.6838L21.8806 11.68C21.9273 10.6079 22.3668 9.59038 23.1154 8.82142C23.864 8.05247 24.8693 7.58581 25.9398 7.51035C27.0103 7.4349 28.0712 7.75593 28.9202 8.41227C29.7692 9.06861 30.3471 10.0144 30.5438 11.0694C30.2119 11.2638 29.9481 11.8744 29.7419 12.1063C29.5777 12.2576 29.4496 12.4439 29.3669 12.6513C29.3526 12.6891 29.3512 12.7307 29.3631 12.7694C29.4006 12.8675 29.5413 12.86 29.6419 12.8319C29.8491 12.7712 30.0511 12.6937 30.2456 12.6C30.3625 12.5445 30.4751 12.4804 30.5825 12.4081C30.4526 13.4665 29.9406 14.4409 29.1428 15.1484C28.345 15.8558 27.3163 16.2476 26.25 16.25Z" fill="#B43A23"/>
<path d="M25.1989 9.36001C25.4459 9.32648 25.6962 9.32417 25.9439 9.35314C26.0318 9.35879 26.1173 9.38445 26.1939 9.42814C26.2683 9.49916 26.3248 9.58686 26.3587 9.68401C26.3926 9.78115 26.4029 9.88496 26.3889 9.98689C26.3928 10.0208 26.3853 10.0552 26.3676 10.0844C26.3496 10.1039 26.3267 10.1184 26.3014 10.1263C25.9215 10.2771 25.5169 10.356 25.1082 10.3588C24.8132 10.3588 24.3339 10.22 24.4326 9.81939C24.5064 9.53251 24.9501 9.39376 25.1989 9.36001Z" fill="#F8E2CD"/>
<path d="M8.15641 7.9875C9.78407 8.46648 11.2789 9.31549 12.5239 10.4681C13.1283 11.0737 13.6032 11.7959 13.9199 12.5907C14.2366 13.3855 14.3884 14.2364 14.3661 15.0917C14.3438 15.947 14.1478 16.7889 13.7901 17.5661C13.4324 18.3433 12.9205 19.0397 12.2854 19.613C11.6503 20.1863 10.9052 20.6245 10.0956 20.901C9.28588 21.1774 8.42844 21.2864 7.57534 21.2213C6.72223 21.1562 5.89127 20.9184 5.13292 20.5222C4.37457 20.1261 3.70467 19.5799 3.16391 18.9169C2.29577 17.8422 1.63093 16.6182 1.20204 15.305C0.377035 12.8619 0.320785 10.1681 1.80766 8.68C2.26672 8.26812 2.80313 7.95167 3.38567 7.74909C3.9682 7.54651 4.58521 7.46184 5.20079 7.5C6.20472 7.51498 7.20084 7.67928 8.15641 7.9875ZM11.8752 15C11.8752 14.2583 11.6552 13.5333 11.2432 12.9166C10.8311 12.2999 10.2454 11.8193 9.56022 11.5355C8.875 11.2516 8.121 11.1774 7.39357 11.3221C6.66614 11.4668 5.99796 11.8239 5.47351 12.3484C4.94906 12.8728 4.59191 13.541 4.44722 14.2684C4.30252 14.9958 4.37678 15.7498 4.66061 16.4351C4.94444 17.1203 5.42509 17.706 6.04177 18.118C6.65846 18.5301 7.38348 18.75 8.12516 18.75C9.11972 18.75 10.0736 18.3549 10.7768 17.6517C11.4801 16.9484 11.8752 15.9946 11.8752 15Z" fill="#FFFAE8"/>
<path d="M8.12486 18.7481C10.1956 18.7481 11.8742 17.0695 11.8742 14.9988C11.8742 12.928 10.1956 11.2494 8.12486 11.2494C6.05414 11.2494 4.37549 12.928 4.37549 14.9988C4.37549 17.0695 6.05414 18.7481 8.12486 18.7481Z" fill="#FCD83C"/>
<path d="M1.80808 8.68187C2.71291 7.86646 3.90331 7.44165 5.11995 7.49999C6.53241 7.51976 7.9272 7.81706 9.22495 8.37499C9.94837 8.66714 10.6396 9.03347 11.2874 9.46812C11.7313 9.76043 12.1455 10.0953 12.5243 10.4681C12.7309 10.6754 12.923 10.8965 13.0993 11.13C12.9199 10.99 12.7356 10.8506 12.5368 10.7187C11.889 10.2839 11.1978 9.91733 10.4743 9.62499C9.17662 9.06692 7.7818 8.76961 6.36933 8.74999C5.15259 8.69074 3.9618 9.11515 3.05683 9.93062C1.71995 11.2675 1.63245 13.5731 2.22558 15.7975C2.62151 17.3037 3.30931 18.7175 4.24995 19.9587C4.02026 19.7861 3.80247 19.5982 3.59808 19.3962C2.33553 18.0232 1.43563 16.3568 0.97995 14.5481C0.3837 12.3244 0.4712 10.0194 1.80808 8.68187Z" fill="#FFF2C4"/>
<path d="M10.6251 13.75C10.6248 13.0624 10.434 12.3883 10.0738 11.8025C10.5586 12.0972 10.9701 12.4981 11.2773 12.9751C11.5845 13.4521 11.7792 13.9926 11.8469 14.5559C11.9146 15.1192 11.8534 15.6905 11.668 16.2266C11.4826 16.7628 11.1778 17.2498 10.7766 17.651C10.3754 18.0521 9.88835 18.3568 9.35216 18.5422C8.81597 18.7275 8.24467 18.7886 7.68141 18.7209C7.11815 18.6531 6.57764 18.4583 6.1007 18.1511C5.62375 17.8439 5.22284 17.4323 4.92822 16.9475C5.49586 17.2953 6.14601 17.4854 6.8116 17.4981C7.4772 17.5109 8.13415 17.3458 8.71468 17.02C9.29521 16.6941 9.7783 16.2193 10.1141 15.6445C10.4499 15.0697 10.6263 14.4157 10.6251 13.75Z" fill="#F6A635"/>
<path d="M12.5238 10.4687C12.3107 10.2595 12.0853 10.0633 11.8488 9.88123C12.4063 10.6219 12.7938 11.4763 12.9835 12.3837C13.1732 13.2912 13.1604 14.2293 12.9462 15.1312C12.6732 14.2647 12.0961 13.5262 11.3212 13.0518C11.7605 13.7684 11.9456 14.6121 11.8468 15.4467C11.748 16.2814 11.371 17.0585 10.7766 17.6527C10.1822 18.247 9.40507 18.6238 8.57038 18.7224C7.73569 18.821 6.89211 18.6356 6.17562 18.1962C6.6529 18.9758 7.39758 19.5549 8.27062 19.8256C6.78732 20.179 5.2263 19.9845 3.875 19.2781C3.56824 19.1126 3.27559 18.9221 3 18.7087C3.18509 18.9498 3.38463 19.1793 3.5975 19.3962C4.1818 19.9909 4.8781 20.4639 5.64619 20.7879C6.41428 21.112 7.23896 21.2807 8.07261 21.2843C8.90627 21.288 9.73238 21.1264 10.5033 20.809C11.2741 20.4916 11.9745 20.0247 12.564 19.4352C13.1534 18.8457 13.6202 18.1452 13.9375 17.3743C14.2548 16.6034 14.4162 15.7772 14.4125 14.9436C14.4087 14.1099 14.2399 13.2853 13.9157 12.5172C13.5916 11.7492 13.1185 11.0529 12.5238 10.4687Z" fill="#FFEFB5"/>
<path d="M8.33822 12.0319C8.46679 12.0948 8.57893 12.1868 8.66572 12.3006C8.75252 12.4144 8.81158 12.5469 8.83822 12.6875C8.85164 12.9703 8.75485 13.2472 8.56822 13.46C8.25872 13.865 7.83147 14.1643 7.3451 14.3169C7.16117 14.3906 6.9559 14.3906 6.77197 14.3169C6.2776 14.0669 6.24885 12.9525 6.49947 12.5113C6.69239 12.2181 6.98713 12.0068 7.32674 11.9183C7.66635 11.8297 8.02672 11.8702 8.33822 12.0319Z" fill="#FFEF96"/>
<path d="M20.625 23.125C20.3778 23.125 20.1361 23.1983 19.9305 23.3357C19.725 23.473 19.5648 23.6682 19.4702 23.8966C19.3755 24.1251 19.3508 24.3764 19.399 24.6189C19.4473 24.8613 19.5663 25.0841 19.7411 25.2589C19.9159 25.4337 20.1387 25.5528 20.3811 25.601C20.6236 25.6492 20.8749 25.6245 21.1034 25.5298C21.3318 25.4352 21.527 25.275 21.6643 25.0695C21.8017 24.8639 21.875 24.6222 21.875 24.375C21.875 24.0435 21.7433 23.7255 21.5089 23.4911C21.2745 23.2567 20.9565 23.125 20.625 23.125ZM20.625 25.125C20.4767 25.125 20.3317 25.081 20.2083 24.9986C20.085 24.9162 19.9889 24.7991 19.9321 24.662C19.8753 24.525 19.8605 24.3742 19.8894 24.2287C19.9184 24.0832 19.9898 23.9496 20.0947 23.8447C20.1996 23.7398 20.3332 23.6684 20.4787 23.6394C20.6242 23.6105 20.775 23.6253 20.912 23.6821C21.0491 23.7389 21.1662 23.835 21.2486 23.9583C21.331 24.0817 21.375 24.2267 21.375 24.375C21.375 24.5739 21.296 24.7647 21.1553 24.9053C21.0147 25.046 20.8239 25.125 20.625 25.125Z" fill="#497323"/>
<path d="M25.9375 23.125C25.6285 23.125 25.3264 23.2166 25.0694 23.3883C24.8125 23.56 24.6122 23.804 24.4939 24.0896C24.3757 24.3751 24.3447 24.6892 24.405 24.9923C24.4653 25.2954 24.6141 25.5738 24.8326 25.7924C25.0512 26.0109 25.3296 26.1597 25.6327 26.22C25.9358 26.2803 26.2499 26.2493 26.5354 26.1311C26.821 26.0128 27.065 25.8125 27.2367 25.5556C27.4084 25.2986 27.5 24.9965 27.5 24.6875C27.5 24.2731 27.3354 23.8757 27.0424 23.5826C26.7493 23.2896 26.3519 23.125 25.9375 23.125ZM25.9375 25.625C25.7521 25.625 25.5708 25.57 25.4167 25.467C25.2625 25.364 25.1423 25.2176 25.0714 25.0463C25.0004 24.875 24.9818 24.6865 25.018 24.5046C25.0542 24.3227 25.1435 24.1557 25.2746 24.0246C25.4057 23.8935 25.5727 23.8042 25.7546 23.768C25.9365 23.7318 26.125 23.7504 26.2963 23.8214C26.4676 23.8923 26.614 24.0125 26.717 24.1667C26.82 24.3208 26.875 24.5021 26.875 24.6875C26.875 24.9361 26.7762 25.1746 26.6004 25.3504C26.4246 25.5262 26.1861 25.625 25.9375 25.625Z" fill="#497323"/>
<path d="M24.6875 21.25C24.3785 21.25 24.0764 21.3416 23.8194 21.5133C23.5625 21.685 23.3622 21.929 23.2439 22.2146C23.1257 22.5001 23.0947 22.8142 23.155 23.1173C23.2153 23.4204 23.3641 23.6988 23.5826 23.9174C23.8012 24.1359 24.0796 24.2847 24.3827 24.345C24.6858 24.4053 24.9999 24.3743 25.2854 24.2561C25.571 24.1378 25.815 23.9375 25.9867 23.6806C26.1584 23.4236 26.25 23.1215 26.25 22.8125C26.25 22.3981 26.0854 22.0007 25.7924 21.7076C25.4993 21.4146 25.1019 21.25 24.6875 21.25ZM24.6875 23.75C24.5021 23.75 24.3208 23.695 24.1667 23.592C24.0125 23.489 23.8923 23.3426 23.8214 23.1713C23.7504 23 23.7318 22.8115 23.768 22.6296C23.8042 22.4477 23.8935 22.2807 24.0246 22.1496C24.1557 22.0185 24.3227 21.9292 24.5046 21.893C24.6865 21.8568 24.875 21.8754 25.0463 21.9464C25.2176 22.0173 25.364 22.1375 25.467 22.2917C25.57 22.4458 25.625 22.6271 25.625 22.8125C25.625 23.0611 25.5262 23.2996 25.3504 23.4754C25.1746 23.6512 24.9361 23.75 24.6875 23.75Z" fill="#65A229"/>
<path d="M22.8125 17.5C22.5035 17.5 22.2014 17.5916 21.9444 17.7633C21.6875 17.935 21.4872 18.179 21.3689 18.4646C21.2507 18.7501 21.2197 19.0642 21.28 19.3673C21.3403 19.6704 21.4891 19.9488 21.7076 20.1674C21.9262 20.3859 22.2046 20.5347 22.5077 20.595C22.8108 20.6553 23.1249 20.6243 23.4104 20.5061C23.696 20.3878 23.94 20.1875 24.1117 19.9306C24.2834 19.6736 24.375 19.3715 24.375 19.0625C24.375 18.6481 24.2104 18.2507 23.9174 17.9576C23.6243 17.6646 23.2269 17.5 22.8125 17.5ZM22.8125 20C22.6271 20 22.4458 19.945 22.2917 19.842C22.1375 19.739 22.0173 19.5926 21.9464 19.4213C21.8754 19.25 21.8568 19.0615 21.893 18.8796C21.9292 18.6977 22.0185 18.5307 22.1496 18.3996C22.2807 18.2685 22.4477 18.1792 22.6296 18.143C22.8115 18.1068 23 18.1254 23.1713 18.1964C23.3426 18.2673 23.489 18.3875 23.592 18.5417C23.695 18.6958 23.75 18.8771 23.75 19.0625C23.75 19.3111 23.6512 19.5496 23.4754 19.7254C23.2996 19.9012 23.0611 20 22.8125 20Z" fill="#EEF4AE"/>
<path d="M18.75 18.125C18.5028 18.125 18.2611 18.1983 18.0555 18.3357C17.85 18.473 17.6898 18.6682 17.5952 18.8966C17.5005 19.1251 17.4758 19.3764 17.524 19.6189C17.5723 19.8613 17.6913 20.0841 17.8661 20.2589C18.0409 20.4337 18.2637 20.5528 18.5061 20.601C18.7486 20.6492 18.9999 20.6245 19.2284 20.5298C19.4568 20.4352 19.652 20.275 19.7893 20.0695C19.9267 19.8639 20 19.6222 20 19.375C20 19.0435 19.8683 18.7255 19.6339 18.4911C19.3995 18.2567 19.0815 18.125 18.75 18.125ZM18.75 20.125C18.6017 20.125 18.4567 20.081 18.3333 19.9986C18.21 19.9162 18.1139 19.7991 18.0571 19.662C18.0003 19.525 17.9855 19.3742 18.0144 19.2287C18.0434 19.0832 18.1148 18.9496 18.2197 18.8447C18.3246 18.7398 18.4582 18.6683 18.6037 18.6394C18.7492 18.6105 18.9 18.6253 19.037 18.6821C19.1741 18.7389 19.2912 18.835 19.3736 18.9583C19.456 19.0817 19.5 19.2267 19.5 19.375C19.5 19.5739 19.421 19.7647 19.2803 19.9053C19.1397 20.046 18.9489 20.125 18.75 20.125Z" fill="#EEF4AE"/>
<path d="M20.9375 20.625C20.6285 20.625 20.3264 20.7166 20.0694 20.8883C19.8125 21.06 19.6122 21.304 19.4939 21.5896C19.3757 21.8751 19.3447 22.1892 19.405 22.4923C19.4653 22.7954 19.6141 23.0738 19.8326 23.2924C20.0512 23.5109 20.3296 23.6597 20.6327 23.72C20.9358 23.7803 21.2499 23.7493 21.5354 23.6311C21.821 23.5128 22.065 23.3125 22.2367 23.0556C22.4084 22.7986 22.5 22.4965 22.5 22.1875C22.5 21.7731 22.3354 21.3757 22.0424 21.0826C21.7493 20.7896 21.3519 20.625 20.9375 20.625ZM20.9375 23.125C20.7521 23.125 20.5708 23.07 20.4167 22.967C20.2625 22.864 20.1423 22.7176 20.0714 22.5463C20.0004 22.375 19.9818 22.1865 20.018 22.0046C20.0542 21.8227 20.1435 21.6557 20.2746 21.5246C20.4057 21.3935 20.5727 21.3042 20.7546 21.268C20.9365 21.2318 21.125 21.2504 21.2963 21.3214C21.4676 21.3923 21.614 21.5125 21.717 21.6667C21.82 21.8208 21.875 22.0021 21.875 22.1875C21.875 22.4361 21.7762 22.6746 21.6004 22.8504C21.4246 23.0262 21.1861 23.125 20.9375 23.125Z" fill="#EEF4AE"/>
<path d="M17.5 21.25C17.2528 21.25 17.0111 21.3233 16.8055 21.4607C16.6 21.598 16.4398 21.7932 16.3452 22.0216C16.2505 22.2501 16.2258 22.5014 16.274 22.7439C16.3223 22.9863 16.4413 23.2091 16.6161 23.3839C16.7909 23.5587 17.0137 23.6778 17.2561 23.726C17.4986 23.7742 17.7499 23.7495 17.9784 23.6548C18.2068 23.5602 18.402 23.4 18.5393 23.1945C18.6767 22.9889 18.75 22.7472 18.75 22.5C18.75 22.1685 18.6183 21.8505 18.3839 21.6161C18.1495 21.3817 17.8315 21.25 17.5 21.25ZM17.5 23.25C17.3517 23.25 17.2067 23.206 17.0833 23.1236C16.96 23.0412 16.8639 22.9241 16.8071 22.787C16.7503 22.65 16.7355 22.4992 16.7644 22.3537C16.7934 22.2082 16.8648 22.0746 16.9697 21.9697C17.0746 21.8648 17.2082 21.7934 17.3537 21.7644C17.4992 21.7355 17.65 21.7503 17.787 21.8071C17.9241 21.8639 18.0412 21.96 18.1236 22.0833C18.206 22.2067 18.25 22.3517 18.25 22.5C18.25 22.6989 18.171 22.8897 18.0303 23.0303C17.8897 23.171 17.6989 23.25 17.5 23.25Z" fill="#EEF4AE"/>
<path d="M22.5 24.375C22.2528 24.375 22.0111 24.4483 21.8055 24.5857C21.6 24.723 21.4398 24.9182 21.3452 25.1466C21.2505 25.3751 21.2258 25.6264 21.274 25.8689C21.3223 26.1113 21.4413 26.3341 21.6161 26.5089C21.7909 26.6837 22.0137 26.8028 22.2561 26.851C22.4986 26.8992 22.7499 26.8745 22.9784 26.7798C23.2068 26.6852 23.402 26.525 23.5393 26.3195C23.6767 26.1139 23.75 25.8722 23.75 25.625C23.75 25.2935 23.6183 24.9755 23.3839 24.7411C23.1495 24.5067 22.8315 24.375 22.5 24.375ZM22.5 26.375C22.3517 26.375 22.2067 26.331 22.0833 26.2486C21.96 26.1662 21.8639 26.0491 21.8071 25.912C21.7503 25.775 21.7355 25.6242 21.7644 25.4787C21.7934 25.3332 21.8648 25.1996 21.9697 25.0947C22.0746 24.9898 22.2082 24.9184 22.3537 24.8894C22.4992 24.8605 22.65 24.8753 22.787 24.9321C22.9241 24.9889 23.0412 25.085 23.1236 25.2083C23.206 25.3317 23.25 25.4767 23.25 25.625C23.25 25.8239 23.171 26.0147 23.0303 26.1553C22.8897 26.296 22.6989 26.375 22.5 26.375Z" fill="#EEF4AE"/>
<path d="M25.625 19.375C25.3778 19.375 25.1361 19.4483 24.9305 19.5857C24.725 19.723 24.5648 19.9182 24.4702 20.1466C24.3755 20.3751 24.3508 20.6264 24.399 20.8689C24.4473 21.1113 24.5663 21.3341 24.7411 21.5089C24.9159 21.6837 25.1387 21.8028 25.3811 21.851C25.6236 21.8992 25.8749 21.8745 26.1034 21.7798C26.3318 21.6852 26.527 21.525 26.6643 21.3195C26.8017 21.1139 26.875 20.8722 26.875 20.625C26.875 20.2935 26.7433 19.9755 26.5089 19.7411C26.2745 19.5067 25.9565 19.375 25.625 19.375ZM25.625 21.375C25.4767 21.375 25.3317 21.331 25.2083 21.2486C25.085 21.1662 24.9889 21.0491 24.9321 20.912C24.8753 20.775 24.8605 20.6242 24.8894 20.4787C24.9184 20.3332 24.9898 20.1996 25.0947 20.0947C25.1996 19.9898 25.3332 19.9183 25.4787 19.8894C25.6242 19.8605 25.775 19.8753 25.912 19.9321C26.0491 19.9889 26.1662 20.085 26.2486 20.2083C26.331 20.3317 26.375 20.4767 26.375 20.625C26.375 20.8239 26.296 21.0147 26.1553 21.1553C26.0147 21.296 25.8239 21.375 25.625 21.375Z" fill="#497323"/>
<path d="M17.8125 23.75C17.5035 23.75 17.2014 23.8416 16.9444 24.0133C16.6875 24.185 16.4872 24.429 16.3689 24.7146C16.2507 25.0001 16.2197 25.3142 16.28 25.6173C16.3403 25.9204 16.4891 26.1988 16.7076 26.4174C16.9262 26.6359 17.2046 26.7847 17.5077 26.845C17.8108 26.9053 18.1249 26.8743 18.4104 26.7561C18.696 26.6378 18.94 26.4375 19.1117 26.1806C19.2834 25.9236 19.375 25.6215 19.375 25.3125C19.375 24.8981 19.2104 24.5007 18.9174 24.2076C18.6243 23.9146 18.2269 23.75 17.8125 23.75ZM17.8125 26.25C17.6271 26.25 17.4458 26.195 17.2917 26.092C17.1375 25.989 17.0173 25.8426 16.9464 25.6713C16.8754 25.5 16.8568 25.3115 16.893 25.1296C16.9292 24.9477 17.0185 24.7807 17.1496 24.6496C17.2807 24.5185 17.4477 24.4292 17.6296 24.393C17.8115 24.3568 18 24.3754 18.1713 24.4464C18.3426 24.5173 18.489 24.6375 18.592 24.7917C18.695 24.9458 18.75 25.1271 18.75 25.3125C18.75 25.5611 18.6512 25.7996 18.4754 25.9754C18.2996 26.1512 18.0611 26.25 17.8125 26.25Z" fill="#497323"/>
<path d="M17.8125 19.375C17.5035 19.375 17.2014 19.4666 16.9444 19.6383C16.6875 19.81 16.4872 20.054 16.3689 20.3396C16.2507 20.6251 16.2197 20.9392 16.28 21.2423C16.3403 21.5454 16.4891 21.8238 16.7076 22.0424C16.9262 22.2609 17.2046 22.4097 17.5077 22.47C17.8108 22.5303 18.1249 22.4993 18.4104 22.3811C18.696 22.2628 18.94 22.0625 19.1117 21.8056C19.2834 21.5486 19.375 21.2465 19.375 20.9375C19.375 20.5231 19.2104 20.1257 18.9174 19.8326C18.6243 19.5396 18.2269 19.375 17.8125 19.375ZM17.8125 21.875C17.6271 21.875 17.4458 21.82 17.2917 21.717C17.1375 21.614 17.0173 21.4676 16.9464 21.2963C16.8754 21.125 16.8568 20.9365 16.893 20.7546C16.9292 20.5727 17.0185 20.4057 17.1496 20.2746C17.2807 20.1435 17.4477 20.0542 17.6296 20.018C17.8115 19.9818 18 20.0004 18.1713 20.0714C18.3426 20.1423 18.489 20.2625 18.592 20.4167C18.695 20.5708 18.75 20.7521 18.75 20.9375C18.75 21.1861 18.6512 21.4246 18.4754 21.6004C18.2996 21.7762 18.0611 21.875 17.8125 21.875Z" fill="#497323"/>
<path d="M30.625 18.75V20.625L26.875 23.125V21.25L30.625 18.75Z" fill="#65A229"/>
<path d="M26.25 28.125L23.75 32.5L21.875 31.875L24.325 27.5875L24.375 27.5L26.25 28.125Z" fill="#65A229"/>
<path d="M16.875 28.75L16.25 30.625L11.25 28.75L11.875 26.875L16.875 28.75Z" fill="#65A229"/>
<path d="M23.1201 20.8068L24.5516 19.3753L25.6202 20.4439L24.1887 21.8754L23.1201 20.8068Z" fill="#65A229"/>
<path d="M19.3711 17.3195L20.4397 16.2508L21.8712 17.6823L20.8025 18.7509L19.3711 17.3195Z" fill="#65A229"/>
<path d="M16.875 17.5H18.75V20H16.875V17.5Z" fill="#65A229"/>
<path d="M16.875 21.6937L16.25 22.3187L15.4437 23.125L14.375 22.0563L15.8063 20.625L16.875 21.6937Z" fill="#65A229"/>
<path d="M14.9961 23.9305L16.4275 22.4991L17.4962 23.5677L16.0647 24.9992L14.9961 23.9305Z" fill="#65A229"/>
<path d="M21.875 22.5H23.75V25H21.875V22.5Z" fill="#65A229"/>
<path d="M18.7451 24.8182L19.8137 23.7496L21.2452 25.181L20.1766 26.2496L18.7451 24.8182Z" fill="#65A229"/>
<path d="M26.875 23.125L30.625 20.625V19.375L26.875 21.875V23.125Z" fill="#5F873B"/>
<path d="M25.425 27.85L23.6331 30.985C23.4899 31.2358 23.2641 31.4293 22.9943 31.5326C22.7245 31.6358 22.4273 31.6424 22.1531 31.5512L22.075 31.525L21.875 31.875L23.75 32.5L26.25 28.125L25.425 27.85Z" fill="#5F873B"/>
<path d="M16.66 28.7693C16.6068 28.9288 16.5221 29.0759 16.4108 29.2018C16.2995 29.3277 16.1639 29.4299 16.0122 29.5023C15.8605 29.5746 15.6958 29.6156 15.5279 29.6229C15.36 29.6301 15.1924 29.6034 15.035 29.5443L11.4375 28.1943L11.25 28.75L16.25 30.625L16.875 28.75L16.6875 28.6806L16.66 28.7693Z" fill="#5F873B"/>
<path d="M19.3711 17.3188L19.996 16.6939L21.4274 18.1254L20.8025 18.7503L19.3711 17.3188Z" fill="#5F873B"/>
<path d="M18.125 17.5H18.75V20H18.125V17.5Z" fill="#5F873B"/>
<path d="M21.875 22.5H22.5V25H21.875V22.5Z" fill="#5F873B"/>
<path d="M15.4395 24.3742L16.8709 22.9428L17.4958 23.5677L16.0644 24.9991L15.4395 24.3742Z" fill="#5F873B"/>
<path d="M23.564 21.2505L24.9954 19.819L25.6203 20.4439L24.1889 21.8754L23.564 21.2505Z" fill="#5F873B"/>
<path d="M14.8154 22.4992L16.2469 21.0678L16.8718 21.6927L15.4403 23.1241L14.8154 22.4992Z" fill="#5F873B"/>
<path d="M18.7451 24.8176L19.37 24.1927L20.8015 25.6242L20.1766 26.2491L18.7451 24.8176Z" fill="#5F873B"/>
<path d="M19.375 21.25C19.6683 21.2518 19.9517 21.3567 20.1754 21.5463C20.3992 21.7359 20.5492 21.9982 20.5991 22.2873C20.649 22.5763 20.5957 22.8737 20.4485 23.1274C20.3012 23.3811 20.0695 23.5749 19.7938 23.675C19.66 23.7256 19.518 23.7511 19.375 23.75C19.0435 23.75 18.7255 23.6183 18.4911 23.3839C18.2567 23.1495 18.125 22.8315 18.125 22.5C18.125 22.1685 18.2567 21.8505 18.4911 21.6161C18.7255 21.3817 19.0435 21.25 19.375 21.25Z" fill="#65A229"/>
<path d="M21.25 21.25C21.9404 21.25 22.5 20.6904 22.5 20C22.5 19.3096 21.9404 18.75 21.25 18.75C20.5596 18.75 20 19.3096 20 20C20 20.6904 20.5596 21.25 21.25 21.25Z" fill="#65A229"/>
<path d="M21.25 20.625C21.5952 20.625 21.875 20.3452 21.875 20C21.875 19.6548 21.5952 19.375 21.25 19.375C20.9048 19.375 20.625 19.6548 20.625 20C20.625 20.3452 20.9048 20.625 21.25 20.625Z" fill="#F1FBB6"/>
<path d="M19.375 23.125C19.7202 23.125 20 22.8452 20 22.5C20 22.1548 19.7202 21.875 19.375 21.875C19.0298 21.875 18.75 22.1548 18.75 22.5C18.75 22.8452 19.0298 23.125 19.375 23.125Z" fill="#F1FBB6"/>
<path d="M29.375 30C29.7202 30 30 29.7202 30 29.375C30 29.0298 29.7202 28.75 29.375 28.75C29.0298 28.75 28.75 29.0298 28.75 29.375C28.75 29.7202 29.0298 30 29.375 30Z" fill="#F56300"/>
<path d="M17.5 16.875C17.8452 16.875 18.125 16.5952 18.125 16.25C18.125 15.9048 17.8452 15.625 17.5 15.625C17.1548 15.625 16.875 15.9048 16.875 16.25C16.875 16.5952 17.1548 16.875 17.5 16.875Z" fill="#F03C00"/>
<path d="M13.125 21.25C13.4702 21.25 13.75 20.9702 13.75 20.625C13.75 20.2798 13.4702 20 13.125 20C12.7798 20 12.5 20.2798 12.5 20.625C12.5 20.9702 12.7798 21.25 13.125 21.25Z" fill="#F03C00"/>
<path d="M19.375 31.25C19.7202 31.25 20 30.9702 20 30.625C20 30.2798 19.7202 30 19.375 30C19.0298 30 18.75 30.2798 18.75 30.625C18.75 30.9702 19.0298 31.25 19.375 31.25Z" fill="#F03C00"/>
<path d="M31.25 28.125C31.5952 28.125 31.875 27.8452 31.875 27.5C31.875 27.1548 31.5952 26.875 31.25 26.875C30.9048 26.875 30.625 27.1548 30.625 27.5C30.625 27.8452 30.9048 28.125 31.25 28.125Z" fill="#C33E11"/>
<path d="M8.125 26.875C8.47018 26.875 8.75 26.5952 8.75 26.25C8.75 25.9048 8.47018 25.625 8.125 25.625C7.77982 25.625 7.5 25.9048 7.5 26.25C7.5 26.5952 7.77982 26.875 8.125 26.875Z" fill="#F56300"/>
<path d="M18.75 33.125C19.0952 33.125 19.375 32.8452 19.375 32.5C19.375 32.1548 19.0952 31.875 18.75 31.875C18.4048 31.875 18.125 32.1548 18.125 32.5C18.125 32.8452 18.4048 33.125 18.75 33.125Z" fill="#C33E11"/>
<path d="M30.9375 23.125C31.1101 23.125 31.25 22.9851 31.25 22.8125C31.25 22.6399 31.1101 22.5 30.9375 22.5C30.7649 22.5 30.625 22.6399 30.625 22.8125C30.625 22.9851 30.7649 23.125 30.9375 23.125Z" fill="#F56300"/>
<path d="M10.3125 25.625C10.4851 25.625 10.625 25.4851 10.625 25.3125C10.625 25.1399 10.4851 25 10.3125 25C10.1399 25 10 25.1399 10 25.3125C10 25.4851 10.1399 25.625 10.3125 25.625Z" fill="#F56300"/>
<path d="M32.5 23.125C32.8452 23.125 33.125 22.8452 33.125 22.5C33.125 22.1548 32.8452 21.875 32.5 21.875C32.1548 21.875 31.875 22.1548 31.875 22.5C31.875 22.8452 32.1548 23.125 32.5 23.125Z" fill="#F03C00"/>
<path d="M30.9375 15.625C31.1101 15.625 31.25 15.4851 31.25 15.3125C31.25 15.1399 31.1101 15 30.9375 15C30.7649 15 30.625 15.1399 30.625 15.3125C30.625 15.4851 30.7649 15.625 30.9375 15.625Z" fill="#F56300"/>
<path d="M30.3125 21.875C30.4851 21.875 30.625 21.7351 30.625 21.5625C30.625 21.3899 30.4851 21.25 30.3125 21.25C30.1399 21.25 30 21.3899 30 21.5625C30 21.7351 30.1399 21.875 30.3125 21.875Z" fill="#C33E11"/>
<path d="M29.6875 26.875C29.8601 26.875 30 26.7351 30 26.5625C30 26.3899 29.8601 26.25 29.6875 26.25C29.5149 26.25 29.375 26.3899 29.375 26.5625C29.375 26.7351 29.5149 26.875 29.6875 26.875Z" fill="#C33E11"/>
<path d="M29.6875 28.75C29.8601 28.75 30 28.6101 30 28.4375C30 28.2649 29.8601 28.125 29.6875 28.125C29.5149 28.125 29.375 28.2649 29.375 28.4375C29.375 28.6101 29.5149 28.75 29.6875 28.75Z" fill="#C33E11"/>
<path d="M16.25 33.75C16.5952 33.75 16.875 33.4702 16.875 33.125C16.875 32.7798 16.5952 32.5 16.25 32.5C15.9048 32.5 15.625 32.7798 15.625 33.125C15.625 33.4702 15.9048 33.75 16.25 33.75Z" fill="#F03C00"/>
<path d="M15.625 32.5C15.9702 32.5 16.25 32.2202 16.25 31.875C16.25 31.5298 15.9702 31.25 15.625 31.25C15.2798 31.25 15 31.5298 15 31.875C15 32.2202 15.2798 32.5 15.625 32.5Z" fill="#C33E11"/>
<path d="M14.0625 30.625C14.2351 30.625 14.375 30.4851 14.375 30.3125C14.375 30.1399 14.2351 30 14.0625 30C13.8899 30 13.75 30.1399 13.75 30.3125C13.75 30.4851 13.8899 30.625 14.0625 30.625Z" fill="#C33E11"/>
<path d="M14.0625 32.5C14.2351 32.5 14.375 32.3601 14.375 32.1875C14.375 32.0149 14.2351 31.875 14.0625 31.875C13.8899 31.875 13.75 32.0149 13.75 32.1875C13.75 32.3601 13.8899 32.5 14.0625 32.5Z" fill="#C33E11"/>
<path d="M31.5625 18.75C31.7351 18.75 31.875 18.6101 31.875 18.4375C31.875 18.2649 31.7351 18.125 31.5625 18.125C31.3899 18.125 31.25 18.2649 31.25 18.4375C31.25 18.6101 31.3899 18.75 31.5625 18.75Z" fill="#C33E11"/>
<path d="M12.1875 23.125C12.3601 23.125 12.5 22.9851 12.5 22.8125C12.5 22.6399 12.3601 22.5 12.1875 22.5C12.0149 22.5 11.875 22.6399 11.875 22.8125C11.875 22.9851 12.0149 23.125 12.1875 23.125Z" fill="#F56300"/>
<path d="M10.3125 23.75C10.4851 23.75 10.625 23.6101 10.625 23.4375C10.625 23.2649 10.4851 23.125 10.3125 23.125C10.1399 23.125 10 23.2649 10 23.4375C10 23.6101 10.1399 23.75 10.3125 23.75Z" fill="#F56300"/>
<path d="M26.5625 30.625C26.7351 30.625 26.875 30.4851 26.875 30.3125C26.875 30.1399 26.7351 30 26.5625 30C26.3899 30 26.25 30.1399 26.25 30.3125C26.25 30.4851 26.3899 30.625 26.5625 30.625Z" fill="#F56300"/>
<path d="M27.1875 28.125C27.3601 28.125 27.5 27.9851 27.5 27.8125C27.5 27.6399 27.3601 27.5 27.1875 27.5C27.0149 27.5 26.875 27.6399 26.875 27.8125C26.875 27.9851 27.0149 28.125 27.1875 28.125Z" fill="#F56300"/>
<path d="M32.8125 16.25C32.9851 16.25 33.125 16.1101 33.125 15.9375C33.125 15.7649 32.9851 15.625 32.8125 15.625C32.6399 15.625 32.5 15.7649 32.5 15.9375C32.5 16.1101 32.6399 16.25 32.8125 16.25Z" fill="#C33E11"/>
<path d="M9.0625 23.125C9.23509 23.125 9.375 22.9851 9.375 22.8125C9.375 22.6399 9.23509 22.5 9.0625 22.5C8.88991 22.5 8.75 22.6399 8.75 22.8125C8.75 22.9851 8.88991 23.125 9.0625 23.125Z" fill="#C33E11"/>
<path d="M19.0625 15.625C19.2351 15.625 19.375 15.4851 19.375 15.3125C19.375 15.1399 19.2351 15 19.0625 15C18.8899 15 18.75 15.1399 18.75 15.3125C18.75 15.4851 18.8899 15.625 19.0625 15.625Z" fill="#F56300"/>
<path d="M17.8125 15C17.9851 15 18.125 14.8601 18.125 14.6875C18.125 14.5149 17.9851 14.375 17.8125 14.375C17.6399 14.375 17.5 14.5149 17.5 14.6875C17.5 14.8601 17.6399 15 17.8125 15Z" fill="#C33E11"/>
<path d="M29.0625 18.125C29.2351 18.125 29.375 17.9851 29.375 17.8125C29.375 17.6399 29.2351 17.5 29.0625 17.5C28.8899 17.5 28.75 17.6399 28.75 17.8125C28.75 17.9851 28.8899 18.125 29.0625 18.125Z" fill="#C33E11"/>
<path d="M32.8125 17.5C32.9851 17.5 33.125 17.3601 33.125 17.1875C33.125 17.0149 32.9851 16.875 32.8125 16.875C32.6399 16.875 32.5 17.0149 32.5 17.1875C32.5 17.3601 32.6399 17.5 32.8125 17.5Z" fill="#F56300"/>
<path d="M22.1875 28.125C22.3601 28.125 22.5 27.9851 22.5 27.8125C22.5 27.6399 22.3601 27.5 22.1875 27.5C22.0149 27.5 21.875 27.6399 21.875 27.8125C21.875 27.9851 22.0149 28.125 22.1875 28.125Z" fill="#C33E11"/>
<path d="M30.625 26.25C31.3154 26.25 31.875 25.6904 31.875 25C31.875 24.3096 31.3154 23.75 30.625 23.75C29.9346 23.75 29.375 24.3096 29.375 25C29.375 25.6904 29.9346 26.25 30.625 26.25Z" fill="#F03C00"/>
<path d="M6.5625 23.75C7.08027 23.75 7.5 23.3303 7.5 22.8125C7.5 22.2947 7.08027 21.875 6.5625 21.875C6.04473 21.875 5.625 22.2947 5.625 22.8125C5.625 23.3303 6.04473 23.75 6.5625 23.75Z" fill="#C33E11"/>
<path d="M9.6875 28.75C10.2053 28.75 10.625 28.3303 10.625 27.8125C10.625 27.2947 10.2053 26.875 9.6875 26.875C9.16973 26.875 8.75 27.2947 8.75 27.8125C8.75 28.3303 9.16973 28.75 9.6875 28.75Z" fill="#C33E11"/>
<path d="M32.5 21.25C33.1904 21.25 33.75 20.6904 33.75 20C33.75 19.3096 33.1904 18.75 32.5 18.75C31.8096 18.75 31.25 19.3096 31.25 20C31.25 20.6904 31.8096 21.25 32.5 21.25Z" fill="#F03C00"/>
</g>
<defs>
<clipPath id="clip0_100_9907">
<rect width="40" height="40" fill="white"/>
</clipPath>
</defs>
</svg>
