<svg width="14" height="14" viewBox="0 0 14 14" fill="none" xmlns="http://www.w3.org/2000/svg">
<path d="M2.8888 12.5667C2.73269 12.5661 2.57871 12.5305 2.43813 12.4627C2.26581 12.3817 2.12003 12.2535 2.01774 12.0929C1.91546 11.9323 1.86088 11.746 1.86035 11.5556V1.73334C1.8611 1.59931 1.88835 1.46675 1.94051 1.34329C1.99268 1.21982 2.06873 1.10789 2.16431 1.01392C2.25989 0.919956 2.3731 0.845812 2.49743 0.795753C2.62177 0.745694 2.75477 0.720709 2.8888 0.722234H10.9777C11.2454 0.723751 11.5017 0.830765 11.691 1.02006C11.8803 1.20935 11.9873 1.46565 11.9888 1.73334V11.5556C11.985 11.7385 11.9317 11.9171 11.8345 12.0721C11.7372 12.2271 11.5997 12.3529 11.4366 12.4359C11.2735 12.5189 11.091 12.5561 10.9084 12.5436C10.7258 12.531 10.5501 12.4691 10.3999 12.3645L7.0488 9.85112C7.0242 9.83143 6.99363 9.8207 6.96213 9.8207C6.93062 9.8207 6.90006 9.83143 6.87546 9.85112L3.49546 12.3645C3.32006 12.495 3.10744 12.5659 2.8888 12.5667ZM2.8888 1.5889C2.85049 1.5889 2.81375 1.60412 2.78666 1.63121C2.75957 1.6583 2.74435 1.69504 2.74435 1.73334V11.5556C2.74415 11.5823 2.75168 11.6085 2.76603 11.6311C2.78038 11.6536 2.80094 11.6715 2.82524 11.6827C2.84736 11.6978 2.87354 11.7059 2.90035 11.7059C2.92716 11.7059 2.95335 11.6978 2.97546 11.6827L6.35546 9.15779C6.53122 9.02828 6.74381 8.95841 6.96213 8.95841C7.18045 8.95841 7.39304 9.02828 7.5688 9.15779L10.9199 11.6711C10.942 11.6863 10.9682 11.6944 10.995 11.6944C11.0218 11.6944 11.048 11.6863 11.0701 11.6711C11.0944 11.66 11.115 11.6421 11.1293 11.6195C11.1437 11.597 11.1512 11.5707 11.151 11.544V1.73334C11.1515 1.71168 11.147 1.6902 11.138 1.67048C11.129 1.65077 11.1157 1.63333 11.0991 1.61946C11.0824 1.60558 11.0629 1.59563 11.0419 1.59035C11.0208 1.58506 10.9989 1.58456 10.9777 1.5889H2.8888Z" fill="#4A0ADD"/>
</svg>
