<svg width="40" height="40" viewBox="0 0 40 40" fill="none" xmlns="http://www.w3.org/2000/svg">
<path d="M26.7414 18.7199C25.0754 16.0825 22.9651 13.7537 20.504 11.8368C20.3591 11.7264 20.182 11.6667 19.9998 11.6667H11.6665C11.4844 11.6667 11.3074 11.7263 11.1623 11.8364C6.44352 15.4228 1.6665 22.2412 1.6665 28.3334C1.6665 34.6884 6.83008 38.3334 15.8332 38.3334C18.4835 38.3935 21.1231 37.9788 23.6273 37.109C23.765 37.057 23.8865 36.9695 23.9794 36.8554C24.0723 36.7412 24.1333 36.6045 24.1563 36.4592L26.861 19.2965C26.8927 19.0961 26.8501 18.8911 26.7414 18.7199Z" fill="#7FA57C"/>
<path d="M28.333 38.3334C33.8559 38.3334 38.333 33.8562 38.333 28.3334C38.333 22.8105 33.8559 18.3334 28.333 18.3334C22.8102 18.3334 18.333 22.8105 18.333 28.3334C18.333 33.8562 22.8102 38.3334 28.333 38.3334Z" fill="#F5C265"/>
<path d="M15.8332 38.3333C6.83008 38.3333 1.6665 34.6883 1.6665 28.3333C1.6665 28.1123 1.7543 27.9004 1.91058 27.7441C2.06686 27.5878 2.27882 27.5 2.49984 27.5C2.72085 27.5 2.93281 27.5878 3.08909 27.7441C3.24537 27.9004 3.33317 28.1123 3.33317 28.3333C3.33317 35.5839 11.1648 36.6667 15.8332 36.6667C16.0542 36.6667 16.2661 36.7545 16.4224 36.9107C16.5787 37.067 16.6665 37.279 16.6665 37.5C16.6665 37.721 16.5787 37.933 16.4224 38.0893C16.2661 38.2455 16.0542 38.3333 15.8332 38.3333Z" fill="#608C5D"/>
<path d="M28.333 38.3333C25.6818 38.3303 23.14 37.2758 21.2653 35.4011C19.3906 33.5263 18.336 30.9846 18.333 28.3333C18.333 28.1123 18.4208 27.9004 18.5771 27.7441C18.7334 27.5878 18.9453 27.5 19.1663 27.5C19.3874 27.5 19.5993 27.5878 19.7556 27.7441C19.9119 27.9004 19.9997 28.1123 19.9997 28.3333C20.0021 30.5427 20.8809 32.6609 22.4432 34.2232C24.0054 35.7854 26.1236 36.6642 28.333 36.6667C28.554 36.6667 28.766 36.7545 28.9223 36.9107C29.0785 37.067 29.1663 37.279 29.1663 37.5C29.1663 37.721 29.0785 37.933 28.9223 38.0893C28.766 38.2455 28.554 38.3333 28.333 38.3333Z" fill="#DBA749"/>
<path d="M29.5499 27.4955C29.4051 27.4444 29.2568 27.3888 29.1092 27.334V24.6902C29.279 24.7522 29.4382 24.8399 29.5812 24.9504C29.7456 25.0926 29.959 25.165 30.176 25.1521C30.393 25.1393 30.5963 25.0422 30.7427 24.8815C30.8891 24.7209 30.967 24.5094 30.9597 24.2922C30.9525 24.075 30.8607 23.8692 30.7038 23.7187C30.2429 23.3401 29.6948 23.0826 29.1092 22.9694V22.5C29.1051 22.2817 29.0155 22.0738 28.8596 21.9209C28.7038 21.768 28.4942 21.6824 28.2759 21.6824C28.0576 21.6824 27.848 21.768 27.6921 21.9209C27.5363 22.0739 27.4467 22.2818 27.4426 22.5001V23.0304C25.4172 23.3667 24.5306 26.4766 26.1857 27.7194C26.5745 28.0121 26.9963 28.258 27.4426 28.4521V31.975C26.7282 31.9611 25.8506 30.7849 25.1798 31.7392C24.4995 32.9998 26.7283 33.5958 27.4426 33.6497V34.1667C27.4468 34.3849 27.5365 34.5927 27.6923 34.7455C27.8481 34.8983 28.0577 34.9839 28.2759 34.9839C28.4942 34.9839 28.7037 34.8983 28.8595 34.7455C29.0153 34.5927 29.105 34.3848 29.1092 34.1666V33.5578C32.1324 32.8085 32.5413 28.4662 29.5499 27.4955ZM27.2143 26.4079C27.1246 26.2896 27.0592 26.1547 27.0221 26.0109C26.985 25.8671 26.9768 25.7174 26.9981 25.5705C27.0193 25.4235 27.0695 25.2823 27.1458 25.1549C27.2222 25.0275 27.323 24.9166 27.4426 24.8286V26.5556C27.3664 26.5063 27.2792 26.4588 27.2143 26.4079ZM29.9336 30.5933C29.8909 30.8395 29.795 31.0735 29.6526 31.2789C29.5102 31.4843 29.3248 31.6562 29.1092 31.7827V29.1201C29.4004 29.2261 29.6437 29.4332 29.795 29.7036C29.9463 29.974 29.9955 30.2897 29.9336 30.5933Z" fill="white"/>
<path d="M13.3132 4.81935C13.2721 4.63425 13.1691 4.4687 13.0212 4.35003C12.8734 4.23137 12.6894 4.16669 12.4998 4.16669H9.61529C9.33758 4.16664 9.06426 4.236 8.82018 4.36847C8.5761 4.50094 8.369 4.69232 8.2177 4.9252C8.06641 5.15809 7.97572 5.42509 7.95389 5.70194C7.93205 5.9788 7.97976 6.25672 8.09268 6.51044L10.9052 12.8386C10.9706 12.9858 11.0774 13.111 11.2125 13.1988C11.3476 13.2866 11.5053 13.3333 11.6665 13.3334H14.1665C14.2913 13.3334 14.4145 13.3054 14.527 13.2514C14.6395 13.1974 14.7384 13.1189 14.8165 13.0215C14.8946 12.9242 14.9498 12.8106 14.9781 12.689C15.0063 12.5675 15.007 12.4412 14.9799 12.3194L13.3132 4.81935Z" fill="#3E5C2F"/>
<path d="M23.4482 4.92475C23.2973 4.69166 23.0903 4.50014 22.8462 4.36771C22.6021 4.23528 22.3287 4.16617 22.051 4.16669H19.1664C18.9768 4.1667 18.7929 4.23137 18.645 4.35004C18.4971 4.4687 18.3941 4.63425 18.353 4.81936L16.6864 12.3194C16.6593 12.4412 16.6599 12.5675 16.6882 12.689C16.7165 12.8106 16.7717 12.9242 16.8498 13.0215C16.9278 13.1189 17.0268 13.1974 17.1393 13.2514C17.2518 13.3054 17.375 13.3334 17.4998 13.3334H19.9998C20.1609 13.3333 20.3186 13.2866 20.4537 13.1988C20.5889 13.111 20.6956 12.9858 20.7611 12.8386L23.574 6.51044C23.6873 6.25669 23.7351 5.97859 23.7131 5.70157C23.6912 5.42456 23.6001 5.15747 23.4482 4.92475Z" fill="#3E5C2F"/>
<path d="M19.4548 2.25585C19.2984 2.07105 19.1035 1.9226 18.8838 1.82084C18.6642 1.71909 18.4249 1.66648 18.1828 1.66669H13.4839C13.2418 1.66662 13.0026 1.7193 12.7829 1.82107C12.5632 1.92285 12.3684 2.07126 12.2119 2.25599C12.0554 2.44072 11.941 2.65733 11.8767 2.89075C11.8124 3.12417 11.7998 3.3688 11.8396 3.6076L13.3448 12.6371C13.3772 12.8317 13.4776 13.0084 13.6281 13.1359C13.7786 13.2634 13.9695 13.3334 14.1667 13.3334H17.5C17.6973 13.3334 17.8881 13.2634 18.0386 13.1359C18.1891 13.0084 18.2895 12.8317 18.322 12.6371L19.8271 3.6072C19.8671 3.36843 19.8545 3.12381 19.7902 2.89041C19.7259 2.65702 19.6114 2.44046 19.4548 2.25585Z" fill="#547C3F"/>
<path d="M14.1668 17.5C13.9458 17.5 13.7339 17.4122 13.5776 17.2559C13.4213 17.0997 13.3335 16.8877 13.3335 16.6667V12.5C13.3335 12.279 13.4213 12.067 13.5776 11.9108C13.7339 11.7545 13.9458 11.6667 14.1668 11.6667C14.3878 11.6667 14.5998 11.7545 14.7561 11.9108C14.9124 12.067 15.0002 12.279 15.0002 12.5V16.6667C15.0002 16.8877 14.9124 17.0997 14.7561 17.2559C14.5998 17.4122 14.3878 17.5 14.1668 17.5Z" fill="#547C3F"/>
<path d="M17.4998 19.1667C17.2788 19.1667 17.0669 19.0789 16.9106 18.9226C16.7543 18.7663 16.6665 18.5544 16.6665 18.3334V12.5C16.6665 12.279 16.7543 12.067 16.9106 11.9108C17.0669 11.7545 17.2788 11.6667 17.4998 11.6667C17.7209 11.6667 17.9328 11.7545 18.0891 11.9108C18.2454 12.067 18.3332 12.279 18.3332 12.5V18.3334C18.3332 18.5544 18.2454 18.7663 18.0891 18.9226C17.9328 19.0789 17.7209 19.1667 17.4998 19.1667Z" fill="#547C3F"/>
<path d="M21.6665 11.6667H9.99984C9.5396 11.6667 9.1665 12.0398 9.1665 12.5C9.1665 12.9603 9.5396 13.3334 9.99984 13.3334H21.6665C22.1267 13.3334 22.4998 12.9603 22.4998 12.5C22.4998 12.0398 22.1267 11.6667 21.6665 11.6667Z" fill="#3E5C2F"/>
</svg>
