<svg width="16" height="16" viewBox="0 0 16 16" fill="none" xmlns="http://www.w3.org/2000/svg">
<path d="M8.26001 4.27499H4.26001C4.1274 4.27499 4.00022 4.32767 3.90646 4.42144C3.81269 4.51521 3.76001 4.64239 3.76001 4.77499C3.76001 4.9076 3.81269 5.03478 3.90646 5.12855C4.00022 5.22232 4.1274 5.27499 4.26001 5.27499H8.26001C8.39262 5.27499 8.51979 5.22232 8.61356 5.12855C8.70733 5.03478 8.76001 4.9076 8.76001 4.77499C8.76001 4.64239 8.70733 4.51521 8.61356 4.42144C8.51979 4.32767 8.39262 4.27499 8.26001 4.27499Z" fill="#E60000"/>
<path d="M8.26001 6.95001H4.26001C4.1274 6.95001 4.00022 7.00269 3.90646 7.09646C3.81269 7.19023 3.76001 7.3174 3.76001 7.45001C3.76001 7.58262 3.81269 7.7098 3.90646 7.80357C4.00022 7.89733 4.1274 7.95001 4.26001 7.95001H8.26001C8.39262 7.95001 8.51979 7.89733 8.61356 7.80357C8.70733 7.7098 8.76001 7.58262 8.76001 7.45001C8.76001 7.3174 8.70733 7.19023 8.61356 7.09646C8.51979 7.00269 8.39262 6.95001 8.26001 6.95001Z" fill="#E60000"/>
<path d="M8.26001 9.685H4.26001C4.1274 9.685 4.00022 9.73768 3.90646 9.83144C3.81269 9.92521 3.76001 10.0524 3.76001 10.185C3.76001 10.3176 3.81269 10.4448 3.90646 10.5386C4.00022 10.6323 4.1274 10.685 4.26001 10.685H8.26001C8.39262 10.685 8.51979 10.6323 8.61356 10.5386C8.70733 10.4448 8.76001 10.3176 8.76001 10.185C8.76001 10.0524 8.70733 9.92521 8.61356 9.83144C8.51979 9.73768 8.39262 9.685 8.26001 9.685Z" fill="#E60000"/>
<path d="M12.9349 0.5H3.0649C2.8084 0.500654 2.55455 0.551907 2.31789 0.650823C2.08123 0.749738 1.8664 0.894373 1.68573 1.07644C1.50505 1.25851 1.36207 1.47444 1.26498 1.71185C1.16788 1.94927 1.11858 2.2035 1.1199 2.46V14.655C1.11957 14.7801 1.15256 14.9031 1.21548 15.0113C1.27839 15.1195 1.36897 15.2089 1.4779 15.2705C1.58684 15.3321 1.7102 15.3636 1.83533 15.3618C1.96046 15.3599 2.08284 15.3248 2.1899 15.26L4.0299 14.155C4.05766 14.1377 4.0897 14.1286 4.1224 14.1286C4.1551 14.1286 4.18714 14.1377 4.2149 14.155L6.2599 15.38C6.36746 15.4486 6.49235 15.485 6.6199 15.485C6.74824 15.4843 6.87414 15.4498 6.9849 15.385L9.0399 14.155C9.06766 14.1377 9.0997 14.1286 9.1324 14.1286C9.1651 14.1286 9.19714 14.1377 9.2249 14.155L11.0549 15.26C11.1623 15.3238 11.285 15.3575 11.4099 15.3575C11.5348 15.3575 11.6575 15.3238 11.7649 15.26C11.8725 15.1985 11.9619 15.1097 12.0242 15.0026C12.0866 14.8955 12.1196 14.7739 12.1199 14.65V6.22H13.6899C14.0051 6.21868 14.307 6.09289 14.5299 5.87C14.7528 5.64712 14.8786 5.3452 14.8799 5.03V2.46C14.8812 2.2035 14.8319 1.94927 14.7348 1.71185C14.6377 1.47444 14.4947 1.25851 14.3141 1.07644C14.1334 0.894373 13.9186 0.749738 13.6819 0.650823C13.4453 0.551907 13.1914 0.500654 12.9349 0.5ZM11.1199 14.13L9.7399 13.3C9.55606 13.1909 9.3462 13.1333 9.1324 13.1333C8.9186 13.1333 8.70874 13.1909 8.5249 13.3L6.6249 14.44L4.7299 13.295C4.54387 13.1837 4.33097 13.1254 4.1142 13.1263C3.89743 13.1271 3.68502 13.1872 3.4999 13.3L2.1199 14.135V2.46C2.11791 2.33464 2.14088 2.21015 2.18748 2.09376C2.23408 1.97737 2.30337 1.87141 2.39132 1.78207C2.47927 1.69272 2.58412 1.62177 2.69976 1.57334C2.81541 1.52492 2.93953 1.49998 3.0649 1.5H11.3249C11.1929 1.75155 11.1226 2.03091 11.1199 2.315V14.115V14.13ZM13.8799 5.03C13.8799 5.08039 13.8599 5.12872 13.8243 5.16435C13.7886 5.19998 13.7403 5.22 13.6899 5.22H12.1199V2.33C12.1179 2.22172 12.1375 2.11412 12.1776 2.0135C12.2176 1.91289 12.2774 1.82126 12.3532 1.74399C12.4291 1.66671 12.5196 1.60533 12.6195 1.56344C12.7194 1.52155 12.8266 1.49998 12.9349 1.5C13.1855 1.5 13.4259 1.59956 13.6031 1.77678C13.7803 1.95401 13.8799 2.19437 13.8799 2.445V5.03Z" fill="#E60000"/>
</svg>
