<svg width="18" height="18" viewBox="0 0 18 18" fill="none" xmlns="http://www.w3.org/2000/svg">
<path d="M2.71993 18H15.2799C16.5966 18 17.6666 16.93 17.6666 15.6133V3.71998C17.6666 2.40332 16.5966 1.33331 15.2799 1.33331H14.3333V0.666654C14.3333 0.299983 14.0332 0 13.6666 0C13.2999 0 12.9999 0.299983 12.9999 0.666654V1.33331H4.99994V0.666654C4.99994 0.299983 4.6999 0 4.33323 0C3.96656 0 3.66658 0.299983 3.66658 0.666654V1.33331H2.71993C1.40326 1.33331 0.333252 2.40332 0.333252 3.71998V15.6133C0.333252 16.93 1.40326 18 2.71993 18ZM1.66662 3.71998C1.66662 3.14 2.13994 2.66667 2.71993 2.66667H3.66658V3.33333C3.66658 3.7 3.96656 3.99998 4.33323 3.99998C4.6999 3.99998 4.99989 3.7 4.99989 3.33333V2.66667H12.9999V3.33333C12.9999 3.7 13.2999 3.99998 13.6666 3.99998C14.0332 3.99998 14.3332 3.7 14.3332 3.33333V2.66667H15.2799C15.8598 2.66667 16.3332 3.14 16.3332 3.71998V5.66667H1.66662V3.71998ZM1.66662 6.99998H16.3333V15.6133C16.3333 16.1933 15.86 16.6666 15.28 16.6666H2.71993C2.13994 16.6666 1.66662 16.1933 1.66662 15.6133V6.99998Z" fill="#E60000"/>
</svg>
