<svg width="14" height="14" viewBox="0 0 14 14" fill="none" xmlns="http://www.w3.org/2000/svg">
<path d="M2.11558 14H11.8845C12.9085 14 13.7408 13.1678 13.7408 12.1437V2.89332C13.7408 1.86925 12.9085 1.03702 11.8845 1.03702H11.1482V0.518509C11.1482 0.23332 10.9148 0 10.6296 0C10.3444 0 10.1111 0.23332 10.1111 0.518509V1.03702H3.88893V0.518509C3.88893 0.23332 3.65556 0 3.37037 0C3.08519 0 2.85187 0.23332 2.85187 0.518509V1.03702H2.11558C1.09151 1.03702 0.259277 1.86925 0.259277 2.89332V12.1437C0.259277 13.1678 1.09151 14 2.11558 14ZM1.29634 2.89332C1.29634 2.44222 1.66448 2.07408 2.11558 2.07408H2.85187V2.59259C2.85187 2.87778 3.08519 3.1111 3.37037 3.1111C3.65556 3.1111 3.88888 2.87778 3.88888 2.59259V2.07408H10.1111V2.59259C10.1111 2.87778 10.3444 3.1111 10.6296 3.1111C10.9148 3.1111 11.1481 2.87778 11.1481 2.59259V2.07408H11.8844C12.3355 2.07408 12.7037 2.44222 12.7037 2.89332V4.40741H1.29634V2.89332ZM1.29634 5.44443H12.7038V12.1437C12.7038 12.5948 12.3356 12.9629 11.8845 12.9629H2.11558C1.66448 12.9629 1.29634 12.5948 1.29634 12.1437V5.44443Z" fill="#4A0ADD"/>
</svg>
