<svg width="18" height="22" viewBox="0 0 18 22" fill="none" xmlns="http://www.w3.org/2000/svg">
<path d="M14.5 7.95437H14.1356V5.82313C14.1356 4.46107 13.5946 3.15481 12.6314 2.19169C11.6683 1.22857 10.3621 0.6875 9 0.6875C7.63795 0.6875 6.33168 1.22857 5.36856 2.19169C4.40545 3.15481 3.86437 4.46107 3.86437 5.82313V7.95437H3.5C2.77065 7.95437 2.07118 8.24411 1.55546 8.75983C1.03973 9.27556 0.75 9.97503 0.75 10.7044V18.5625C0.75 19.2918 1.03973 19.9913 1.55546 20.507C2.07118 21.0228 2.77065 21.3125 3.5 21.3125H14.5C15.2293 21.3125 15.9288 21.0228 16.4445 20.507C16.9603 19.9913 17.25 19.2918 17.25 18.5625V10.7044C17.25 9.97503 16.9603 9.27556 16.4445 8.75983C15.9288 8.24411 15.2293 7.95437 14.5 7.95437ZM5.23937 5.82313C5.23937 5.32927 5.33665 4.84026 5.52564 4.384C5.71462 3.92774 5.99163 3.51317 6.34084 3.16396C6.69004 2.81476 7.10461 2.53775 7.56087 2.34876C8.01713 2.15977 8.50615 2.0625 9 2.0625C9.49385 2.0625 9.98287 2.15977 10.4391 2.34876C10.8954 2.53775 11.31 2.81476 11.6592 3.16396C12.0084 3.51317 12.2854 3.92774 12.4744 4.384C12.6634 4.84026 12.7606 5.32927 12.7606 5.82313V7.95437H5.23937V5.82313ZM15.875 18.5625C15.875 18.9272 15.7301 19.2769 15.4723 19.5348C15.2144 19.7926 14.8647 19.9375 14.5 19.9375H3.5C3.13533 19.9375 2.78559 19.7926 2.52773 19.5348C2.26987 19.2769 2.125 18.9272 2.125 18.5625V10.7044C2.125 10.3397 2.26987 9.98997 2.52773 9.7321C2.78559 9.47424 3.13533 9.32937 3.5 9.32937H14.5C14.8647 9.32937 15.2144 9.47424 15.4723 9.7321C15.7301 9.98997 15.875 10.3397 15.875 10.7044V18.5625Z" fill="black"/>
<path d="M9.00003 12.3241C8.7333 12.3242 8.47266 12.4039 8.25153 12.5531C8.03039 12.7022 7.85883 12.914 7.75882 13.1613C7.65882 13.4085 7.63493 13.68 7.69022 13.941C7.74551 14.2019 7.87746 14.4404 8.06916 14.6259V16.2559C8.06916 16.4383 8.14159 16.6131 8.27052 16.7421C8.39945 16.871 8.57432 16.9434 8.75666 16.9434H9.24341C9.42574 16.9434 9.60061 16.871 9.72954 16.7421C9.85847 16.6131 9.93091 16.4383 9.93091 16.2559V14.6259C10.1226 14.4404 10.2546 14.2019 10.3098 13.941C10.3651 13.68 10.3412 13.4085 10.2412 13.1613C10.1412 12.914 9.96967 12.7022 9.74854 12.5531C9.5274 12.4039 9.26676 12.3242 9.00003 12.3241Z" fill="black"/>
</svg>
