<svg width="24" height="24" viewBox="0 0 24 24" fill="none" xmlns="http://www.w3.org/2000/svg">
<path d="M11.9992 17.2966C15.2517 17.2966 17.8977 14.6511 17.8977 11.3994C17.8959 9.83554 17.2739 8.33627 16.1681 7.23048C15.0623 6.12468 13.5631 5.50267 11.9992 5.50089C8.74751 5.50089 6.10207 8.14694 6.10207 11.3994C6.10461 12.8872 6.66724 14.3195 7.67801 15.4113L7.06803 17.6869C7.03201 17.8213 7.03665 17.9633 7.08135 18.095C7.12606 18.2267 7.20883 18.3422 7.31919 18.4269C7.42955 18.5116 7.56255 18.5616 7.70135 18.5706C7.84015 18.5797 7.97851 18.5474 8.09895 18.4778L10.4847 17.0993C10.9788 17.2306 11.4879 17.2969 11.9992 17.2966ZM10.0423 15.7309L8.8662 16.4106L9.14126 15.3845C9.17433 15.2612 9.17317 15.1312 9.13793 15.0084C9.10268 14.8857 9.03467 14.7748 8.9412 14.6878C8.48718 14.2692 8.12531 13.7607 7.87861 13.1946C7.63192 12.6284 7.50581 12.0171 7.50832 11.3996C7.50866 10.4516 7.80905 9.5281 8.36647 8.76133C8.92388 7.99456 9.70971 7.42392 10.6113 7.13117C11.513 6.83842 12.4841 6.83858 13.3857 7.13164C14.2872 7.4247 15.0728 7.99561 15.63 8.76256C16.1871 9.52952 16.4872 10.4532 16.4872 11.4011C16.4872 12.3491 16.1872 13.2727 15.63 14.0397C15.0729 14.8067 14.2873 15.3776 13.3858 15.6707C12.4842 15.9638 11.5131 15.964 10.6114 15.6712C10.5177 15.6407 10.4186 15.6302 10.3206 15.6405C10.2225 15.6508 10.1277 15.6815 10.0423 15.7308V15.7309ZM23.6155 11.9015C23.6232 11.6138 23.6311 11.3163 23.6173 11.0066C23.5802 10.1411 23.2088 9.32391 22.5811 8.72692C21.9535 8.12993 21.1187 7.79977 20.2526 7.80597C18.8624 4.62546 15.6864 2.39697 11.9992 2.39697C8.31209 2.39697 5.13739 4.62541 3.74717 7.80593C2.88119 7.79978 2.0466 8.12981 1.41905 8.72658C0.791493 9.32334 0.419918 10.1403 0.382527 11.0055C0.368746 11.3163 0.376668 11.6139 0.384308 11.9017C0.392418 12.2057 0.400762 12.5201 0.385152 12.8734C0.347931 13.7591 0.663471 14.6234 1.26258 15.2769C1.86169 15.9303 2.69547 16.3194 3.58109 16.359C3.63353 16.3615 3.68586 16.3627 3.73807 16.3627C4.17949 16.3629 4.61648 16.2746 5.02315 16.103C5.19307 16.0318 5.32819 15.8967 5.39934 15.7267C5.4705 15.5568 5.47199 15.3657 5.4035 15.1947C5.39498 15.1615 5.38199 15.1296 5.36487 15.1C4.73492 13.9683 4.40431 12.6945 4.40436 11.3994C4.40436 7.21085 7.81142 3.80322 11.9992 3.80322C16.187 3.80322 19.5954 7.21104 19.5954 11.3994C19.6003 13.1723 18.983 14.8907 17.8509 16.2552C16.7189 17.6196 15.1439 18.5435 13.4006 18.8659C13.2169 18.4503 12.8938 18.1119 12.4871 17.9092C12.0804 17.7064 11.6157 17.6522 11.1732 17.7558C10.7308 17.8594 10.3384 18.1143 10.064 18.4765C9.78954 18.8387 9.65026 19.2853 9.67022 19.7393C9.69017 20.1933 9.86811 20.626 10.1733 20.9627C10.4784 21.2994 10.8917 21.5189 11.3415 21.5833C11.7913 21.6477 12.2495 21.5529 12.6368 21.3152C13.0242 21.0776 13.3163 20.7122 13.4628 20.282C14.7012 20.0771 15.8832 19.616 16.9332 18.928C17.9831 18.24 18.8778 17.3404 19.5601 16.2868C19.7903 16.3371 20.0252 16.3626 20.2609 16.3627C20.3126 16.3627 20.3644 16.3615 20.4163 16.3592C20.8552 16.3403 21.2862 16.2351 21.6845 16.0496C22.0828 15.8642 22.4407 15.6021 22.7377 15.2783C23.0346 14.9545 23.265 14.5754 23.4154 14.1626C23.5659 13.7498 23.6336 13.3114 23.6146 12.8725C23.599 12.5203 23.6074 12.2056 23.6155 11.9015ZM3.64362 14.9542C3.13023 14.9315 2.64679 14.7062 2.29931 14.3276C1.95184 13.949 1.76869 13.448 1.79004 12.9346C1.80781 12.5324 1.79839 12.1775 1.79004 11.8643C1.78273 11.5889 1.77598 11.3288 1.78746 11.0667C1.80562 10.6492 1.95811 10.2486 2.22225 9.92473C2.48639 9.60083 2.84806 9.37087 3.25343 9.26908C2.81024 11.0913 2.94623 13.0064 3.6425 14.7477L3.64165 14.748C3.66903 14.8178 3.69729 14.8872 3.72645 14.9563C3.69904 14.9562 3.67143 14.9555 3.64362 14.9542ZM11.6179 20.1967C11.5105 20.1967 11.4054 20.1649 11.3161 20.1052C11.2268 20.0455 11.1571 19.9607 11.116 19.8615C11.0749 19.7622 11.0641 19.653 11.085 19.5476C11.106 19.4422 11.1577 19.3454 11.2336 19.2694C11.3096 19.1935 11.4064 19.1417 11.5117 19.1207C11.6171 19.0997 11.7263 19.1105 11.8256 19.1515C11.9249 19.1926 12.0097 19.2622 12.0694 19.3515C12.1292 19.4409 12.1611 19.5459 12.1611 19.6533V19.6543C12.1607 19.7982 12.1034 19.9361 12.0015 20.0377C11.8997 20.1394 11.7618 20.1966 11.6179 20.1967ZM22.2097 12.9336C22.2206 13.1881 22.1813 13.4424 22.094 13.6817C22.0066 13.9211 21.8729 14.1409 21.7006 14.3286C21.5282 14.5162 21.3206 14.6681 21.0895 14.7754C20.8584 14.8828 20.6084 14.9436 20.3539 14.9543C20.3269 14.9555 20.2999 14.9562 20.273 14.9563C20.2742 14.9537 20.2744 14.9508 20.2736 14.948C21.0412 13.156 21.2071 11.1634 20.7463 9.26913C21.1519 9.37094 21.5137 9.60103 21.7779 9.92514C22.042 10.2492 22.1944 10.65 22.2124 11.0678C22.2239 11.3288 22.217 11.5888 22.2097 11.8642C22.2014 12.1774 22.1919 12.5324 22.2097 12.9336ZM10.3564 11.3305C10.3587 11.3534 10.3598 11.3764 10.3597 11.3994C10.3598 11.4225 10.3587 11.4457 10.3564 11.4687C10.3541 11.4912 10.3504 11.5142 10.3461 11.5367C10.3419 11.5592 10.3358 11.5817 10.3293 11.6037C10.3227 11.6258 10.3147 11.6473 10.3058 11.6684C10.2969 11.6895 10.2871 11.7106 10.2763 11.7308C10.2655 11.7509 10.2538 11.7706 10.2411 11.7898C10.2286 11.809 10.215 11.8275 10.2004 11.8451C10.1858 11.8634 10.1699 11.8803 10.1539 11.8967C10.1376 11.913 10.1203 11.9285 10.1024 11.9431C10.0846 11.9576 10.0658 11.9712 10.0471 11.9844C10.0279 11.9966 10.0082 12.0087 9.98754 12.0195C9.96747 12.0303 9.94681 12.04 9.92567 12.0486C9.90452 12.0575 9.88293 12.0653 9.86098 12.072C9.83895 12.0786 9.81645 12.0842 9.79395 12.0889C9.77148 12.0935 9.7488 12.0969 9.72598 12.0992C9.67983 12.1036 9.63338 12.1036 9.58723 12.0992C9.56441 12.0969 9.54173 12.0935 9.51926 12.0889C9.49676 12.0842 9.47426 12.0786 9.45223 12.072C9.43028 12.0653 9.40869 12.0575 9.38754 12.0486C9.3664 12.04 9.34574 12.0303 9.32567 12.0195C9.30504 12.0087 9.28535 11.9966 9.26614 11.9844C9.24739 11.9712 9.22864 11.9576 9.21082 11.9431C9.19287 11.9285 9.17566 11.913 9.15926 11.8967C9.14332 11.8803 9.12739 11.8634 9.11286 11.8451C9.09822 11.8275 9.0846 11.809 9.07207 11.7898C9.05957 11.7706 9.04785 11.7509 9.03692 11.7308C9.02614 11.7106 9.01629 11.6895 9.00739 11.6684C8.99848 11.6473 8.99098 11.6258 8.98395 11.6037C8.97692 11.5817 8.97176 11.5592 8.96707 11.5367C8.96239 11.5142 8.95911 11.4917 8.95676 11.4687C8.95442 11.4458 8.95348 11.4223 8.95348 11.3994C8.95348 11.3764 8.95489 11.3534 8.95676 11.3305C8.95864 11.3075 8.96286 11.2845 8.96707 11.262C8.97129 11.2395 8.97739 11.2175 8.98395 11.1955C8.99051 11.1734 8.99848 11.1519 9.00739 11.1308C9.01629 11.1097 9.02614 11.0886 9.03692 11.0684C9.05856 11.0278 9.08398 10.9894 9.11286 10.9536C9.12739 10.9358 9.14332 10.9184 9.15926 10.9025C9.17566 10.8862 9.19287 10.8707 9.21082 10.8561C9.22864 10.8416 9.24739 10.8275 9.26614 10.8148C9.28537 10.8021 9.30524 10.7904 9.32567 10.7797C9.34582 10.7689 9.36645 10.7591 9.38754 10.7501C9.40864 10.7417 9.43067 10.7337 9.45223 10.7272C9.47427 10.7204 9.49664 10.7148 9.51926 10.7103C9.6099 10.6919 9.70331 10.6919 9.79395 10.7103C9.81657 10.7148 9.83894 10.7204 9.86098 10.7272C9.88254 10.7337 9.90457 10.7417 9.92567 10.7501C9.94676 10.7586 9.96739 10.7689 9.98754 10.7797C10.008 10.7904 10.0278 10.8021 10.0471 10.8148C10.0658 10.8275 10.0846 10.8416 10.1024 10.8561C10.1203 10.8707 10.1376 10.8862 10.1539 10.9025C10.1699 10.9184 10.1858 10.9358 10.2004 10.9536C10.2292 10.9894 10.2547 11.0278 10.2763 11.0684C10.2871 11.0886 10.2969 11.1097 10.3058 11.1308C10.3147 11.1519 10.3222 11.1734 10.3293 11.1955C10.3363 11.2175 10.3414 11.24 10.3461 11.262C10.3508 11.2841 10.3541 11.3073 10.3564 11.3303V11.3305ZM11.2968 11.3994C11.2967 11.3071 11.3148 11.2157 11.3501 11.1304C11.3853 11.0451 11.4371 10.9675 11.5023 10.9022C11.5675 10.8369 11.645 10.7851 11.7303 10.7498C11.8155 10.7145 11.9069 10.6963 11.9992 10.6962H12.0005C12.1396 10.6964 12.2755 10.7377 12.391 10.8151C12.5065 10.8924 12.5966 11.0023 12.6497 11.1307C12.7028 11.2592 12.7166 11.4006 12.6894 11.5369C12.6622 11.6733 12.5952 11.7985 12.4968 11.8968C12.3985 11.995 12.2732 12.0619 12.1368 12.089C12.0004 12.1161 11.8591 12.1021 11.7307 12.0489C11.6022 11.9957 11.4924 11.9055 11.4152 11.7899C11.338 11.6743 11.2968 11.5384 11.2968 11.3994ZM13.6433 11.4686C13.6411 11.4455 13.64 11.4223 13.64 11.3992C13.64 11.3762 13.6411 11.3532 13.6433 11.3303C13.6457 11.3073 13.6494 11.2843 13.6536 11.2618C13.6579 11.2393 13.664 11.2173 13.6705 11.1953C13.6771 11.1733 13.685 11.1517 13.694 11.1306C13.7024 11.1095 13.7127 11.0884 13.723 11.0682C13.745 11.0278 13.7706 10.9893 13.7994 10.9534C13.814 10.9356 13.8299 10.9182 13.8458 10.9023C13.8622 10.886 13.8794 10.8705 13.8974 10.8559C13.915 10.8411 13.9335 10.8273 13.9527 10.8146C13.9719 10.8021 13.9916 10.7904 14.0118 10.7795C14.0319 10.7687 14.053 10.7589 14.0741 10.75C14.0952 10.7411 14.1172 10.7336 14.1388 10.727C14.1608 10.7202 14.1832 10.7146 14.2058 10.7101C14.2737 10.6963 14.3432 10.6928 14.4121 10.6998C14.435 10.7021 14.4579 10.7055 14.4805 10.7101C14.503 10.7145 14.5252 10.7202 14.5471 10.727C14.5691 10.7336 14.5911 10.7415 14.6122 10.75C14.6333 10.7584 14.6539 10.7687 14.6741 10.7795C14.6945 10.7902 14.7144 10.8019 14.7336 10.8146C14.7524 10.8273 14.7711 10.8414 14.7889 10.8559C14.8069 10.8704 14.8239 10.8859 14.84 10.9023C14.8564 10.9182 14.8719 10.9356 14.8869 10.9534C14.901 10.9712 14.915 10.99 14.9277 11.0092C14.9404 11.0283 14.9521 11.048 14.9629 11.0682C14.9736 11.0884 14.9835 11.1095 14.9924 11.1306C15.0012 11.1517 15.0089 11.1733 15.0154 11.1953C15.0224 11.2171 15.028 11.2393 15.0322 11.2618C15.0371 11.2844 15.0405 11.3073 15.0425 11.3303C15.045 11.3532 15.0462 11.3762 15.0463 11.3992C15.0462 11.4223 15.045 11.4455 15.0425 11.4686C15.0405 11.4914 15.037 11.5141 15.0322 11.5365C15.028 11.5592 15.0224 11.5816 15.0154 11.6036C15.0088 11.6255 15.0012 11.6471 14.9924 11.6682C14.9835 11.6893 14.9736 11.7104 14.9629 11.7306C14.9521 11.7507 14.9404 11.7704 14.9277 11.7896C14.915 11.8089 14.901 11.8276 14.8869 11.845C14.8719 11.8632 14.8564 11.8801 14.84 11.8965C14.8239 11.913 14.8069 11.9285 14.7889 11.9429C14.7711 11.9575 14.7524 11.9711 14.7336 11.9837C14.7144 11.9966 14.6945 12.0085 14.6741 12.0193C14.654 12.0302 14.6334 12.0399 14.6122 12.0484C14.591 12.0574 14.5692 12.0652 14.5471 12.0718C14.5255 12.0784 14.503 12.084 14.4805 12.0887C14.4353 12.0979 14.3893 12.1025 14.3432 12.1023C14.32 12.1024 14.2968 12.1013 14.2738 12.099C14.251 12.0967 14.2283 12.0933 14.2058 12.0887C14.1833 12.084 14.1608 12.0784 14.1388 12.0718C14.1168 12.0651 14.0953 12.0573 14.0741 12.0484C14.0528 12.0399 14.032 12.0302 14.0118 12.0193C13.9916 12.0086 13.9719 11.9964 13.9527 11.9837C13.9335 11.9712 13.915 11.9576 13.8974 11.9429C13.8794 11.9283 13.8622 11.9128 13.8458 11.8965C13.8299 11.8801 13.814 11.8632 13.7994 11.845C13.7848 11.8273 13.7712 11.8088 13.7586 11.7896C13.746 11.7704 13.7338 11.7507 13.723 11.7306C13.7122 11.7104 13.7024 11.6893 13.694 11.6682C13.685 11.6471 13.6772 11.6255 13.6705 11.6036C13.664 11.5815 13.6583 11.559 13.6536 11.5365C13.6489 11.514 13.6457 11.4911 13.6433 11.4686Z" fill="black"/>
</svg>
