<svg width="40" height="40" viewBox="0 0 40 40" fill="none" xmlns="http://www.w3.org/2000/svg">
<g clip-path="url(#clip0_100_10089)">
<path d="M6.57601 16.7944C5.80195 15.9375 6.15601 14.14 6.15601 14.14L8.32164 13.375L10.7294 15.5422L8.62695 16.7831L7.37695 17.8019L6.57601 16.7944Z" fill="#58595B"/>
<path d="M19.729 17.0056C21.5071 8.05906 16.6293 9.68906 16.6293 9.68906C12.9999 6.51156 10.5293 7.29343 9.1465 8.39656C8.48868 8.94981 7.96861 9.64855 7.62744 10.4375C6.75494 12.335 4.68994 12.9484 4.68994 12.9484C5.24963 14.0391 6.29932 14.4425 7.39432 14.5044L19.729 17.0056Z" fill="#6D6E71"/>
<path d="M18.7098 16.6153C18.7098 16.6153 20.5436 15.8756 19.9139 18.6909C19.9139 18.6909 19.562 20.2634 18.1433 20.114H7.97827C6.5592 20.2634 6.20733 18.6909 6.20733 18.6909C5.57764 15.8756 7.41139 16.6153 7.41139 16.6153H18.7098Z" fill="#EAB575"/>
<path d="M16.8766 21.494V25.9147L23.8897 28.4541C24.9823 28.8499 25.9264 29.5726 26.5938 30.524C27.2611 31.4753 27.6192 32.6092 27.6194 33.7712V39.3559H0.625V32.159C0.625018 31.4573 0.827531 30.7705 1.20823 30.1811C1.58894 29.5916 2.13165 29.1246 2.77125 28.8359L9.24531 25.9147V21.5762L16.8766 21.494Z" fill="#B8DFD2"/>
<path d="M16.8764 21.494V25.9147C14.3326 28.1661 11.7889 28.1661 9.24512 25.9147V21.5762L16.8764 21.494Z" fill="#EAB575"/>
<path d="M13.0625 24.6347C7.06939 24.6715 7.33283 15.7234 7.3947 14.505C7.67718 14.5207 7.96039 14.518 8.24252 14.4969C9.6818 14.3677 11.0596 13.8528 12.231 13.0065C13.388 12.1758 14.7277 11.6353 16.1372 11.4303C16.2979 12.1211 16.7043 12.73 17.2806 13.1434C17.7699 13.52 18.1581 14.0121 18.4105 14.5756C18.6629 15.1391 18.7716 15.7564 18.7269 16.3722C18.5135 19.5597 17.4841 24.6628 13.0625 24.6347Z" fill="#FDC87A"/>
<path d="M21.3328 31.625C19.6562 30.9425 19.4687 28.9375 19.5937 27.4175C19.6815 26.505 19.9315 25.6156 20.3318 24.7909C20.9918 23.3806 21.6756 21.4225 21.6756 21.4225V20.1172C21.6756 20.1172 19.6781 10.8281 26.5818 10.4709C26.5818 10.4709 29.5193 10.4709 31.5028 12.4553C31.5028 12.4553 36.0593 10.6028 35.5806 18.7728C35.5124 19.7766 35.5967 20.7849 35.8306 21.7634C35.8743 21.9391 35.9243 22.1153 35.98 22.2869C36.6339 24.1724 36.6963 26.2127 36.159 28.1347C35.8139 29.3912 35.162 30.5422 34.2618 31.4844C30.065 37.9166 25.75 37.6463 21.3328 31.625Z" fill="#6D6E71"/>
<path d="M22.8233 19.6913C22.8233 19.6913 20.5717 19.2944 21.6046 21.8344C21.6046 21.8344 22.2661 23.4084 23.4539 23.1469H32.553C33.7405 23.4081 34.4021 21.8344 34.4021 21.8344C35.4333 19.2944 33.1833 19.6913 33.1833 19.6913H22.8233Z" fill="#EAB575"/>
<path d="M30.6969 24.5594V29.5335C31.6153 30.7141 34.7281 31.7119 36.9631 32.2997C37.6539 32.4809 38.2653 32.8858 38.7016 33.4512C39.138 34.0166 39.3748 34.7105 39.375 35.4247V39.3547H16.6294V35.426C16.6296 34.7118 16.8664 34.0178 17.3028 33.4524C17.7391 32.8871 18.3505 32.4822 19.0413 32.301C21.2763 31.7131 24.3894 30.7153 25.3075 29.5347V24.5594H30.6969Z" fill="#E76190"/>
<path d="M32.8533 30.9356C32.4216 31.8544 31.7349 32.6298 30.8749 33.1692C30.015 33.7087 29.0181 33.9896 28.003 33.9785C26.9897 33.9807 25.9965 33.6962 25.1381 33.1577C24.2797 32.6193 23.5913 31.8489 23.1523 30.9356L23.1811 30.9231C23.817 30.6396 24.3568 30.1771 24.7345 29.5922C25.1123 29.0072 25.3117 28.3251 25.3086 27.6288V24.5594H30.697V27.6288C30.6939 28.3251 30.8934 29.0072 31.2711 29.5922C31.6489 30.1771 32.1886 30.6396 32.8245 30.9231L32.8533 30.9356Z" fill="#EAB575"/>
<path d="M22.7544 18.4478C22.7544 18.4478 22.7856 27.6334 28.0022 27.655C33.2188 27.6334 33.25 18.4478 33.25 18.4478C31.2541 11.0966 27.4331 12.6734 22.7544 18.4478Z" fill="#FDC87A"/>
<path d="M35.5828 18.7741C35.5555 19.1693 35.5525 19.5659 35.5741 19.9616C35.5741 19.9616 32.1366 22.6572 29.8972 15.4131C29.8972 15.4131 26.2319 20.1238 21.6109 19.9616C21.3112 17.6728 20.9519 10.7631 26.5828 10.4722C26.5828 10.4722 29.5203 10.4722 31.5037 12.4566C31.5037 12.4553 36.0591 10.6031 35.5828 18.7741Z" fill="#6D6E71"/>
<path d="M18.7982 1.78376C19.7276 3.89376 17.3832 7.33032 17.3832 7.33032C17.3832 7.33032 13.2651 6.74064 12.3357 4.63032C12.1674 4.25037 12.1279 3.82583 12.2231 3.42133C12.3184 3.01683 12.5432 2.65454 12.8633 2.38961C13.1835 2.12469 13.5815 1.97164 13.9967 1.95377C14.4118 1.9359 14.8215 2.05419 15.1632 2.29064C15.2194 1.87883 15.4086 1.49667 15.702 1.20235C15.9955 0.908023 16.3771 0.717667 16.7887 0.660268C17.2003 0.602869 17.6195 0.681572 17.9822 0.884391C18.345 1.08721 18.6315 1.40303 18.7982 1.78376Z" fill="#E76190"/>
<path d="M20.3964 2.77907C19.2555 5.36907 22.1333 9.58751 22.1333 9.58751C22.1333 9.58751 27.1877 8.86345 28.3292 6.27314C28.535 5.80677 28.5829 5.286 28.4657 4.78993C28.3484 4.29385 28.0725 3.8496 27.6798 3.52465C27.287 3.19971 26.799 3.01183 26.2897 2.98955C25.7805 2.96728 25.2779 3.11184 24.8583 3.40126C24.7886 2.8963 24.556 2.4279 24.1958 2.0672C23.8356 1.70651 23.3675 1.47324 22.8626 1.40284C22.3578 1.33244 21.8437 1.42875 21.3986 1.67715C20.9535 1.92555 20.6016 2.31245 20.3964 2.77907Z" fill="#E76190"/>
</g>
<defs>
<clipPath id="clip0_100_10089">
<rect width="40" height="40" fill="white"/>
</clipPath>
</defs>
</svg>
