<svg width="51" height="68" viewBox="0 0 51 68" fill="none" xmlns="http://www.w3.org/2000/svg">
<path d="M12.8139 45.1412H37.8581C38.9765 45.1412 40.049 45.5855 40.8398 46.3763C41.6306 47.1671 42.0749 48.2397 42.0749 49.358V57.2105H8.59595V49.358C8.59595 48.8042 8.70506 48.2557 8.91704 47.744C9.12903 47.2324 9.43974 46.7675 9.83143 46.3759C10.2231 45.9843 10.6881 45.6737 11.1998 45.4619C11.7116 45.25 12.26 45.1411 12.8139 45.1412Z" fill="#B78656"/>
<g style="mix-blend-mode:multiply">
<path d="M15.4708 45.1412H13.009C11.8388 45.1412 10.7166 45.6061 9.88918 46.4335C9.06176 47.2609 8.59692 48.3831 8.59692 49.5533V57.2105H11.0588V49.5533C11.0588 48.3831 11.5236 47.2609 12.351 46.4335C13.1784 45.6061 14.3006 45.1412 15.4708 45.1412Z" fill="#E6E7E8"/>
</g>
<path d="M35.2009 45.1412H37.6628C38.2422 45.1412 38.8159 45.2554 39.3512 45.4771C39.8865 45.6988 40.3728 46.0238 40.7825 46.4335C41.1922 46.8432 41.5172 47.3296 41.7389 47.8648C41.9607 48.4001 42.0748 48.9739 42.0748 49.5533V57.2105H39.613V49.5533C39.613 48.3831 39.1481 47.2609 38.3207 46.4335C37.4933 45.6061 36.3711 45.1412 35.2009 45.1412Z" fill="#C1946B"/>
<path d="M42.9688 51.6434H40.3717C40.2143 51.6434 40.0584 51.6744 39.913 51.7346C39.7676 51.7948 39.6354 51.8831 39.5241 51.9944C39.4128 52.1057 39.3246 52.2379 39.2643 52.3833C39.2041 52.5287 39.1731 52.6845 39.1731 52.8419V59.1512H44.1662V52.8419C44.1662 52.5243 44.0401 52.2196 43.8155 51.9948C43.591 51.7701 43.2865 51.6437 42.9688 51.6434Z" fill="#AE571D"/>
<path d="M10.3013 51.6434H7.70419C7.54679 51.6434 7.39093 51.6744 7.24551 51.7346C7.1001 51.7948 6.96797 51.8831 6.85667 51.9944C6.74537 52.1057 6.65709 52.2379 6.59685 52.3833C6.53662 52.5287 6.50562 52.6845 6.50562 52.8419V59.1512H11.4987V52.8419C11.4987 52.5243 11.3726 52.2196 11.1481 51.9948C10.9235 51.7701 10.619 51.6437 10.3013 51.6434Z" fill="#AE571D"/>
<g style="mix-blend-mode:multiply">
<path d="M41.602 51.6434H40.3717C40.2143 51.6434 40.0584 51.6744 39.913 51.7346C39.7676 51.7948 39.6354 51.8831 39.5241 51.9944C39.4128 52.1057 39.3246 52.2379 39.2643 52.3833C39.2041 52.5287 39.1731 52.6845 39.1731 52.8419V59.1512H40.4034V52.8419C40.4034 52.5241 40.5297 52.2192 40.7545 51.9944C40.9793 51.7697 41.2841 51.6434 41.602 51.6434Z" fill="#E6E7E8"/>
</g>
<g style="mix-blend-mode:multiply">
<path d="M8.93452 51.6434H7.70419C7.54679 51.6434 7.39093 51.6744 7.24551 51.7346C7.1001 51.7948 6.96797 51.8831 6.85667 51.9944C6.74537 52.1057 6.65709 52.2379 6.59685 52.3833C6.53662 52.5287 6.50562 52.6845 6.50562 52.8419V59.1512H7.73595V52.8419C7.73595 52.6845 7.76695 52.5287 7.82718 52.3833C7.88742 52.2379 7.9757 52.1057 8.087 51.9944C8.1983 51.8831 8.33043 51.7948 8.47585 51.7346C8.62127 51.6744 8.77712 51.6434 8.93452 51.6434Z" fill="#E6E7E8"/>
</g>
<path d="M9.06982 51.6434H10.3002C10.4576 51.6434 10.6134 51.6744 10.7588 51.7346C10.9043 51.7948 11.0364 51.8831 11.1477 51.9944C11.259 52.1057 11.3473 52.2379 11.4075 52.3833C11.4677 52.5287 11.4987 52.6845 11.4987 52.8419V59.1512H10.2684V52.8419C10.2684 52.6845 10.2374 52.5287 10.1772 52.3833C10.1169 52.2379 10.0286 52.1057 9.91734 51.9944C9.80605 51.8831 9.67392 51.7948 9.5285 51.7346C9.38308 51.6744 9.22722 51.6434 9.06982 51.6434Z" fill="#B76730"/>
<path d="M41.7373 51.6434H42.9676C43.125 51.6434 43.2809 51.6744 43.4263 51.7346C43.5717 51.7948 43.7039 51.8831 43.8152 51.9944C43.9265 52.1057 44.0147 52.2379 44.075 52.3833C44.1352 52.5287 44.1662 52.6845 44.1662 52.8419V59.1512H42.9359V52.8419C42.9359 52.5241 42.8096 52.2192 42.5848 51.9944C42.3601 51.7697 42.0552 51.6434 41.7373 51.6434Z" fill="#B76730"/>
<path d="M9.03941 56.78H41.6326C41.9654 56.78 42.2948 56.8455 42.6022 56.9728C42.9096 57.1001 43.1889 57.2868 43.4242 57.522C43.6594 57.7573 43.8461 58.0366 43.9734 58.344C44.1007 58.6514 44.1662 58.9808 44.1662 59.3136V63.5821H6.50464V59.3136C6.50464 58.9807 6.57021 58.6512 6.69761 58.3437C6.82501 58.0363 7.01174 57.7569 7.24713 57.5216C7.48252 57.2863 7.76196 57.0997 8.06948 56.9725C8.37701 56.8452 8.70659 56.7798 9.03941 56.78Z" fill="#CEA575"/>
<g style="mix-blend-mode:multiply">
<path d="M11.6187 56.78H9.15683C8.45368 56.78 7.77934 57.0593 7.28214 57.5565C6.78494 58.0537 6.50562 58.728 6.50562 59.4312V63.5833H8.96628V59.4312C8.96659 58.7279 9.24618 58.0536 9.74356 57.5564C10.2409 57.0593 10.9154 56.78 11.6187 56.78Z" fill="#E6E7E8"/>
</g>
<path d="M39.053 56.78H41.5148C42.218 56.78 42.8923 57.0593 43.3895 57.5565C43.8867 58.0537 44.166 58.728 44.166 59.4312V63.5833H41.7054V59.4312C41.7051 58.7279 41.4255 58.0536 40.9281 57.5564C40.4307 57.0593 39.7562 56.78 39.053 56.78Z" fill="#D8AF87"/>
<path d="M6.50562 63.5833V65.1876C6.50562 65.4094 6.59373 65.6221 6.75056 65.779C6.9074 65.9358 7.12011 66.0239 7.34191 66.0239H43.3321C43.5539 66.0239 43.7666 65.9358 43.9234 65.779C44.0803 65.6221 44.1684 65.4094 44.1684 65.1876V63.5833H6.50562Z" fill="#AE571D"/>
<g style="mix-blend-mode:multiply">
<path d="M8.96628 65.1876V63.5833H6.50562V65.1876C6.50562 65.4094 6.59373 65.6221 6.75056 65.779C6.9074 65.9358 7.12011 66.0239 7.34191 66.0239H9.80963C9.69922 66.0249 9.58971 66.0039 9.48743 65.9623C9.38515 65.9207 9.29212 65.8592 9.21371 65.7815C9.13531 65.7037 9.07308 65.6112 9.03061 65.5093C8.98814 65.4074 8.96627 65.298 8.96628 65.1876Z" fill="#E6E7E8"/>
</g>
<path d="M41.7054 65.1876V63.5833H44.1661V65.1876C44.1661 65.4094 44.0779 65.6221 43.9211 65.779C43.7643 65.9358 43.5516 66.0239 43.3298 66.0239H40.8679C40.9778 66.0241 41.0867 66.0026 41.1883 65.9606C41.2899 65.9186 41.3822 65.8571 41.46 65.7794C41.5378 65.7017 41.5995 65.6095 41.6416 65.5079C41.6837 65.4064 41.7054 65.2975 41.7054 65.1876Z" fill="#B76730"/>
<path d="M10.0945 66.0239V66.5027C10.0945 66.5941 10.1308 66.6817 10.1954 66.7463C10.2601 66.811 10.3477 66.8473 10.4391 66.8473H11.473C11.5644 66.8473 11.6521 66.811 11.7167 66.7463C11.7813 66.6817 11.8177 66.5941 11.8177 66.5027V66.0263L10.0945 66.0239Z" fill="black"/>
<path d="M38.8542 66.0239V66.5027C38.8542 66.5941 38.8906 66.6817 38.9552 66.7463C39.0198 66.811 39.1075 66.8473 39.1989 66.8473H40.2328C40.3242 66.8473 40.4118 66.811 40.4765 66.7463C40.5411 66.6817 40.5774 66.5941 40.5774 66.5027V66.0263L38.8542 66.0239Z" fill="black"/>
<path d="M15.9904 21.5392L15.0254 21.9137L24.5937 46.5696L25.5587 46.1951L15.9904 21.5392Z" fill="black"/>
<path d="M4.05551 21.6372L3.1582 22.1531L19.1141 49.9013L20.0114 49.3854L4.05551 21.6372Z" fill="black"/>
<path d="M34.6799 21.5362L25.1116 46.1921L26.0765 46.5666L35.6449 21.9107L34.6799 21.5362Z" fill="black"/>
<path d="M46.6175 21.6419L30.6616 49.3901L31.5589 49.9061L47.5148 22.1579L46.6175 21.6419Z" fill="black"/>
<path d="M35.628 32.7885C35.739 32.7885 35.8455 32.8326 35.9241 32.9112C36.0026 32.9897 36.0467 33.0962 36.0467 33.2072V33.4119C36.0467 33.5101 36.0661 33.6073 36.1037 33.698C36.1413 33.7887 36.1964 33.8711 36.2659 33.9405C36.3354 34.0098 36.4178 34.0648 36.5086 34.1023C36.5993 34.1398 36.6966 34.159 36.7948 34.1588H37.1477V34.9963H36.7948C36.3745 34.9963 35.9714 34.8294 35.674 34.5323C35.3767 34.2352 35.2095 33.8322 35.2092 33.4119V33.2072C35.2095 33.0963 35.2538 32.99 35.3322 32.9115C35.4107 32.833 35.517 32.7888 35.628 32.7885Z" fill="#F9BE8E"/>
<path d="M39.7964 33.3507V32.4792C39.7961 32.3682 39.7518 32.2619 39.6734 32.1834C39.5949 32.105 39.4886 32.0607 39.3776 32.0604H39.3106C39.2556 32.0604 39.2011 32.0713 39.1503 32.0923C39.0995 32.1133 39.0534 32.1442 39.0145 32.1831C38.9756 32.222 38.9448 32.2681 38.9237 32.3189C38.9027 32.3697 38.8918 32.4242 38.8918 32.4792C38.8915 32.368 38.8472 32.2615 38.7684 32.183C38.6897 32.1045 38.5831 32.0604 38.4719 32.0604H38.4049C38.2939 32.0607 38.1876 32.105 38.1091 32.1834C38.0307 32.2619 37.9865 32.3682 37.9861 32.4792C37.9861 32.4242 37.9753 32.3697 37.9543 32.3189C37.9332 32.2681 37.9024 32.222 37.8635 32.1831C37.8246 32.1442 37.7785 32.1133 37.7277 32.0923C37.6769 32.0713 37.6224 32.0604 37.5674 32.0604H37.5004C37.4454 32.0604 37.3909 32.0713 37.3401 32.0923C37.2893 32.1133 37.2432 32.1442 37.2043 32.1831C37.1654 32.222 37.1346 32.2681 37.1135 32.3189C37.0925 32.3697 37.0816 32.4242 37.0816 32.4792C37.0813 32.3682 37.0371 32.2619 36.9586 32.1834C36.8802 32.105 36.7739 32.0607 36.6629 32.0604H36.5959C36.5409 32.0604 36.4864 32.0713 36.4356 32.0923C36.3848 32.1133 36.3386 32.1442 36.2998 32.1831C36.2609 32.222 36.23 32.2681 36.209 32.3189C36.1879 32.3697 36.1771 32.4242 36.1771 32.4792V37.6028C36.1771 38.4604 35.8365 39.2828 35.2301 39.8892C34.6237 40.4956 33.8012 40.8363 32.9437 40.8363H31.4346V44.4567H32.9425C33.8432 44.4576 34.7352 44.281 35.5675 43.937C36.3999 43.593 37.1563 43.0883 37.7935 42.4517C38.4307 41.8152 38.9361 41.0593 39.281 40.2273C39.6259 39.3953 39.8034 38.5035 39.8034 37.6028V33.3613C39.8034 33.3613 39.7964 33.3543 39.7964 33.3507Z" fill="#F9BE8E"/>
<g style="mix-blend-mode:multiply">
<path d="M36.9522 37.6028V32.178C36.8749 32.1025 36.771 32.0602 36.6628 32.0604H36.5958C36.4847 32.0604 36.3782 32.1045 36.2997 32.1831C36.2212 32.2616 36.1771 32.3681 36.1771 32.4792V37.6028C36.1771 38.4604 35.8364 39.2828 35.23 39.8892C34.6236 40.4956 33.8012 40.8363 32.9436 40.8363H33.7199C34.5773 40.8359 35.3994 40.4951 36.0055 39.8888C36.6117 39.2824 36.9522 38.4602 36.9522 37.6028Z" fill="#E6E7E8"/>
<path d="M32.2109 40.8362H31.4346V44.4567H32.2109V40.8362Z" fill="#E6E7E8"/>
</g>
<path d="M14.4853 32.7885C14.3742 32.7885 14.2677 32.8326 14.1892 32.9112C14.1106 32.9897 14.0665 33.0962 14.0665 33.2072V33.4119C14.0665 33.5101 14.0472 33.6073 14.0096 33.698C13.972 33.7887 13.9168 33.8711 13.8473 33.9405C13.7779 34.0098 13.6954 34.0648 13.6046 34.1023C13.5139 34.1398 13.4166 34.159 13.3184 34.1588H12.9656V34.9963H13.3184C13.5266 34.9964 13.7328 34.9556 13.9251 34.876C14.1175 34.7965 14.2923 34.6798 14.4395 34.5327C14.5868 34.3855 14.7036 34.2108 14.7833 34.0185C14.863 33.8262 14.904 33.6201 14.904 33.4119V33.2072C14.904 33.0962 14.8599 32.9897 14.7814 32.9112C14.7028 32.8326 14.5963 32.7885 14.4853 32.7885Z" fill="#F9BE8E"/>
<path d="M17.1705 40.8363C16.3129 40.8363 15.4905 40.4956 14.8841 39.8892C14.2777 39.2828 13.9371 38.4604 13.9371 37.6028V32.4792C13.9367 32.3682 13.8925 32.2619 13.8141 32.1834C13.7356 32.105 13.6293 32.0607 13.5183 32.0604H13.456C13.3449 32.0604 13.2384 32.1045 13.1599 32.1831C13.0814 32.2616 13.0372 32.3681 13.0372 32.4792C13.0369 32.368 12.9926 32.2615 12.9138 32.183C12.8351 32.1045 12.7285 32.0604 12.6173 32.0604H12.5503C12.4393 32.0607 12.333 32.105 12.2545 32.1834C12.1761 32.2619 12.1319 32.3682 12.1315 32.4792C12.1315 32.3681 12.0874 32.2616 12.0089 32.1831C11.9304 32.1045 11.8239 32.0604 11.7128 32.0604H11.6458C11.5347 32.0604 11.4282 32.1045 11.3497 32.1831C11.2711 32.2616 11.227 32.3681 11.227 32.4792C11.2267 32.3682 11.1825 32.2619 11.104 32.1834C11.0256 32.105 10.9193 32.0607 10.8083 32.0604H10.7412C10.6302 32.0604 10.5237 32.1045 10.4452 32.1831C10.3666 32.2616 10.3225 32.3681 10.3225 32.4792V33.3507C10.3225 33.3507 10.3225 33.3578 10.3225 33.3613V37.6028C10.3225 39.4206 11.0446 41.1639 12.33 42.4492C13.6153 43.7346 15.3586 44.4567 17.1764 44.4567H18.6784V40.8363H17.1705Z" fill="#F9BE8E"/>
<g style="mix-blend-mode:multiply">
<path d="M11.0918 37.6028V33.3613C11.0918 33.3613 11.0918 33.3543 11.0918 33.3507V32.1745C11.0145 32.0989 10.9106 32.0567 10.8024 32.0569H10.7354C10.6243 32.0569 10.5178 32.101 10.4393 32.1795C10.3608 32.2581 10.3167 32.3646 10.3167 32.4756V33.3472C10.3167 33.3472 10.3167 33.3543 10.3167 33.3578V37.6028C10.3167 39.4206 11.0388 41.1639 12.3241 42.4492C13.6095 43.7346 15.3528 44.4567 17.1705 44.4567H17.9468C17.0467 44.4568 16.1553 44.2797 15.3236 43.9353C14.4919 43.5909 13.7362 43.0861 13.0997 42.4496C12.4631 41.8132 11.9581 41.0576 11.6136 40.2259C11.2691 39.3943 11.0918 38.503 11.0918 37.6028Z" fill="#E6E7E8"/>
</g>
<path d="M32.2205 62.5552H27.6626V65.4323H32.2205V62.5552Z" fill="#9F958A"/>
<path d="M22.8999 62.5552H18.342V65.4323H22.8999V62.5552Z" fill="#9F958A"/>
<path d="M17.8574 49.9261V62.033C17.8574 62.5075 18.0459 62.9625 18.3814 63.298C18.7169 63.6335 19.172 63.822 19.6465 63.822H21.7578C21.9927 63.822 22.2254 63.7757 22.4424 63.6858C22.6595 63.5959 22.8567 63.4642 23.0228 63.298C23.189 63.1319 23.3207 62.9347 23.4106 62.7176C23.5006 62.5006 23.5468 62.2679 23.5468 62.033V57.1516C23.5461 56.9162 23.5918 56.6829 23.6813 56.4652C23.7709 56.2475 23.9025 56.0496 24.0687 55.8828C24.2349 55.716 24.4324 55.5837 24.6499 55.4935C24.8673 55.4032 25.1004 55.3567 25.3359 55.3567C25.8104 55.3567 26.2654 55.5452 26.6009 55.8807C26.9364 56.2162 27.1249 56.6713 27.1249 57.1458V62.033C27.1249 62.5075 27.3134 62.9625 27.6489 63.298C27.9844 63.6335 28.4395 63.822 28.914 63.822H31.0253C31.2602 63.822 31.4929 63.7757 31.7099 63.6858C31.927 63.5959 32.1242 63.4642 32.2903 63.298C32.4564 63.1319 32.5882 62.9347 32.6781 62.7176C32.768 62.5006 32.8143 62.2679 32.8143 62.033V49.9261H17.8574Z" fill="#66AA89"/>
<path d="M24.0421 55.3568C23.5677 55.3568 23.1126 55.5452 22.7771 55.8807C22.4416 56.2163 22.2531 56.6713 22.2531 57.1458V62.033C22.2531 62.2681 22.2068 62.5008 22.1168 62.7179C22.0268 62.9351 21.8949 63.1323 21.7287 63.2985C21.5624 63.4646 21.3651 63.5964 21.1479 63.6862C20.9307 63.776 20.6979 63.8222 20.4629 63.8221H21.7567C21.9918 63.8222 22.2245 63.776 22.4417 63.6862C22.6589 63.5964 22.8563 63.4646 23.0225 63.2985C23.1888 63.1323 23.3207 62.9351 23.4107 62.7179C23.5006 62.5008 23.547 62.2681 23.547 62.033V57.1517C23.547 56.7911 23.6562 56.439 23.86 56.1415C24.0638 55.8441 24.3528 55.6152 24.6891 55.485C24.4833 55.4023 24.2639 55.3588 24.0421 55.3568Z" fill="#7BBA99"/>
<path d="M31.5217 49.9261V62.033C31.5217 62.5075 31.3332 62.9625 30.9977 63.298C30.6622 63.6335 30.2071 63.822 29.7327 63.822H31.0265C31.5008 63.8217 31.9555 63.6331 32.2908 63.2976C32.6261 62.9621 32.8144 62.5073 32.8144 62.033V49.9261H31.5217Z" fill="#7BBA99"/>
<g style="mix-blend-mode:multiply">
<path d="M19.1501 62.033V49.9261H17.8562V62.033C17.8562 62.5075 18.0447 62.9625 18.3802 63.298C18.7157 63.6335 19.1708 63.822 19.6452 63.822H20.9391C20.4646 63.822 20.0096 63.6335 19.674 63.298C19.3385 62.9625 19.1501 62.5075 19.1501 62.033Z" fill="#D1D3D4"/>
<path d="M28.4175 62.033V57.1516C28.418 56.8608 28.3475 56.5742 28.2121 56.3169C28.0767 56.0595 27.8805 55.8391 27.6405 55.6748C27.4006 55.5105 27.1241 55.4074 26.8351 55.3743C26.5462 55.3412 26.2536 55.3792 25.9827 55.4849C26.3189 55.6151 26.6079 55.844 26.8117 56.1415C27.0156 56.4389 27.1247 56.791 27.1248 57.1516V62.033C27.1248 62.5074 27.3133 62.9625 27.6488 63.298C27.9843 63.6335 28.4393 63.822 28.9138 63.822H30.2077C29.9726 63.8222 29.7399 63.776 29.5227 63.6862C29.3055 63.5963 29.1081 63.4646 28.9419 63.2984C28.7756 63.1323 28.6437 62.935 28.5537 62.7179C28.4638 62.5007 28.4175 62.268 28.4175 62.033Z" fill="#D1D3D4"/>
</g>
<path d="M33.6695 40.0976H30.2584C29.8747 39.9692 29.4727 39.9037 29.0681 39.9035H21.6037C21.1991 39.9037 20.7971 39.9692 20.4134 40.0976H16.4436C16.259 40.0976 16.0818 40.1709 15.9513 40.3015C15.8207 40.4321 15.7473 40.6092 15.7473 40.7939V44.1756C15.7473 44.3602 15.8207 44.5373 15.9513 44.6679C16.0818 44.7985 16.259 44.8719 16.4436 44.8719H17.8551V52.1645H32.8144V44.8719H33.6695C33.8542 44.8719 34.0313 44.7985 34.1619 44.6679C34.2924 44.5373 34.3658 44.3602 34.3658 44.1756V40.7939C34.3658 40.6092 34.2924 40.4321 34.1619 40.3015C34.0313 40.1709 33.8542 40.0976 33.6695 40.0976Z" fill="#E52E2E"/>
<path d="M33.6695 40.0976H30.2584C29.8747 39.9692 29.4727 39.9037 29.0681 39.9035H21.6037C21.1991 39.9037 20.7971 39.9692 20.4134 40.0976H16.4436C16.259 40.0976 16.0818 40.1709 15.9513 40.3015C15.8207 40.4321 15.7473 40.6092 15.7473 40.7939V41.382L27.7754 41.1974C28.1797 41.197 28.5814 41.2626 28.9646 41.3914H32.3756C32.5603 41.3914 32.7374 41.4648 32.868 41.5954C32.9986 41.726 33.072 41.9031 33.072 42.0878V44.1085C33.072 44.2 33.0539 44.2905 33.0189 44.375C32.984 44.4595 32.9327 44.5362 32.868 44.6009C32.8033 44.6656 32.7266 44.7168 32.6421 44.7518C32.5576 44.7868 32.4671 44.8048 32.3756 44.8048H31.5205V52.1668H32.8144V44.8742H33.6695C33.8542 44.8742 34.0313 44.8009 34.1619 44.6703C34.2924 44.5397 34.3658 44.3626 34.3658 44.1779V40.7939C34.3658 40.6092 34.2924 40.4321 34.1619 40.3015C34.0313 40.1709 33.8542 40.0976 33.6695 40.0976Z" fill="#ED5858"/>
<g style="mix-blend-mode:multiply">
<path d="M19.1501 52.1668V43.5804H15.7473V44.1767C15.7473 44.3614 15.8207 44.5385 15.9513 44.6691C16.0818 44.7997 16.259 44.8731 16.4436 44.8731H17.8551V52.1657L19.1501 52.1668Z" fill="#D1D3D4"/>
</g>
<path d="M20.4216 34.3011H30.249V39.6589C30.249 40.8443 29.7781 41.9812 28.9399 42.8194C28.1016 43.6576 26.9648 44.1285 25.7793 44.1285H24.8913C23.7059 44.1285 22.569 43.6576 21.7308 42.8194C20.8925 41.9812 20.4216 40.8443 20.4216 39.6589V34.3011Z" fill="#F9BE8E"/>
<path d="M28.9563 34.2999V39.2142C28.9561 40.4054 28.5233 41.5559 27.7384 42.4519C26.9534 43.3478 25.8698 43.9281 24.689 44.085C24.9035 44.1131 25.1195 44.1277 25.3359 44.1285C26.6391 44.1282 27.8889 43.6103 28.8105 42.6888C29.732 41.7672 30.2499 40.5175 30.2502 39.2142V34.2999H28.9563Z" fill="#FFCFAB"/>
<g style="mix-blend-mode:multiply">
<path d="M21.7155 39.2142V34.2999H20.4216V39.2142C20.4219 40.5175 20.9398 41.7672 21.8613 42.6888C22.7829 43.6103 24.0327 44.1282 25.3359 44.1285C25.5522 44.1277 25.7683 44.1131 25.9828 44.085C24.802 43.9281 23.7184 43.3478 22.9334 42.4519C22.1485 41.5559 21.7157 40.4054 21.7155 39.2142Z" fill="#E6E7E8"/>
</g>
<path d="M20.6216 63.3857C20.2443 63.3855 19.8706 63.4597 19.522 63.604C19.1734 63.7483 18.8566 63.9598 18.5898 64.2266C18.3229 64.4933 18.1112 64.81 17.9668 65.1586C17.8224 65.5071 17.748 65.8807 17.748 66.258C17.748 66.414 17.81 66.5636 17.9203 66.6739C18.0306 66.7842 18.1802 66.8461 18.3362 66.8461H22.9105C23.0665 66.8461 23.2161 66.7842 23.3264 66.6739C23.4367 66.5636 23.4986 66.414 23.4986 66.258C23.4986 65.8804 23.4242 65.5065 23.2795 65.1577C23.1349 64.8089 22.9229 64.4921 22.6557 64.2253C22.3884 63.9585 22.0712 63.747 21.7222 63.603C21.3732 63.4589 20.9992 63.3851 20.6216 63.3857Z" fill="black"/>
<path d="M25.336 0C13.0879 0 3.1582 9.92853 3.1582 22.1777H47.5137C47.5137 9.92617 37.584 0 25.336 0Z" fill="#ED5858"/>
<path d="M25.336 0C19.9559 0 15.5945 9.92853 15.5945 22.1777H35.0775C35.0775 9.92617 30.716 0 25.336 0Z" fill="#E52E2E"/>
<path d="M30.2502 34.8798H20.4216V34.5093C20.4216 33.828 20.6923 33.1746 21.174 32.6928C21.6558 32.2111 22.3092 31.9404 22.9905 31.9404H24.6749C25.867 31.9398 27.0202 31.5163 27.9295 30.7454L28.5035 30.2584L29.3786 31.1006C29.6541 31.3658 29.8733 31.6839 30.023 32.0357C30.1728 32.3876 30.25 32.766 30.2502 33.1484V34.8798Z" fill="#E57713"/>
<path d="M20.6204 64.8101C21.3044 64.8101 21.859 64.5225 21.859 64.1678C21.859 63.8132 21.3044 63.5256 20.6204 63.5256C19.9364 63.5256 19.3818 63.8132 19.3818 64.1678C19.3818 64.5225 19.9364 64.8101 20.6204 64.8101Z" fill="#2C3330"/>
<path d="M29.9409 63.3857C29.1792 63.3857 28.4486 63.6883 27.9099 64.227C27.3712 64.7656 27.0686 65.4962 27.0686 66.258C27.0686 66.414 27.1306 66.5636 27.2409 66.6739C27.3511 66.7842 27.5007 66.8461 27.6567 66.8461H32.2287C32.3847 66.8461 32.5343 66.7842 32.6446 66.6739C32.7549 66.5636 32.8168 66.414 32.8168 66.258C32.8168 65.8805 32.7424 65.5067 32.5978 65.158C32.4533 64.8093 32.2414 64.4925 31.9743 64.2257C31.7072 63.959 31.3901 63.7475 31.0412 63.6033C30.6923 63.4592 30.3184 63.3852 29.9409 63.3857Z" fill="black"/>
<path d="M29.941 64.8101C30.625 64.8101 31.1795 64.5225 31.1795 64.1678C31.1795 63.8132 30.625 63.5256 29.941 63.5256C29.2569 63.5256 28.7024 63.8132 28.7024 64.1678C28.7024 64.5225 29.2569 64.8101 29.941 64.8101Z" fill="#2C3330"/>
<path d="M23.7668 38.8802V40.6728C23.7668 41.1482 23.9557 41.6041 24.2919 41.9403C24.628 42.2765 25.084 42.4653 25.5594 42.4653C26.0348 42.4653 26.4908 42.2765 26.827 41.9403C27.1631 41.6041 27.352 41.1482 27.352 40.6728V38.8802H23.7668Z" fill="#C11F1F"/>
<path d="M29.4951 34.3199H21.1768C20.4148 34.3199 19.7971 34.9377 19.7971 35.6997V38.3709C19.7971 39.1329 20.4148 39.7506 21.1768 39.7506H29.4951C30.2571 39.7506 30.8748 39.1329 30.8748 38.3709V35.6997C30.8748 34.9377 30.2571 34.3199 29.4951 34.3199Z" fill="#9F958A"/>
<path d="M27.8355 34.1259H22.8365C22.0745 34.1259 21.4568 34.7436 21.4568 35.5056V38.5649C21.4568 39.3269 22.0745 39.9446 22.8365 39.9446H27.8355C28.5975 39.9446 29.2152 39.3269 29.2152 38.5649V35.5056C29.2152 34.7436 28.5975 34.1259 27.8355 34.1259Z" fill="#E9F2DD"/>
<path d="M21.0614 35.7855H20.3074C20.2532 35.7855 20.2011 35.8071 20.1627 35.8455C20.1243 35.8838 20.1028 35.9359 20.1028 35.9902C20.1028 36.0445 20.1243 36.0965 20.1627 36.1349C20.2011 36.1733 20.2532 36.1948 20.3074 36.1948H21.0614C21.1157 36.1948 21.1677 36.1733 21.2061 36.1349C21.2445 36.0965 21.2661 36.0445 21.2661 35.9902C21.2661 35.9359 21.2445 35.8838 21.2061 35.8455C21.1677 35.8071 21.1157 35.7855 21.0614 35.7855Z" fill="#8B8576"/>
<g style="mix-blend-mode:multiply">
<path d="M24.9994 35.7937H22.1412C22.1187 35.7918 22.0959 35.7946 22.0745 35.8019C22.0531 35.8092 22.0334 35.8209 22.0168 35.8362C22.0001 35.8516 21.9868 35.8702 21.9777 35.8909C21.9686 35.9116 21.9639 35.934 21.9639 35.9566C21.9639 35.9793 21.9686 36.0017 21.9777 36.0224C21.9868 36.0431 22.0001 36.0617 22.0168 36.0771C22.0334 36.0924 22.0531 36.1041 22.0745 36.1114C22.0959 36.1187 22.1187 36.1215 22.1412 36.1196H24.9994C25.022 36.1215 25.0447 36.1187 25.0661 36.1114C25.0876 36.1041 25.1072 36.0924 25.1239 36.0771C25.1406 36.0617 25.1539 36.0431 25.163 36.0224C25.1721 36.0017 25.1768 35.9793 25.1768 35.9566C25.1768 35.934 25.1721 35.9116 25.163 35.8909C25.1539 35.8702 25.1406 35.8516 25.1239 35.8362C25.1072 35.8209 25.0876 35.8092 25.0661 35.8019C25.0447 35.7946 25.022 35.7918 24.9994 35.7937Z" fill="#4E7688"/>
</g>
<g style="mix-blend-mode:multiply">
<path d="M24.9995 36.5536H22.1413C22.0979 36.5536 22.0563 36.5708 22.0257 36.6015C21.995 36.6321 21.9778 36.6737 21.9778 36.7171C21.9778 36.7604 21.995 36.802 22.0257 36.8327C22.0563 36.8634 22.0979 36.8806 22.1413 36.8806H24.9995C25.0429 36.8806 25.0845 36.8634 25.1151 36.8327C25.1458 36.802 25.163 36.7604 25.163 36.7171C25.163 36.6737 25.1458 36.6321 25.1151 36.6015C25.0845 36.5708 25.0429 36.5536 24.9995 36.5536Z" fill="#4E7688"/>
</g>
<g style="mix-blend-mode:multiply">
<path d="M24.9995 37.3134H22.1413C22.0979 37.3134 22.0563 37.3306 22.0257 37.3613C21.995 37.392 21.9778 37.4336 21.9778 37.4769C21.9778 37.5203 21.995 37.5619 22.0257 37.5925C22.0563 37.6232 22.0979 37.6404 22.1413 37.6404H24.9995C25.0429 37.6404 25.0845 37.6232 25.1151 37.5925C25.1458 37.5619 25.163 37.5203 25.163 37.4769C25.163 37.4336 25.1458 37.392 25.1151 37.3613C25.0845 37.3306 25.0429 37.3134 24.9995 37.3134Z" fill="#4E7688"/>
</g>
<g style="mix-blend-mode:multiply">
<path d="M24.9995 38.0732H22.1413C22.0979 38.0732 22.0563 38.0905 22.0257 38.1211C21.995 38.1518 21.9778 38.1934 21.9778 38.2367C21.9778 38.2801 21.995 38.3217 22.0257 38.3523C22.0563 38.383 22.0979 38.4002 22.1413 38.4002H24.9995C25.0429 38.4002 25.0845 38.383 25.1151 38.3523C25.1458 38.3217 25.163 38.2801 25.163 38.2367C25.163 38.1934 25.1458 38.1518 25.1151 38.1211C25.0845 38.0905 25.0429 38.0732 24.9995 38.0732Z" fill="#4E7688"/>
</g>
<path d="M21.0614 36.4642H20.3074C20.2532 36.4642 20.2011 36.4857 20.1627 36.5241C20.1243 36.5625 20.1028 36.6146 20.1028 36.6688C20.1028 36.7231 20.1243 36.7752 20.1627 36.8136C20.2011 36.8519 20.2532 36.8735 20.3074 36.8735H21.0614C21.1157 36.8735 21.1677 36.8519 21.2061 36.8136C21.2445 36.7752 21.2661 36.7231 21.2661 36.6688C21.2661 36.6146 21.2445 36.5625 21.2061 36.5241C21.1677 36.4857 21.1157 36.4642 21.0614 36.4642Z" fill="#8B8576"/>
<path d="M30.4584 35.7855H29.7044C29.6501 35.7855 29.5981 35.8071 29.5597 35.8455C29.5213 35.8838 29.4998 35.9359 29.4998 35.9902C29.4998 36.0445 29.5213 36.0965 29.5597 36.1349C29.5981 36.1733 29.6501 36.1948 29.7044 36.1948H30.4584C30.5127 36.1948 30.5647 36.1733 30.6031 36.1349C30.6415 36.0965 30.663 36.0445 30.663 35.9902C30.663 35.9359 30.6415 35.8838 30.6031 35.8455C30.5647 35.8071 30.5127 35.7855 30.4584 35.7855Z" fill="#8B8576"/>
<path d="M30.4584 36.4642H29.7044C29.6501 36.4642 29.5981 36.4857 29.5597 36.5241C29.5213 36.5625 29.4998 36.6146 29.4998 36.6688C29.4998 36.7231 29.5213 36.7752 29.5597 36.8136C29.5981 36.8519 29.6501 36.8735 29.7044 36.8735H30.4584C30.5127 36.8735 30.5647 36.8519 30.6031 36.8136C30.6415 36.7752 30.663 36.7231 30.663 36.6688C30.663 36.6146 30.6415 36.5625 30.6031 36.5241C30.5647 36.4857 30.5127 36.4642 30.4584 36.4642Z" fill="#8B8576"/>
<path d="M27.786 34.8798H27.4449C27.2325 34.8798 27.0603 35.052 27.0603 35.2644V35.6056C27.0603 35.818 27.2325 35.9902 27.4449 35.9902H27.786C27.9985 35.9902 28.1707 35.818 28.1707 35.6056V35.2644C28.1707 35.052 27.9985 34.8798 27.786 34.8798Z" fill="#4E7688"/>
<path d="M19.7971 38.4261H19.4937C19.3935 38.4261 19.2975 38.3864 19.2267 38.3156C19.1559 38.2448 19.1161 38.1487 19.1161 38.0486V36.0208C19.1161 35.9206 19.1559 35.8246 19.2267 35.7538C19.2975 35.683 19.3935 35.6432 19.4937 35.6432H19.7971V38.4261Z" fill="#E9F2DD"/>
<path d="M30.8748 35.6396H31.1782C31.2784 35.6396 31.3744 35.6794 31.4452 35.7502C31.516 35.821 31.5558 35.9171 31.5558 36.0172V38.045C31.5558 38.1452 31.516 38.2412 31.4452 38.312C31.3744 38.3828 31.2784 38.4226 31.1782 38.4226H30.8748V35.6396Z" fill="#E9F2DD"/>
<path d="M31.5581 36.0572H31.9651C32.0652 36.0572 32.1613 36.097 32.2321 36.1678C32.3029 36.2386 32.3427 36.3346 32.3427 36.4348V37.6392C32.3427 37.7394 32.3029 37.8354 32.2321 37.9062C32.1613 37.977 32.0652 38.0168 31.9651 38.0168H31.5581V36.0572Z" fill="black"/>
<path d="M19.1138 38.0192H18.7068C18.6067 38.0192 18.5106 37.9794 18.4398 37.9086C18.369 37.8378 18.3292 37.7417 18.3292 37.6416V36.4348C18.3292 36.3347 18.369 36.2386 18.4398 36.1678C18.5106 36.097 18.6067 36.0572 18.7068 36.0572H19.1138V38.0192Z" fill="black"/>
<path d="M25.1123 40.895C24.7531 40.8949 24.3959 40.9504 24.0537 41.0597C24.1395 41.393 24.3336 41.6883 24.6054 41.8993C24.8773 42.1103 25.2116 42.225 25.5558 42.2253C25.8359 42.2254 26.1109 42.1497 26.3515 42.0062C26.5921 41.8627 26.7894 41.6568 26.9225 41.4102C26.3787 41.0736 25.7519 40.8952 25.1123 40.895Z" fill="#ED5858"/>
<path d="M50.6718 68H0C0.000311747 67.6936 0.122265 67.3998 0.339066 67.1832C0.555868 66.9666 0.849781 66.845 1.15623 66.845H49.5156C49.8221 66.845 50.116 66.9666 50.3328 67.1832C50.5496 67.3998 50.6715 67.6936 50.6718 68Z" fill="#AE571D"/>
</svg>
