<svg width="18" height="21" viewBox="0 0 18 21" fill="none" xmlns="http://www.w3.org/2000/svg">
<path d="M11.2727 15.729C11.6743 15.729 12 15.4034 12 15.0018V7.72904C12 7.32744 11.6743 7.00177 11.2727 7.00177C10.8711 7.00177 10.5454 7.32744 10.5454 7.72904V15.0018C10.5454 15.4034 10.8711 15.729 11.2727 15.729Z" fill="black"/>
<path d="M6.18186 15.729C6.58346 15.729 6.90914 15.4034 6.90914 15.0018V7.72904C6.90914 7.32744 6.58346 7.00177 6.18186 7.00177C5.78026 7.00177 5.45459 7.32744 5.45459 7.72904V15.0018C5.45459 15.4034 5.78026 15.729 6.18186 15.729Z" fill="black"/>
<path d="M11.6363 1.5472C12.0379 1.5472 12.3635 1.22152 12.3635 0.819924C12.3635 0.418324 12.0379 0.0926514 11.6363 0.0926514H5.81809C5.41649 0.0926514 5.09082 0.418324 5.09082 0.819924C5.09082 1.22152 5.41649 1.5472 5.81809 1.5472H11.6363Z" fill="black"/>
<path d="M0.727273 2.27448C0.325673 2.27448 0 2.60015 0 3.00175C0 3.40335 0.325673 3.72902 0.727273 3.72902H1.45455V17.1108C1.45455 18.7544 2.79273 20.0927 4.43636 20.0927H13.0182C14.6617 20.0927 16 18.7545 16 17.1108V3.72902H16.7273C17.1289 3.72902 17.4545 3.40335 17.4545 3.00175C17.4545 2.60015 17.1289 2.27448 16.7273 2.27448H15.2727H2.18182H0.727273ZM14.5455 3.72902V17.1108C14.5455 17.9545 13.8618 18.6381 13.0182 18.6381H4.43636C3.59273 18.6381 2.90909 17.9545 2.90909 17.1108V3.72902H14.5455Z" fill="black"/>
</svg>
