<svg width="22" height="22" viewBox="0 0 22 22" fill="none" xmlns="http://www.w3.org/2000/svg">
<path d="M10.2934 11.5995C12.8131 11.5995 14.8633 9.5494 14.8633 7.02971C14.8633 4.51003 12.8131 2.4599 10.2934 2.4599C7.77307 2.4599 5.72363 4.51003 5.72363 7.02971C5.72363 9.5494 7.77307 11.5995 10.2934 11.5995ZM10.2934 3.8349C12.0555 3.8349 13.4883 5.26765 13.4883 7.02971C13.4883 8.79178 12.0555 10.2245 10.2934 10.2245C8.53138 10.2245 7.09863 8.79178 7.09863 7.02971C7.09863 5.26765 8.53138 3.8349 10.2934 3.8349Z" fill="black"/>
<path d="M2.45903 19.5161C2.52021 19.5326 2.5814 19.5409 2.6419 19.5409C2.94371 19.5409 3.22078 19.3401 3.30465 19.0355C3.76115 17.3739 4.8034 15.9246 6.23684 14.9559C8.64859 13.3341 11.9479 13.3369 14.3411 14.9552C14.656 15.167 15.0829 15.0852 15.296 14.7703C15.5085 14.4554 15.426 14.0285 15.1111 13.8154C13.6852 12.8515 12.0194 12.342 10.2931 12.342C8.57021 12.342 6.90165 12.8515 5.46753 13.8154C3.76115 14.969 2.52159 16.6932 1.97778 18.6712C1.8774 19.0369 2.09259 19.415 2.45903 19.5161Z" fill="black"/>
<path d="M19.8449 15.5389C19.5761 15.2701 19.1416 15.2701 18.8728 15.5389L17.9446 16.467L17.0165 15.5389C16.7477 15.2701 16.3132 15.2701 16.0444 15.5389C15.7756 15.8077 15.7756 16.2422 16.0444 16.511L16.9725 17.4391L16.0444 18.3673C15.7756 18.6361 15.7756 19.0706 16.0444 19.3394C16.1784 19.4735 16.3544 19.5408 16.5304 19.5408C16.7064 19.5408 16.8824 19.4735 17.0165 19.3394L17.9446 18.4113L18.8728 19.3394C19.0068 19.4735 19.1828 19.5408 19.3588 19.5408C19.5348 19.5408 19.7108 19.4735 19.8449 19.3394C20.1137 19.0706 20.1137 18.6361 19.8449 18.3673L18.9168 17.4391L19.8449 16.511C20.1137 16.2422 20.1137 15.807 19.8449 15.5389Z" fill="black"/>
</svg>
