<svg width="22" height="22" viewBox="0 0 22 22" fill="none" xmlns="http://www.w3.org/2000/svg">
<path d="M11.0003 11.6875C8.09449 11.6875 5.72949 9.32251 5.72949 6.41668C5.72949 3.51084 8.09449 1.14584 11.0003 1.14584C13.9062 1.14584 16.2712 3.51084 16.2712 6.41668C16.2712 9.32251 13.9062 11.6875 11.0003 11.6875ZM11.0003 2.52084C8.85533 2.52084 7.10449 4.27168 7.10449 6.41668C7.10449 8.56168 8.85533 10.3125 11.0003 10.3125C13.1453 10.3125 14.8962 8.56168 14.8962 6.41668C14.8962 4.27168 13.1453 2.52084 11.0003 2.52084Z" fill="black"/>
<path d="M14.5009 20.8541C14.1526 20.8541 13.8226 20.7258 13.5843 20.4874C13.3001 20.2033 13.1718 19.7908 13.2359 19.3599L13.4101 18.1224C13.4559 17.8016 13.6484 17.4258 13.8776 17.1874L17.1226 13.9424C18.4243 12.6408 19.5701 13.3833 20.1293 13.9424C20.6059 14.4191 20.8534 14.9324 20.8534 15.4458C20.8534 15.9683 20.6151 16.4541 20.1293 16.9399L16.8842 20.1849C16.655 20.4141 16.2701 20.6066 15.9493 20.6524L14.7117 20.8265C14.6384 20.8448 14.5743 20.8541 14.5009 20.8541ZM18.6168 14.5933C18.4518 14.5933 18.3051 14.7033 18.0943 14.9141L14.8493 18.1591C14.8218 18.1866 14.7759 18.2783 14.7759 18.3149L14.6109 19.4608L15.7568 19.2958C15.7934 19.2866 15.885 19.2408 15.9125 19.2133L19.1576 15.9683C19.3043 15.8216 19.4784 15.6108 19.4784 15.4458C19.4784 15.3083 19.3684 15.1158 19.1576 14.9141C18.9376 14.6941 18.7726 14.5933 18.6168 14.5933Z" fill="black"/>
<path d="M19.1772 17.6182C19.113 17.6182 19.0489 17.6091 18.9939 17.5907C17.7839 17.2516 16.8214 16.2891 16.4822 15.0791C16.3814 14.7124 16.5922 14.3366 16.9589 14.2357C17.3255 14.1349 17.7014 14.3457 17.8022 14.7124C18.013 15.4641 18.6089 16.0599 19.3605 16.2707C19.7272 16.3716 19.938 16.7566 19.8372 17.1141C19.7547 17.4166 19.4797 17.6182 19.1772 17.6182Z" fill="black"/>
<path d="M3.12598 20.8542C2.75014 20.8542 2.43848 20.5425 2.43848 20.1667C2.43848 16.2525 6.27933 13.0625 11.0002 13.0625C11.9993 13.0625 12.9893 13.2092 13.9152 13.4842C14.2818 13.5942 14.4835 13.9792 14.3735 14.3367C14.2635 14.7033 13.8785 14.905 13.521 14.795C12.7143 14.5567 11.871 14.4283 11.0002 14.4283C7.04016 14.4283 3.81348 16.995 3.81348 20.1575C3.81348 20.5425 3.50181 20.8542 3.12598 20.8542Z" fill="black"/>
</svg>
