<svg width="20" height="20" viewBox="0 0 20 20" fill="none" xmlns="http://www.w3.org/2000/svg">
<path d="M16.8014 17.071H3.19851C2.54262 17.0703 1.91378 16.8094 1.44996 16.3457C0.986146 15.8819 0.725227 15.2531 0.72445 14.5972C0.712787 14.1927 0.732856 5.49151 0.72445 5.40283C0.725236 4.74693 0.986161 4.11813 1.44998 3.65437C1.9138 3.19061 2.54264 2.92977 3.19854 2.92908H16.8014C17.4573 2.92977 18.0861 3.19061 18.55 3.65437C19.0138 4.11813 19.2747 4.74693 19.2755 5.40283C19.296 5.4402 19.2607 14.2317 19.2755 14.5971C19.2747 15.253 19.0138 15.8819 18.55 16.3456C18.0862 16.8094 17.4573 17.0703 16.8014 17.071ZM1.97445 7.41336V14.5972C1.9748 14.9217 2.10388 15.2328 2.33337 15.4622C2.56286 15.6917 2.87401 15.8207 3.19851 15.8209H16.8014C17.1259 15.8207 17.4371 15.6917 17.6666 15.4622C17.896 15.2328 18.0251 14.9217 18.0255 14.5972V7.41336L11.3189 11.6364C10.9235 11.8841 10.4664 12.0154 9.99981 12.0154C9.53324 12.0154 9.07609 11.8841 8.68069 11.6364L1.97445 7.41336ZM1.97445 5.93631L9.34689 10.5793C9.54279 10.7013 9.76899 10.766 9.99981 10.766C10.2306 10.766 10.4568 10.7013 10.6527 10.5793L18.0255 5.93628V5.40286C18.0251 5.07835 17.896 4.76724 17.6666 4.53781C17.4371 4.30838 17.1259 4.17937 16.8014 4.17911H3.19851C2.87401 4.17937 2.56286 4.30838 2.33337 4.53781C2.10388 4.76724 1.9748 5.07835 1.97445 5.40286V5.93631Z" fill="black"/>
</svg>
