<svg width="16" height="16" viewBox="0 0 16 16" fill="none" xmlns="http://www.w3.org/2000/svg">
<g clip-path="url(#clip0_100_10645)">
<path d="M6.8889 5.77779V6.66669H6V8.00002H6.8889V12H8.66667V8.00002H9.8489L10 6.66669H8.66667V5.8889C8.66667 5.52892 8.70223 5.3378 9.25776 5.3378H10V4H8.8089C7.38669 4.00004 6.8889 4.66668 6.8889 5.77779Z" fill="#5E5E5E"/>
<path d="M8 0C3.58172 0 0 3.58172 0 8C0 12.4183 3.58172 16 8 16C12.4183 16 16 12.4183 16 8C16 3.58172 12.4183 0 8 0ZM8 15.2727C3.98338 15.2727 0.727281 12.0166 0.727281 8C0.727281 3.98338 3.98338 0.727281 8 0.727281C12.0166 0.727281 15.2727 3.98338 15.2727 8C15.2727 12.0166 12.0166 15.2727 8 15.2727Z" fill="#5E5E5E"/>
</g>
<defs>
<clipPath id="clip0_100_10645">
<rect width="16" height="16" fill="white"/>
</clipPath>
</defs>
</svg>
