<svg width="26" height="26" viewBox="0 0 26 26" fill="none" xmlns="http://www.w3.org/2000/svg">
<g clip-path="url(#clip0_388_297)">
<path d="M26 13C26 19.4888 20.7146 24.8671 14.5 25.8421L13 17L14 16.7578L13.5 15.5V13.2316L15.0312 10.5615C15.0312 9.53316 15.535 8.53125 17.1498 8.53125L14 12.5H12C12 12.5 15.4224 14 14 14C11.0308 14 13 8.24187 13 11.5L10.9688 13L11.5 15L10.5 16.7578H10.9688V25.8421C4.75414 24.8671 0 19.4888 0 13C0 5.82055 5.82055 0 13 0C20.1795 0 26 5.82055 26 13Z" fill="#1877F2"/>
<path d="M17.3447 18.0485L17.863 14.8155H14.621V12.7175C14.621 11.833 15.0739 10.9709 16.526 10.9709H18V8.21845C18 8.21845 16.6623 8 15.3833 8C12.7132 8 10.968 9.54835 10.968 12.3515V14.8155H8V18.0485H10.968V25.8641C11.5632 25.9534 12.1732 26 12.7945 26C13.4159 26 14.0258 25.9534 14.621 25.8641V18.0485H17.3447Z" fill="white"/>
</g>
<defs>
<clipPath id="clip0_388_297">
<rect width="26" height="26" fill="white"/>
</clipPath>
</defs>
</svg>
