<svg width="40" height="40" viewBox="0 0 40 40" fill="none" xmlns="http://www.w3.org/2000/svg">
<g clip-path="url(#clip0_100_10354)">
<path d="M16.6269 8.33118H15.3563L15.2782 8.41485V9.16321C15.2782 9.83188 14.8838 10.2126 14.2894 10.519C13.4735 10.9396 13.2284 13.3266 14.7623 14.1052L15.1982 14.171L18.2494 12.9899V11.26L16.6269 8.33118Z" fill="#365E7D"/>
<path d="M16.401 10.519C16.8547 10.2851 17.1912 10.0075 17.3254 9.59211L16.6269 8.33118H15.3563L15.2782 8.41485V9.16321C15.2782 9.83188 14.8838 10.2126 14.2894 10.519C13.4735 10.9396 13.2284 13.3266 14.7623 14.1052L15.1982 14.171L16.3587 13.7218C15.4152 12.7318 15.6926 10.8843 16.401 10.519Z" fill="#2B4D66"/>
<path d="M25.7065 10.519C25.1104 10.2117 24.7179 9.83086 24.7179 9.16336V8.40297L24.5933 8.28516H23.2605L21.73 11.3793V12.9452L24.8796 14.171L25.1726 14.0823C26.6747 13.2827 26.5144 10.9356 25.7065 10.519Z" fill="#365E7D"/>
<path d="M27.0096 14.7937C26.8459 14.7303 24.6483 13.8792 23.2606 13.3418L22.9261 13.4901H17.1399L16.7266 13.3438C15.3447 13.8795 13.0249 14.7788 12.9867 14.7937C12.1817 15.1249 11.104 16.1672 11.104 17.7137V22.9762H28.892C28.892 21.2877 28.892 17.9789 28.892 17.7137C28.8921 16.3818 28.0394 15.2175 27.0096 14.7937Z" fill="#FF7F87"/>
<path d="M24.7116 6.22166L24.6065 6.11588H23.3516V8.31478L23.4209 8.45791H24.368C25.0002 8.45791 25.5125 7.94548 25.5125 7.31345C25.5126 6.80111 25.1758 6.36759 24.7116 6.22166Z" fill="#FFCEBE"/>
<path d="M15.2782 6.21096L15.2784 6.21205C14.7959 6.34658 14.4414 6.78815 14.4414 7.31346C14.4414 7.94549 14.9538 8.45791 15.5859 8.45791H16.5748L16.6834 8.33119V6.10916H15.3591L15.2782 6.21096Z" fill="#FFCEBE"/>
<path d="M24.4726 6.11588H23.3516V8.31478L23.4209 8.45791H24.368C24.4034 8.45791 24.4381 8.45572 24.4727 8.45259V6.11588H24.4726Z" fill="#FFB1A0"/>
<path d="M15.5624 7.31344C15.5624 6.78805 15.9169 6.34649 16.3994 6.21204L16.3992 6.21094L16.4803 6.10922H15.3593L15.2782 6.21094L15.2784 6.21204C14.7959 6.34657 14.4414 6.78813 14.4414 7.31344C14.4414 7.94547 14.9538 8.45789 15.5859 8.45789H16.5748L16.581 8.45063C16.0082 8.38789 15.5624 7.90289 15.5624 7.31344Z" fill="#FFB1A0"/>
<path d="M22.1453 12.9099C22.012 12.8583 21.9233 12.7299 21.9228 12.5861L21.9219 11.4199L21.7688 11.26H18.2495L18.0711 11.4268V12.584C18.0711 12.8504 17.8335 12.9145 17.7322 12.9538C17.7097 12.9626 17.2983 13.122 16.7266 13.3438C17.137 14.6695 18.355 15.7145 20.0331 15.7201C21.5389 15.7252 22.823 14.7135 23.2605 13.3418C22.6623 13.1101 22.2143 12.9366 22.1453 12.9099Z" fill="#FFCEBE"/>
<path d="M19.9981 11.26H18.2495L18.0711 11.4268V12.584C18.0711 12.8504 17.8335 12.9145 17.7322 12.9538C17.7097 12.9626 17.2983 13.122 16.7266 13.3438C17.1341 14.6602 18.3382 15.6993 19.9981 15.7193V11.26Z" fill="#FFB1A0"/>
<path d="M23.0691 5.87953H21.5659L20.3848 4.41211H19.6809L18.5859 5.5982V8.62406C18.5859 10.0533 19.4645 11.3852 20.8859 11.8938C22.3398 11.5111 23.4209 10.1642 23.4209 8.59523V6.16898L23.0691 5.87953Z" fill="#FFDECF"/>
<path d="M18.6663 8.62836V5.51117L18.2492 5.96304H16.7263L16.5747 6.16898V8.62836C16.5747 10.3875 17.9499 11.9956 20.0329 12.0027C20.3878 12.0038 20.7302 11.9483 21.0522 11.8452C19.5828 11.3991 18.6663 10.0642 18.6663 8.62836Z" fill="#FFCEBE"/>
<path d="M19.9359 0.000400013C17.342 0.0337594 15.2783 2.19595 15.2783 4.79009V6.21204C15.3764 6.1847 15.4793 6.16899 15.5861 6.16899H16.575H17.47C17.5867 6.16899 18.2432 6.11556 18.195 6.11923C19.0258 6.05563 19.7443 5.42798 19.9422 4.61243C19.9486 4.58642 19.9714 4.56782 19.9982 4.56782C20.025 4.56782 20.0479 4.58642 20.0541 4.61243C20.2519 5.4261 20.9638 6.04642 21.7823 6.11587C22.3768 6.16626 22.3849 6.16899 22.4921 6.16899H23.4211H24.3683C24.4904 6.16899 24.6077 6.18853 24.718 6.22384V4.71985C24.718 2.09243 22.5713 -0.0335062 19.9359 0.000400013Z" fill="#365E7D"/>
<path d="M17.39 4.79008C17.39 2.53649 18.9478 0.60977 21.0573 0.120629C20.6973 0.0380508 20.3221 -0.00460543 19.9359 0.000394566C17.342 0.0337539 15.2783 2.19594 15.2783 4.79008V6.21204C15.3764 6.18469 15.4793 6.16899 15.5861 6.16899H16.575H17.39V4.79008Z" fill="#2B4D66"/>
<path d="M25.5278 17.4781H24.2572L24.1791 17.5618V18.3102C24.1791 18.9789 23.7847 19.3596 23.1903 19.666C22.3744 20.0866 22.1292 22.4735 23.6632 23.2521L24.0991 23.318L27.1503 22.1369V20.407L25.5278 17.4781Z" fill="#365E7D"/>
<path d="M25.3019 19.666C25.7556 19.4321 26.092 19.1545 26.2263 18.7391L25.5278 17.4781H24.2572L24.1791 17.5618V18.3102C24.1791 18.9789 23.7847 19.3596 23.1903 19.666C22.3744 20.0866 22.1292 22.4735 23.6632 23.2521L24.0991 23.318L25.2596 22.8688C24.3161 21.8788 24.5935 20.0313 25.3019 19.666Z" fill="#2B4D66"/>
<path d="M34.6073 19.666C34.0113 19.3587 33.6187 18.9778 33.6187 18.3103V17.5499L33.4941 17.4321H32.1614L30.6309 20.5263V22.0921L33.7805 23.318L34.0734 23.2292C35.5756 22.4297 35.4153 20.0825 34.6073 19.666Z" fill="#365E7D"/>
<path d="M35.9099 23.9406C35.7463 23.8773 33.5487 23.0262 32.161 22.4888L31.8265 22.6371H26.0403L25.627 22.4907C24.2451 23.0265 21.9253 23.9258 21.8871 23.9406C21.0821 24.2719 20.0044 25.3142 20.0044 26.8607V30.9292H34.5699V28.6891H37.7925C37.7925 27.0006 37.7925 27.1259 37.7925 26.8606C37.7925 25.5288 36.9398 24.3645 35.9099 23.9406Z" fill="#FFD064"/>
<path d="M33.6124 15.3686L33.5074 15.2628H32.2524V17.4617L32.3217 17.6048H33.2689C33.901 17.6048 34.4134 17.0924 34.4134 16.4604C34.4134 15.9481 34.0767 15.5145 33.6124 15.3686Z" fill="#FFCEBE"/>
<path d="M24.1791 15.3579L24.1792 15.359C23.6967 15.4935 23.3423 15.9351 23.3423 16.4604C23.3423 17.0924 23.8547 17.6049 24.4867 17.6049H25.4756L25.5843 17.4781V15.2561H24.26L24.1791 15.3579Z" fill="#FFCEBE"/>
<path d="M33.3735 15.2628H32.2524V17.4617L32.3217 17.6048H33.2689C33.3042 17.6048 33.339 17.6027 33.3735 17.5995V15.2628H33.3735Z" fill="#FFB1A0"/>
<path d="M24.4633 16.4604C24.4633 15.935 24.8178 15.4935 25.3003 15.359L25.3001 15.3579L25.3812 15.2562H24.2602L24.1791 15.3579L24.1792 15.359C23.6967 15.4935 23.3423 15.9351 23.3423 16.4604C23.3423 17.0924 23.8547 17.6049 24.4867 17.6049H25.4756L25.4819 17.5976C24.9091 17.5349 24.4633 17.0499 24.4633 16.4604Z" fill="#FFB1A0"/>
<path d="M34.5703 28.6175V30.9291H37.1655C37.512 30.9291 37.7929 30.6483 37.7929 30.3018C37.7929 30.0055 37.7929 30.8322 37.7929 28.6175H34.5703Z" fill="#FFCEBE"/>
<path d="M31.0457 22.0568C30.9123 22.0052 30.8237 21.8769 30.8233 21.733L30.8223 20.5669L30.6693 20.407H27.1498L26.9715 20.5737V21.7309C26.9715 21.9973 26.7339 22.0615 26.6326 22.1008C26.6101 22.1095 26.1987 22.269 25.627 22.4907C26.0373 23.8164 27.2554 24.8614 28.9335 24.867C30.4393 24.8721 31.7234 23.8605 32.1609 22.4887C31.5627 22.257 31.1147 22.0835 31.0457 22.0568Z" fill="#FFCEBE"/>
<path d="M28.8985 20.407H27.1498L26.9715 20.5737V21.7309C26.9715 21.9973 26.7339 22.0615 26.6326 22.1008C26.6101 22.1095 26.1987 22.269 25.627 22.4907C26.0345 23.8071 27.2386 24.8462 28.8985 24.8662V20.407Z" fill="#FFB1A0"/>
<path d="M35.107 30.9291V27.1937C35.107 26.8972 34.8666 26.6568 34.5701 26.6568C34.2736 26.6568 34.0332 26.8972 34.0332 27.1937V30.9291H35.107Z" fill="#FFC250"/>
<path d="M31.9699 15.0265H30.4667L29.2856 13.5591H28.5817L27.4868 14.7452V17.771C27.4868 19.2003 28.3654 20.5322 29.7868 21.0408C31.2407 20.6581 32.3217 19.3112 32.3217 17.7422V15.316L31.9699 15.0265Z" fill="#FFDECF"/>
<path d="M27.5672 17.7753V14.6581L27.1501 15.11H25.6272L25.4756 15.316V17.7753C25.4756 19.5345 26.8507 21.1426 28.9338 21.1496C29.2886 21.1508 29.6311 21.0953 29.9531 20.9921C28.4836 20.546 27.5672 19.2112 27.5672 17.7753Z" fill="#FFCEBE"/>
<path d="M28.8363 9.14734C26.2424 9.1807 24.1787 11.3429 24.1787 13.937V15.359C24.2768 15.3316 24.3796 15.3159 24.4864 15.3159H25.4754H26.3703C26.4871 15.3159 27.1436 15.2625 27.0954 15.2662C27.9262 15.2026 28.6447 14.5749 28.8426 13.7594C28.8489 13.7334 28.8718 13.7148 28.8986 13.7148C28.9254 13.7148 28.9482 13.7334 28.9545 13.7594C29.1523 14.573 29.8642 15.1934 30.6827 15.2628C31.2772 15.3132 31.2853 15.3159 31.3925 15.3159H32.3215H33.2687C33.3907 15.3159 33.5081 15.3355 33.6184 15.3708V13.8668C33.6184 11.2394 31.4717 9.11344 28.8363 9.14734Z" fill="#365E7D"/>
<path d="M26.2904 13.9371C26.2904 11.6835 27.8482 9.75674 29.9577 9.2676C29.5977 9.18502 29.2225 9.14237 28.8363 9.14737C26.2424 9.18073 24.1787 11.3429 24.1787 13.9371V15.359C24.2768 15.3317 24.3796 15.316 24.4864 15.316H25.4754H26.2904V13.9371Z" fill="#2B4D66"/>
<path d="M15.4926 15.1322H15.2201L15.0973 15.0145H14.3726V17.431L14.584 17.5419H15.4926C16.1247 17.5419 16.637 17.0025 16.637 16.337C16.637 15.6716 16.1247 15.1322 15.4926 15.1322Z" fill="#FFCEBE"/>
<path d="M6.70842 15.1323C6.07725 15.1334 5.56592 15.6723 5.56592 16.3371C5.56592 17.0026 6.07834 17.542 6.71037 17.542H7.61897L7.7667 17.2694V15.0145H6.91928L6.70842 15.1323Z" fill="#FFCEBE"/>
<path d="M15.5672 15.1362C15.5424 15.1344 15.5178 15.1322 15.4926 15.1322H15.2201L15.0973 15.0145H14.3726V17.431L14.584 17.5419H15.4926C15.5177 17.5419 15.5424 17.5397 15.5672 17.538V15.1362Z" fill="#FFB1A0"/>
<path d="M6.76053 16.3371C6.76053 15.721 7.19998 15.2139 7.7667 15.1419V15.0145H6.91928L6.70842 15.1323C6.07725 15.1334 5.56592 15.6723 5.56592 16.3371C5.56592 17.0026 6.07834 17.542 6.71037 17.542H7.61897L7.63764 17.5076C7.13475 17.3806 6.76053 16.9055 6.76053 16.3371Z" fill="#FFB1A0"/>
<path d="M18.1131 23.9406C17.9513 23.878 15.8007 23.0451 14.411 22.5069L14.1252 22.6439H8.04674L7.78893 22.496L4.09018 23.9406C3.28525 24.2719 2.20752 25.3142 2.20752 26.8607V28.498H5.4301V30.9292H19.9956C19.9956 29.2407 19.9956 27.126 19.9956 26.8608C19.9956 25.5288 19.1429 24.3645 18.1131 23.9406Z" fill="#B3E59F"/>
<path d="M4.96486 25.5966C4.96486 24.5062 5.22377 23.7519 5.83236 23.2602L4.09018 23.9406C3.28525 24.2718 2.20752 25.3141 2.20752 26.8606V28.4979H4.96479C4.96486 26.5316 4.96486 26.492 4.96486 25.5966Z" fill="#95D6A4"/>
<path d="M5.43002 28.4263H2.20752V30.3018C2.20752 30.6483 2.48846 30.9291 2.83486 30.9291H5.4301L5.43002 28.4263Z" fill="#FFB1A0"/>
<path d="M13.2491 22.0568C13.1156 22.0052 13.027 21.8769 13.0266 21.7331L13.0257 20.5889L12.7892 20.3474H9.38906L9.17484 20.5838V21.731C9.17484 21.8744 9.10594 21.9589 9.02656 22.0127L7.78906 22.496C8.22234 23.8256 9.45789 24.8653 11.1514 24.8653C12.6691 24.8653 13.9591 23.8749 14.4112 22.5069C13.7895 22.2661 13.3198 22.0842 13.2491 22.0568Z" fill="#FFCEBE"/>
<path d="M11.1002 20.3474H9.38906L9.17484 20.5838V21.731C9.17484 21.8744 9.10594 21.9589 9.02656 22.0127L7.78906 22.496C8.21789 23.812 9.43312 24.8434 11.1002 24.8644V20.3474Z" fill="#FFB1A0"/>
<path d="M5.96682 30.9291V27.1937C5.96682 26.8972 5.72643 26.6568 5.42994 26.6568C5.13346 26.6568 4.89307 26.8972 4.89307 27.1937V30.9291H5.96682Z" fill="#95D6A4"/>
<path d="M14.4113 14.8355L14.1255 14.6447L13.9107 13.7141H13.4931L11.7513 14.9788H10.2085L10.0786 15.1885V17.707C10.0786 19.1078 10.9168 20.4153 12.2806 20.9563C13.6204 20.4881 14.5845 19.2124 14.5845 17.715V15.2258L14.4113 14.8355Z" fill="#FFDECF"/>
<path d="M10.1299 17.715V15.2531L10.2998 14.9788H7.78906L7.61914 15.2531V17.715C7.61914 19.5092 9.02492 21.1479 11.1514 21.1479C11.5797 21.1479 11.9895 21.0684 12.3679 20.9245C10.9841 20.4174 10.1299 19.1135 10.1299 17.715Z" fill="#FFCEBE"/>
<path d="M14.3611 10.7341C14.0331 10.7594 13.7321 10.5531 13.6689 10.2302C13.5626 9.68649 13.2934 9.14688 12.2418 9.14688H8.5934C7.25441 9.14688 6.16895 10.2324 6.16895 11.5713V14.2321C6.16895 14.7959 6.62598 15.253 7.1898 15.253H11.3306C12.2568 15.253 13.0611 14.7334 13.4693 13.97C13.5009 13.9109 13.5907 13.9339 13.5907 14.001C13.5907 14.6896 14.1541 15.253 14.8427 15.253C15.2036 15.253 15.4989 14.9577 15.4989 14.5967V11.8201C15.499 11.166 14.9283 10.6906 14.3611 10.7341Z" fill="#365E7D"/>
<path d="M8.22691 14.2323V11.5714C8.22691 10.2324 9.31238 9.14697 10.6514 9.14697H8.5934C7.25441 9.14697 6.16895 10.2324 6.16895 11.5714V14.2323C6.16895 14.796 6.62598 15.2531 7.1898 15.2531H9.24777C8.68395 15.2531 8.22691 14.796 8.22691 14.2323Z" fill="#2B4D66"/>
<path d="M24.3895 24.3942H24.1171L23.9943 24.2766H23.2695V26.693L23.481 26.804H24.3895C25.0216 26.804 25.534 26.2645 25.534 25.5991C25.534 24.9337 25.0216 24.3942 24.3895 24.3942Z" fill="#FFCEBE"/>
<path d="M15.6049 24.3944C14.9737 24.3955 14.4624 24.9344 14.4624 25.5991C14.4624 26.2646 14.9748 26.8041 15.6069 26.8041H16.5154L16.6632 26.5314V24.2766H15.8158L15.6049 24.3944Z" fill="#FFCEBE"/>
<path d="M24.4637 24.3982C24.4389 24.3965 24.4143 24.3942 24.389 24.3942H24.1166L23.9938 24.2766H23.269V26.693L23.4805 26.804H24.389C24.4142 26.804 24.4389 26.8017 24.4637 26.8V24.3982Z" fill="#FFB1A0"/>
<path d="M15.657 25.5991C15.657 24.983 16.0965 24.4759 16.6632 24.4039V24.2766H15.8158L15.6049 24.3944C14.9737 24.3955 14.4624 24.9344 14.4624 25.5991C14.4624 26.2646 14.9748 26.8041 15.6069 26.8041H16.5154L16.5341 26.7696C16.0312 26.6426 15.657 26.1675 15.657 25.5991Z" fill="#FFB1A0"/>
<path d="M27.0096 33.2027C26.8478 33.14 24.6972 32.3071 23.3075 31.7689L23.0217 31.9059H16.9432L16.6854 31.7581L12.9867 33.2027C12.1817 33.5339 11.104 34.5762 11.104 36.1227V37.76H14.3266V40H25.6696V37.7599H28.8921C28.8921 36.0714 28.8921 36.3879 28.8921 36.1227C28.8921 34.7908 28.0394 33.6265 27.0096 33.2027Z" fill="#80B4FB"/>
<path d="M13.8613 34.8587C13.8613 33.7682 14.1203 33.0139 14.7288 32.5222L12.9867 33.2026C12.1817 33.5338 11.104 34.5761 11.104 36.1227V37.7599H13.8613C13.8613 35.7936 13.8613 35.754 13.8613 34.8587Z" fill="#61A2F9"/>
<path d="M14.3266 37.6884H11.104V39.3727C11.104 39.7191 11.3849 40 11.7313 40H14.3266V37.6884Z" fill="#FFB1A0"/>
<path d="M25.6694 37.6884V40H28.2647C28.6112 40 28.892 39.7191 28.892 39.3727C28.892 39.0764 28.892 39.903 28.892 37.6884H25.6694Z" fill="#FFCEBE"/>
<path d="M22.1456 31.3188C22.0122 31.2673 21.9236 31.1389 21.9232 30.9951L21.9223 29.8509L21.6857 29.6094H18.2855L18.0713 29.8459V30.993C18.0713 31.1364 18.0024 31.2209 17.923 31.2748L16.6855 31.758C17.1188 33.0876 18.3544 34.1273 20.0479 34.1273C21.5656 34.1273 22.8555 33.137 23.3077 31.7689C22.686 31.5281 22.2164 31.3463 22.1456 31.3188Z" fill="#FFCEBE"/>
<path d="M19.9966 29.6094H18.2855L18.0713 29.8459V30.993C18.0713 31.1364 18.0024 31.2209 17.923 31.2748L16.6855 31.758C17.1144 33.0741 18.3296 34.1055 19.9966 34.1264V29.6094Z" fill="#FFB1A0"/>
<path d="M14.8633 40V36.4557C14.8633 36.1592 14.6229 35.9188 14.3264 35.9188C14.0299 35.9188 13.7896 36.1592 13.7896 36.4557V40H14.8633Z" fill="#61A2F9"/>
<path d="M26.2066 40V36.4557C26.2066 36.1592 25.9662 35.9188 25.6697 35.9188C25.3732 35.9188 25.1328 36.1592 25.1328 36.4557V40H26.2066Z" fill="#61A2F9"/>
<path d="M23.3078 24.0976L23.022 23.9067L22.8072 22.9762H22.3896L20.6478 24.2408H19.105L18.9751 24.4505V26.9691C18.9751 28.3698 19.8133 29.6773 21.1771 30.2183C22.5169 29.7502 23.481 28.4744 23.481 26.977V24.4878L23.3078 24.0976Z" fill="#FFDECF"/>
<path d="M19.0264 26.977V24.5151L19.1963 24.2408H16.6855L16.5156 24.5151V26.977C16.5156 28.7712 17.9214 30.4099 20.0479 30.4099C20.4762 30.4099 20.886 30.3304 21.2644 30.1865C19.8807 29.6794 19.0264 28.3755 19.0264 26.977Z" fill="#FFCEBE"/>
<path d="M23.2575 19.9962C22.9296 20.0214 22.6286 19.8152 22.5654 19.4923C22.4591 18.9485 22.1899 18.4089 21.1383 18.4089H17.4899C16.1509 18.4089 15.0654 19.4944 15.0654 20.8334V23.4941C15.0654 24.058 15.5225 24.515 16.0863 24.515H20.2271C21.1532 24.515 21.9576 23.9954 22.3657 23.232C22.3974 23.1729 22.4872 23.1959 22.4872 23.263C22.4872 23.9516 23.0506 24.515 23.7392 24.515C24.1001 24.515 24.3954 24.2197 24.3954 23.8587V21.0821C24.3955 20.428 23.8248 19.9526 23.2575 19.9962Z" fill="#365E7D"/>
<path d="M17.1234 23.4943V20.8335C17.1234 19.4945 18.2089 18.4091 19.5479 18.4091H17.4899C16.1509 18.4091 15.0654 19.4945 15.0654 20.8335V23.4943C15.0654 24.058 15.5225 24.5152 16.0863 24.5152H18.1443C17.5804 24.5151 17.1234 24.058 17.1234 23.4943Z" fill="#2B4D66"/>
</g>
<defs>
<clipPath id="clip0_100_10354">
<rect width="40" height="40" fill="white"/>
</clipPath>
</defs>
</svg>
