<svg width="40" height="40" viewBox="0 0 40 40" fill="none" xmlns="http://www.w3.org/2000/svg">
<g clip-path="url(#clip0_100_10500)">
<path d="M26.551 10.1567C27.0863 9.25925 28.0664 8.65776 29.1873 8.65776C30.8817 8.65776 32.2552 10.0314 32.2552 11.7257C32.2552 11.8478 32.2473 11.968 32.2334 12.0864C32.6029 11.9828 32.9773 11.9288 33.347 11.9288C33.6895 11.9288 34.0126 11.976 34.3119 12.0667C34.3193 11.9539 34.3244 11.8404 34.3244 11.7257C34.3244 8.88854 32.0244 6.58862 29.1873 6.58862C27.4964 6.58862 25.9967 7.40573 25.0605 8.66644L26.551 10.1567Z" fill="#FED2A4"/>
<path d="M8.47104 20.3545L8.57721 20.3354L8.52588 20.2405C8.43799 20.078 8.3626 19.9135 8.29814 19.7484C6.80994 19.537 5.66533 18.2584 5.66533 16.7118C5.66533 15.0174 7.03893 13.6439 8.73322 13.6439C9.61986 13.6439 10.4182 14.0205 10.9783 14.6219C11.0979 14.0959 11.3464 13.6314 11.7157 13.2621C11.8551 13.1227 12.0079 13.0009 12.1723 12.8962C11.2617 12.075 10.056 11.5748 8.7333 11.5748C5.89619 11.5748 3.59619 13.8748 3.59619 16.7119C3.59619 18.7654 4.8015 20.5368 6.54299 21.3591C6.98768 20.8623 7.66111 20.5004 8.47104 20.3545Z" fill="#FED2A4"/>
<path d="M22.3765 15.1248C22.5989 15.0189 22.8463 14.9648 23.1142 14.9648C23.5591 14.9648 24.0565 15.1154 24.5527 15.4005L24.6548 15.4591L24.6691 15.3422C24.92 13.3036 25.9985 11.8238 27.2335 11.8238C28.1284 11.8238 28.9531 12.5872 29.4394 13.866L29.4877 13.9929L29.5732 13.8873C29.6973 13.7339 29.8276 13.5887 29.9602 13.4552L21.8685 5.36356C21.7033 5.19833 21.4337 5.20927 21.2793 5.38466C19.5601 7.33653 19.1679 10.0469 20.0994 12.3466C21.1163 12.4503 22.0048 13.5533 22.3765 15.1248Z" fill="#FB2B3A"/>
<path d="M22.3765 15.1248C22.5989 15.0189 22.8463 14.9648 23.1142 14.9648C23.1944 14.9648 23.2768 14.9714 23.3601 14.9811C21.3775 12.5835 21.316 9.13286 23.1733 6.66833L21.8685 5.36356C21.7033 5.19833 21.4337 5.20927 21.2793 5.38466C19.5601 7.33653 19.1679 10.0469 20.0994 12.3466C21.1163 12.4503 22.0048 13.5533 22.3765 15.1248Z" fill="#E41F2D"/>
<path d="M23.3423 13.2608C23.1923 13.2608 23.0423 13.2036 22.928 13.0892C22.6991 12.8603 22.6991 12.4893 22.928 12.2606L23.5766 11.612C23.8054 11.3832 24.1764 11.3832 24.4052 11.612C24.634 11.8408 24.634 12.2118 24.4052 12.4406L23.7566 13.0892C23.6421 13.2036 23.4922 13.2608 23.3423 13.2608Z" fill="#FE646F"/>
<path d="M23.1424 10.3802H22.2251C21.9015 10.3802 21.6392 10.1178 21.6392 9.79425C21.6392 9.47066 21.9015 9.20831 22.2251 9.20831H23.1424C23.466 9.20831 23.7283 9.47066 23.7283 9.79425C23.7283 10.1178 23.466 10.3802 23.1424 10.3802Z" fill="#FE646F"/>
<path d="M16.951 8.36365C19.1889 6.12576 19.2871 2.55841 17.2454 0.203882C17.0923 0.027319 16.8212 0.0176315 16.656 0.182866L8.77027 8.06865C8.60503 8.23388 8.61472 8.50498 8.79128 8.6581C11.1457 10.6997 14.7132 10.6015 16.951 8.36365Z" fill="#FD4755"/>
<path d="M10.2825 6.82558C10.231 6.7809 10.1954 6.72566 10.1725 6.66644L8.77027 8.06871C8.60503 8.23394 8.61472 8.50504 8.79128 8.65816C11.1458 10.6998 14.7132 10.6017 16.951 8.36379C17.3883 7.92652 17.7428 7.43801 18.0167 6.91808C15.7719 8.77285 12.4928 8.74215 10.2825 6.82558Z" fill="#FB2B3A"/>
<path d="M15.2587 7.37287C15.1088 7.37287 14.9587 7.31568 14.8444 7.20123L14.2659 6.62271C14.037 6.39388 14.037 6.02287 14.2659 5.79412C14.4947 5.56529 14.8657 5.56529 15.0945 5.79412L15.673 6.37263C15.9018 6.60146 15.9018 6.97248 15.673 7.20123C15.5586 7.3156 15.4086 7.37287 15.2587 7.37287Z" fill="#E41F2D"/>
<path d="M12.6895 8.36933C12.3659 8.36933 12.1035 8.10699 12.1035 7.7834V6.96527C12.1035 6.64168 12.3659 6.37933 12.6895 6.37933C13.013 6.37933 13.2754 6.64168 13.2754 6.96527V7.7834C13.2754 8.10699 13.013 8.36933 12.6895 8.36933Z" fill="#E41F2D"/>
<path d="M16.3709 4.85138H15.5527C15.2291 4.85138 14.9668 4.58904 14.9668 4.26544C14.9668 3.94185 15.2291 3.6795 15.5527 3.6795H16.3709C16.6945 3.6795 16.9568 3.94185 16.9568 4.26544C16.9568 4.58904 16.6945 4.85138 16.3709 4.85138Z" fill="#E41F2D"/>
<path d="M13.0066 24.8971C13.0066 24.5182 13.0498 24.1493 13.1293 23.7939C11.721 23.3473 10.7852 22.4655 10.7852 21.483C10.7852 20.5883 11.5483 19.7638 12.8265 19.2774L12.9532 19.2292L12.8479 19.1437C12.6925 19.0176 12.5458 18.8857 12.4117 18.7516C11.5975 17.9375 11.075 16.9296 10.9342 15.9077C10.1877 15.7453 9.45091 15.8609 8.87747 16.2968C7.79856 17.1168 7.65645 18.7975 8.457 20.2776C7.10372 20.5214 6.05958 21.3838 5.90286 22.5337C5.77395 23.4793 6.27575 24.3977 7.14661 25.0264H13.0099C13.0088 24.9832 13.0066 24.9404 13.0066 24.8971Z" fill="#80D261"/>
<path d="M21.1879 25.0263C21.1947 25.018 21.2022 25.0099 21.2089 25.0017C21.2101 24.9669 21.2115 24.9321 21.2115 24.8971C21.2115 23.1623 19.8003 21.751 18.0655 21.751C16.3308 21.751 14.9194 23.1623 14.9194 24.8971C14.9194 24.9404 14.9218 24.9833 14.9235 25.0263H21.1879Z" fill="#017B4E"/>
<path d="M18.0656 19.8382C19.8283 19.8382 21.3824 20.7449 22.2884 22.1158C22.2611 21.6096 22.2913 21.1008 22.3793 20.5998C22.3203 20.5072 22.2624 20.4132 22.2067 20.3167C21.6134 19.289 21.2956 18.1855 21.312 17.2095C21.3282 16.2481 21.6671 15.5281 22.2663 15.1822C22.3251 15.1482 22.3861 15.1185 22.4488 15.0925C22.0522 13.4328 21.0795 12.2596 19.9423 12.2596C18.9831 12.2596 18.1415 13.0949 17.6634 14.3521C17.5387 14.1979 17.4048 14.0476 17.2602 13.903C15.5216 12.1643 13.0143 11.8526 11.6602 13.2068C10.306 14.5609 10.6177 17.0682 12.3564 18.8068C12.4989 18.9493 12.647 19.0812 12.7987 19.2043C11.542 19.6826 10.707 20.524 10.707 21.4829C10.707 22.5195 11.6821 23.4189 13.1115 23.8704C13.5873 21.5715 15.6278 19.8382 18.0656 19.8382Z" fill="#017B4E"/>
<path d="M16.4033 24.0442C15.986 23.9613 15.5958 23.8425 15.2426 23.6943C15.0788 24.0782 14.9908 24.502 14.998 24.9473C14.9983 24.9476 14.9985 24.9479 14.9988 24.9482H16.5626C16.5965 24.8269 16.6389 24.7046 16.6898 24.5816C16.7851 24.3507 16.6483 24.0929 16.4033 24.0442Z" fill="#026841"/>
<path d="M10.707 21.483C10.707 22.5014 11.6478 23.3879 13.0363 23.8468C13.144 23.3286 13.3305 22.8394 13.5814 22.3913C13.4122 22.1075 13.3195 21.8019 13.3195 21.4831C13.3195 20.6658 13.9259 19.9338 14.883 19.4394C15.1197 19.3171 15.1616 18.9994 14.973 18.8112C14.9716 18.8098 14.9702 18.8084 14.9688 18.8069C13.2301 17.0683 12.9184 14.561 14.2725 13.2069C14.5395 12.9398 14.8519 12.7386 15.1938 12.5993C13.8798 12.155 12.5312 12.3356 11.66 13.2069C10.3059 14.561 10.6176 17.0683 12.3563 18.8069C12.4988 18.9494 12.6468 19.0813 12.7985 19.2044C11.5419 19.6826 10.707 20.524 10.707 21.483Z" fill="#026841"/>
<path d="M17.4962 19.8711C17.6833 19.85 17.8732 19.8381 18.0658 19.8381C18.4791 19.8381 18.8806 19.8891 19.2654 19.983L16.0705 16.7882C15.8417 16.5594 15.4707 16.5594 15.2419 16.7882C15.0131 17.017 15.0131 17.388 15.2419 17.6168L17.4962 19.8711Z" fill="#026841"/>
<path d="M34.377 18.6907C34.5287 18.5675 34.6767 18.4356 34.8192 18.2932C36.5579 16.5545 36.8696 14.0472 35.5155 12.6931C34.1614 11.339 31.6541 11.6507 29.9154 13.3893C29.7708 13.534 29.6371 13.6843 29.5123 13.8384C29.0342 12.5812 28.1925 11.7459 27.2333 11.7459C25.9304 11.7459 24.8434 13.2857 24.5914 15.3329C23.7442 14.8463 22.8864 14.734 22.2273 15.1146C20.9374 15.8593 20.8978 18.2059 22.1391 20.3558C22.2099 20.4784 22.2842 20.5965 22.3599 20.7123C22.5476 19.5251 23.0579 18.3779 23.8979 17.4155C23.9652 17.3385 24.0624 17.2943 24.1646 17.2943C24.2582 17.2943 24.3464 17.3308 24.4125 17.3969L32.042 25.0264H33.3203C33.3059 24.5768 33.1497 24.0928 32.8728 23.6122C34.9244 23.3623 36.4686 22.274 36.4686 20.9693C36.4685 20.0103 35.6337 19.1689 34.377 18.6907Z" fill="#68CA44"/>
<path d="M31.9339 16.2744C31.7051 16.0456 31.3341 16.0456 31.1054 16.2744L27.2529 20.1268L28.0815 20.9554L31.9339 17.103C32.1628 16.8742 32.1628 16.5032 31.9339 16.2744Z" fill="#80D261"/>
<path d="M23.1247 24.8971C23.1247 24.9086 23.1243 24.9201 23.1239 24.9315L23.1211 25.0264H32.1526L24.4679 17.3417C24.2916 17.1654 24.0031 17.1763 23.8392 17.3641C22.69 18.6809 22.1429 20.3403 22.1976 21.9835C22.7806 22.8078 23.1247 23.8128 23.1247 24.8971Z" fill="white"/>
<path d="M27.5287 25.0263H30.2431C30.6591 24.8537 31.0489 24.5989 31.3871 24.2607L26.3847 19.2582C25.0033 20.6396 25.0033 22.8793 26.3847 24.2607C26.7229 24.5989 27.1127 24.8537 27.5287 25.0263Z" fill="#FEDF74"/>
<path d="M27.5309 25.0263H28.8582C28.4421 24.8538 28.0521 24.5989 27.7138 24.2607C26.5627 23.1095 26.3717 21.3626 27.1392 20.0128L26.3847 19.2582C25.0033 20.6396 25.0033 22.8793 26.3847 24.2607C26.7234 24.5994 27.1141 24.8538 27.5309 25.0263Z" fill="#FED402"/>
<path d="M15.0012 25.0263C14.9994 24.9834 14.9979 24.9404 14.9979 24.8971C14.9979 23.2027 16.3715 21.8292 18.0658 21.8292C19.7601 21.8292 21.1337 23.2028 21.1337 24.8971C21.1337 24.9404 21.1322 24.9834 21.1304 25.0263H23.1996C23.2007 24.9832 23.2029 24.9404 23.2029 24.8971C23.2029 22.0599 20.9029 19.7599 18.0658 19.7599C15.2287 19.7599 12.9287 22.06 12.9287 24.8971C12.9287 24.9404 12.9309 24.9832 12.932 25.0263H15.0012Z" fill="#FED2A4"/>
<path d="M13.976 40H25.4087C25.5646 40 25.7195 39.971 25.8637 39.9115C31.4943 37.5867 35.5264 32.1765 35.8529 25.7876C35.8763 25.3302 35.5069 24.9482 35.0488 24.9482H4.33595C3.87791 24.9482 3.50845 25.3301 3.53181 25.7876C3.8583 32.1765 7.89041 37.5867 13.521 39.9115C13.6652 39.971 13.8201 40 13.976 40Z" fill="#D8ECFE"/>
<path d="M7.01486 28.7332H3.95557C5.17189 33.8084 8.77955 37.9538 13.5208 39.9114C13.6649 39.971 13.8199 40 13.9758 40H17.0351C16.8792 40 16.7242 39.971 16.5801 39.9114C11.8388 37.9539 8.23119 33.8084 7.01486 28.7332Z" fill="#C4E2FF"/>
<path d="M35.0488 24.9482H4.33595C3.87791 24.9482 3.50845 25.3301 3.53181 25.7876C3.58337 26.7967 3.72759 27.7812 3.9558 28.7332H35.4289C35.657 27.7812 35.8013 26.7967 35.8529 25.7876C35.8763 25.3302 35.5068 24.9482 35.0488 24.9482Z" fill="#EAF6FF"/>
<path d="M3.53181 25.7876C3.58337 26.7967 3.72759 27.7812 3.9558 28.7332H7.01509C6.78697 27.7812 6.64267 26.7967 6.59111 25.7876C6.56775 25.3302 6.9372 24.9482 7.39525 24.9482H4.33595C3.87791 24.9482 3.50845 25.3302 3.53181 25.7876Z" fill="#D8ECFE"/>
<path d="M29.8525 3.69194C30.0473 3.63975 30.1745 3.45123 30.1479 3.25131C30.0425 2.45631 29.6847 1.68842 29.0739 1.07748C28.463 0.466623 27.6951 0.10881 26.9001 0.00341946C26.7002 -0.0230649 26.5117 0.104123 26.4595 0.298888L25.3979 4.26061C25.3178 4.55983 25.5915 4.83358 25.8907 4.75342L29.8525 3.69194Z" fill="#FE9901"/>
<path d="M27.1577 4.26068L28.1873 0.418185C27.7819 0.200763 27.3453 0.062482 26.9001 0.00341946C26.7002 -0.0230649 26.5117 0.104123 26.4595 0.298888L25.3979 4.26061C25.3178 4.55983 25.5915 4.83358 25.8907 4.75342L27.1471 4.41678C27.1407 4.36686 27.1433 4.3142 27.1577 4.26068Z" fill="#FB8801"/>
</g>
<defs>
<clipPath id="clip0_100_10500">
<rect width="40" height="40" fill="white"/>
</clipPath>
</defs>
</svg>
