<svg width="16" height="16" viewBox="0 0 16 16" fill="none" xmlns="http://www.w3.org/2000/svg">
<g clip-path="url(#clip0_100_9223)">
<path d="M15.4666 15.0667H12.928V11.904C12.9269 11.3888 12.5098 10.9717 11.9946 10.9707H8.08317C7.56797 10.9717 7.1509 11.3888 7.14983 11.904V15.0667H5.4613V1.03093C5.46183 0.977065 5.50503 0.933865 5.5589 0.933331H14.5189C14.5728 0.933865 14.616 0.977065 14.6165 1.03093V13.0843C14.6165 13.3051 14.7957 13.4843 15.0165 13.4843C15.2373 13.4843 15.4165 13.3051 15.4165 13.0843V1.03093C15.416 0.535465 15.0144 0.133865 14.5189 0.133331H5.5589C5.06343 0.133865 4.66183 0.535465 4.6613 1.03093V4.75306H1.48103C0.985567 4.7536 0.583967 5.15466 0.583434 5.65013V15.0667H0.533301C0.312501 15.0667 0.133301 15.2459 0.133301 15.4667C0.133301 15.6875 0.312501 15.8667 0.533301 15.8667H15.4666C15.6874 15.8667 15.8666 15.6875 15.8666 15.4667C15.8666 15.2459 15.6874 15.0667 15.4666 15.0667ZM4.6613 15.0667H1.38343V13.1733V5.65013C1.38397 5.59626 1.42717 5.55306 1.48103 5.55306H4.6613V15.0667ZM12.128 15.0667H7.94983V11.904C7.95037 11.8304 8.00957 11.7712 8.08317 11.7707H11.9946C12.0682 11.7712 12.1274 11.8304 12.128 11.904V15.0667Z" fill="#4A0ADD"/>
<path d="M13.0257 2.91733H7.05234C6.83154 2.91733 6.65234 3.09653 6.65234 3.31733C6.65234 3.53813 6.83154 3.71733 7.05234 3.71733H13.0257C13.2465 3.71733 13.4257 3.53813 13.4257 3.31733C13.4257 3.09653 13.2465 2.91733 13.0257 2.91733Z" fill="#4A0ADD"/>
<path d="M13.0257 5.552H7.05234C6.83154 5.552 6.65234 5.7312 6.65234 5.952C6.65234 6.1728 6.83154 6.352 7.05234 6.352H13.0257C13.2465 6.352 13.4257 6.1728 13.4257 5.952C13.4257 5.7312 13.2465 5.552 13.0257 5.552Z" fill="#4A0ADD"/>
<path d="M13.0257 8.18668H7.05234C6.83154 8.18668 6.65234 8.36588 6.65234 8.58668C6.65234 8.80748 6.83154 8.98668 7.05234 8.98668H13.0257C13.2465 8.98668 13.4257 8.80748 13.4257 8.58668C13.4257 8.36588 13.2465 8.18668 13.0257 8.18668Z" fill="#4A0ADD"/>
<path d="M2.62217 7.37278H3.42217C3.64297 7.37278 3.82217 7.19358 3.82217 6.97278C3.82217 6.75198 3.64297 6.57278 3.42217 6.57278H2.62217C2.40137 6.57278 2.22217 6.75198 2.22217 6.97278C2.22217 7.19358 2.40137 7.37278 2.62217 7.37278Z" fill="#4A0ADD"/>
<path d="M2.62168 9.59999H3.42168C3.64248 9.59999 3.82168 9.42079 3.82168 9.19999C3.82168 8.97919 3.64248 8.79999 3.42168 8.79999H2.62168C2.40088 8.79999 2.22168 8.97919 2.22168 9.19999C2.22168 9.42079 2.40088 9.59999 2.62168 9.59999Z" fill="#4A0ADD"/>
<path d="M2.62168 11.8224H3.42168C3.64248 11.8224 3.82168 11.6432 3.82168 11.4224C3.82168 11.2016 3.64248 11.0224 3.42168 11.0224H2.62168C2.40088 11.0224 2.22168 11.2016 2.22168 11.4224C2.22168 11.6432 2.40088 11.8224 2.62168 11.8224Z" fill="#4A0ADD"/>
<path d="M2.62168 14.0469H3.42168C3.64248 14.0469 3.82168 13.8677 3.82168 13.6469C3.82168 13.4261 3.64248 13.2469 3.42168 13.2469H2.62168C2.40088 13.2469 2.22168 13.4261 2.22168 13.6469C2.22168 13.8677 2.40088 14.0469 2.62168 14.0469Z" fill="#4A0ADD"/>
</g>
<defs>
<clipPath id="clip0_100_9223">
<rect width="16" height="16" fill="white"/>
</clipPath>
</defs>
</svg>
