<svg width="40" height="40" viewBox="0 0 40 40" fill="none" xmlns="http://www.w3.org/2000/svg">
<circle cx="20" cy="20" r="20" fill="white" fill-opacity="0.18"/>
<path d="M25.6404 16.8667C25.5737 16.7334 25.4737 16.6667 25.3404 16.6667H21.4071L25.3071 10.5C25.3737 10.4 25.3737 10.2667 25.3071 10.1667C25.2404 10.0667 25.1404 10 25.0071 10H19.6737C19.5404 10 19.4404 10.0667 19.3737 10.1667L14.3737 20.1667C14.3071 20.2667 14.3071 20.4 14.3737 20.5C14.4404 20.6 14.5737 20.6667 14.6737 20.6667H18.1071L14.3737 29.5667C14.3071 29.7 14.3737 29.8667 14.5071 29.9667C14.5404 30 14.6071 30 14.6737 30C14.7737 30 14.8737 29.9667 14.9404 29.9L25.6071 17.2333C25.6737 17.1333 25.7071 17 25.6404 16.8667ZM15.8404 27.7667L18.9071 20.4334C18.9404 20.3334 18.9404 20.2334 18.8737 20.1334C18.8071 20.0667 18.7071 20 18.6071 20H15.2071L19.8737 10.6667H24.4071L20.4737 16.8333C20.4071 16.9333 20.4071 17.0666 20.4737 17.1666C20.5404 17.2666 20.6404 17.3333 20.7737 17.3333H24.6404L15.8404 27.7667Z" fill="white"/>
</svg>
