<svg width="40" height="40" viewBox="0 0 40 40" fill="none" xmlns="http://www.w3.org/2000/svg">
<g clip-path="url(#clip0_100_9889)">
<path d="M20.0001 0C31.0268 0 40.0001 8.97336 40.0001 20C40.0001 31.0266 31.0268 40 20.0001 40L13.3335 20L20.0001 0Z" fill="#BF4206"/>
<path d="M20 0V40C8.97336 40 0 31.0266 0 20C0 8.97336 8.97336 0 20 0Z" fill="#FF5808"/>
<path d="M20.0001 2.34375C29.7346 2.34375 37.6564 10.2655 37.6564 20C37.6564 29.7345 29.7346 37.6562 20.0001 37.6562L14.1147 20L20.0001 2.34375Z" fill="#FBB841"/>
<path d="M20 2.34375V37.6562C10.2655 37.6562 2.34375 29.7345 2.34375 20C2.34375 10.2655 10.2655 2.34375 20 2.34375Z" fill="#FBDA4A"/>
<path d="M19.9998 4.69106C22.6042 4.68638 25.2436 5.34599 27.6563 6.73896C30.0689 8.13192 31.96 10.0879 33.2581 12.3458L33.261 27.6562C30.4329 32.5547 25.2875 35.2997 20.0003 35.3089L6.74198 27.6542C4.10636 23.0708 3.91089 17.2422 6.73902 12.3437L19.9998 4.69106Z" fill="#FDEC9D"/>
<path d="M6.73877 12.3438L19.9998 20L19.9995 4.69104C14.7124 4.70026 9.56689 7.44534 6.73877 12.3438Z" fill="#FFF7D4"/>
<path d="M19.9997 20L6.7417 27.6543C8.03982 29.9121 9.93084 31.868 12.3435 33.261C14.7562 34.654 17.3956 35.3136 20 35.309L19.9997 20Z" fill="#FFF7D4"/>
<path d="M33.258 12.3457L20 20L33.261 27.6562C36.0891 22.7578 35.8937 16.9291 33.258 12.3457Z" fill="#FFF7D4"/>
<path d="M26.2889 11.4517L24.2593 10.2799L23.0874 12.3095L25.1171 13.4814L26.2889 11.4517Z" fill="#BF4206"/>
<path d="M30.5469 18.8281H28.2031V21.1719H30.5469V18.8281Z" fill="#FF5808"/>
<path d="M24.2585 29.719L26.2881 28.5472L25.1163 26.5176L23.0866 27.6894L24.2585 29.719Z" fill="#BF4206"/>
<path d="M13.7116 28.5477L15.7412 29.7195L16.913 27.6899L14.8834 26.5181L13.7116 28.5477Z" fill="#FF5808"/>
<path d="M11.7969 18.8281H9.45312V21.1719H11.7969V18.8281Z" fill="#BF4206"/>
<path d="M15.741 10.2804L13.7114 11.4522L14.8833 13.4818L16.9129 12.31L15.741 10.2804Z" fill="#FF5808"/>
</g>
<defs>
<clipPath id="clip0_100_9889">
<rect width="40" height="40" fill="white"/>
</clipPath>
</defs>
</svg>
