<svg width="17" height="24" viewBox="0 0 17 24" fill="none" xmlns="http://www.w3.org/2000/svg">
<path d="M15.4286 0H0.857143C0.385714 0 0 0.385714 0 0.857143V23.1429C0 23.6143 0.385714 24 0.857143 24H15.4286C15.9 24 16.2857 23.6143 16.2857 23.1429V0.857143C16.2857 0.385714 15.9 0 15.4286 0ZM4.71429 21.8571H2.14286V19.2857H4.71429V21.8571ZM4.71429 16.7143H2.14286V14.1429H4.71429V16.7143ZM4.71429 11.5714H2.14286V9H4.71429V11.5714ZM5.14286 4.62V3.85286C5.14286 3.80143 5.18143 3.75429 5.23286 3.74571L7.41857 3.35571L7.41 3.28286C7.35429 2.63571 7.57714 1.99714 8.01429 1.54286C8.05286 1.5 8.09571 1.48714 8.14286 1.48714C8.19 1.48714 8.23714 1.50429 8.27143 1.54286L8.33143 1.60286C8.73 2.02286 8.93572 2.60143 8.88 3.19286L8.86286 3.35571L11.0486 3.74571C11.1 3.75429 11.1386 3.79714 11.1386 3.85286V4.62C11.1386 4.68 11.0914 4.72714 11.0314 4.72714H8.70857L8.53714 6.26143L9.54857 6.42857C9.6 6.43714 9.63857 6.48 9.63857 6.53571V6.87429C9.63857 6.93 9.59143 6.98143 9.53143 6.98143H8.43857C8.40429 7.04571 8.33571 7.09286 8.26286 7.09286H8.01C7.93714 7.09286 7.86857 7.05 7.83429 6.98143H6.74143C6.68571 6.98143 6.63429 6.93429 6.63429 6.87429V6.53571C6.63429 6.48429 6.67286 6.43714 6.72429 6.42857L7.73571 6.26143L7.56429 4.72714H5.24143C5.18571 4.72714 5.13429 4.68429 5.13429 4.62H5.14286ZM12 21.8571H6.85714C6.62143 21.8571 6.42857 21.6643 6.42857 21.4286C6.42857 21.1929 6.62143 21 6.85714 21H12C12.2357 21 12.4286 21.1929 12.4286 21.4286C12.4286 21.6643 12.2357 21.8571 12 21.8571ZM14.1429 20.1429H6.85714C6.62143 20.1429 6.42857 19.95 6.42857 19.7143C6.42857 19.4786 6.62143 19.2857 6.85714 19.2857H14.1429C14.3786 19.2857 14.5714 19.4786 14.5714 19.7143C14.5714 19.95 14.3786 20.1429 14.1429 20.1429ZM6.42857 16.2857C6.42857 16.05 6.62143 15.8571 6.85714 15.8571H12C12.2357 15.8571 12.4286 16.05 12.4286 16.2857C12.4286 16.5214 12.2357 16.7143 12 16.7143H6.85714C6.62143 16.7143 6.42857 16.5214 6.42857 16.2857ZM14.1429 15H6.85714C6.62143 15 6.42857 14.8071 6.42857 14.5714C6.42857 14.3357 6.62143 14.1429 6.85714 14.1429H14.1429C14.3786 14.1429 14.5714 14.3357 14.5714 14.5714C14.5714 14.8071 14.3786 15 14.1429 15ZM6.42857 11.1429C6.42857 10.9071 6.62143 10.7143 6.85714 10.7143H12C12.2357 10.7143 12.4286 10.9071 12.4286 11.1429C12.4286 11.3786 12.2357 11.5714 12 11.5714H6.85714C6.62143 11.5714 6.42857 11.3786 6.42857 11.1429ZM14.1429 9.85714H6.85714C6.62143 9.85714 6.42857 9.66429 6.42857 9.42857C6.42857 9.19286 6.62143 9 6.85714 9H14.1429C14.3786 9 14.5714 9.19286 14.5714 9.42857C14.5714 9.66429 14.3786 9.85714 14.1429 9.85714Z" fill="#E60000"/>
</svg>
