<svg width="24" height="24" viewBox="0 0 24 24" fill="none" xmlns="http://www.w3.org/2000/svg">
<path d="M18.375 1.125H5.625C5.00625 1.125 4.5 1.63125 4.5 2.25V21.75C4.5 22.3687 5.00625 22.875 5.625 22.875H18.375C18.9937 22.875 19.5 22.3687 19.5 21.75V2.25C19.5 1.63125 18.9937 1.125 18.375 1.125ZM18.75 21.75C18.75 21.9562 18.5813 22.125 18.375 22.125H5.625C5.41875 22.125 5.25 21.9562 5.25 21.75V2.25C5.25 2.04375 5.41875 1.875 5.625 1.875H18.375C18.5813 1.875 18.75 2.04375 18.75 2.25V21.75ZM11.5013 5.63625H9.46875C9.42 5.63625 9.375 5.59875 9.375 5.5425V4.87125C9.375 4.82625 9.40875 4.785 9.45375 4.7775L11.3663 4.43625L11.3588 4.3725C11.31 3.80625 11.505 3.2475 11.8875 2.85C11.9213 2.8125 11.9587 2.80125 12 2.80125C12.0413 2.80125 12.0825 2.81625 12.1125 2.85L12.165 2.9025C12.5137 3.27 12.6938 3.77625 12.645 4.29375L12.63 4.43625L14.5425 4.7775C14.5875 4.785 14.6213 4.8225 14.6213 4.87125V5.5425C14.6213 5.595 14.58 5.63625 14.5275 5.63625H12.495L12.345 6.97875L13.23 7.125C13.275 7.1325 13.3088 7.17 13.3088 7.21875V7.515C13.3088 7.56375 13.2675 7.60875 13.215 7.60875H12.2587C12.2287 7.665 12.1687 7.70625 12.105 7.70625H11.8837C11.82 7.70625 11.76 7.66875 11.73 7.60875H10.7737C10.725 7.60875 10.68 7.5675 10.68 7.515V7.21875C10.68 7.17375 10.7138 7.1325 10.7587 7.125L11.6437 6.97875L11.4937 5.63625H11.5013ZM9 9H6.75C6.54375 9 6.375 9.16875 6.375 9.375V11.625C6.375 11.8313 6.54375 12 6.75 12H9C9.20625 12 9.375 11.8313 9.375 11.625V9.375C9.375 9.16875 9.20625 9 9 9ZM8.625 11.25H7.125V9.75H8.625V11.25ZM17.625 9.75C17.625 9.95625 17.4563 10.125 17.25 10.125H10.875C10.6687 10.125 10.5 9.95625 10.5 9.75C10.5 9.54375 10.6687 9.375 10.875 9.375H17.25C17.4563 9.375 17.625 9.54375 17.625 9.75ZM10.5 11.25C10.5 11.0437 10.6687 10.875 10.875 10.875H15.375C15.5813 10.875 15.75 11.0437 15.75 11.25C15.75 11.4563 15.5813 11.625 15.375 11.625H10.875C10.6687 11.625 10.5 11.4563 10.5 11.25ZM9 13.5H6.75C6.54375 13.5 6.375 13.6687 6.375 13.875V16.125C6.375 16.3313 6.54375 16.5 6.75 16.5H9C9.20625 16.5 9.375 16.3313 9.375 16.125V13.875C9.375 13.6687 9.20625 13.5 9 13.5ZM8.625 15.75H7.125V14.25H8.625V15.75ZM17.625 14.25C17.625 14.4563 17.4563 14.625 17.25 14.625H10.875C10.6687 14.625 10.5 14.4563 10.5 14.25C10.5 14.0437 10.6687 13.875 10.875 13.875H17.25C17.4563 13.875 17.625 14.0437 17.625 14.25ZM10.5 15.75C10.5 15.5437 10.6687 15.375 10.875 15.375H15.375C15.5813 15.375 15.75 15.5437 15.75 15.75C15.75 15.9563 15.5813 16.125 15.375 16.125H10.875C10.6687 16.125 10.5 15.9563 10.5 15.75ZM9 18H6.75C6.54375 18 6.375 18.1688 6.375 18.375V20.625C6.375 20.8312 6.54375 21 6.75 21H9C9.20625 21 9.375 20.8312 9.375 20.625V18.375C9.375 18.1688 9.20625 18 9 18ZM8.625 20.25H7.125V18.75H8.625V20.25ZM17.625 18.75C17.625 18.9562 17.4563 19.125 17.25 19.125H10.875C10.6687 19.125 10.5 18.9562 10.5 18.75C10.5 18.5438 10.6687 18.375 10.875 18.375H17.25C17.4563 18.375 17.625 18.5438 17.625 18.75ZM15.75 20.25C15.75 20.4562 15.5813 20.625 15.375 20.625H10.875C10.6687 20.625 10.5 20.4562 10.5 20.25C10.5 20.0438 10.6687 19.875 10.875 19.875H15.375C15.5813 19.875 15.75 20.0438 15.75 20.25Z" fill="#5A5A5A"/>
</svg>
