<svg width="40" height="40" viewBox="0 0 40 40" fill="none" xmlns="http://www.w3.org/2000/svg">
<path d="M6.25 13.125H5C3.6193 13.125 2.5 14.2443 2.5 15.625V19.375H8.75V15.625C8.75 14.2443 7.6307 13.125 6.25 13.125Z" fill="#BE5000"/>
<path d="M6.25 14.375H5C4.30961 14.375 3.75 14.9346 3.75 15.625V19.375H7.5V15.625C7.5 14.9346 6.94039 14.375 6.25 14.375Z" fill="#DC6E1E"/>
<path d="M10.625 15.625H13.125C13.4702 15.625 13.75 15.9048 13.75 16.25V19.375H10V16.25C10 15.9048 10.2798 15.625 10.625 15.625Z" fill="#4B8C41"/>
<path d="M13.125 14.375H15.625C15.9702 14.375 16.25 14.6548 16.25 15V19.375H12.5V15C12.5 14.6548 12.7798 14.375 13.125 14.375Z" fill="#91B945"/>
<path d="M33.75 23.125C35.8211 23.125 37.5 21.4461 37.5 19.375C37.5 17.3039 35.8211 15.625 33.75 15.625C31.6789 15.625 30 17.3039 30 19.375C30 21.4461 31.6789 23.125 33.75 23.125Z" fill="#D7E6E6"/>
<path d="M10.9376 19.375C10.9376 18.9705 11.4833 18.4844 11.3647 18.1193C11.2419 17.741 10.5107 17.6695 10.2815 17.3545C10.05 17.0365 10.2063 16.3197 9.88825 16.0882C9.57333 15.8591 8.94099 16.2276 8.56271 16.1048C8.19771 15.9863 7.90466 15.3125 7.50013 15.3125C7.0956 15.3125 6.80255 15.9862 6.43747 16.1048C6.05919 16.2277 5.42685 15.8591 5.11192 16.0883C4.79388 16.3198 4.95021 17.0366 4.71872 17.3546C4.48958 17.6695 3.75833 17.741 3.63552 18.1194C3.51692 18.4844 4.06263 18.9705 4.06263 19.375C4.06263 19.7795 3.51692 20.2656 3.63552 20.6307C3.75833 21.009 4.48958 21.0805 4.7188 21.3955C4.95028 21.7135 4.79396 22.4303 5.112 22.6618C5.42692 22.8909 6.05927 22.5224 6.43755 22.6452C6.80255 22.7638 7.0956 23.4375 7.50013 23.4375C7.90466 23.4375 8.19771 22.7638 8.56278 22.6452C8.94106 22.5223 9.57341 22.8909 9.88833 22.6617C10.2064 22.4302 10.05 21.7134 10.2815 21.3954C10.5107 21.0805 11.2419 21.009 11.3647 20.6306C11.4833 20.2656 10.9376 19.7795 10.9376 19.375Z" fill="#D7E6E6"/>
<path d="M7.5 22.1875C5.94914 22.1875 4.6875 20.9259 4.6875 19.375C4.6875 17.8241 5.94914 16.5625 7.5 16.5625C9.05086 16.5625 10.3125 17.8241 10.3125 19.375C10.3125 20.9259 9.05086 22.1875 7.5 22.1875ZM7.5 17.1875C6.29383 17.1875 5.3125 18.1688 5.3125 19.375C5.3125 20.5812 6.29383 21.5625 7.5 21.5625C8.70617 21.5625 9.6875 20.5812 9.6875 19.375C9.6875 18.1688 8.70617 17.1875 7.5 17.1875Z" fill="#FF8773"/>
<path d="M7.50014 20.7292C6.75342 20.7292 6.146 20.1217 6.146 19.375C6.146 18.6283 6.75342 18.0209 7.50014 18.0209C8.24686 18.0209 8.85428 18.6283 8.85428 19.375C8.85428 20.1217 8.24686 20.7292 7.50014 20.7292ZM7.50014 18.6459C7.09811 18.6459 6.771 18.973 6.771 19.375C6.771 19.777 7.09811 20.1042 7.50014 20.1042C7.90217 20.1042 8.22928 19.777 8.22928 19.375C8.22928 18.973 7.90217 18.6459 7.50014 18.6459Z" fill="#FF8773"/>
<path d="M33.75 21.25C34.7855 21.25 35.625 20.4105 35.625 19.375C35.625 18.3395 34.7855 17.5 33.75 17.5C32.7145 17.5 31.875 18.3395 31.875 19.375C31.875 20.4105 32.7145 21.25 33.75 21.25Z" fill="#FABE19"/>
<path d="M28.125 23.125C30.1961 23.125 31.875 21.4461 31.875 19.375C31.875 17.3039 30.1961 15.625 28.125 15.625C26.0539 15.625 24.375 17.3039 24.375 19.375C24.375 21.4461 26.0539 23.125 28.125 23.125Z" fill="#D7E6E6"/>
<path d="M28.125 21.25C29.1605 21.25 30 20.4105 30 19.375C30 18.3395 29.1605 17.5 28.125 17.5C27.0895 17.5 26.25 18.3395 26.25 19.375C26.25 20.4105 27.0895 21.25 28.125 21.25Z" fill="#FABE19"/>
<path d="M13.125 4.375H38.75V3.125H13.125C12.7798 3.125 12.5 3.40484 12.5 3.75C12.5 4.09516 12.7798 4.375 13.125 4.375Z" fill="#D7322D"/>
<path d="M13.125 6.875H38.75V5.625H13.125C12.7798 5.625 12.5 5.90484 12.5 6.25C12.5 6.59516 12.7798 6.875 13.125 6.875Z" fill="#D7322D"/>
<path d="M12.5 3.75H38.75V3.125H13.125C12.7798 3.125 12.5 3.40484 12.5 3.75Z" fill="#F04B37"/>
<path d="M12.5 6.25H38.75V5.625H13.125C12.7798 5.625 12.5 5.90484 12.5 6.25Z" fill="#F04B37"/>
<path d="M16.25 20.3125C15.7323 20.3125 15.3125 19.8927 15.3125 19.375C15.3125 18.3056 15.8067 17.7373 16.1675 17.3223C16.4387 17.0104 16.5625 16.868 16.5625 16.4998C16.5625 16.1316 16.4388 15.9893 16.1675 15.6774C15.8067 15.2623 15.3125 14.694 15.3125 13.6246C15.3125 12.5552 15.8067 11.987 16.1676 11.572C16.4388 11.2602 16.5625 11.1179 16.5625 10.7498C16.5625 10.3817 16.4388 10.2395 16.1676 9.92758C15.8067 9.5125 15.3125 8.94414 15.3125 7.87477C15.3125 6.80539 15.8067 6.23711 16.1676 5.82219C16.4388 5.51039 16.5625 5.36805 16.5625 5C16.5625 4.48227 16.9823 4.0625 17.5 4.0625C18.0177 4.0625 18.4375 4.48227 18.4375 5C18.4375 6.06938 17.9433 6.63766 17.5824 7.0525C17.3112 7.3643 17.1875 7.50664 17.1875 7.87469C17.1875 8.24289 17.3112 8.38516 17.5825 8.69703C17.9434 9.11203 18.4375 9.68031 18.4375 10.7496C18.4375 11.8189 17.9433 12.3872 17.5824 12.8021C17.3112 13.114 17.1875 13.2562 17.1875 13.6244C17.1875 13.9926 17.3112 14.1349 17.5825 14.4468C17.9434 14.8619 18.4375 15.4302 18.4375 16.4995C18.4375 17.5689 17.9433 18.1373 17.5825 18.5523C17.3112 18.8645 17.1875 19.0068 17.1875 19.375C17.1875 19.8927 16.7677 20.3125 16.25 20.3125Z" fill="#F5871E"/>
<path d="M14.375 20.3125C13.8573 20.3125 13.4375 19.8927 13.4375 19.375C13.4375 18.3056 13.9317 17.7373 14.2925 17.3223C14.5637 17.0104 14.6875 16.868 14.6875 16.4998C14.6875 16.1316 14.5638 15.9893 14.2925 15.6774C13.9317 15.2623 13.4375 14.694 13.4375 13.6246C13.4375 12.5552 13.9317 11.987 14.2926 11.572C14.5638 11.2602 14.6875 11.1179 14.6875 10.7498C14.6875 10.3817 14.5638 10.2395 14.2926 9.92758C13.9317 9.5125 13.4375 8.94414 13.4375 7.87477C13.4375 6.80539 13.9317 6.23711 14.2926 5.82219C14.5638 5.51039 14.6875 5.36805 14.6875 5C14.6875 4.48227 15.1073 4.0625 15.625 4.0625C16.1427 4.0625 16.5625 4.48227 16.5625 5C16.5625 6.06938 16.0683 6.63766 15.7074 7.0525C15.4362 7.3643 15.3125 7.50664 15.3125 7.87469C15.3125 8.24289 15.4362 8.38516 15.7075 8.69703C16.0684 9.11203 16.5625 9.68031 16.5625 10.7496C16.5625 11.8189 16.0683 12.3872 15.7074 12.8021C15.4362 13.114 15.3125 13.2562 15.3125 13.6244C15.3125 13.9926 15.4362 14.1349 15.7075 14.4468C16.0684 14.8619 16.5625 15.4302 16.5625 16.4995C16.5625 17.5689 16.0683 18.1373 15.7075 18.5523C15.4362 18.8645 15.3125 19.0068 15.3125 19.375C15.3125 19.8927 14.8927 20.3125 14.375 20.3125Z" fill="#FABE19"/>
<path d="M20 20.3125C19.4823 20.3125 19.0625 19.8927 19.0625 19.375C19.0625 18.3056 19.5567 17.7373 19.9175 17.3223C20.1888 17.0104 20.3125 16.868 20.3125 16.4998C20.3125 16.1316 20.1888 15.9893 19.9175 15.6774C19.5567 15.2623 19.0625 14.694 19.0625 13.6246C19.0625 12.5552 19.5567 11.987 19.9176 11.572C20.1888 11.2602 20.3125 11.1179 20.3125 10.7498C20.3125 10.3817 20.1888 10.2395 19.9176 9.92758C19.5567 9.5125 19.0625 8.94414 19.0625 7.87477C19.0625 6.80539 19.5567 6.23711 19.9176 5.82219C20.1888 5.51039 20.3125 5.36805 20.3125 5C20.3125 4.48227 20.7323 4.0625 21.25 4.0625C21.7677 4.0625 22.1875 4.48227 22.1875 5C22.1875 6.06938 21.6933 6.63766 21.3324 7.0525C21.0612 7.3643 20.9375 7.50664 20.9375 7.87469C20.9375 8.24289 21.0612 8.38516 21.3325 8.69703C21.6933 9.11203 22.1875 9.68031 22.1875 10.7496C22.1875 11.8189 21.6933 12.3872 21.3325 12.8021C21.0612 13.114 20.9375 13.2562 20.9375 13.6244C20.9375 13.9926 21.0612 14.1349 21.3325 14.4468C21.6934 14.8619 22.1875 15.4302 22.1875 16.4995C22.1875 17.5689 21.6934 18.1373 21.3325 18.5523C21.0612 18.8645 20.9375 19.0068 20.9375 19.375C20.9375 19.8927 20.5177 20.3125 20 20.3125Z" fill="#F5871E"/>
<path d="M18.125 20.3125C17.6073 20.3125 17.1875 19.8927 17.1875 19.375C17.1875 18.3056 17.6817 17.7373 18.0425 17.3223C18.3137 17.0104 18.4375 16.868 18.4375 16.4998C18.4375 16.1316 18.3138 15.9893 18.0425 15.6774C17.6817 15.2623 17.1875 14.694 17.1875 13.6246C17.1875 12.5552 17.6817 11.987 18.0426 11.572C18.3138 11.2602 18.4375 11.1179 18.4375 10.7498C18.4375 10.3817 18.3138 10.2395 18.0426 9.92758C17.6817 9.5125 17.1875 8.94414 17.1875 7.87477C17.1875 6.80539 17.6817 6.23711 18.0426 5.82219C18.3138 5.51039 18.4375 5.36805 18.4375 5C18.4375 4.48227 18.8573 4.0625 19.375 4.0625C19.8927 4.0625 20.3125 4.48227 20.3125 5C20.3125 6.06938 19.8183 6.63766 19.4574 7.0525C19.1862 7.3643 19.0625 7.50664 19.0625 7.87469C19.0625 8.24289 19.1862 8.38516 19.4575 8.69703C19.8184 9.11203 20.3125 9.68031 20.3125 10.7496C20.3125 11.8189 19.8183 12.3872 19.4574 12.8021C19.1862 13.114 19.0625 13.2562 19.0625 13.6244C19.0625 13.9926 19.1862 14.1349 19.4575 14.4468C19.8184 14.8619 20.3125 15.4302 20.3125 16.4995C20.3125 17.5689 19.8183 18.1373 19.4575 18.5523C19.1862 18.8645 19.0625 19.0068 19.0625 19.375C19.0625 19.8927 18.6427 20.3125 18.125 20.3125Z" fill="#FABE19"/>
<path d="M23.75 20.3125C23.2323 20.3125 22.8125 19.8927 22.8125 19.375C22.8125 18.3056 23.3066 17.7373 23.6675 17.3223C23.9388 17.0104 24.0625 16.868 24.0625 16.4998C24.0625 16.1316 23.9388 15.9893 23.6675 15.6774C23.3066 15.2623 22.8125 14.694 22.8125 13.6246C22.8125 12.5552 23.3067 11.987 23.6676 11.572C23.9388 11.2602 24.0625 11.1179 24.0625 10.7498C24.0625 10.3817 23.9388 10.2395 23.6676 9.92758C23.3067 9.5125 22.8125 8.94414 22.8125 7.87477C22.8125 6.80539 23.3067 6.23711 23.6676 5.82219C23.9388 5.51039 24.0625 5.36805 24.0625 5C24.0625 4.48227 24.4823 4.0625 25 4.0625C25.5177 4.0625 25.9375 4.48227 25.9375 5C25.9375 6.06938 25.4433 6.63766 25.0824 7.0525C24.8112 7.3643 24.6875 7.50664 24.6875 7.87469C24.6875 8.24289 24.8112 8.38516 25.0825 8.69703C25.4433 9.11203 25.9375 9.68031 25.9375 10.7496C25.9375 11.8189 25.4433 12.3872 25.0825 12.8021C24.8112 13.114 24.6875 13.2562 24.6875 13.6244C24.6875 13.9926 24.8112 14.1349 25.0825 14.4468C25.4434 14.8619 25.9375 15.4302 25.9375 16.4995C25.9375 17.5689 25.4434 18.1373 25.0825 18.5523C24.8112 18.8645 24.6875 19.0068 24.6875 19.375C24.6875 19.8927 24.2677 20.3125 23.75 20.3125Z" fill="#F5871E"/>
<path d="M21.875 20.3125C21.3573 20.3125 20.9375 19.8927 20.9375 19.375C20.9375 18.3056 21.4316 17.7373 21.7925 17.3223C22.0638 17.0104 22.1875 16.868 22.1875 16.4998C22.1875 16.1316 22.0638 15.9893 21.7925 15.6774C21.4316 15.2623 20.9375 14.694 20.9375 13.6246C20.9375 12.5552 21.4317 11.987 21.7926 11.572C22.0638 11.2602 22.1875 11.1179 22.1875 10.7498C22.1875 10.3817 22.0638 10.2395 21.7926 9.92758C21.4317 9.5125 20.9375 8.94414 20.9375 7.87477C20.9375 6.80539 21.4317 6.23711 21.7926 5.82219C22.0638 5.51039 22.1875 5.36805 22.1875 5C22.1875 4.48227 22.6073 4.0625 23.125 4.0625C23.6427 4.0625 24.0625 4.48227 24.0625 5C24.0625 6.06938 23.5683 6.63766 23.2074 7.0525C22.9362 7.3643 22.8125 7.50664 22.8125 7.87469C22.8125 8.24289 22.9362 8.38516 23.2075 8.69703C23.5683 9.11203 24.0625 9.68031 24.0625 10.7496C24.0625 11.8189 23.5683 12.3872 23.2075 12.8021C22.9362 13.114 22.8125 13.2562 22.8125 13.6244C22.8125 13.9926 22.9362 14.1349 23.2075 14.4468C23.5684 14.8619 24.0625 15.4302 24.0625 16.4995C24.0625 17.5689 23.5684 18.1373 23.2075 18.5523C22.9362 18.8645 22.8125 19.0068 22.8125 19.375C22.8125 19.8927 22.3927 20.3125 21.875 20.3125Z" fill="#FABE19"/>
<path d="M26.25 34.375H13.75C6.84641 34.375 1.25 28.7786 1.25 21.875V20.625C1.25 19.9346 1.80961 19.375 2.5 19.375H37.5C38.1904 19.375 38.75 19.9346 38.75 20.625V21.875C38.75 28.7786 33.1536 34.375 26.25 34.375Z" fill="#F04B37"/>
<path d="M13.75 33.125C7.54672 33.125 2.5 28.0783 2.5 21.875V21.25C2.5 20.9048 2.77984 20.625 3.125 20.625C3.47016 20.625 3.75 20.9048 3.75 21.25V21.875C3.75 27.389 8.23594 31.875 13.75 31.875C14.0952 31.875 14.375 32.1548 14.375 32.5C14.375 32.8452 14.0952 33.125 13.75 33.125Z" fill="#FF6955"/>
<path d="M37.5 19.375H25C25.6904 19.375 26.25 19.9346 26.25 20.625V21.875C26.25 28.7785 20.6535 34.375 13.75 34.375H26.25C33.1535 34.375 38.75 28.7785 38.75 21.875V20.625C38.75 19.9346 38.1904 19.375 37.5 19.375Z" fill="#D7322D"/>
<path d="M25 36.875H15C14.3096 36.875 13.75 36.3154 13.75 35.625V34.375H26.25V35.625C26.25 36.3154 25.6904 36.875 25 36.875Z" fill="#D7322D"/>
</svg>
