<svg width="14" height="14" viewBox="0 0 14 14" fill="none" xmlns="http://www.w3.org/2000/svg">
<g clip-path="url(#clip0_100_10660)">
<path d="M4.37521 11.5664H2.46115V5.38672H4.37521V11.5664ZM4.56619 3.41786C4.56619 2.7991 4.06418 2.29688 3.44574 2.29688C2.82495 2.29688 2.32422 2.7991 2.32422 3.41786C2.32422 4.03683 2.82495 4.53906 3.44574 4.53906C4.06418 4.53906 4.56619 4.03683 4.56619 3.41786ZM11.5391 8.1666C11.5391 6.50771 11.1886 5.27734 9.25073 5.27734C8.31955 5.27734 7.69449 5.74304 7.43932 6.22733H7.4375V5.38672H5.57812V11.5664H7.4375V8.49814C7.4375 7.6946 7.64204 6.91615 8.63806 6.91615C9.62051 6.91615 9.65234 7.83505 9.65234 8.54919V11.5664H11.5391V8.1666ZM14 12.3594V1.64062C14 0.735931 13.2641 0 12.3594 0H1.64062C0.735931 0 0 0.735931 0 1.64062V12.3594C0 13.2641 0.735931 14 1.64062 14H12.3594C13.2641 14 14 13.2641 14 12.3594ZM12.3594 1.09375C12.6609 1.09375 12.9062 1.3391 12.9062 1.64062V12.3594C12.9062 12.6609 12.6609 12.9062 12.3594 12.9062H1.64062C1.3391 12.9062 1.09375 12.6609 1.09375 12.3594V1.64062C1.09375 1.3391 1.3391 1.09375 1.64062 1.09375H12.3594Z" fill="#5E5E5E"/>
</g>
<defs>
<clipPath id="clip0_100_10660">
<rect width="14" height="14" fill="white"/>
</clipPath>
</defs>
</svg>
