<svg width="40" height="40" viewBox="0 0 40 40" fill="none" xmlns="http://www.w3.org/2000/svg">
<g clip-path="url(#clip0_100_10162)">
<path d="M40 14.1406V16.4844H35.1562V35.3125H30.4687L27.9961 34.1406L30.2109 32.9688H32.8125V14.1406H40Z" fill="#582B1F"/>
<path d="M30.4688 35.3125H23.4375L22.2656 32.9688L21.0938 35.3125H18.75L17.5781 32.9688L16.4062 35.3125H14.0625L12.8906 32.9688L11.7188 35.3125H9.375L8.20312 32.9688L7.03125 35.3125H0L2.34375 14.1406H28.125L30.2109 32.9688L30.4688 35.3125Z" fill="#EC5569"/>
<path d="M30.4688 35.3125H23.4375L22.2656 32.9688L21.0938 35.3125H18.75L17.5781 32.9688L16.4062 35.3125H15.2344V14.1406H28.125L30.2109 32.9688L30.4688 35.3125Z" fill="#E63950"/>
<path d="M7.03125 23.5938H9.375V35.3125H7.03125V23.5938Z" fill="#E63950"/>
<path d="M11.7188 23.5938H14.0625V35.3125H11.7188V23.5938Z" fill="#E63950"/>
<path d="M16.4062 23.5938H18.75V35.3125H16.4062V23.5938Z" fill="#CC2E43"/>
<path d="M21.0938 23.5938H23.4375V35.3125H21.0938V23.5938Z" fill="#CC2E43"/>
<path d="M8.20312 32.9688C6.25773 32.9688 4.6875 34.539 4.6875 36.4844C4.6875 38.4298 6.25773 40 8.20312 40C10.1485 40 11.7188 38.4298 11.7188 36.4844C11.7188 34.539 10.1485 32.9688 8.20312 32.9688Z" fill="#663325"/>
<path d="M11.7188 36.4844C11.7188 38.4298 10.1485 40 8.20312 40V32.9688C10.1485 32.9688 11.7188 34.539 11.7188 36.4844Z" fill="#582B1F"/>
<path d="M8.20312 35.3125C7.5468 35.3125 7.03125 35.828 7.03125 36.4844C7.03125 37.1407 7.5468 37.6562 8.20312 37.6562C8.85945 37.6562 9.375 37.1407 9.375 36.4844C9.375 35.828 8.85945 35.3125 8.20312 35.3125Z" fill="#EDE9E8"/>
<path d="M9.375 36.4844C9.375 37.1407 8.85945 37.6562 8.20312 37.6562V35.3125C8.85945 35.3125 9.375 35.828 9.375 36.4844Z" fill="#DFD7D5"/>
<path d="M22.2656 32.9688C20.3202 32.9688 18.75 34.539 18.75 36.4844C18.75 38.4298 20.3202 40 22.2656 40C24.211 40 25.7812 38.4298 25.7812 36.4844C25.7812 34.539 24.211 32.9688 22.2656 32.9688Z" fill="#663325"/>
<path d="M25.7812 36.4844C25.7812 38.4298 24.211 40 22.2656 40V32.9688C24.211 32.9688 25.7812 34.539 25.7812 36.4844Z" fill="#582B1F"/>
<path d="M22.2656 35.3125C21.6093 35.3125 21.0938 35.828 21.0938 36.4844C21.0938 37.1407 21.6093 37.6562 22.2656 37.6562C22.922 37.6562 23.4375 37.1407 23.4375 36.4844C23.4375 35.828 22.922 35.3125 22.2656 35.3125Z" fill="#EDE9E8"/>
<path d="M23.4375 36.4844C23.4375 37.1407 22.922 37.6562 22.2656 37.6562V35.3125C22.922 35.3125 23.4375 35.828 23.4375 36.4844Z" fill="#DFD7D5"/>
<path d="M14.0625 0H16.4062V3.59375H14.0625V0Z" fill="#EEBF00"/>
<path d="M15.2344 0H16.4062V3.59375H15.2344V0Z" fill="#DC9E00"/>
<path d="M23.4375 10.625H7.03125C7.03125 6.10156 10.7109 2.42188 15.2344 2.42188C19.7578 2.42188 23.4375 6.10156 23.4375 10.625Z" fill="#FFCD00"/>
<path d="M23.4375 10.625H15.2344V2.42188C19.7578 2.42188 23.4375 6.10156 23.4375 10.625Z" fill="#DDB100"/>
<path d="M4.6875 9.45312H25.7812V11.7969H4.6875V9.45312Z" fill="#EEBF00"/>
<path d="M15.2344 9.45312H25.7812V11.7969H15.2344V9.45312Z" fill="#DC9E00"/>
</g>
<defs>
<clipPath id="clip0_100_10162">
<rect width="40" height="40" fill="white"/>
</clipPath>
</defs>
</svg>
