<svg width="12" height="13" viewBox="0 0 12 13" fill="none" xmlns="http://www.w3.org/2000/svg">
<path d="M10.8411 1.68329L6.71614 10.6833C6.68163 10.7587 6.6231 10.8205 6.54971 10.8591C6.47632 10.8977 6.39221 10.9109 6.31054 10.8966C6.22887 10.8823 6.15423 10.8413 6.09831 10.7801C6.04239 10.7189 6.00833 10.6409 6.00147 10.5582L5.65272 6.37447L1.46895 6.02572C1.38632 6.01885 1.3083 5.9848 1.24708 5.92887C1.18586 5.87295 1.14491 5.79832 1.13061 5.71664C1.11632 5.63497 1.1295 5.55086 1.16809 5.47747C1.20668 5.40409 1.2685 5.34556 1.34389 5.31104L10.3439 1.18604C10.4135 1.15416 10.4911 1.14432 10.5665 1.15786C10.6418 1.1714 10.7112 1.20766 10.7653 1.26178C10.8194 1.3159 10.8557 1.38528 10.8692 1.46061C10.8827 1.53594 10.873 1.61372 10.8411 1.68329Z" fill="white"/>
</svg>
