<svg width="20" height="20" viewBox="0 0 20 20" fill="none" xmlns="http://www.w3.org/2000/svg">
<path d="M10 20C7.32853 20 4.81481 18.9609 2.92867 17.0713C1.03909 15.1818 0 12.6715 0 10C0 7.32853 1.03909 4.81481 2.92867 2.92867C4.81824 1.03909 7.32853 0 10 0C10.4732 0 10.8573 0.384088 10.8573 0.857339C10.8573 1.33059 10.4732 1.71468 10 1.71468C5.42867 1.71468 1.71125 5.4321 1.71125 10.0034C1.71125 14.5748 5.42867 18.2922 10 18.2922C10.4732 18.2922 10.8573 18.6763 10.8573 19.1495C10.8573 19.6159 10.4732 20 10 20Z" fill="black"/>
<path d="M15.7169 14.2832C15.4974 14.2832 15.278 14.2009 15.1099 14.0329C14.7739 13.6968 14.7739 13.155 15.1099 12.8189L17.0749 10.8539H7.71281C7.23956 10.8539 6.85547 10.4698 6.85547 9.99654C6.85547 9.52329 7.23956 9.1392 7.71281 9.1392H17.0749L15.1099 7.17418C14.7739 6.8381 14.7739 6.29626 15.1099 5.96019C15.446 5.62411 15.9878 5.62411 16.3239 5.96019L19.7533 9.38954C19.9213 9.55758 20.0036 9.77706 20.0036 9.99654C20.0036 10.216 19.9213 10.4355 19.7533 10.6035L16.3239 14.0329C16.1559 14.2009 15.9364 14.2832 15.7169 14.2832Z" fill="black"/>
</svg>
