<svg width="40" height="40" viewBox="0 0 40 40" fill="none" xmlns="http://www.w3.org/2000/svg">
<g clip-path="url(#clip0_100_10560)">
<path d="M29.2809 14.2538C32.4932 13.6414 36.9075 14.5523 39.1487 17.1069C40.0377 18.1198 40.4637 20.0662 39.6279 21.2375C39.6272 21.2387 38.7718 22.4365 37.307 22.1295C37.1364 22.0935 36.9924 22.2623 37.0571 22.424C37.1135 22.565 37.1541 22.7032 37.1758 22.7917C37.4211 23.797 36.809 24.8721 35.7634 25.0357C35.3029 25.108 34.822 25.0153 34.391 24.8505C34.2375 24.7922 33.9076 24.6603 33.6327 24.4992C33.4786 24.4092 33.2906 24.5309 33.3046 24.7092C33.394 25.8435 32.917 27.0245 31.6747 27.2491C29.4692 27.648 28.4673 24.9387 27.7861 23.3813C27.7861 23.3813 27.7861 14.5938 27.7864 14.5935C28.282 14.4681 28.7801 14.3491 29.2809 14.2538Z" fill="#E6F2EC"/>
<path d="M39.628 21.2375C39.6274 21.2384 38.7714 22.4368 37.3069 22.1292C37.1363 22.0935 36.9925 22.2623 37.0566 22.424C37.1134 22.565 37.154 22.7032 37.176 22.7917C37.4213 23.7967 36.8091 24.8718 35.7633 25.036C35.3028 25.108 34.8221 25.0149 34.3912 24.8508C34.2377 24.7922 33.9081 24.66 33.6326 24.4992C33.4785 24.4089 33.2908 24.5309 33.3045 24.7095C33.3939 25.8438 32.9172 27.0242 31.6743 27.2491C30.3394 27.4905 29.4462 26.5933 28.7974 25.5026C29.2774 25.8545 29.8481 26.0315 30.5359 25.9073C31.778 25.683 32.2556 24.5016 32.1662 23.3673C32.1515 23.1897 32.3398 23.0676 32.4943 23.158C32.7686 23.3185 33.0991 23.4503 33.2526 23.5086C33.6829 23.6734 34.1645 23.7659 34.6247 23.6938C35.6705 23.5306 36.2821 22.4554 36.0367 21.4505C36.0157 21.362 35.9751 21.2231 35.9183 21.0825C35.8533 20.9201 35.998 20.7519 36.1683 20.788C37.6331 21.0947 38.4879 19.8972 38.4888 19.8956C39.1675 18.9456 39.0149 17.4847 38.458 16.4267C38.7055 16.6388 38.9371 16.8661 39.1489 17.1072C40.0373 18.1195 40.4636 20.0659 39.628 21.2375Z" fill="#D5E2DB"/>
<path d="M10.8752 14.2538C7.66295 13.6414 3.24859 14.5523 1.00738 17.1069C0.118405 18.1198 -0.30762 20.0662 0.528255 21.2375C0.529171 21.2387 1.38427 22.4365 2.84942 22.1295C3.02001 22.0935 3.16406 22.2623 3.09905 22.424C3.0426 22.565 3.00201 22.7032 2.98034 22.7917C2.73528 23.797 3.34716 24.8721 4.39269 25.0357C4.8532 25.108 5.33416 25.0153 5.76507 24.8505C5.91857 24.7922 6.24847 24.6603 6.52343 24.4992C6.67754 24.4092 6.86553 24.5309 6.85149 24.7092C6.76238 25.8435 7.23907 27.0245 8.48143 27.2491C10.6869 27.648 11.6888 24.9387 12.37 23.3813C12.37 23.3813 12.37 14.5938 12.37 14.5935C11.8741 14.4681 11.376 14.3491 10.8752 14.2538Z" fill="#E6F2EC"/>
<path d="M0.52796 21.2375C0.528875 21.2384 1.38459 22.4368 2.84943 22.1292C3.01972 22.0935 3.16346 22.2623 3.09937 22.424C3.04261 22.5653 3.00202 22.7032 2.98005 22.7917C2.73468 23.797 3.34687 24.8718 4.3927 25.036C4.85321 25.1083 5.33386 25.0149 5.76508 24.8508C5.91827 24.7925 6.24817 24.66 6.52344 24.4992C6.67755 24.4092 6.86523 24.5309 6.8515 24.7095C6.76209 25.8438 7.23877 27.0245 8.48175 27.2494C9.81659 27.4905 10.7098 26.5933 11.3586 25.5029C10.8789 25.8545 10.3079 26.0315 9.62005 25.9073C8.37799 25.6833 7.90039 24.5016 7.98981 23.3673C8.00445 23.1897 7.81616 23.0679 7.66174 23.158C7.38739 23.3188 7.05688 23.4503 6.90338 23.5086C6.47308 23.6734 5.99152 23.7662 5.53131 23.6938C4.48548 23.5306 3.8739 22.4557 4.11927 21.4505C4.14032 21.362 4.18091 21.2231 4.23767 21.0828C4.30268 20.9204 4.15833 20.7523 3.98773 20.788C2.52289 21.0947 1.6681 19.8972 1.66718 19.8956C0.98847 18.9456 1.14106 17.4847 1.698 16.427C1.45051 16.6388 1.21918 16.8661 1.00709 17.1072C0.11872 18.1198 -0.307611 20.0659 0.52796 21.2375Z" fill="#D5E2DB"/>
<path d="M28.0087 6.16699V33.7649C28.0087 34.1937 27.6611 34.541 27.2326 34.541H12.9019C12.4731 34.541 12.1255 34.1937 12.1255 33.7649V6.16699C12.1255 5.73822 12.4731 5.39093 12.9019 5.39093H27.2326C27.6614 5.39093 28.0087 5.73822 28.0087 6.16699Z" fill="#8BEBDB"/>
<path d="M28.0085 6.16699V33.7649C28.0085 34.1937 27.6609 34.5413 27.2325 34.5413H25.7759C26.2043 34.5413 26.5519 34.1937 26.5519 33.7649V6.16699C26.5519 5.73822 26.2043 5.39062 25.7759 5.39062H27.2325C27.6609 5.39062 28.0085 5.73822 28.0085 6.16699Z" fill="#5EE2C5"/>
<path d="M17.8068 8.18756H22.3491C22.5224 8.18756 22.6643 8.3252 22.6695 8.49853C22.671 8.55225 22.6744 8.60657 22.6796 8.66119C22.7635 9.58038 23.4575 10.3424 24.3678 10.4941C24.4758 10.5121 24.5817 10.5231 24.6855 10.5267C24.8555 10.5328 24.9879 10.6772 24.9879 10.8472V29.1305C24.9879 29.3005 24.8555 29.4449 24.6855 29.451C24.582 29.4546 24.4761 29.4656 24.3681 29.4836C23.4581 29.635 22.7641 30.3967 22.6796 31.3153C22.6744 31.3705 22.671 31.4252 22.6695 31.4792C22.6643 31.6525 22.5224 31.7901 22.3491 31.7901H17.8068C17.6335 31.7901 17.4916 31.6525 17.4864 31.4792C17.4849 31.4252 17.4815 31.3705 17.4763 31.3153C17.3921 30.3967 16.6981 29.635 15.7878 29.4836C15.6797 29.4656 15.5739 29.4546 15.4707 29.451C15.3004 29.4449 15.168 29.3005 15.168 29.1305V10.8472C15.168 10.6772 15.3004 10.5328 15.4707 10.5267C15.5742 10.5231 15.6801 10.5121 15.7884 10.4941C16.6987 10.3424 17.3924 9.58038 17.4766 8.66119C17.4815 8.60657 17.4849 8.55225 17.4867 8.49853C17.4916 8.3252 17.6335 8.18756 17.8068 8.18756Z" fill="#00B7A0"/>
<path d="M24.9879 10.8469V29.1305C24.9879 29.3011 24.8555 29.4449 24.6849 29.4513C24.5817 29.4546 24.4761 29.4659 24.3684 29.4836C23.4581 29.6347 22.7638 30.3964 22.6793 31.3153C22.6744 31.3705 22.6713 31.4252 22.6695 31.4795C22.664 31.6525 22.5227 31.7904 22.3488 31.7904H20.5391C20.7121 31.7904 20.854 31.6525 20.8589 31.4795C20.8607 31.4252 20.8647 31.3708 20.8696 31.3153C20.916 30.7889 21.1757 30.2893 21.576 29.9447C21.9301 29.6399 22.4232 29.4455 22.7726 29.1113C23.191 28.7109 23.1941 28.2001 23.1788 27.6675C23.1617 27.0788 23.1779 26.4761 23.1779 25.8813C23.1779 23.7692 23.1779 21.6574 23.1779 19.5453C23.1779 17.7515 23.1779 15.9576 23.1779 14.1638C23.1779 13.5049 23.1779 12.8458 23.1779 12.1869C23.1779 11.1255 22.7382 10.77 21.8535 10.2338C21.3002 9.89837 20.9272 9.30633 20.8696 8.66119C20.8647 8.60657 20.8604 8.55225 20.8589 8.49884C20.854 8.32489 20.7118 8.18787 20.5391 8.18787H22.3488C22.5224 8.18787 22.6637 8.32489 22.6695 8.49884C22.671 8.55225 22.6744 8.60657 22.6793 8.66119C22.7638 9.58038 23.4572 10.3427 24.3672 10.4938C24.4761 10.5124 24.5817 10.5231 24.6849 10.527C24.8555 10.5328 24.9879 10.6772 24.9879 10.8469Z" fill="#009A8E"/>
<path d="M22.9323 19.9661C22.9323 21.5625 21.6384 22.8564 20.042 22.8564C18.4456 22.8564 17.1514 21.5625 17.1514 19.9661C17.1514 18.3697 18.4456 17.0755 20.042 17.0755C21.6384 17.0755 22.9323 18.3697 22.9323 19.9661Z" fill="#FFAA00"/>
<path d="M22.9322 19.9661C22.9322 21.5622 21.6379 22.8564 20.0416 22.8564C19.3775 22.8564 18.7653 22.6324 18.2773 22.2555C18.5038 22.3132 18.7418 22.3434 18.9863 22.3434C20.5826 22.3434 21.8766 21.0501 21.8766 19.4528C21.8766 18.5208 21.4359 17.6916 20.7505 17.1631C22.0041 17.4789 22.9322 18.6142 22.9322 19.9661Z" fill="#FF9500"/>
<path d="M19.4585 26.463V28.3408C19.4585 28.6771 19.731 28.9496 20.0673 28.9496C20.4039 28.9496 20.6765 28.6771 20.6765 28.3408V26.463C20.6765 26.1267 20.4036 25.8539 20.0673 25.8539C19.731 25.8539 19.4585 26.1267 19.4585 26.463Z" fill="#8BEBDB"/>
<path d="M20.6765 13.5147V11.637C20.6765 11.3007 20.4036 11.0281 20.0673 11.0281C19.7313 11.0281 19.4585 11.3007 19.4585 11.637V13.5147C19.4585 13.851 19.731 14.1238 20.0673 14.1238C20.4036 14.1238 20.6765 13.851 20.6765 13.5147Z" fill="#8BEBDB"/>
</g>
<defs>
<clipPath id="clip0_100_10560">
<rect width="40" height="40" fill="white"/>
</clipPath>
</defs>
</svg>
