<svg width="40" height="33" viewBox="0 0 40 33" fill="none" xmlns="http://www.w3.org/2000/svg">
<path d="M5.37222 32.1714C1.69687 29.5865 3.45514 25.9366 4.56617 21.8717C5.67719 17.8068 5.87272 13.1422 10.9333 8.68933C15.9939 4.23641 21.9936 4.60401 27.4058 5.76932C32.818 6.93463 32.8198 7.38675 35.9007 7.83494C38.2112 8.17107 39.3664 8.58244 39.6827 9.71833C39.999 10.8542 40.2506 14.1326 29.7826 20.9846C19.3146 27.8366 9.18417 34.8524 5.37222 32.1714Z" fill="#D48340"/>
<path d="M19.9155 7.83494C19.9155 7.83494 17.2179 4.46818 18.5138 3.402C19.8097 2.33582 21.743 3.00902 20.7764 1.90528C19.8097 0.801544 21.5863 0.0661179 22.9201 0.0370336C24.2538 0.00794931 26.3728 -0.239288 26.4508 1.07472C26.5288 2.38872 28.2422 4.03034 28.3907 2.75983C28.5392 1.48931 32.7079 2.17724 31.8194 3.91747C30.9309 5.6577 34.7564 4.00798 33.3499 6.01205C31.9434 8.01613 37.4066 7.57119 36.7292 5.98517C36.0519 4.39915 39.4468 5.801 38.3313 7.98346C37.2158 10.1659 32.0578 11.961 32.0578 11.961L26.4727 10.9503L19.9155 7.83494Z" fill="#73A129"/>
<path d="M36.7291 5.98519C37.4065 7.57121 31.9433 8.01615 33.3498 6.01206C34.7563 4.00798 30.9308 5.65771 31.8193 3.91747C32.7078 2.17724 28.5391 1.48932 28.3906 2.75983C28.2421 4.03035 26.5287 2.38873 26.4507 1.07472C26.3726 -0.239285 24.2537 0.00795294 22.92 0.0370267C21.5862 0.066111 19.8096 0.801538 20.7762 1.90528C21.7429 3.00902 19.8096 2.33581 18.5137 3.40199C18.2287 3.63643 18.137 3.98216 18.1671 4.37881C18.2161 4.15039 18.4537 3.78246 19.472 3.76428C20.9539 3.73783 22.2501 3.34103 21.6682 2.44162C21.0862 1.54222 21.6645 0.669268 23.3726 0.722171C25.0806 0.775075 26.1581 0.713063 25.8442 2.17253C25.5303 3.63201 28.0698 4.82239 28.837 4.16107C29.6041 3.49974 28.7841 2.81711 29.8951 2.98648C31.0061 3.15585 31.2971 3.62741 30.7151 4.4233C30.1332 5.21919 30.6631 5.12458 31.6939 5.32501C32.7247 5.52544 33.3455 5.35146 32.8239 6.30377C32.3023 7.25608 35.5107 8.44701 36.3534 7.90445C37.1961 7.3619 37.7308 7.07057 37.4238 6.47554C37.1168 5.88051 38.5691 6.57968 37.9633 7.60079C37.663 8.10675 37.8943 8.21908 38.2039 8.20386C38.2506 8.13085 38.2934 8.05739 38.3312 7.98344C39.4467 5.80101 36.0518 4.39918 36.7291 5.98519Z" fill="#8EBB29"/>
<path d="M7.12208 28.9175C7.12208 28.9175 7.05235 28.8633 6.92024 28.7746C6.4791 28.4782 5.3423 27.796 3.78264 27.4554C1.75591 27.0128 1.1563 27.1892 1.33266 25.6725C1.50902 24.1559 1.61482 23.7134 0.627244 23.5819C-0.360338 23.4505 -0.0428955 21.9344 0.627244 20.9994C1.29739 20.0645 2.14036 19.5969 2.61829 20.201C3.0962 20.8052 3.72755 18.83 2.61829 18.442C1.50902 18.054 2.46132 16.3406 2.77876 15.663C3.0962 14.9855 1.43848 14.8797 2.84931 13.5747C4.26014 12.2697 5.60043 12.2447 6.05895 13.3682C6.51747 14.4917 8.49263 14.3153 8.95115 13.6452C9.40967 12.9751 8.10465 13.0541 8.95115 12.0094C9.79765 10.9646 12.6311 9.97705 12.8828 13.0103C13.1344 16.0436 11.8784 23.9017 11.8784 23.9017L10.0176 27.2597L7.12208 28.9175Z" fill="#73A129"/>
<path d="M11.0291 11.6737L10.3575 11.1088C9.77681 11.2921 9.24458 11.6472 8.95114 12.0094C8.10464 13.0541 9.40966 12.975 8.95114 13.6452C8.49262 14.3153 6.51745 14.4917 6.05894 13.3682C5.60043 12.2447 4.26014 12.2696 2.84931 13.5746C1.43848 14.8797 3.0962 14.9855 2.77876 15.663C2.46132 16.3406 1.50902 18.054 2.61829 18.442C3.72755 18.83 3.0962 20.8051 2.61829 20.201C2.14037 19.5968 1.29739 20.0645 0.627244 20.9994C-0.0428955 21.9344 -0.360338 23.4504 0.627244 23.5819C1.61482 23.7133 1.50902 24.1559 1.33266 25.6725C1.1563 27.1891 1.75591 27.0128 3.78264 27.4554C4.01982 27.5072 4.24588 27.5675 4.46255 27.6326L4.46404 27.6321C3.31003 27.1223 1.5508 27.2386 1.74931 25.7732C1.9478 24.3078 1.85511 23.5274 1.08798 23.0631C0.320837 22.5988 0.956469 20.9961 1.49838 21.1891C2.0403 21.382 3.20424 21.8036 3.73329 20.3627C4.26236 18.9219 3.94492 18.0754 3.31004 17.7844C2.67517 17.4934 3.04551 16.9643 3.3894 16.1443C3.73329 15.3243 3.73329 15.2028 3.31004 14.7742C2.88679 14.3455 5.24161 12.471 5.37175 13.8958C5.50189 15.3206 7.61706 14.759 8.73292 14.3755C9.84877 13.992 10.0466 13.5093 9.50879 12.9883C8.97099 12.4673 11.0291 11.6737 11.0291 11.6737Z" fill="#8EBB29"/>
<path d="M15.7782 10.1359C15.7782 10.1359 13.1329 8.62951 13.3092 7.3961C13.4856 6.16271 14.6016 5.8265 14.9077 5.00702C15.2138 4.18755 16.9774 3.23523 17.6475 3.62321C18.3177 4.01119 18.9173 4.51801 19.799 4.42333C20.6808 4.32864 21.3487 4.09192 21.9909 5.89932C22.6331 7.70671 20.9756 10.8548 20.2239 10.9503C19.4723 11.0458 16.946 10.9355 15.7782 10.1359Z" fill="#80443C"/>
<path d="M6.09605 14.7743C5.45477 14.751 3.39783 18.8077 3.55655 19.5484C3.71527 20.2891 8.05357 21.4226 8.47682 21.1468C8.90007 20.871 11.0435 17.7496 11.0564 16.8502C11.0692 15.9508 7.20707 14.8148 6.09605 14.7743Z" fill="#80443C"/>
<path d="M6.09623 14.7743C6.90535 14.0985 7.07992 17.3673 7.30231 17.9817C7.5247 18.596 3.55673 19.5484 3.55673 19.5484C3.55673 19.5484 3.45092 16.9839 6.09623 14.7743Z" fill="#9D5C5C"/>
<path d="M19.4727 11.0459C19.4727 11.0459 25.0659 2.68406 25.8448 2.17259C26.6237 1.66111 30.2181 6.26428 26.605 9.86335C23.1893 13.2659 19.4727 11.0459 19.4727 11.0459Z" fill="#DC1C24"/>
<path d="M25.0031 3.13509C23.7138 4.80497 21.4103 8.17663 20.2241 9.92994C20.2698 10.9911 21.2184 11.601 23.2813 11.061C25.5667 10.4628 26.8003 9.34894 27.4694 7.45496C28.1091 5.64414 26.6233 2.23502 25.0031 3.13509Z" fill="#B21C24"/>
<path d="M22.6331 7.70673C21.5421 8.78913 22.7567 9.00641 22.2805 9.81584C21.8042 10.6253 23.5451 10.7566 24.9199 9.63986C26.2948 8.52307 23.6262 6.72144 22.6331 7.70673Z" fill="#FF565C"/>
<path d="M23.8078 6.1403C23.574 6.65668 25.4866 7.64836 26.226 7.59905C26.9654 7.54975 27.3351 6.13252 27.0948 5.77719C26.8545 5.42186 26.7086 5.09117 26.5813 4.57357C26.4539 4.05597 24.3472 4.94853 23.8078 6.1403Z" fill="#FF565C"/>
<path d="M23.2055 8.57006C22.9615 8.62762 23.3826 9.37128 23.5633 9.16481C23.7439 8.95835 23.4143 8.52079 23.2055 8.57006Z" fill="#FFCA73"/>
<path d="M24.8145 5.71859C24.6718 5.92223 25.4425 5.99621 25.3927 5.71365C25.3429 5.4311 24.9362 5.54496 24.8145 5.71859Z" fill="#FFCA73"/>
<path d="M25.1591 6.67996C25.1406 6.86687 25.7414 6.82682 25.7137 6.64298C25.686 6.45915 25.1776 6.49305 25.1591 6.67996Z" fill="#FFCA73"/>
<path d="M26.1988 2.18432C25.3659 1.88636 24.6925 1.86057 24.3805 1.95207C24.0685 2.04358 18.4377 9.84231 18.3814 10.0582C18.3251 10.274 19.4724 11.0459 19.4724 11.0459L26.1988 2.18432Z" fill="#E83D44"/>
<path d="M22.6207 4.98569C22.347 4.99251 19.8542 8.55773 19.4163 9.14664C18.9783 9.73555 19.2927 10.2095 19.803 9.64522C20.3133 9.08096 21.649 7.11144 22.031 6.47968C22.4131 5.84791 23.0442 4.97513 22.6207 4.98569Z" fill="#FF5658"/>
<path d="M23.092 4.63522C23.2522 4.91945 24.3995 3.29401 24.179 3.16733C23.9584 3.04064 22.8708 4.24259 23.092 4.63522Z" fill="#FF5658"/>
<path d="M13.0395 9.08297C9.53828 9.82791 9.2911 13.2925 10.272 15.3565C11.2529 17.4206 17.3134 18.1562 18.5746 14.3027C19.8357 10.4492 16.3325 8.38233 13.0395 9.08297Z" fill="#F0B2EF"/>
<path d="M13.2499 9.57349C11.7503 9.72007 10.097 11.5353 10.5875 14.4079C11.0779 17.2805 16.3027 16.9011 17.5588 14.6181C18.8149 12.3351 17.9091 9.11807 13.2499 9.57349Z" fill="#C878AA"/>
<path d="M12.7827 10.3675C11.2499 10.9477 10.6575 12.6095 11.2647 14.4312C11.8719 16.2528 15.1182 16.318 16.3793 15.1294C17.6405 13.9407 17.7573 12.0957 16.8698 11.2783C15.9823 10.4609 14.4002 9.75521 12.7827 10.3675Z" fill="#F0B2EF"/>
<path d="M12.4323 11.255C11.356 11.7226 11.4281 13.8707 12.4323 14.8282C13.4366 15.7858 15.6085 15.5999 16.4493 13.9996C17.2901 12.3994 15.8187 9.78366 12.4323 11.255Z" fill="#C878AA"/>
<path d="M13.016 11.8155C12.0786 12.3212 12.1285 13.9875 13.016 14.618C13.9035 15.2486 15.982 14.7348 16.0054 13.2167C16.0287 11.6987 14.7909 10.8579 13.016 11.8155Z" fill="#F0B2EF"/>
<path d="M13.3666 12.3759C12.647 13.1489 12.734 14.1848 13.9738 14.3611C15.2137 14.5374 15.7722 13.0532 15.2817 12.4927C14.7912 11.9322 13.9972 11.6987 13.3666 12.3759Z" fill="#C878AA"/>
<path d="M13.8803 12.8665C13.4275 13.4001 14.1839 14.1276 14.721 13.5437C15.2582 12.9599 14.5342 12.0958 13.8803 12.8665Z" fill="#F0B2EF"/>
<path d="M31.6259 5.65774C28.1247 6.40268 27.8775 9.8673 28.8584 11.9313C29.8393 13.9953 35.8998 14.731 37.161 10.8775C38.4221 7.02398 34.9189 4.95709 31.6259 5.65774Z" fill="#F0B2EF"/>
<path d="M31.8363 6.1482C30.3367 6.29478 28.6835 8.10999 29.1739 10.9826C29.6643 13.8552 34.8892 13.4758 36.1452 11.1928C37.4013 8.90979 36.4956 5.69279 31.8363 6.1482Z" fill="#C878AA"/>
<path d="M31.3692 6.94223C29.8363 7.52244 29.2439 9.18426 29.8511 11.0059C30.4583 12.8276 33.7046 12.8928 34.9658 11.7041C36.2269 10.5155 36.3437 8.67048 35.4562 7.85306C34.5687 7.03564 32.9866 6.32998 31.3692 6.94223Z" fill="#F0B2EF"/>
<path d="M31.0187 7.8297C29.9424 8.29735 30.0145 10.4454 31.0187 11.4029C32.023 12.3605 34.195 12.1746 35.0357 10.5744C35.8765 8.97407 34.4052 6.35836 31.0187 7.8297Z" fill="#C878AA"/>
<path d="M31.6024 8.39025C30.665 8.89596 30.715 10.5622 31.6024 11.1928C32.4899 11.8234 34.5685 11.3096 34.5918 9.79152C34.6152 8.27348 33.3774 7.43271 31.6024 8.39025Z" fill="#F0B2EF"/>
<path d="M31.953 8.95071C31.2334 9.72368 31.3204 10.7596 32.5603 10.9359C33.8001 11.1121 34.3586 9.628 33.8681 9.06749C33.3777 8.50698 32.5836 8.27343 31.953 8.95071Z" fill="#C878AA"/>
<path d="M32.4667 9.44123C32.0139 9.97488 32.7703 10.7024 33.3075 10.1185C33.8446 9.53465 33.1206 8.67053 32.4667 9.44123Z" fill="#F0B2EF"/>
<path d="M1.94727 24.3079C1.94727 24.3079 11.063 20.0525 11.9942 20.0185C12.9254 19.9844 13.6156 25.7838 8.66074 26.9908C3.97647 28.132 1.94727 24.3079 1.94727 24.3079Z" fill="#DC1C24"/>
<path d="M10.7758 20.4059C8.80793 21.1664 5.09109 22.8573 3.16822 23.7426C2.65761 24.674 3.15311 25.6871 5.19744 26.2938C7.46216 26.9658 9.09436 26.6521 10.6477 25.3786C12.1329 24.1609 12.6279 20.4752 10.7758 20.4059Z" fill="#B21C24"/>
<path d="M6.38083 23.0889C4.88692 23.4496 5.81338 24.2646 4.98671 24.7103C4.16004 25.156 5.58111 26.1701 7.33562 25.927C9.09014 25.6838 7.74072 22.7605 6.38083 23.0889Z" fill="#FF565C"/>
<path d="M8.1967 22.3573C7.72928 22.6779 8.85158 24.5168 9.50961 24.8577C10.1676 25.1985 11.218 24.1778 11.1965 23.7493C11.175 23.3209 11.2215 22.9625 11.3807 22.4538C11.5399 21.9451 9.27548 21.6173 8.1967 22.3573Z" fill="#FF565C"/>
<path d="M6.42301 24.1234C6.18452 24.0463 6.15951 24.9005 6.42099 24.8175C6.68246 24.7344 6.62715 24.1894 6.42301 24.1234Z" fill="#FFCA73"/>
<path d="M9.27632 22.518C9.04875 22.6183 9.66966 23.0808 9.77343 22.8133C9.87721 22.5458 9.47035 22.4325 9.27632 22.518Z" fill="#FFCA73"/>
<path d="M9.07314 23.5188C8.96051 23.6691 9.49517 23.946 9.56667 23.7744C9.63817 23.6028 9.18576 23.3685 9.07314 23.5188Z" fill="#FFCA73"/>
<path d="M12.2914 20.212C11.7332 19.5257 11.1706 19.1548 10.8563 19.0714C10.542 18.9881 1.68587 22.7423 1.52589 22.8978C1.36592 23.0533 1.94747 24.3078 1.94747 24.3078L12.2914 20.212Z" fill="#E83D44"/>
<path d="M7.77999 20.7549C7.54235 20.6189 3.56328 22.3773 2.88362 22.6542C2.20395 22.9311 2.22739 23.4994 2.95617 23.281C3.68494 23.0627 5.84765 22.0698 6.50171 21.7273C7.15577 21.3849 8.14771 20.9652 7.77999 20.7549Z" fill="#FF5658"/>
<path d="M8.3643 20.6991C8.35405 21.0251 10.1774 20.2291 10.0544 20.0065C9.93139 19.7839 8.37845 20.2486 8.3643 20.6991Z" fill="#FF5658"/>
<path d="M9.53777 31.9882C6.908 32.3865 4.42141 30.4388 5.05628 28.8732C5.69116 27.3076 8.75972 28.8752 7.7545 26.1868C6.74928 23.4983 7.06672 22.7965 9.13005 21.8512C11.1934 20.9059 9.92365 18.5251 8.33646 19.2129C6.74928 19.9007 7.17253 15.774 9.18296 15.0863C11.1934 14.3985 11.3521 14.8217 11.6166 15.9857C11.8812 17.1496 14.4736 15.4037 13.5213 14.4514C12.569 13.4991 13.4684 11.859 14.8968 11.5415C16.3253 11.2241 15.6904 10.2231 14.8968 9.71838C14.1032 9.21367 14.8439 7.73229 17.1189 7.09742C19.3938 6.46255 19.4996 7.94392 19.288 9.05495C19.0764 10.166 22.5153 9.94756 21.7746 8.6283C21.0339 7.30904 24.1025 6.72708 24.7374 8.31425C25.3722 9.90144 27.0652 9.68302 27.3827 8.6283C27.7001 7.57357 29.0228 7.8381 29.3931 8.26135C29.7634 8.6846 30.9274 8.57879 30.4512 7.99682C29.975 7.41485 34.1546 7.62648 33.1494 9.31947C32.1442 11.0125 36.0064 11.0125 35.5302 10.0602C35.054 9.10785 36.1394 8.70896 37.911 9.21367C39.6825 9.71838 38.9775 10.5656 38.2889 12.4011C37.6002 14.2367 29.8163 19.4589 29.8163 19.4589L21.4715 25.3969L16.8543 29.3894L9.53777 31.9882Z" fill="#8EBB29"/>
<path d="M37.911 9.21367C36.1394 8.70896 35.054 9.10786 35.5302 10.0602C36.0063 11.0125 32.1442 11.0125 33.1494 9.31948C34.1546 7.62648 29.9751 7.41486 30.4512 7.99683C30.9274 8.5788 29.7634 8.6846 29.3931 8.26135C29.0228 7.83811 27.7001 7.57358 27.3827 8.6283C27.0652 9.68303 25.3722 9.90145 24.7374 8.31426C24.1025 6.72707 21.0339 7.30904 21.7746 8.6283C22.5153 9.94756 19.0764 10.166 19.288 9.05495C19.4996 7.94392 19.3938 6.46255 17.1189 7.09742C14.8439 7.73229 14.1032 9.21366 14.8968 9.71837C15.6904 10.2231 16.3253 11.2241 14.8968 11.5415C13.4683 11.859 12.5689 13.4991 13.5213 14.4514C14.4736 15.4037 11.8812 17.1496 11.6166 15.9856C11.3521 14.8217 11.1934 14.3985 9.18295 15.0862C7.17252 15.774 6.74927 19.9007 8.33645 19.2129C9.92363 18.5251 11.1934 20.9059 9.13004 21.8512C7.0667 22.7965 6.74927 23.4983 7.75449 26.1868C8.75971 28.8752 5.69116 27.3076 5.05629 28.8732C4.50111 30.2422 6.33286 31.9034 8.55997 32.0326C8.78231 31.8625 8.91843 31.7578 8.91843 31.7578C8.91843 31.7578 6.27312 31.011 6.32602 29.6883C6.37894 28.3657 10.0295 28.9476 9.13004 26.4081C8.23064 23.8687 8.38935 23.7099 9.76492 22.6518C11.1405 21.5937 11.987 18.4722 10.1882 18.3135C8.38935 18.1548 8.33645 17.5728 9.13004 16.6734C9.92364 15.774 10.5056 15.4566 10.823 16.7793C11.1405 18.1019 13.9974 17.0438 14.3678 15.2979C14.7381 13.552 13.3625 13.4462 14.4207 12.8642C15.4788 12.2822 17.7537 10.9596 16.5369 9.90145C15.3201 8.84333 16.3782 8.52588 17.1718 8.15555C17.9654 7.7852 18.4944 8.26137 18.3357 9.4253C18.177 10.5892 20.1874 10.8009 21.6159 10.3776C23.0444 9.95435 23.1502 9.53111 22.7798 8.79042C22.4095 8.04973 23.8908 7.83812 24.2083 8.94914C24.5257 10.0602 27.9117 10.695 28.0704 9.58402C28.2291 8.47299 29.0227 8.68461 29.7105 9.21367C30.3983 9.74274 31.0861 9.53111 31.0861 8.89623C31.0861 8.26135 32.832 8.31427 32.1971 9.58401C31.5622 10.8538 32.6203 11.2241 34.1017 11.4357C35.5831 11.6473 36.9057 11.5944 36.5354 10.695C36.1651 9.79563 37.0645 9.74273 37.911 10.166C38.5644 10.4927 38.7209 11.0877 38.5365 11.7739C39.1124 10.3647 39.4669 9.65695 37.911 9.21367Z" fill="#ACD529"/>
<path d="M38.25 12.4919C38.2646 12.4608 38.2776 12.4305 38.2886 12.4011C38.2722 12.433 38.2598 12.463 38.25 12.4919Z" fill="#ACD529"/>
<path d="M5.37158 32.1714C11.6907 32.787 10.6711 22.4074 13.5504 17.5665C16.4298 12.7256 21.5828 9.72061 27.1009 10.4295C32.6191 11.1384 39.2573 13.4394 39.682 9.71832C39.682 9.71832 43.3086 14.1243 26.06 25.0114C8.81132 35.8985 5.37158 32.1714 5.37158 32.1714Z" fill="#EA9F40"/>
<path d="M39.9568 10.4282C39.87 9.94686 39.6821 9.71832 39.6821 9.71832C39.2573 13.4394 32.6191 11.1384 27.1009 10.4295C21.5828 9.72062 16.4298 12.7256 13.5504 17.5665C10.6711 22.4074 11.6907 32.787 5.37158 32.1714C5.37158 32.1714 6.06 32.9169 8.36414 32.7669C9.78498 31.9861 11.3421 30.6346 11.7057 28.3844C12.4097 24.0273 12.9484 23.9344 14.4646 22.7111C15.9809 21.4878 16.1178 19.1071 16.4858 17.5199C16.8538 15.9327 19.184 13.3268 21.471 13.4394C23.7581 13.5519 24.9485 13.4726 26.4563 12.3615C27.9641 11.2505 28.9958 11.9647 32.4082 13.0758C34.9757 13.9117 39.4294 12.844 39.9568 10.4282Z" fill="#FFBD58"/>
<path d="M26.0604 25.0114C37.6072 17.7233 39.7988 13.3397 39.9861 11.2379C39.0251 13.8788 35.2771 16.1582 31.8532 16.9529C26.7742 18.1319 23.9173 19.3452 21.4715 22.7111C19.7131 25.1311 17.8504 28.8126 14.3057 31.2353C17.2354 30.0879 21.0699 28.1613 26.0604 25.0114Z" fill="#D48340"/>
<path d="M17.6481 3.62321C16.9779 3.23524 15.2144 4.18754 14.9083 5.00702C14.6022 5.8265 13.4861 6.1627 13.3098 7.3961C13.2947 7.50155 13.3016 7.60906 13.3244 7.71738C13.5683 7.98369 14.6866 7.36221 14.9083 7.12394C15.1791 6.83284 15.5318 6.50626 16.3783 6.47555C17.2248 6.44486 17.6132 6.2311 17.7188 5.72074C17.8098 5.28111 20.1115 5.31034 19.8293 4.41997C19.8194 4.42108 19.8096 4.42224 19.7996 4.42331C18.9178 4.51801 18.3182 4.01118 17.6481 3.62321Z" fill="#9D5C5C"/>
<path d="M19.6579 18.19C18.7706 18.9564 19.7638 19.2129 20.3986 18.5427C21.0335 17.8726 20.4339 17.5199 19.6579 18.19Z" fill="#FFB151"/>
<path d="M18.8811 20.5869C17.9937 21.3532 18.9869 21.6098 19.6218 20.9396C20.2566 20.2695 19.657 19.9168 18.8811 20.5869Z" fill="#FFB151"/>
<path d="M24.6667 16.7439C23.9434 17.4672 25.4779 17.8726 26.4302 16.7439C27.3825 15.6153 25.619 15.7916 24.6667 16.7439Z" fill="#FFB151"/>
<path d="M17.1189 24.1185C17.3251 24.7091 19.4278 23.104 18.8377 22.6927C18.2476 22.2814 16.8367 23.3102 17.1189 24.1185Z" fill="#FFB151"/>
<path d="M29.6161 14.3755C29.8868 14.7335 31.0155 14.0201 30.6275 13.7596C30.2395 13.499 29.3454 14.0175 29.6161 14.3755Z" fill="#FFB151"/>
<path d="M21.4717 15.9622C21.5928 16.4733 22.7515 15.9123 22.6864 15.4111C22.6213 14.9099 21.345 15.4273 21.4717 15.9622Z" fill="#FFB151"/>
<path d="M13.7414 28.3128C13.7582 28.8464 15.3779 27.7484 14.9081 27.3957C14.4382 27.043 13.7148 27.4663 13.7414 28.3128Z" fill="#FFB151"/>
<path d="M21.5931 19.625C21.8031 19.9483 22.6937 19.4551 22.3542 19.1197C22.0147 18.7844 21.3831 19.3016 21.5931 19.625Z" fill="#FFB151"/>
<path d="M28.4022 16.7011C28.6122 17.0244 29.5028 16.5312 29.1633 16.1959C28.8238 15.8605 28.1922 16.3778 28.4022 16.7011Z" fill="#FFB151"/>
<path d="M31.9457 15.4225C32.2341 15.8667 33.4576 15.1891 32.9912 14.7285C32.5249 14.2678 31.6572 14.9783 31.9457 15.4225Z" fill="#FFB151"/>
<path d="M15.0599 25.0775C15.2699 25.4009 16.1605 24.9076 15.821 24.5723C15.4815 24.2369 14.8499 24.7542 15.0599 25.0775Z" fill="#FFB151"/>
<path d="M25.7141 22.0387C22.8548 23.7743 19.8357 27.8067 19.8526 28.4565C19.8547 28.5377 20.0644 28.4858 20.4325 28.329C22.1218 27.4121 23.9913 26.3171 26.06 25.0114C29.9638 22.5474 32.7972 20.4158 34.8464 18.5917C34.4575 17.8662 30.9245 18.8761 25.7141 22.0387Z" fill="#C1773A"/>
</svg>
