<svg width="40" height="40" viewBox="0 0 40 40" fill="none" xmlns="http://www.w3.org/2000/svg">
<path d="M39.1984 17.9176L6.99327 25.3999L0.814453 16.5357L33.0195 9.05304L39.1984 17.9176Z" fill="#47A047"/>
<path d="M35.6271 17.1734L23.4678 20.0008C25.0055 19.1718 25.466 17.6411 24.4599 16.1956C24.0772 15.65 23.5316 15.1753 22.8868 14.7995C21.8169 14.1833 20.4847 13.836 19.1738 13.8501L31.3402 11.0231C31.8787 10.8954 32.481 10.9805 32.8707 11.2002C32.9983 11.2781 33.1046 11.3701 33.1825 11.4763L36.4137 16.1036C36.7042 16.5288 36.357 17.0035 35.6271 17.1734Z" fill="#96D696"/>
<path d="M31.8606 11.7384C31.9378 11.783 32.0013 11.8369 32.0455 11.8989C32.2181 12.1497 32.0123 12.4317 31.58 12.531C31.2612 12.6069 30.9065 12.558 30.6769 12.4255C30.5985 12.3802 30.5345 12.3252 30.4917 12.262C30.3146 12.0137 30.5248 11.7291 30.9482 11.6298C31.2728 11.5553 31.6284 11.6044 31.8606 11.7384Z" fill="#47A047"/>
<path d="M33.2932 17.2117C33.2353 17.3449 33.0735 17.4442 32.8123 17.5069C32.5467 17.5669 32.3122 17.5617 32.1087 17.486C32.0506 17.4643 31.9958 17.4386 31.9443 17.4089C31.8155 17.3345 31.7074 17.2348 31.6196 17.1098C31.4924 16.9322 31.4646 16.7754 31.5177 16.6397C31.5803 16.5038 31.7374 16.4072 32.0032 16.3471C32.2645 16.2844 32.4988 16.2897 32.7023 16.3654C32.7647 16.3873 32.8228 16.414 32.8772 16.4455C33.0041 16.5188 33.1099 16.618 33.1959 16.7441C33.3185 16.9192 33.351 17.0733 33.2932 17.2117ZM32.6988 17.3422C32.8607 17.3058 32.9551 17.2404 32.9727 17.1464C32.9992 17.0523 32.9624 16.9427 32.8715 16.8173C32.8034 16.7128 32.7165 16.6301 32.6136 16.5707C32.5929 16.5588 32.5716 16.5479 32.5498 16.5378C32.4233 16.4803 32.279 16.4699 32.1168 16.5064C31.9546 16.5431 31.8648 16.611 31.8383 16.705C31.8163 16.8016 31.8486 16.9087 31.9348 17.0367C32.0068 17.1388 32.094 17.221 32.1968 17.2804C32.2176 17.2924 32.2392 17.3034 32.2612 17.3136C32.3876 17.3711 32.5365 17.3841 32.6988 17.3422Z" fill="#414A61"/>
<path d="M30.8009 16.6578L31.5783 17.7784L31.2675 17.849L30.6084 16.8955L30.2164 16.987L30.0981 16.8199L30.8009 16.6578Z" fill="#414A61"/>
<path d="M12.5328 18.1633C12.8371 18.339 13.0866 18.5522 13.2579 18.7972C13.9353 19.7662 13.1298 20.8685 11.4543 21.2552C10.2069 21.5457 8.82831 21.3572 7.92988 20.8385C7.62513 20.6626 7.37555 20.4487 7.20514 20.2025C6.52782 19.2335 7.33781 18.1339 9.00874 17.7446C10.2569 17.4539 11.6338 17.6443 12.5328 18.1633Z" fill="#47A047"/>
<path d="M27.2742 12.8C27.3529 12.8454 27.4174 12.9007 27.4614 12.9646C27.6341 13.2154 27.4283 13.4974 26.9959 13.5967C26.6772 13.6726 26.3225 13.6237 26.0929 13.4912C26.0145 13.4459 25.9505 13.3909 25.9076 13.3277C25.7306 13.0794 25.9408 12.7948 26.3686 12.693C26.691 12.6189 27.0437 12.6669 27.2742 12.8Z" fill="#47A047"/>
<path d="M29.5657 12.2693C29.6448 12.315 29.7096 12.3705 29.7536 12.4343C29.9309 12.6825 29.7205 12.9672 29.2881 13.0665C28.9674 13.1389 28.6127 13.0895 28.3807 12.9556C28.3034 12.9109 28.2396 12.8569 28.1953 12.7949C28.0226 12.544 28.2284 12.262 28.6608 12.1627C28.9795 12.0869 29.3342 12.1357 29.5657 12.2693Z" fill="#47A047"/>
<path d="M35.1983 16.7702C35.1403 16.9034 34.9786 17.0027 34.7173 17.0654C34.4518 17.1254 34.2172 17.1202 34.0137 17.0445C33.9556 17.0229 33.9009 16.9972 33.8493 16.9674C33.7202 16.8929 33.6111 16.7926 33.5201 16.6658C33.3975 16.4907 33.3694 16.3341 33.4228 16.1982C33.4851 16.0625 33.6425 15.9657 33.9037 15.903C34.1693 15.843 34.4038 15.8482 34.6073 15.9239C34.6678 15.9464 34.725 15.9732 34.7788 16.0043C34.9059 16.0776 35.0133 16.1753 35.0964 16.3001C35.2236 16.4777 35.256 16.6318 35.1983 16.7702ZM34.6038 16.9008C34.7658 16.8643 34.8601 16.799 34.8777 16.7049C34.8998 16.6134 34.8674 16.5012 34.7765 16.3759C34.7047 16.2691 34.6203 16.1879 34.5183 16.129C34.4979 16.1172 34.4767 16.1064 34.4549 16.0964C34.3283 16.0389 34.1795 16.0258 34.0218 16.065C33.8596 16.1016 33.7609 16.1695 33.7433 16.2635C33.7168 16.3576 33.7489 16.4699 33.8354 16.5927C33.9111 16.6968 33.9989 16.7795 34.0992 16.8374C34.1195 16.8491 34.1404 16.8598 34.1616 16.8695C34.2927 16.9296 34.437 16.94 34.6038 16.9008Z" fill="#414A61"/>
<path d="M17.1215 19.6553C18.1894 20.2718 19.5288 20.6224 20.8392 20.6106L8.67565 23.4362C8.13361 23.5631 7.53515 23.4797 7.14399 23.2539C7.01193 23.1776 6.90353 23.0851 6.8289 22.979L3.6011 18.3506C3.31005 17.9275 3.65935 17.452 4.38416 17.2823L16.5487 14.4565C15.0089 15.2849 14.539 16.8178 15.546 18.2643C15.9273 18.811 16.4746 19.2818 17.1215 19.6553ZM11.4546 21.2552C13.1301 20.8685 13.9356 19.7662 13.2583 18.7972C13.0869 18.5522 12.8374 18.3389 12.5331 18.1632C11.6341 17.6442 10.2572 17.4538 9.00907 17.7445C7.33814 18.1338 6.52813 19.2335 7.20545 20.2025C7.37587 20.4486 7.62545 20.6625 7.93019 20.8385C8.82862 21.3572 10.2072 21.5457 11.4546 21.2552Z" fill="#96D696"/>
<path d="M39.1997 17.9195L39.1866 22.5404L6.98242 30.0238L6.99552 25.4029L39.1997 17.9195Z" fill="#47A047"/>
<path d="M39.1913 21.0252L6.98726 28.4494L6.98633 28.7811L39.1903 21.3572L39.1913 21.0252Z" fill="#5FAF5F"/>
<path d="M39.1927 20.4408L6.98872 27.8646L6.98779 28.1967L39.1918 20.7728L39.1927 20.4408Z" fill="#5FAF5F"/>
<path d="M39.1996 18.1037L6.99556 25.5275L6.99463 25.8592L39.1986 18.4353L39.1996 18.1037Z" fill="#5FAF5F"/>
<path d="M39.1961 19.272L6.99214 26.6959L6.99121 27.0279L39.1952 19.6041L39.1961 19.272Z" fill="#5FAF5F"/>
<path d="M39.1947 19.8564L6.99067 27.2803L6.98975 27.6123L39.1937 20.1885L39.1947 19.8564Z" fill="#5FAF5F"/>
<path d="M39.1878 22.1935L6.98389 29.6178L6.98291 29.9494L39.1869 22.5256L39.1878 22.1935Z" fill="#5FAF5F"/>
<path d="M39.1976 18.688L6.9936 26.1115L6.99268 26.4435L39.1967 19.0197L39.1976 18.688Z" fill="#5FAF5F"/>
<path d="M39.1893 21.6096L6.9853 29.0334L6.98438 29.365L39.1884 21.9412L39.1893 21.6096Z" fill="#5FAF5F"/>
<path d="M18.9755 22.6192L18.9624 27.2399L23.5826 26.1663L23.5957 21.5457L18.9755 22.6192Z" fill="#ED5D71"/>
<path d="M19.5619 22.4829L19.5488 27.1035L24.169 26.03L24.1821 21.4093L19.5619 22.4829Z" fill="#E3E7F0"/>
<path d="M6.99563 25.4029L6.98253 30.0238L0.799805 21.1588L0.812905 16.5379L6.99563 25.4029Z" fill="#5FAF5F"/>
<path d="M36.1726 16.8455L36.1587 21.7195L25.2651 28.0502L25.279 23.1761L36.1726 16.8455Z" fill="#47A047"/>
<path d="M25.279 23.1762L25.2652 28.0502L2.16064 14.7108L2.17446 9.83673L25.279 23.1762Z" fill="#47A047"/>
<path d="M2.16699 12.4547L25.2716 25.7873L25.2723 25.5378L2.16768 12.2052L2.16699 12.4547Z" fill="#77CB77"/>
<path d="M2.16846 11.8775L25.273 25.2101L25.2738 24.961L2.16919 11.6281L2.16846 11.8775Z" fill="#77CB77"/>
<path d="M25.2788 23.1761L2.1742 9.83655L2.17334 10.1466L25.2779 23.4792L25.2788 23.1761Z" fill="#77CB77"/>
<path d="M2.16064 14.7108L25.2652 28.05L25.2657 27.8459L2.16121 14.5132L2.16064 14.7108Z" fill="#77CB77"/>
<path d="M2.16357 13.6085L25.2682 26.9411L25.2688 26.692L2.16427 13.3594L2.16357 13.6085Z" fill="#77CB77"/>
<path d="M2.16211 14.1853L25.2667 27.5182L25.2674 27.2688L2.16284 13.9362L2.16211 14.1853Z" fill="#77CB77"/>
<path d="M2.16553 13.0314L25.2701 26.3644L25.2708 26.1149L2.16622 12.7823L2.16553 13.0314Z" fill="#77CB77"/>
<path d="M25.2772 23.8068L2.17257 10.4742L2.17188 10.7236L25.2765 24.0559L25.2772 23.8068Z" fill="#77CB77"/>
<path d="M2.17115 11.0513L2.17041 11.3004L25.275 24.6331L25.2757 24.384L2.17115 11.0513Z" fill="#77CB77"/>
<path d="M16.4426 18.0745L16.4288 22.9486L12.3223 20.5777L12.3361 15.7037L16.4426 18.0745Z" fill="#D3DBEA"/>
<path d="M11.901 15.4523L11.8872 20.3263L12.3225 20.5777L12.3363 15.7037L11.901 15.4523Z" fill="#E34454"/>
<path d="M16.444 18.075L16.4302 22.9491L16.8654 23.2005L16.8792 18.3264L16.444 18.075Z" fill="#E34454"/>
<path d="M36.1725 16.8455L25.2789 23.1761L2.17432 9.83671L13.0679 3.50604L36.1725 16.8455Z" fill="#47A047"/>
<path d="M24.7402 19.0627C24.8589 19.1313 24.8974 19.2072 24.8513 19.2929C24.8139 19.3786 24.717 19.4643 24.5611 19.555C24.4051 19.6456 24.2533 19.7044 24.1055 19.7263C23.9618 19.7509 23.8306 19.7289 23.7118 19.6603C23.5973 19.5942 23.5588 19.5182 23.5965 19.4325C23.6383 19.3443 23.7307 19.2562 23.8866 19.1656C24.0385 19.0773 24.1946 19.021 24.3423 18.999C24.4944 18.9745 24.6256 18.9966 24.7402 19.0627Z" fill="#96D696"/>
<path d="M25.1685 19.3052C25.1313 19.4349 25.0093 19.5647 24.7944 19.6896C24.5754 19.8169 24.3516 19.888 24.1319 19.9076C23.908 19.9296 23.7006 19.8879 23.5097 19.7777C23.3231 19.67 23.2463 19.5475 23.2836 19.4178C23.3167 19.2904 23.4428 19.1631 23.6619 19.0358C23.8768 18.9109 24.0963 18.8374 24.3202 18.8154C24.5442 18.7932 24.7516 18.8398 24.9382 18.9476C25.1291 19.0578 25.2059 19.1753 25.1685 19.3052ZM24.1056 19.7263C24.2533 19.7043 24.4052 19.6456 24.5611 19.5549C24.717 19.4643 24.8139 19.3786 24.8514 19.2929C24.8974 19.2072 24.859 19.1312 24.7402 19.0627C24.6257 18.9965 24.4944 18.9745 24.3424 18.999C24.1946 19.021 24.0385 19.0773 23.8867 19.1656C23.7307 19.2562 23.6384 19.3443 23.5966 19.4324C23.5589 19.5182 23.5973 19.5942 23.7118 19.6603C23.8306 19.7289 23.9618 19.7509 24.1056 19.7263Z" fill="#4C5671"/>
<path d="M26.1059 19.8513C26.3663 20.0016 26.1855 20.1932 25.9268 20.3435C25.6655 20.4954 25.3397 20.6002 25.0776 20.4489C24.8193 20.2998 24.9927 20.1051 25.2524 19.9542C25.4042 19.8659 25.5603 19.8096 25.7081 19.7876C25.8601 19.7631 25.9914 19.7851 26.1059 19.8513Z" fill="#96D696"/>
<path d="M26.1602 20.4782C25.7705 20.7047 25.2769 20.7981 24.8755 20.5663C24.4746 20.3349 24.6278 20.0567 25.0276 19.8243C25.2426 19.6994 25.462 19.6259 25.6859 19.6039C25.91 19.5818 26.1173 19.6284 26.304 19.7362C26.7034 19.9668 26.5574 20.2474 26.1602 20.4782ZM25.4713 20.5149C25.6191 20.4929 25.7709 20.4341 25.9269 20.3435C26.1857 20.1931 26.3663 20.0016 26.106 19.8512C25.9914 19.7851 25.8602 19.7631 25.7081 19.7876C25.5604 19.8096 25.4043 19.8659 25.2524 19.9541C24.9928 20.105 24.8193 20.2997 25.0776 20.4489C25.1964 20.5174 25.3276 20.5394 25.4713 20.5149Z" fill="#4C5671"/>
<path d="M31.5675 16.6969C31.8772 16.8757 31.8787 17.1647 31.5712 17.3434C31.2635 17.5223 30.7647 17.5222 30.455 17.3434C30.1454 17.1647 30.1436 16.8758 30.4514 16.6969C30.7589 16.5182 31.2579 16.5181 31.5675 16.6969Z" fill="#47A047"/>
<path d="M28.28 14.799C28.5853 14.9753 28.5869 15.2643 28.2793 15.443C27.9716 15.6219 27.4728 15.6218 27.1674 15.4455C26.8578 15.2667 26.856 14.9778 27.1638 14.799C27.4713 14.6203 27.9703 14.6202 28.28 14.799Z" fill="#5FAF5F"/>
<path d="M29.9217 15.7467C30.2314 15.9255 30.2329 16.2145 29.9254 16.3932C29.6176 16.5721 29.1189 16.572 28.8092 16.3932C28.5038 16.2169 28.5021 15.928 28.8098 15.7492C29.1173 15.5705 29.6163 15.5704 29.9217 15.7467Z" fill="#47A047"/>
<path d="M24.0307 18.4626L22.6525 19.2635L22.4277 19.1337L23.5995 18.4528L23.3195 18.2912L23.526 18.1712L24.0307 18.4626Z" fill="#4C5671"/>
<path d="M21.9977 10.5373C20.1954 10.0765 17.7456 10.4051 15.9707 11.4366C14.1926 12.4699 13.6349 13.8883 14.4365 14.9301L5.71765 9.89629C5.20018 9.59753 5.19325 9.11015 5.71156 8.80894L11.4006 5.50284C11.9189 5.20163 12.7603 5.20405 13.2778 5.50281L21.9977 10.5373ZM9.99533 10.4865C11.1957 11.1796 13.1321 11.1796 14.3249 10.4864C15.5174 9.79335 15.5111 8.67172 14.3107 7.97867C13.1103 7.28563 11.1739 7.28563 9.98141 7.97866C8.78863 8.67183 8.79494 9.79347 9.99533 10.4865Z" fill="#96D696"/>
<path d="M14.3107 7.97865C15.5111 8.6717 15.5174 9.79333 14.3248 10.4864C13.132 11.1795 11.1956 11.1795 9.99524 10.4865C8.79484 9.79344 8.78854 8.6718 9.98131 7.97864C11.1739 7.28561 13.1103 7.28559 14.3107 7.97865Z" fill="#47A047"/>
<path d="M23.1214 10.9811C23.452 11.172 23.7086 11.3919 23.8933 11.6318C24.697 12.6755 24.1376 14.0957 22.3627 15.1271C20.5847 16.1604 18.1377 16.4881 16.3342 16.0259C15.9192 15.9195 15.5382 15.7713 15.2074 15.5803C14.8772 15.3897 14.6208 15.1698 14.4363 14.9301C13.6347 13.8883 14.1924 12.4699 15.9705 11.4366C17.7454 10.4051 20.1952 10.0764 21.9975 10.5372C22.4118 10.6432 22.7916 10.7907 23.1214 10.9811Z" fill="#47A047"/>
<path d="M32.6115 16.6651C33.1332 16.9663 33.1402 17.4537 32.6219 17.7549L26.9328 21.061C26.4145 21.3622 25.5731 21.3598 25.0514 21.0586L16.3345 16.0259C18.1379 16.4881 20.5849 16.1604 22.363 15.1271C24.1378 14.0957 24.6972 12.6756 23.8935 11.6318L32.6115 16.6651ZM25.4975 20.6961C25.7173 20.6765 25.941 20.6055 26.16 20.4782C26.5573 20.2473 26.7033 19.9668 26.3039 19.7361C26.1172 19.6284 25.9099 19.5818 25.6858 19.6039C25.4619 19.6259 25.2424 19.6994 25.0275 19.8243C24.6277 20.0567 24.4745 20.3348 24.8754 20.5663C25.0662 20.6765 25.2737 20.7181 25.4975 20.6961ZM24.1317 19.9076C24.3514 19.888 24.5752 19.8169 24.7942 19.6896C25.0091 19.5647 25.1311 19.4349 25.1683 19.3051C25.2058 19.1753 25.1289 19.0578 24.938 18.9476C24.7514 18.8398 24.5441 18.7932 24.32 18.8154C24.0961 18.8373 23.8766 18.9108 23.6617 19.0357C23.4427 19.163 23.3165 19.2904 23.2834 19.4178C23.2461 19.5475 23.3229 19.67 23.5095 19.7777C23.7004 19.8879 23.9078 19.9295 24.1317 19.9076ZM30.4549 17.3434C30.7646 17.5222 31.2634 17.5223 31.5711 17.3434C31.8786 17.1647 31.8771 16.8757 31.5674 16.6969C31.2578 16.5181 30.7588 16.5182 30.4513 16.6969C30.1435 16.8758 30.1453 17.1647 30.4549 17.3434ZM27.1676 15.4455C27.473 15.6218 27.9718 15.6219 28.2795 15.4431C28.587 15.2644 28.5855 14.9753 28.2801 14.799C27.9705 14.6202 27.4715 14.6203 27.164 14.799C26.8562 14.9778 26.858 15.2667 27.1676 15.4455ZM28.8097 15.7492C28.502 15.928 28.5037 16.2169 28.8091 16.3933C29.1188 16.572 29.6176 16.5721 29.9253 16.3933C30.2328 16.2145 30.2313 15.9255 29.9217 15.7467C29.6163 15.5704 29.1173 15.5705 28.8097 15.7492ZM22.6524 19.2635L24.0306 18.4626L23.5259 18.1712L23.3194 18.2912L23.5994 18.4528L22.4276 19.1337L22.6524 19.2635Z" fill="#96D696"/>
<path d="M27.3361 11.7438L16.4425 18.0745L12.3359 15.7036L23.2263 9.37103L27.3361 11.7438Z" fill="#E3E7F0"/>
<path d="M22.7945 9.1217L11.9009 15.4522L12.3361 15.7037L23.2265 9.37116L22.7945 9.1217Z" fill="#ED5D71"/>
<path d="M27.7655 11.9916L27.3365 11.7438L16.4429 18.0746L16.8791 18.3264L27.7655 11.9916Z" fill="#ED5D71"/>
<path d="M36.1799 19.4636L25.2863 25.7873L25.2856 25.5379L36.1792 19.2141L36.1799 19.4636Z" fill="#5FAF5F"/>
<path d="M36.178 18.8864L25.2844 25.2102L25.2837 24.9611L36.1773 18.637L36.178 18.8864Z" fill="#5FAF5F"/>
<path d="M25.2788 23.1761L36.1724 16.8455L36.1733 17.1555L25.2797 23.4792L25.2788 23.1761Z" fill="#5FAF5F"/>
<path d="M36.1861 21.7197L25.2926 28.05L25.292 27.8459L36.1855 21.5222L36.1861 21.7197Z" fill="#5FAF5F"/>
<path d="M36.1829 20.6174L25.2893 26.9411L25.2886 26.692L36.1822 20.3683L36.1829 20.6174Z" fill="#5FAF5F"/>
<path d="M36.1848 21.1942L25.2912 27.5183L25.2905 27.2688L36.1841 20.9451L36.1848 21.1942Z" fill="#5FAF5F"/>
<path d="M36.1814 20.0403L25.2878 26.3644L25.2871 26.1149L36.1807 19.7912L36.1814 20.0403Z" fill="#5FAF5F"/>
<path d="M25.2808 23.8068L36.1744 17.4831L36.1751 17.7326L25.2815 24.056L25.2808 23.8068Z" fill="#5FAF5F"/>
<path d="M36.1758 18.0602L36.1766 18.3094L25.283 24.6331L25.2822 24.384L36.1758 18.0602Z" fill="#5FAF5F"/>
<path d="M6.9855 28.958L0.802734 20.1072L0.801758 20.4533L6.98452 29.3041L6.9855 28.958Z" fill="#47A047"/>
<path d="M6.99424 25.912L0.811523 17.0608L0.810547 17.4073L6.99326 26.2581L6.99424 25.912Z" fill="#47A047"/>
<path d="M6.98745 28.3487L0.804687 19.4983L0.803711 19.8444L6.98647 28.6952L6.98745 28.3487Z" fill="#47A047"/>
<path d="M6.99595 25.403L0.813232 16.5377L0.8125 16.7979L6.99526 25.6487L6.99595 25.403Z" fill="#47A047"/>
<path d="M6.98936 27.7397L0.806641 18.8889L0.805664 19.235L6.98838 28.0858L6.98936 27.7397Z" fill="#47A047"/>
<path d="M6.99087 27.1303L0.808105 18.2795L0.807129 18.6256L6.98989 27.4764L6.99087 27.1303Z" fill="#47A047"/>
<path d="M6.99282 26.5209L0.810059 17.6702L0.809082 18.0167L6.99185 26.867L6.99282 26.5209Z" fill="#47A047"/>
<path d="M6.98398 29.567L0.80127 20.717L0.800293 21.0627L6.98301 29.9135L6.98398 29.567Z" fill="#47A047"/>
<path d="M24.1242 31.8716L24.1217 32.6809C24.1217 32.1081 23.7457 31.5404 22.9938 31.1071C22.2443 30.6739 21.2658 30.4598 20.2872 30.4598C19.3087 30.4573 18.3301 30.6739 17.5856 31.1071C16.8461 31.5379 16.4751 32.1007 16.4751 32.6634L16.4776 31.8517C16.4776 31.2865 16.8486 30.7262 17.5881 30.2955C18.3326 29.8622 19.3087 29.6455 20.2897 29.6455C21.2682 29.6481 22.2468 29.8622 22.9963 30.2955C23.7507 30.7312 24.1267 31.3014 24.1242 31.8716Z" fill="#EFA143"/>
<path d="M22.9967 30.6511C24.4942 31.5157 24.5021 32.9182 23.0143 33.7828C21.5249 34.6484 19.1036 34.6484 17.6061 33.7838C16.107 32.9183 16.0991 31.5158 17.5885 30.6502C19.0763 29.7856 21.4976 29.7856 22.9967 30.6511Z" fill="#FFDD94"/>
<path d="M24.8874 31.8976L24.8849 32.5299C24.883 33.2053 24.4393 33.8798 23.553 34.3949C21.7671 35.4327 18.864 35.4317 17.0681 34.3949C16.1632 33.8724 15.711 33.1868 15.7129 32.5022L15.7154 31.8699C15.7134 32.5545 16.1656 33.2401 17.0706 33.7626C18.8665 34.7994 21.7695 34.8004 23.5555 33.7626C24.4418 33.2475 24.8855 32.573 24.8874 31.8976Z" fill="#EFA143"/>
<path d="M23.5343 30.0063C25.3301 31.0432 25.3396 32.7257 23.5555 33.7626C21.7695 34.8004 18.8665 34.7994 17.0706 33.7626C15.273 32.7248 15.2618 31.0432 17.0478 30.0053C18.8319 28.9685 21.7367 28.9685 23.5343 30.0063ZM17.6062 33.4286C19.1037 34.2932 21.525 34.2932 23.0144 33.4276C24.5022 32.563 24.4943 31.1605 22.9968 30.2959C21.4977 29.4304 19.0764 29.4304 17.5886 30.295C16.0992 31.1606 16.1071 32.5631 17.6062 33.4286Z" fill="#FEBB61"/>
<path d="M19.8354 33.0947L21.1716 32.3164V32.6175L19.8354 33.3958L19.527 33.2122L19.505 32.5587C19.4977 32.4264 19.4903 32.3311 19.4683 32.2576C19.4536 32.1916 19.4095 32.1404 19.3435 32.1034C19.2774 32.0669 19.2113 32.0522 19.1232 32.0522C19.0425 32.0522 18.9617 32.0669 18.8957 32.1034C18.8589 32.1257 18.8369 32.1475 18.8149 32.1769V32.4487L18.2789 32.5293C18.2422 32.4487 18.2349 32.3752 18.2349 32.3092V32.0081C18.2349 32.0816 18.2496 32.1547 18.2789 32.2282L18.7782 32.1622V32.0005C18.7782 31.9127 18.8222 31.8539 18.8957 31.8027C18.9617 31.7657 19.0425 31.751 19.1232 31.751C19.2113 31.751 19.2774 31.7657 19.3435 31.8027C19.4095 31.8464 19.4536 31.898 19.4756 31.964C19.4903 32.0299 19.4977 32.1257 19.505 32.2576L19.527 32.9111L19.8354 33.0947Z" fill="#EFA143"/>
<path d="M20.5254 31.237V30.9362C20.5254 30.8774 20.5694 30.8186 20.6575 30.7673C20.7824 30.6938 20.9365 30.672 21.1127 30.7085C21.289 30.7379 21.4725 30.8114 21.6634 30.9215C21.8543 31.0315 21.9791 31.1344 22.0305 31.237C22.0525 31.2739 22.0599 31.3033 22.0599 31.3327V31.6334C22.0599 31.604 22.0525 31.5675 22.0305 31.5381C21.9791 31.4356 21.8543 31.3327 21.6634 31.2226C21.4725 31.1122 21.289 31.0391 21.1127 31.0097C20.9365 30.9727 20.7824 30.995 20.6575 31.0685C20.5694 31.1122 20.5254 31.171 20.5254 31.237Z" fill="#EFA143"/>
<path d="M22.6109 31.2886V31.5897C22.6109 31.7364 22.5007 31.8758 22.2805 32.0006C22.0162 32.1547 21.7298 32.2135 21.4215 32.1916C21.1131 32.1622 20.8047 32.0594 20.511 31.8905C20.21 31.7145 20.0412 31.5381 19.9898 31.3621C19.9824 31.3327 19.9751 31.3033 19.9751 31.2739V30.9728C19.9751 31.0022 19.9824 31.0316 19.9898 31.061C20.0412 31.237 20.21 31.4134 20.511 31.5897C20.8047 31.7586 21.1131 31.8611 21.4215 31.8905C21.7372 31.9199 22.0162 31.8539 22.2805 31.6998C22.5007 31.575 22.6109 31.4356 22.6109 31.2886Z" fill="#EFA143"/>
<path d="M22.5985 31.208C22.6463 31.3866 22.5398 31.5517 22.2791 31.7032C22.018 31.8549 21.7334 31.9171 21.4249 31.89C21.1117 31.8603 20.8075 31.7601 20.5122 31.5896C20.2122 31.4164 20.0383 31.2405 19.9905 31.0619C19.9381 30.8806 20.0446 30.7155 20.3056 30.5638C20.5663 30.4123 20.851 30.3501 21.1642 30.3799C21.4726 30.4069 21.7769 30.5071 22.0769 30.6803C22.3722 30.8508 22.5461 31.0267 22.5985 31.208ZM21.4746 31.5625C21.6522 31.5951 21.8063 31.5761 21.9322 31.5029C22.0577 31.43 22.09 31.3406 22.0335 31.2377C21.9767 31.135 21.8547 31.032 21.6626 30.9211C21.4704 30.8101 21.2876 30.7371 21.1147 30.7073C20.9369 30.6748 20.7827 30.6938 20.6572 30.7668C20.5313 30.8399 20.499 30.9293 20.5558 31.0321C20.6077 31.1322 20.7344 31.2378 20.9265 31.3488C21.1187 31.4598 21.2968 31.5301 21.4746 31.5625Z" fill="#FEBB61"/>
<path d="M21.1749 32.3177L19.8383 33.0944L19.5243 32.9131L19.5067 32.2608C19.5012 32.1282 19.4915 32.0307 19.4722 31.9604C19.4533 31.8954 19.4109 31.844 19.3453 31.8061C19.2797 31.7682 19.2094 31.7493 19.1253 31.7493C19.0412 31.7493 18.9619 31.7683 18.8967 31.8061C18.7802 31.8738 18.7481 31.9902 18.8144 32.1526L18.2776 32.2311C18.2257 32.0984 18.2203 31.982 18.2523 31.8819C18.2891 31.7791 18.3868 31.6789 18.5498 31.5842C18.7128 31.4895 18.9086 31.4354 19.1422 31.4245C19.3664 31.4137 19.5722 31.457 19.755 31.5626C19.8534 31.6194 19.9194 31.6897 19.9572 31.7709C19.9998 31.8494 20.0237 31.9712 20.0292 32.1309L20.0456 32.5341L20.7952 32.0985L21.1749 32.3177Z" fill="#FEBB61"/>
<path d="M17.5373 33.1927L17.5348 34.0019C17.5348 33.4291 17.1588 32.8615 16.4069 32.4282C15.6574 31.995 14.6788 31.7809 13.7003 31.7809C12.7217 31.7783 11.7432 31.995 10.9987 32.4282C10.2592 32.8589 9.88818 33.4217 9.88818 33.9844L9.89066 33.1727C9.89066 32.6075 10.2617 32.0473 11.0012 31.6165C11.7457 31.1832 12.7217 30.9666 13.7028 30.9666C14.6813 30.9691 15.6599 31.1832 16.4094 31.6165C17.1638 32.0523 17.5398 32.6225 17.5373 33.1927Z" fill="#EFA143"/>
<path d="M16.4098 31.9722C17.9073 32.8368 17.9152 34.2393 16.4274 35.1039C14.938 35.9695 12.5167 35.9695 11.0192 35.1049C9.52005 34.2393 9.51215 32.8369 11.0016 31.9713C12.4894 31.1067 14.9106 31.1067 16.4098 31.9722Z" fill="#FFDD94"/>
<path d="M18.3005 33.2186L18.298 33.8509C18.2961 34.5264 17.8524 35.2008 16.9661 35.7159C15.1801 36.7538 12.2771 36.7528 10.4812 35.7159C9.57625 35.1935 9.12404 34.5078 9.12598 33.8233L9.12845 33.191C9.12651 33.8755 9.57871 34.5612 10.4837 35.0836C12.2796 36.1205 15.1826 36.1215 16.9686 35.0836C17.8549 34.5685 18.2986 33.8941 18.3005 33.2186Z" fill="#EFA143"/>
<path d="M16.9473 31.3274C18.7432 32.3642 18.7527 34.0468 16.9685 35.0836C15.1826 36.1215 12.2795 36.1205 10.4837 35.0836C8.6861 34.0458 8.67491 32.3643 10.4609 31.3264C12.245 30.2896 15.1498 30.2895 16.9473 31.3274ZM11.0193 34.7497C12.5168 35.6143 14.9381 35.6142 16.4275 34.7487C17.9153 33.8841 17.9074 32.4816 16.4099 31.617C14.9108 30.7515 12.4895 30.7515 11.0017 31.6161C9.51226 32.4817 9.52016 33.8841 11.0193 34.7497Z" fill="#FEBB61"/>
<path d="M13.774 34.2274L14.1851 33.9922V34.2862L13.774 34.5282L12.2322 33.6327L11.8724 33.8456L11.5127 33.6327V33.3391L11.8724 33.5445L12.2322 33.3391L13.774 34.2274Z" fill="#EFA143"/>
<path d="M15.382 33.618C15.125 33.7721 14.8313 33.8309 14.523 33.8087C14.2146 33.7793 13.9136 33.6768 13.6126 33.5076C13.3116 33.3315 13.1354 33.1555 13.0913 32.9791C13.084 32.9497 13.0767 32.9204 13.0767 32.891V32.5974C13.0767 32.6192 13.084 32.6486 13.0913 32.678C13.1354 32.8544 13.3116 33.0304 13.6126 33.2068C13.9136 33.3756 14.2146 33.4785 14.523 33.5076C14.8313 33.5298 15.125 33.471 15.382 33.324C15.6096 33.1921 15.7124 33.0526 15.7124 32.9057V33.2068C15.7124 33.3534 15.6096 33.4932 15.382 33.618Z" fill="#EFA143"/>
<path d="M13.627 32.8544V32.5608C13.627 32.4945 13.6783 32.4357 13.7591 32.3844C13.8912 32.3109 14.0454 32.289 14.2143 32.3256C14.3905 32.355 14.5814 32.4285 14.7649 32.5314C14.9631 32.6486 15.0806 32.7515 15.1394 32.8544C15.1614 32.8909 15.1687 32.9203 15.1687 32.9497V33.2433C15.1687 33.2139 15.154 33.1849 15.1394 33.1555C15.0806 33.0526 14.9558 32.9426 14.7649 32.8321C14.5814 32.7221 14.3905 32.6561 14.2143 32.6192C14.0381 32.5898 13.8912 32.612 13.7591 32.6855C13.671 32.7368 13.627 32.7956 13.627 32.8544Z" fill="#EFA143"/>
<path d="M15.704 32.8212C15.7515 32.9999 15.6497 33.1677 15.3844 33.3219C15.1234 33.4735 14.8341 33.5331 14.5255 33.506C14.217 33.4789 13.9128 33.3788 13.6128 33.2056C13.3128 33.0324 13.1389 32.8565 13.0912 32.6779C13.0434 32.4992 13.1499 32.3342 13.4109 32.1825C13.6762 32.0283 13.9608 31.9661 14.2696 31.993C14.5781 32.0201 14.8823 32.1202 15.1823 32.2934C15.4823 32.4667 15.6562 32.6426 15.704 32.8212ZM14.5799 33.1812C14.7575 33.2137 14.907 33.192 15.0328 33.1189C15.1632 33.0431 15.1999 32.9566 15.1388 32.8564C15.082 32.7536 14.9599 32.6454 14.7677 32.5344C14.5802 32.4261 14.3929 32.3558 14.2154 32.3232C14.0421 32.2881 13.8928 32.3097 13.7625 32.3855C13.6366 32.4586 13.5997 32.5452 13.6565 32.648C13.7178 32.7481 13.8399 32.8564 14.0274 32.9646C14.2196 33.0756 14.4069 33.1459 14.5799 33.1812Z" fill="#FEBB61"/>
<path d="M14.1874 33.9904L13.7776 34.2286L12.2307 33.3355L11.8722 33.5438L11.5112 33.3354L12.2796 32.8889L14.1874 33.9904Z" fill="#FEBB61"/>
</svg>
