<svg width="22" height="22" viewBox="0 0 22 22" fill="none" xmlns="http://www.w3.org/2000/svg">
<path d="M19.587 16.9934L18.0713 13.2063V7.85713C18.0713 5.98168 17.3263 4.18303 16.0002 2.85688C14.674 1.53073 12.8754 0.785706 10.9999 0.785706C9.12445 0.785706 7.3258 1.53073 5.99965 2.85688C4.6735 4.18303 3.92848 5.98168 3.92848 7.85713V13.2063L2.41283 16.9934C2.36503 17.1127 2.34722 17.2419 2.36094 17.3696C2.37467 17.4974 2.41952 17.6198 2.49156 17.7262C2.5636 17.8326 2.66064 17.9197 2.77418 17.9799C2.88771 18.0401 3.01427 18.0715 3.14276 18.0714H7.14991C7.33024 18.9595 7.81205 19.7579 8.5137 20.3314C9.21536 20.9049 10.0937 21.2182 10.9999 21.2182C11.9061 21.2182 12.7845 20.9049 13.4861 20.3314C14.1878 19.7579 14.6696 18.9595 14.8499 18.0714H18.857C18.9855 18.0715 19.1121 18.0401 19.2256 17.9799C19.3392 17.9197 19.4362 17.8326 19.5083 17.7262C19.5803 17.6198 19.6251 17.4974 19.6389 17.3696C19.6526 17.2419 19.6348 17.1127 19.587 16.9934ZM10.9999 19.6428C10.5141 19.6408 10.0408 19.4888 9.64478 19.2075C9.24873 18.9262 8.94926 18.5294 8.78733 18.0714H13.2125C13.0506 18.5294 12.7511 18.9262 12.355 19.2075C11.959 19.4888 11.4857 19.6408 10.9999 19.6428ZM4.30326 16.5L5.44412 13.6494C5.48094 13.5564 5.49987 13.4572 5.49991 13.3571V7.85713C5.49991 6.39844 6.07937 4.9995 7.11082 3.96805C8.14227 2.9366 9.54121 2.35713 10.9999 2.35713C12.4586 2.35713 13.8575 2.9366 14.889 3.96805C15.9204 4.9995 16.4999 6.39844 16.4999 7.85713V13.3571C16.4999 13.4572 16.5189 13.5564 16.5557 13.6494L17.6965 16.5H4.30326Z" fill="black"/>
</svg>
