<svg width="30" height="30" viewBox="0 0 30 30" fill="none" xmlns="http://www.w3.org/2000/svg">
<rect x="0.25" y="0.25" width="29.5" height="29.5" rx="5.75" fill="white" fill-opacity="0.38" stroke="#FFB7B7" stroke-width="0.5"/>
<g clip-path="url(#clip0_100_11227)">
<path d="M21.2526 18.2753C20.2446 17.4233 19.6666 16.178 19.6666 14.8587V13C19.6666 10.654 17.9239 8.712 15.6666 8.38667V7.66667C15.6666 7.298 15.3679 7 14.9999 7C14.6319 7 14.3333 7.298 14.3333 7.66667V8.38667C12.0753 8.712 10.3333 10.654 10.3333 13V14.8587C10.3333 16.178 9.75525 17.4233 8.74125 18.2807C8.48192 18.5027 8.33325 18.8253 8.33325 19.1667C8.33325 19.81 8.85659 20.3333 9.49992 20.3333H20.4999C21.1433 20.3333 21.6666 19.81 21.6666 19.1667C21.6666 18.8253 21.5179 18.5027 21.2526 18.2753Z" fill="#E60000"/>
<path d="M14.9999 23C16.2072 23 17.2172 22.1393 17.4492 21H12.5505C12.7825 22.1393 13.7925 23 14.9999 23Z" fill="#E60000"/>
</g>
<defs>
<clipPath id="clip0_100_11227">
<rect width="16" height="16" fill="white" transform="translate(7 7)"/>
</clipPath>
</defs>
</svg>
