<svg width="19" height="10" viewBox="0 0 19 10" fill="none" xmlns="http://www.w3.org/2000/svg">
<path d="M18.1051 4.13092L16.8278 2.66463C17.1696 2.21485 17.3675 1.89101 17.3945 1.83703C17.6464 1.41424 17.5024 0.856509 17.0796 0.604631C16.6568 0.352753 16.0991 0.487687 15.8472 0.919478C15.8202 0.964456 13.2475 5.1924 9.3254 5.1924C5.40329 5.1924 3.01945 1.14437 2.85753 0.865504C2.73159 0.58664 2.47073 0.37974 2.13789 0.334762C1.63413 0.280788 1.20233 0.631618 1.13936 1.12638C1.09439 1.4862 1.4632 2.08891 1.868 2.63764L0.563653 4.13092C0.23981 4.50873 0.275775 5.07546 0.653591 5.3993C0.824508 5.55223 1.03141 5.62419 1.2473 5.62419C1.49918 5.62419 1.75106 5.51624 1.92198 5.31834L3.05543 4.02297C3.52321 4.49974 4.06294 4.9855 4.68364 5.42629L3.56819 7.4683C3.33431 7.90009 3.48722 8.44882 3.92801 8.6917C4.06294 8.76367 4.21588 8.79965 4.35981 8.79965C4.67466 8.79965 4.98948 8.62873 5.15141 8.33188L6.24887 6.32585C6.91455 6.62271 7.65221 6.82961 8.44382 6.92856V8.77266C8.44382 9.26742 8.84863 9.67222 9.34339 9.67222C9.83815 9.67222 10.243 9.26742 10.243 8.77266V6.93755C11.0346 6.8386 11.7632 6.61371 12.4289 6.31685L13.5353 8.34087C13.6973 8.63773 14.0031 8.80865 14.327 8.80865C14.4709 8.80865 14.6238 8.77266 14.7588 8.7007C15.1905 8.46681 15.3525 7.91808 15.1186 7.47729L14.0031 5.43528C14.6418 4.9945 15.1905 4.50873 15.6583 4.03197L16.7648 5.30035C16.9447 5.50725 17.1876 5.6062 17.4395 5.6062C17.6464 5.6062 17.8622 5.53424 18.0332 5.38131C18.411 5.05747 18.447 4.49074 18.1231 4.11293L18.1051 4.13092Z" fill="black"/>
</svg>
