<svg width="40" height="40" viewBox="0 0 40 40" fill="none" xmlns="http://www.w3.org/2000/svg">
<circle cx="20" cy="20" r="20" fill="white" fill-opacity="0.18"/>
<path d="M10.3125 13.4375V26.875C10.3125 27.9969 11.1406 28.75 12.375 28.75H27.1875C27.3594 28.75 27.5 28.6094 27.5 28.4375V20.9375H26.875V28.125H12.375C11.6812 28.125 10.9375 27.7969 10.9375 26.875C10.9375 25.9531 11.7437 25.625 12.5 25.625H12.8125C12.9844 25.625 13.125 25.4844 13.125 25.3125V13.75H26.875V15.9375H27.5V13.4375C27.5 13.2656 27.3594 13.125 27.1875 13.125H13.125V11.25C13.125 11.0781 12.9844 10.9375 12.8125 10.9375H12.5C11.2313 10.9375 10.3125 11.9875 10.3125 13.4375ZM12.5 11.5625V25C11.8594 25 11.3188 25.1812 10.9375 25.4969V13.4375C10.9375 12.3344 11.5812 11.5625 12.5 11.5625Z" fill="white"/>
<path d="M29.4125 16.2125C29.0594 15.8594 28.4406 15.8594 28.0875 16.2125L22.1219 22.1781C22.1 22.2 22.0844 22.2219 22.0687 22.2469L21.0656 24.0625H15.7812C15.0063 24.0625 14.375 24.6938 14.375 25.4688C14.375 26.2438 15.0063 26.875 15.7812 26.875H18.125V26.25H15.7812C15.35 26.25 15 25.9 15 25.4688C15 25.0375 15.35 24.6875 15.7812 24.6875H21.25C21.3031 24.6875 21.3531 24.675 21.4 24.65L23.375 23.5594C23.4 23.5469 23.425 23.5281 23.4438 23.5063L29.4094 17.5406C29.775 17.175 29.775 16.5813 29.4094 16.2156L29.4125 16.2125ZM23.0344 23.0313L22.0469 23.5781L22.5938 22.5906L27.2031 17.9813L27.6437 18.4219L23.0344 23.0313ZM28.9688 17.0969L28.0844 17.9813L27.6437 17.5406L28.5281 16.6563C28.6469 16.5375 28.8531 16.5375 28.9688 16.6563C29.0906 16.7781 29.0906 16.975 28.9688 17.0969Z" fill="white"/>
<path d="M18.75 19.0625V22.1875C18.75 22.3594 18.8906 22.5 19.0625 22.5H20.625C20.7969 22.5 20.9375 22.3594 20.9375 22.1875V20.625H22.1875C22.3594 20.625 22.5 20.4844 22.5 20.3125V19.0625C22.5 18.8906 22.3594 18.75 22.1875 18.75H19.0625C18.8906 18.75 18.75 18.8906 18.75 19.0625ZM19.375 19.375H21.875V20H20.625C20.4531 20 20.3125 20.1406 20.3125 20.3125V21.875H19.375V19.375Z" fill="white"/>
<path d="M24.0625 17.5C24.2344 17.5 24.375 17.3594 24.375 17.1875V14.6875C24.375 14.5156 24.2344 14.375 24.0625 14.375H20.9375C20.7656 14.375 20.625 14.5156 20.625 14.6875V17.1875C20.625 17.3594 20.7656 17.5 20.9375 17.5H24.0625ZM21.25 15H23.75V16.875H21.25V15Z" fill="white"/>
<path d="M19.375 14.375H14.375C14.2031 14.375 14.0625 14.5156 14.0625 14.6875V19.0625C14.0625 19.2344 14.2031 19.375 14.375 19.375H17.8125C17.9844 19.375 18.125 19.2344 18.125 19.0625V18.125H19.375C19.5469 18.125 19.6875 17.9844 19.6875 17.8125V14.6875C19.6875 14.5156 19.5469 14.375 19.375 14.375ZM19.0625 17.5H17.8125C17.6406 17.5 17.5 17.6406 17.5 17.8125V18.75H14.6875V15H19.0625V17.5Z" fill="white"/>
<path d="M18.75 26.25H19.375V26.875H18.75V26.25Z" fill="white"/>
<path d="M14.0625 22.1875C14.0625 22.3594 14.2031 22.5 14.375 22.5H17.8125C17.9844 22.5 18.125 22.3594 18.125 22.1875V20.625C18.125 20.4531 17.9844 20.3125 17.8125 20.3125H14.375C14.2031 20.3125 14.0625 20.4531 14.0625 20.625V22.1875ZM14.6875 20.9375H17.5V21.875H14.6875V20.9375Z" fill="white"/>
<path d="M24.0625 24.0625C23.8906 24.0625 23.75 24.2031 23.75 24.375V25.625H22.5C22.3281 25.625 22.1875 25.7656 22.1875 25.9375V27.1875C22.1875 27.3594 22.3281 27.5 22.5 27.5H25.625C25.7969 27.5 25.9375 27.3594 25.9375 27.1875V24.375C25.9375 24.2031 25.7969 24.0625 25.625 24.0625H24.0625ZM25.3125 26.875H22.8125V26.25H24.0625C24.2344 26.25 24.375 26.1094 24.375 25.9375V24.6875H25.3125V26.875Z" fill="white"/>
</svg>
