<svg width="12" height="13" viewBox="0 0 12 13" fill="none" xmlns="http://www.w3.org/2000/svg">
<g clip-path="url(#clip0_100_10758)">
<path d="M1.89015 8.64557L0.10299 10.4327C-0.0343301 10.5701 -0.0343301 10.7926 0.10299 10.9299L1.09726 11.9241C1.23458 12.0615 1.45704 12.0615 1.59439 11.9241L3.38157 10.137L1.89015 8.64557Z" fill="white"/>
<path d="M9.22997 3.79129L8.23571 2.79702C8.09839 2.6597 7.8759 2.6597 7.73857 2.79702L2.38721 8.14841L3.87861 9.63981L9.22997 4.28844C9.36732 4.1511 9.36732 3.92863 9.22997 3.79129Z" fill="white"/>
<path d="M10.2422 3.54272C10.0479 3.54272 9.89062 3.38548 9.89062 3.19116C9.89062 2.60958 9.41752 2.13647 8.83594 2.13647C8.64162 2.13647 8.48438 1.97923 8.48438 1.78491C8.48438 1.59059 8.64162 1.43335 8.83594 1.43335C9.41752 1.43335 9.89062 0.96024 9.89062 0.378662C9.89062 0.184342 10.0479 0.0270996 10.2422 0.0270996C10.4365 0.0270996 10.5938 0.184342 10.5938 0.378662C10.5938 0.96024 11.0669 1.43335 11.6484 1.43335C11.8428 1.43335 12 1.59059 12 1.78491C12 1.97923 11.8428 2.13647 11.6484 2.13647C11.0669 2.13647 10.5938 2.60958 10.5938 3.19116C10.5938 3.38548 10.4365 3.54272 10.2422 3.54272Z" fill="white"/>
<path d="M9.53906 9.16772C9.34474 9.16772 9.1875 9.01048 9.1875 8.81616C9.1875 8.23458 8.71439 7.76147 8.13281 7.76147C7.93849 7.76147 7.78125 7.60423 7.78125 7.40991C7.78125 7.21559 7.93849 7.05835 8.13281 7.05835C8.71439 7.05835 9.1875 6.58524 9.1875 6.00366C9.1875 5.80934 9.34474 5.6521 9.53906 5.6521C9.73338 5.6521 9.89062 5.80934 9.89062 6.00366C9.89062 6.58524 10.3637 7.05835 10.9453 7.05835C11.1396 7.05835 11.2969 7.21559 11.2969 7.40991C11.2969 7.60423 11.1396 7.76147 10.9453 7.76147C10.3637 7.76147 9.89062 8.23458 9.89062 8.81616C9.89062 9.01048 9.73338 9.16772 9.53906 9.16772Z" fill="white"/>
<path d="M3.91406 4.94897C3.71974 4.94897 3.5625 4.79173 3.5625 4.59741C3.5625 3.6282 2.7739 2.8396 1.80469 2.8396C1.61037 2.8396 1.45312 2.68236 1.45312 2.48804C1.45312 2.29372 1.61037 2.13647 1.80469 2.13647C2.7739 2.13647 3.5625 1.34787 3.5625 0.378662C3.5625 0.184342 3.71974 0.0270996 3.91406 0.0270996C4.10838 0.0270996 4.26562 0.184342 4.26562 0.378662C4.26562 1.34787 5.05423 2.13647 6.02344 2.13647C6.21776 2.13647 6.375 2.29372 6.375 2.48804C6.375 2.68236 6.21776 2.8396 6.02344 2.8396C5.05423 2.8396 4.26562 3.6282 4.26562 4.59741C4.26562 4.79173 4.10838 4.94897 3.91406 4.94897Z" fill="white"/>
</g>
<defs>
<clipPath id="clip0_100_10758">
<rect width="12" height="12" fill="white" transform="translate(0 0.0270996)"/>
</clipPath>
</defs>
</svg>
