<svg width="40" height="59" viewBox="0 0 40 59" fill="none" xmlns="http://www.w3.org/2000/svg">
<path d="M25.8986 3.08216H12.0109C11.6037 3.0798 11.214 2.91638 10.927 2.62763C10.6399 2.33887 10.4788 1.94825 10.4788 1.54108C10.4788 1.13236 10.6411 0.740374 10.9301 0.451366C11.2191 0.162357 11.6111 0 12.0199 0H25.9076C26.3163 0 26.7083 0.162357 26.9973 0.451366C27.2863 0.740374 27.4487 1.13236 27.4487 1.54108C27.4487 1.74422 27.4085 1.94534 27.3305 2.1329C27.2525 2.32045 27.1382 2.49075 26.9941 2.63397C26.8501 2.77719 26.6791 2.89052 26.4911 2.96743C26.3031 3.04435 26.1018 3.08335 25.8986 3.08216Z" fill="#263238"/>
<path d="M28.1249 2.24445H4.014C1.79713 2.24445 0 4.04156 0 6.25842V49.4401C0 51.6569 1.79713 53.454 4.014 53.454H28.1249C30.3418 53.454 32.1389 51.6569 32.1389 49.4401V6.25842C32.1389 4.04156 30.3418 2.24445 28.1249 2.24445Z" fill="#006DBF"/>
<g opacity="0.3">
<path d="M28.1249 2.24445H4.014C1.79713 2.24445 0 4.04156 0 6.25842V49.4401C0 51.6569 1.79713 53.454 4.014 53.454H28.1249C30.3418 53.454 32.1389 51.6569 32.1389 49.4401V6.25842C32.1389 4.04156 30.3418 2.24445 28.1249 2.24445Z" fill="black"/>
</g>
<path d="M35.7541 2.24445H11.6432C9.42628 2.24445 7.62915 4.04156 7.62915 6.25842V49.4401C7.62915 51.6569 9.42628 53.454 11.6432 53.454H35.7541C37.9709 53.454 39.7681 51.6569 39.7681 49.4401V6.25842C39.7681 4.04156 37.9709 2.24445 35.7541 2.24445Z" fill="#006DBF"/>
<path d="M39.4947 44.8976C39.4947 44.9603 32.3269 45.0141 23.5015 45.0141C14.676 45.0141 7.50366 44.9603 7.50366 44.8976C7.50366 44.8349 14.6715 44.7811 23.5015 44.7811C32.3314 44.7811 39.4947 44.8304 39.4947 44.8976Z" fill="#263238"/>
<path d="M39.4947 37.8371C39.4947 37.8998 32.3269 37.9535 23.5015 37.9535C14.676 37.9535 7.50366 37.8998 7.50366 37.8371C7.50366 37.7743 14.6715 37.7206 23.5015 37.7206C32.3314 37.7206 39.4947 37.7743 39.4947 37.8371Z" fill="#263238"/>
<path d="M39.4947 30.7946C39.4947 30.8618 32.3269 30.9111 23.5015 30.9111C14.676 30.9111 7.50366 30.8618 7.50366 30.7946C7.50366 30.7274 14.6715 30.6782 23.5015 30.6782C32.3314 30.6782 39.4947 30.714 39.4947 30.7946Z" fill="#263238"/>
<path d="M39.4947 23.721C39.4947 23.7837 32.3269 23.8374 23.5015 23.8374C14.676 23.8374 7.50366 23.7837 7.50366 23.721C7.50366 23.6582 14.6715 23.6045 23.5015 23.6045C32.3314 23.6045 39.4947 23.6582 39.4947 23.721Z" fill="#263238"/>
<path d="M39.4947 16.6607C39.4947 16.7279 32.3269 16.7772 23.5015 16.7772C14.676 16.7772 7.50366 16.7279 7.50366 16.6607C7.50366 16.5935 14.6715 16.5443 23.5015 16.5443C32.3314 16.5443 39.4947 16.598 39.4947 16.6607Z" fill="#263238"/>
<path d="M39.4947 9.60482C39.4947 9.66754 32.3269 9.72129 23.5015 9.72129C14.676 9.72129 7.50366 9.66754 7.50366 9.60482C7.50366 9.54211 14.6715 9.48834 23.5015 9.48834C32.3314 9.48834 39.4947 9.53763 39.4947 9.60482Z" fill="#263238"/>
<path d="M34.437 56.227C34.437 56.7756 34.2743 57.3119 33.9693 57.7681C33.6644 58.2242 33.2311 58.5796 32.7241 58.7894C32.2171 58.9991 31.6593 59.0538 31.1213 58.9464C30.5832 58.8391 30.0891 58.5745 29.7015 58.1862C29.3139 57.798 29.0501 57.3034 28.9436 56.7652C28.8371 56.227 28.8927 55.6693 29.1033 55.1627C29.3138 54.656 29.67 54.2233 30.1266 53.9191C30.5832 53.6149 31.1198 53.453 31.6684 53.4539C32.4031 53.4551 33.1073 53.7478 33.6264 54.2677C34.1455 54.7876 34.437 55.4923 34.437 56.227Z" fill="#263238"/>
<path d="M36.3672 56.227C36.3672 56.7754 36.2045 57.3116 35.8998 57.7676C35.5951 58.2236 35.162 58.579 34.6553 58.7889C34.1486 58.9988 33.591 59.0537 33.0531 58.9467C32.5152 58.8397 32.0211 58.5756 31.6333 58.1878C31.2454 57.8 30.9813 57.3059 30.8743 56.768C30.7673 56.23 30.8223 55.6725 31.0321 55.1658C31.242 54.6591 31.5974 54.226 32.0535 53.9213C32.5095 53.6166 33.0457 53.4539 33.5941 53.4539C34.3296 53.4539 35.0349 53.7461 35.555 54.2661C36.075 54.7862 36.3672 55.4915 36.3672 56.227Z" fill="#455A64"/>
<path d="M12.3826 56.227C12.3826 56.7756 12.2198 57.3119 11.9149 57.7681C11.61 58.2242 11.1766 58.5796 10.6697 58.7894C10.1627 58.9991 9.60488 59.0538 9.06684 58.9464C8.52879 58.8391 8.0347 58.5745 7.64705 58.1862C7.25941 57.798 6.99566 57.3034 6.88917 56.7652C6.78267 56.227 6.83822 55.6693 7.0488 55.1627C7.25937 54.656 7.6155 54.2233 8.07212 53.9191C8.52874 53.6149 9.06533 53.453 9.61398 53.4539C10.3487 53.4551 11.0528 53.7478 11.5719 54.2677C12.091 54.7876 12.3826 55.4923 12.3826 56.227Z" fill="#263238"/>
<path d="M14.3132 56.227C14.3132 56.7754 14.1506 57.3116 13.8459 57.7676C13.5412 58.2236 13.1081 58.579 12.6014 58.7889C12.0946 58.9988 11.5371 59.0537 10.9992 58.9467C10.4612 58.8397 9.96712 58.5756 9.5793 58.1878C9.19148 57.8 8.92738 57.3059 8.82038 56.768C8.71338 56.23 8.76829 55.6725 8.97817 55.1658C9.18806 54.6591 9.5435 54.226 9.99953 53.9213C10.4556 53.6166 10.9917 53.4539 11.5402 53.4539C12.2756 53.4539 12.981 53.7461 13.501 54.2661C14.0211 54.7862 14.3132 55.4915 14.3132 56.227Z" fill="#455A64"/>
<path d="M3.78548 16.6608H3.42708C2.57596 16.6608 1.88599 17.3507 1.88599 18.2018V33.4155C1.88599 34.2667 2.57596 34.9566 3.42708 34.9566H3.78548C4.6366 34.9566 5.32656 34.2667 5.32656 33.4155V18.2018C5.32656 17.3507 4.6366 16.6608 3.78548 16.6608Z" fill="#263238"/>
<path d="M4.26947 52.997L4.16194 52.9164L3.84836 52.661C3.477 52.3007 3.15736 51.8906 2.8986 51.4425C2.19526 50.2777 1.77862 48.3066 1.79206 45.9143C1.8727 41.1253 2.06086 34.5175 2.24006 27.2197C2.41925 19.922 2.64326 13.3321 2.78214 8.52517C2.77365 7.44347 2.86816 6.36342 3.06437 5.29964C3.23202 4.49078 3.60893 3.74005 4.15747 3.12242C4.5052 2.73222 4.94371 2.43372 5.43424 2.25332C5.60296 2.19125 5.77926 2.15207 5.95839 2.13684C5.95839 2.13684 5.77471 2.17269 5.44768 2.29812C4.97392 2.49415 4.55441 2.80149 4.22467 3.1941C3.70067 3.80776 3.34554 4.54732 3.19428 5.33996C3.01243 6.39614 2.92994 7.46704 2.94789 8.5386C2.82693 13.3366 2.6567 19.9399 2.47302 27.2332C2.28934 34.5264 2.07879 41.1208 1.94439 45.9233C1.90855 48.3066 2.29382 50.2464 2.96133 51.4067C3.30398 52.0072 3.74635 52.545 4.26947 52.997Z" fill="#263238"/>
</svg>
