<svg width="24" height="24" viewBox="0 0 24 24" fill="none" xmlns="http://www.w3.org/2000/svg">
<path d="M11.9992 10.3275C6.15295 10.3275 1.39795 15.0863 1.39795 20.9325C1.39795 21.1388 1.5667 21.3075 1.77295 21.3075H22.2292C22.4354 21.3075 22.6042 21.1388 22.6042 20.9325C22.6042 15.0863 17.8454 10.3275 11.9992 10.3275ZM17.2342 15.7838C17.0617 16.185 16.9867 16.8375 16.9079 17.5313C16.8142 18.3338 16.6754 19.5488 16.3492 19.7775C16.1167 19.9463 15.9404 20.2163 15.8392 20.5575H5.7667C5.7592 20.535 5.7517 20.5125 5.7367 20.4938C5.50795 20.1525 5.3392 19.4963 5.19295 18.9188C5.06545 18.4313 4.9492 17.97 4.78795 17.6513C4.4167 16.9163 3.5317 16.7363 3.1117 16.6913C3.9217 14.9963 5.2042 13.5638 6.79045 12.5738C6.9142 13.0838 7.27045 14.1975 8.07295 14.4075C8.1967 14.4413 8.31295 14.8838 8.3917 15.1763C8.57545 15.87 8.83045 16.8225 9.8317 16.9875C10.1879 17.0475 10.6417 17.085 11.1329 17.085C12.2317 17.085 13.4992 16.89 14.2004 16.2975C14.5754 15.975 14.7779 15.555 14.7779 15.075C14.7779 13.92 15.7454 12.6488 16.7317 12.5175C16.8179 12.5063 16.8892 12.4688 16.9454 12.4125C17.7742 12.8925 18.5242 13.4963 19.1804 14.19C18.6404 14.43 17.5717 14.985 17.2342 15.7838Z" fill="white"/>
<path d="M22.2278 11.3888C22.1025 11.3888 21.9803 11.3261 21.909 11.2121C20.7938 9.42339 18.9904 7.95752 16.8304 7.08414C16.6384 7.00652 16.5458 6.78789 16.6234 6.59589C16.701 6.40389 16.9196 6.31202 17.1116 6.38889C19.4171 7.32152 21.3469 8.89352 22.5454 10.8154C22.6549 10.9913 22.6013 11.2223 22.4258 11.3321C22.3639 11.3708 22.2953 11.3888 22.2278 11.3888Z" fill="white"/>
<path d="M1.77026 11.3906C1.70239 11.3906 1.63414 11.3723 1.57226 11.334C1.39639 11.2245 1.34314 10.9931 1.45264 10.8176C2.84801 8.57852 5.15389 6.87227 7.94576 6.01315C8.14414 5.9509 8.35339 6.0634 8.41451 6.2614C8.47526 6.4594 8.36426 6.66902 8.16626 6.73015C5.54726 7.53602 3.38876 9.12865 2.08901 11.2144C2.01814 11.3284 1.89551 11.3906 1.77026 11.3906Z" fill="white"/>
<path d="M16.0905 6.09V6.15375C16.0905 6.615 15.7118 6.99375 15.2468 6.99375H14.3018L12.4268 9.40125C12.3555 9.49125 12.2468 9.5475 12.1305 9.5475H11.0468C10.9155 9.5475 10.7918 9.47625 10.7243 9.36375C10.6568 9.255 10.653 9.1125 10.713 8.99625L11.763 6.99375H10.578L9.38554 8.50875C9.31429 8.59875 9.20554 8.655 9.09304 8.655H8.28304C8.15179 8.655 8.03179 8.58376 7.96054 8.47125C7.89304 8.355 7.89304 8.21625 7.95304 8.10001L8.92429 6.31125V5.92876L7.95304 4.14C7.89304 4.02375 7.89304 3.885 7.96054 3.76875C8.03179 3.65626 8.15179 3.58875 8.28304 3.58875H9.09304C9.20554 3.58875 9.31429 3.64125 9.38554 3.73125L10.578 5.24625H11.763L10.713 3.24375C10.653 3.1275 10.6568 2.985 10.7243 2.87625C10.7918 2.76375 10.9155 2.6925 11.0468 2.6925H12.1305C12.2468 2.6925 12.3555 2.74876 12.4268 2.83876L14.3018 5.24625H15.2468C15.7118 5.24625 16.0905 5.625 16.0905 6.09Z" fill="white"/>
</svg>
