<svg width="28" height="28" viewBox="0 0 28 28" fill="none" xmlns="http://www.w3.org/2000/svg">
<g clip-path="url(#clip0_100_11406)">
<path d="M12.9577 18.6857V15.0399H9.31185C8.73649 15.0399 8.27018 14.5736 8.27018 13.9982C8.27018 13.4231 8.73649 12.9565 9.31185 12.9565H12.9577V9.31071C12.9577 8.73555 13.424 8.26904 13.9993 8.26904C14.5747 8.26904 15.041 8.73555 15.041 9.31071V12.9565H18.6868C19.2622 12.9565 19.7285 13.4231 19.7285 13.9982C19.7285 14.5736 19.2622 15.0399 18.6868 15.0399H15.041V18.6857C15.041 19.2611 14.5747 19.7274 13.9993 19.7274C13.424 19.7274 12.9577 19.2611 12.9577 18.6857ZM23.4274 4.57113C20.9091 2.05282 17.5607 0.665894 13.9993 0.665894C10.4379 0.665894 7.08956 2.05282 4.57125 4.57113C2.05294 7.08944 0.666016 10.4378 0.666016 13.9992C0.666016 17.5606 2.05294 20.909 4.57125 23.4273C7.08956 25.9456 10.4379 27.3326 13.9993 27.3326C16.4375 27.3326 18.8232 26.6681 20.8984 25.411C21.3905 25.1129 21.5478 24.4724 21.2497 23.9805C20.9517 23.4884 20.311 23.3311 19.819 23.6291C18.0694 24.6889 16.0568 25.2492 13.9993 25.2492C7.79614 25.2492 2.74935 20.2024 2.74935 13.9992C2.74935 7.79602 7.79614 2.74923 13.9993 2.74923C20.2026 2.74923 25.2493 7.79602 25.2493 13.9992C25.2493 16.2174 24.5898 18.3765 23.3418 20.2433C23.022 20.7214 23.1505 21.3684 23.6289 21.6882C24.107 22.0078 24.7539 21.8793 25.0738 21.4012C26.5514 19.1907 27.3327 16.6311 27.3327 13.9992C27.3327 10.4378 25.9458 7.08944 23.4274 4.57113Z" fill="white"/>
</g>
<defs>
<clipPath id="clip0_100_11406">
<rect width="26.6667" height="26.6667" fill="white" transform="translate(0.666016 0.665894)"/>
</clipPath>
</defs>
</svg>
