<svg width="22" height="22" viewBox="0 0 22 22" fill="none" xmlns="http://www.w3.org/2000/svg">
<path d="M14.6667 20.625H3.66667C3.0591 20.6243 2.47663 20.3826 2.04702 19.953C1.6174 19.5234 1.37573 18.9409 1.375 18.3333V3.66667C1.37573 3.0591 1.6174 2.47663 2.04702 2.04702C2.47663 1.6174 3.0591 1.37573 3.66667 1.375H10.7525C11.0577 1.3752 11.3598 1.43609 11.6413 1.55412C11.9227 1.67214 12.1779 1.84496 12.392 2.0625L16.3052 6.06787C16.725 6.49638 16.9595 7.07266 16.9583 7.6725V11.0871C16.9583 11.2086 16.91 11.3252 16.8241 11.4112C16.7381 11.4971 16.6216 11.5454 16.5 11.5454C16.3784 11.5454 16.2619 11.4971 16.1759 11.4112C16.09 11.3252 16.0417 11.2086 16.0417 11.0871V7.6725C16.0419 7.31269 15.901 6.96714 15.6493 6.71L11.7356 2.70417C11.6074 2.57355 11.4544 2.46979 11.2856 2.39897C11.1168 2.32814 10.9356 2.29166 10.7525 2.29167H3.66667C3.30199 2.29167 2.95226 2.43653 2.6944 2.69439C2.43653 2.95226 2.29167 3.30199 2.29167 3.66667V18.3333C2.29167 18.698 2.43653 19.0477 2.6944 19.3056C2.95226 19.5635 3.30199 19.7083 3.66667 19.7083H14.6667C14.8396 19.709 15.0109 19.6755 15.1708 19.6098C15.2833 19.5635 15.4095 19.5638 15.5217 19.6106C15.6339 19.6575 15.7229 19.7469 15.7692 19.8594C15.8154 19.9718 15.8151 20.098 15.7683 20.2102C15.7215 20.3224 15.6321 20.4115 15.5196 20.4577C15.249 20.5688 14.9592 20.6257 14.6667 20.625Z" fill="black"/>
<path d="M16.3121 7.33334H13.2917C12.6841 7.33261 12.1016 7.09094 11.672 6.66132C11.2424 6.23171 11.0007 5.64924 11 5.04167V1.97542C11 1.85387 11.0483 1.73729 11.1342 1.65133C11.2202 1.56538 11.3368 1.51709 11.4583 1.51709C11.5799 1.51709 11.6965 1.56538 11.7824 1.65133C11.8684 1.73729 11.9167 1.85387 11.9167 1.97542V5.04167C11.9167 5.40635 12.0615 5.75608 12.3194 6.01395C12.5773 6.27181 12.927 6.41667 13.2917 6.41667H16.3121C16.4336 6.41667 16.5502 6.46496 16.6362 6.55092C16.7221 6.63687 16.7704 6.75345 16.7704 6.87501C16.7704 6.99656 16.7221 7.11314 16.6362 7.1991C16.5502 7.28505 16.4336 7.33334 16.3121 7.33334Z" fill="black"/>
<path d="M15.5837 20.5581C15.4029 20.5583 15.2262 20.5048 15.0758 20.4045L13.6037 19.4228C12.6612 18.7961 11.8884 17.946 11.3542 16.9482C10.82 15.9504 10.541 14.836 10.542 13.7042V12.9195C10.5429 12.7133 10.613 12.5133 10.7411 12.3517C10.8691 12.19 11.0477 12.0761 11.2483 12.028C12.6095 11.6518 13.9044 11.0675 15.0873 10.296C15.2353 10.2007 15.4076 10.15 15.5837 10.15C15.7597 10.15 15.932 10.2007 16.08 10.296C17.2628 11.0676 18.5578 11.6519 19.919 12.028C20.1196 12.0761 20.2982 12.19 20.4263 12.3517C20.5543 12.5133 20.6244 12.7133 20.6253 12.9195V13.7042C20.6267 14.8363 20.3478 15.9511 19.8136 16.9492C19.2793 17.9474 18.5064 18.7978 17.5637 19.4246L16.092 20.4059C15.9413 20.5058 15.7644 20.5588 15.5837 20.5581ZM15.5837 11.066C14.3164 11.8927 12.9286 12.5176 11.4697 12.9186L11.4587 13.7042C11.4575 14.6853 11.6992 15.6515 12.1622 16.5165C12.6252 17.3816 13.295 18.1186 14.112 18.6619L15.5837 19.6414L17.0554 18.6601C17.8721 18.117 18.5417 17.3802 19.0047 16.5155C19.4676 15.6508 19.7095 14.685 19.7087 13.7042V12.9195C18.2461 12.5188 16.8546 11.8937 15.5837 11.0664V11.066Z" fill="black"/>
<path d="M15.1252 16.5C15.0037 16.5 14.8871 16.4517 14.8012 16.3657L13.8845 15.4491C13.801 15.3626 13.7548 15.2468 13.7559 15.1267C13.7569 15.0065 13.8051 14.8915 13.8901 14.8066C13.9751 14.7216 14.09 14.6734 14.2102 14.6723C14.3304 14.6713 14.4462 14.7175 14.5326 14.801L15.1252 15.3936L16.6345 13.8843C16.721 13.8008 16.8367 13.7546 16.9569 13.7557C17.0771 13.7567 17.192 13.8049 17.277 13.8899C17.362 13.9749 17.4102 14.0898 17.4112 14.21C17.4123 14.3302 17.3661 14.4459 17.2826 14.5324L15.4493 16.3657C15.3633 16.4517 15.2468 16.5 15.1252 16.5Z" fill="black"/>
<path d="M8.25 5.95832H4.58333C4.46178 5.95832 4.3452 5.91003 4.25924 5.82408C4.17329 5.73813 4.125 5.62155 4.125 5.49999C4.125 5.37843 4.17329 5.26185 4.25924 5.1759C4.3452 5.08995 4.46178 5.04166 4.58333 5.04166H8.25C8.37156 5.04166 8.48814 5.08995 8.57409 5.1759C8.66004 5.26185 8.70833 5.37843 8.70833 5.49999C8.70833 5.62155 8.66004 5.73813 8.57409 5.82408C8.48814 5.91003 8.37156 5.95832 8.25 5.95832Z" fill="black"/>
<path d="M11 8.70832H4.58333C4.46178 8.70832 4.3452 8.66003 4.25924 8.57408C4.17329 8.48813 4.125 8.37155 4.125 8.24999C4.125 8.12843 4.17329 8.01185 4.25924 7.9259C4.3452 7.83994 4.46178 7.79166 4.58333 7.79166H11C11.1216 7.79166 11.2381 7.83994 11.3241 7.9259C11.41 8.01185 11.4583 8.12843 11.4583 8.24999C11.4583 8.37155 11.41 8.48813 11.3241 8.57408C11.2381 8.66003 11.1216 8.70832 11 8.70832Z" fill="black"/>
<path d="M11.9167 11.4583H4.58333C4.46178 11.4583 4.3452 11.41 4.25924 11.3241C4.17329 11.2381 4.125 11.1215 4.125 11C4.125 10.8784 4.17329 10.7619 4.25924 10.6759C4.3452 10.5899 4.46178 10.5417 4.58333 10.5417H11.9167C12.0382 10.5417 12.1548 10.5899 12.2408 10.6759C12.3267 10.7619 12.375 10.8784 12.375 11C12.375 11.1215 12.3267 11.2381 12.2408 11.3241C12.1548 11.41 12.0382 11.4583 11.9167 11.4583Z" fill="black"/>
<path d="M9.16667 14.2083H4.58333C4.46178 14.2083 4.3452 14.16 4.25924 14.0741C4.17329 13.9881 4.125 13.8715 4.125 13.75C4.125 13.6284 4.17329 13.5119 4.25924 13.4259C4.3452 13.3399 4.46178 13.2917 4.58333 13.2917H9.16667C9.28822 13.2917 9.4048 13.3399 9.49076 13.4259C9.57671 13.5119 9.625 13.6284 9.625 13.75C9.625 13.8715 9.57671 13.9881 9.49076 14.0741C9.4048 14.16 9.28822 14.2083 9.16667 14.2083Z" fill="black"/>
<path d="M9.16667 16.9583H4.58333C4.46178 16.9583 4.3452 16.91 4.25924 16.8241C4.17329 16.7381 4.125 16.6215 4.125 16.5C4.125 16.3784 4.17329 16.2619 4.25924 16.1759C4.3452 16.0899 4.46178 16.0417 4.58333 16.0417H9.16667C9.28822 16.0417 9.4048 16.0899 9.49076 16.1759C9.57671 16.2619 9.625 16.3784 9.625 16.5C9.625 16.6215 9.57671 16.7381 9.49076 16.8241C9.4048 16.91 9.28822 16.9583 9.16667 16.9583Z" fill="black"/>
</svg>
