<svg width="24" height="24" viewBox="0 0 24 24" fill="none" xmlns="http://www.w3.org/2000/svg">
<g clip-path="url(#clip0_388_202)">
<path d="M12.0004 4.42767C9.69238 4.42767 7.81445 6.30542 7.81445 8.61365C7.81445 10.9217 9.69238 12.7994 12.0004 12.7994C14.3085 12.7994 16.1864 10.9217 16.1864 8.61365C16.1864 6.30542 14.3085 4.42767 12.0004 4.42767Z" fill="#E60000"/>
<path d="M12 0C5.38312 0 0 5.38312 0 12C0 15.0615 1.15302 17.8583 3.04669 19.9807C3.45227 18.1998 4.383 16.5749 5.742 15.3091C6.6958 14.4207 7.81183 13.7558 9.01813 13.3423C7.45074 12.3505 6.40778 10.6016 6.40778 8.61365C6.40778 5.52997 8.9165 3.02142 12 3.02142C15.0835 3.02142 17.592 5.52997 17.592 8.61365C17.592 10.6007 16.55 12.349 14.9837 13.3411C16.2903 13.7886 17.488 14.5316 18.4935 15.537C19.7219 16.7655 20.5701 18.3096 20.9524 19.9814C22.8468 17.859 24 15.0619 24 12C24 5.38312 18.6169 0 12 0Z" fill="#E60000"/>
<path d="M4.27051 21.171C6.36011 22.9351 9.0578 24 12.0001 24C14.9424 24 17.6401 22.9349 19.7297 21.171C19.5373 19.4227 18.7516 17.7838 17.4993 16.5315C16.0301 15.0623 14.0771 14.2531 12.0001 14.2531C8.04431 14.2531 4.69989 17.2709 4.27051 21.171Z" fill="#E60000"/>
</g>
<defs>
<clipPath id="clip0_388_202">
<rect width="24" height="24" fill="white"/>
</clipPath>
</defs>
</svg>
