<svg width="16" height="16" viewBox="0 0 16 16" fill="none" xmlns="http://www.w3.org/2000/svg">
<g clip-path="url(#clip0_100_9342)">
<path d="M14.2181 1.34548C14.1059 1.23336 13.924 1.23326 13.8118 1.34548L10.8327 4.32442C10.7205 4.43664 10.7205 4.61851 10.8327 4.73076C10.8888 4.78686 10.9623 4.81489 11.0359 4.81489C11.1094 4.81489 11.1829 4.78686 11.2391 4.73076L14.2181 1.75183C14.3303 1.63958 14.3303 1.45767 14.2181 1.34548Z" fill="#4A0ADD"/>
<path d="M15.0281 2.14283C14.9158 2.03068 14.734 2.03068 14.6217 2.14283L11.6427 5.12183C11.5306 5.23408 11.5306 5.41596 11.6427 5.52818C11.6988 5.58427 11.7724 5.6123 11.8459 5.6123C11.9194 5.6123 11.993 5.58427 12.0491 5.52818L15.0281 2.54915C15.1403 2.43693 15.1403 2.25502 15.0281 2.14283Z" fill="#4A0ADD"/>
<path d="M12.2179 7.1734L15.916 3.47534C16.0282 3.36309 16.0282 3.18121 15.916 3.06899C15.8037 2.95687 15.6219 2.95677 15.5096 3.06899L11.8116 6.76705C11.356 7.22262 10.6594 7.34215 10.0782 7.06459C9.96257 7.0094 9.82451 7.0373 9.73948 7.13312L8.48295 8.54884C8.48245 8.54937 8.48188 8.54984 8.48138 8.5504C8.48088 8.55096 8.48051 8.55155 8.48001 8.55212L3.0491 14.6708C3.04773 14.6723 3.04635 14.6739 3.04501 14.6755C3.0271 14.6966 3.0102 14.715 2.99307 14.7322C2.63448 15.0907 2.05104 15.0907 1.6926 14.7322C1.51891 14.5585 1.42326 14.3276 1.42326 14.0819C1.42326 13.8363 1.51891 13.6054 1.69291 13.4314C1.7096 13.4146 1.72804 13.3977 1.74926 13.3797C1.75088 13.3783 1.75245 13.377 1.75401 13.3756L5.14926 10.362C5.26795 10.2567 5.27873 10.0751 5.17341 9.95643C5.06807 9.83771 4.88645 9.82687 4.76782 9.93227L1.37482 12.9438C1.34238 12.9715 1.31335 12.9983 1.28629 13.0254C1.00407 13.3076 0.848633 13.6828 0.848633 14.0819C0.848633 14.481 1.00404 14.8563 1.28626 15.1385C1.5776 15.4298 1.9602 15.5754 2.34288 15.5754C2.72541 15.5754 3.1081 15.4298 3.39923 15.1386C3.42682 15.1111 3.45354 15.0821 3.48098 15.0499L7.61948 10.3872L11.758 15.05C11.7854 15.0821 11.8122 15.1112 11.8396 15.1386C12.1309 15.4298 12.5135 15.5755 12.8961 15.5755C13.2788 15.5755 13.6614 15.4298 13.9527 15.1385C14.5352 14.5559 14.5352 13.6081 13.9529 13.0256C13.9254 12.998 13.8963 12.9713 13.8642 12.9439L9.10198 8.71702L10.0337 7.66727C10.7886 7.93474 11.6428 7.74843 12.2179 7.1734ZM13.4849 13.3756C13.4865 13.377 13.4881 13.3784 13.4897 13.3797C13.5107 13.3976 13.5292 13.4145 13.5464 13.4316C13.9049 13.7902 13.9049 14.3736 13.5464 14.7321C13.1878 15.0906 12.6044 15.0906 12.2457 14.732C12.2287 14.715 12.2118 14.6965 12.1939 14.6755C12.1925 14.6739 12.1911 14.6723 12.1898 14.6707L8.0036 9.9544L8.72044 9.14674L13.4849 13.3756Z" fill="#4A0ADD"/>
<path d="M13.3556 0.508678C13.2433 0.396521 13.0615 0.396521 12.9492 0.508678L9.25125 4.20677C8.67606 4.7819 8.48981 5.63599 8.75728 6.39105L7.61931 7.40112L6.52562 6.43037C7.09122 5.31749 6.88475 3.96627 5.98743 3.06893C5.09625 2.17774 4.064 1.55058 3.08084 1.30305C2.0545 1.04471 1.17456 1.21718 0.602872 1.78883C0.0311842 2.36049 -0.141316 3.24055 0.11709 4.26683C0.364653 5.24993 0.991778 6.28218 1.88303 7.17333C2.78034 8.07071 4.13153 8.27718 5.24447 7.71155C5.24447 7.71155 6.314 8.91649 6.32756 8.9318C6.38434 8.99577 6.46325 9.02837 6.54256 9.02837C6.6104 9.02837 6.67847 9.00449 6.73318 8.95593L9.2915 6.68518C9.38728 6.60015 9.41518 6.46202 9.36003 6.34646C9.0824 5.76518 9.20197 5.06862 9.65756 4.61308L13.3556 0.915021C13.4678 0.802771 13.4678 0.620896 13.3556 0.508678ZM6.56659 8.33552L5.52072 7.15721C5.42809 7.05287 5.27378 7.03005 5.15503 7.1034C4.23384 7.67143 3.0554 7.53321 2.28928 6.76705C1.4704 5.94821 0.896872 5.01049 0.674278 4.12652C0.467247 3.30412 0.586184 2.61818 1.00922 2.19518C1.43218 1.77212 2.11812 1.65324 2.9405 1.8603C3.82447 2.08287 4.76225 2.65637 5.58106 3.47524C6.34718 4.24133 6.48543 5.41977 5.91737 6.34096C5.84412 6.45974 5.86684 6.61399 5.97118 6.70665L7.18643 7.78527L6.56659 8.33552Z" fill="#4A0ADD"/>
</g>
<defs>
<clipPath id="clip0_100_9342">
<rect width="16" height="16" fill="white"/>
</clipPath>
</defs>
</svg>
