<svg width="16" height="16" viewBox="0 0 16 16" fill="none" xmlns="http://www.w3.org/2000/svg">
<g clip-path="url(#clip0_100_8798)">
<path d="M14.2181 1.34551C14.1059 1.23339 13.924 1.23329 13.8118 1.34551L10.8327 4.32445C10.7205 4.43667 10.7205 4.61854 10.8327 4.73079C10.8888 4.78689 10.9623 4.81492 11.0359 4.81492C11.1094 4.81492 11.1829 4.78689 11.2391 4.73079L14.2181 1.75186C14.3303 1.63961 14.3303 1.4577 14.2181 1.34551Z" fill="#E60000"/>
<path d="M15.0281 2.14283C14.9158 2.03068 14.734 2.03068 14.6217 2.14283L11.6427 5.12183C11.5306 5.23408 11.5306 5.41596 11.6427 5.52818C11.6988 5.58427 11.7724 5.6123 11.8459 5.6123C11.9194 5.6123 11.993 5.58427 12.0491 5.52818L15.0281 2.54915C15.1403 2.43693 15.1403 2.25502 15.0281 2.14283Z" fill="#E60000"/>
<path d="M12.2177 7.17337L15.9157 3.47531C16.028 3.36306 16.028 3.18118 15.9157 3.06896C15.8035 2.95684 15.6216 2.95674 15.5094 3.06896L11.8114 6.76702C11.3558 7.22259 10.6592 7.34212 10.078 7.06456C9.96233 7.00937 9.82426 7.03727 9.73923 7.13309L8.4827 8.54881C8.4822 8.54934 8.48164 8.54981 8.48114 8.55037C8.48064 8.55093 8.48026 8.55152 8.47976 8.55209L3.04886 14.6707C3.04748 14.6723 3.04611 14.6739 3.04476 14.6755C3.02686 14.6965 3.00995 14.715 2.99283 14.7321C2.63423 15.0907 2.05079 15.0907 1.69236 14.7321C1.51867 14.5585 1.42301 14.3275 1.42301 14.0819C1.42301 13.8363 1.51867 13.6053 1.69267 13.4313C1.70936 13.4146 1.72779 13.3977 1.74901 13.3796C1.75064 13.3783 1.7522 13.3769 1.75376 13.3756L5.14901 10.362C5.2677 10.2566 5.27848 10.0751 5.17317 9.9564C5.06783 9.83768 4.8862 9.82684 4.76758 9.93224L1.37458 12.9438C1.34214 12.9715 1.31311 12.9982 1.28604 13.0253C1.00383 13.3076 0.848389 13.6828 0.848389 14.0819C0.848389 14.481 1.00379 14.8562 1.28601 15.1385C1.57736 15.4297 1.95995 15.5754 2.34264 15.5754C2.72517 15.5754 3.10786 15.4298 3.39898 15.1386C3.42658 15.1111 3.45329 15.082 3.48073 15.0499L7.61923 10.3872L11.7578 15.05C11.7852 15.0821 11.8119 15.1112 11.8393 15.1385C12.1306 15.4298 12.5132 15.5754 12.8959 15.5754C13.2785 15.5754 13.6612 15.4298 13.9525 15.1385C14.535 14.5559 14.535 13.608 13.9526 13.0256C13.9251 12.998 13.896 12.9713 13.864 12.9439L9.10173 8.71699L10.0335 7.66724C10.7884 7.93471 11.6425 7.7484 12.2177 7.17337ZM13.4847 13.3756C13.4863 13.377 13.4879 13.3783 13.4895 13.3797C13.5105 13.3976 13.529 13.4145 13.5461 13.4316C13.9046 13.7902 13.9046 14.3736 13.5461 14.7321C13.1875 15.0906 12.6041 15.0906 12.2455 14.7319C12.2285 14.715 12.2115 14.6965 12.1936 14.6754C12.1923 14.6738 12.1909 14.6722 12.1895 14.6707L8.00336 9.95437L8.7202 9.14671L13.4847 13.3756Z" fill="#E60000"/>
<path d="M13.3556 0.508678C13.2433 0.396521 13.0615 0.396521 12.9492 0.508678L9.25125 4.20677C8.67606 4.7819 8.48981 5.63599 8.75728 6.39105L7.61931 7.40112L6.52562 6.43037C7.09122 5.31749 6.88475 3.96627 5.98743 3.06893C5.09625 2.17774 4.064 1.55058 3.08084 1.30305C2.0545 1.04471 1.17456 1.21718 0.602872 1.78883C0.0311842 2.36049 -0.141316 3.24055 0.11709 4.26683C0.364653 5.24993 0.991778 6.28218 1.88303 7.17333C2.78034 8.07071 4.13153 8.27718 5.24447 7.71155C5.24447 7.71155 6.314 8.91649 6.32756 8.9318C6.38434 8.99577 6.46325 9.02837 6.54256 9.02837C6.6104 9.02837 6.67847 9.00449 6.73318 8.95593L9.2915 6.68518C9.38728 6.60015 9.41518 6.46202 9.36003 6.34646C9.0824 5.76518 9.20197 5.06862 9.65756 4.61308L13.3556 0.915021C13.4678 0.802771 13.4678 0.620896 13.3556 0.508678ZM6.56659 8.33552L5.52072 7.15721C5.42809 7.05287 5.27378 7.03005 5.15503 7.1034C4.23384 7.67143 3.0554 7.53321 2.28928 6.76705C1.4704 5.94821 0.896872 5.01049 0.674278 4.12652C0.467247 3.30412 0.586184 2.61818 1.00922 2.19518C1.43218 1.77212 2.11812 1.65324 2.9405 1.8603C3.82447 2.08287 4.76225 2.65637 5.58106 3.47524C6.34718 4.24133 6.48543 5.41977 5.91737 6.34096C5.84412 6.45974 5.86684 6.61399 5.97118 6.70665L7.18643 7.78527L6.56659 8.33552Z" fill="#E60000"/>
</g>
<defs>
<clipPath id="clip0_100_8798">
<rect width="16" height="16" fill="white"/>
</clipPath>
</defs>
</svg>
