<svg width="30" height="30" viewBox="0 0 30 30" fill="none" xmlns="http://www.w3.org/2000/svg">
<rect x="0.25" y="0.25" width="29.5" height="29.5" rx="5.75" fill="white" fill-opacity="0.38" stroke="#FFB7B7" stroke-width="0.5"/>
<g clip-path="url(#clip0_100_11234)">
<path d="M22.4888 21.5735L18.6808 17.6129C19.6599 16.449 20.1964 14.9846 20.1964 13.46C20.1964 9.89801 17.2983 7 13.7364 7C10.1744 7 7.27637 9.89801 7.27637 13.46C7.27637 17.022 10.1744 19.92 13.7364 19.92C15.0736 19.92 16.3479 19.5167 17.4374 18.751L21.2743 22.7416C21.4347 22.9082 21.6504 23 21.8816 23C22.1004 23 22.3079 22.9166 22.4655 22.7649C22.8003 22.4428 22.811 21.9085 22.4888 21.5735ZM13.7364 8.68522C16.3692 8.68522 18.5111 10.8271 18.5111 13.46C18.5111 16.0929 16.3692 18.2348 13.7364 18.2348C11.1035 18.2348 8.96158 16.0929 8.96158 13.46C8.96158 10.8271 11.1035 8.68522 13.7364 8.68522Z" fill="#E60000"/>
</g>
<defs>
<clipPath id="clip0_100_11234">
<rect width="16" height="16" fill="white" transform="translate(7 7)"/>
</clipPath>
</defs>
</svg>
