<svg width="14" height="14" viewBox="0 0 14 14" fill="none" xmlns="http://www.w3.org/2000/svg">
<g clip-path="url(#clip0_100_8752)">
<path d="M7.40976 3.35438C5.50084 3.45319 3.71609 4.24784 2.34678 5.61718C0.880828 7.0831 0.0734863 9.0254 0.0734863 11.0862V13.9333L1.10484 11.5558C2.30948 9.15543 4.75238 7.56394 7.40976 7.41589V10.697L13.9267 5.37375L7.40976 0.0666504V3.35438ZM8.22189 4.15601V1.77538L12.6417 5.3747L8.22189 8.98493V6.59241H7.81583C6.27607 6.59241 4.76404 7.02536 3.44324 7.84443C2.44302 8.46471 1.59082 9.28247 0.936649 10.243C1.35376 6.81775 4.27974 4.15601 7.81583 4.15601H8.22189Z" fill="white"/>
</g>
<defs>
<clipPath id="clip0_100_8752">
<rect width="13.8667" height="13.8667" fill="white" transform="translate(0.0666504 0.0666504)"/>
</clipPath>
</defs>
</svg>
