<svg width="40" height="40" viewBox="0 0 40 40" fill="none" xmlns="http://www.w3.org/2000/svg">
<circle cx="20" cy="20" r="20" fill="white" fill-opacity="0.18"/>
<g clip-path="url(#clip0_211_13)">
<path d="M14.0908 18.9819C14.0619 20.5489 14.6628 22.0618 15.759 23.1819C16.7647 24.2529 17.3085 25.6767 17.2726 27.1456V27.7274C17.2726 28.9826 18.2902 30.0002 19.5454 30.0002H20.4545C21.7097 30.0002 22.7273 28.9826 22.7273 27.7274V26.982C22.7148 25.5847 23.2481 24.2376 24.2137 23.2274C26.5009 20.8995 26.4679 17.1582 24.1401 14.8711C22.9746 13.726 21.387 13.1145 19.7546 13.182C16.6447 13.3461 14.1812 15.8689 14.0908 18.9819ZM19.9364 25.4546L19.1682 20.4546H20.8319L20.0637 25.4546H19.9364ZM21.8454 26.3637C21.8454 26.5682 21.8182 26.7728 21.8182 26.9819V27.2728H18.1817V27.1455C18.1803 26.8842 18.1652 26.6233 18.1363 26.3637H21.8454ZM20.4545 29.0909H19.5454C18.9689 29.0893 18.4557 28.7253 18.2636 28.1818H21.7364C21.5442 28.7253 21.031 29.0893 20.4545 29.0909ZM19.7909 14.0909H20C22.7614 14.0923 24.9989 16.332 24.9975 19.0934C24.9968 20.4013 24.4837 21.6568 23.5681 22.5909C22.7924 23.3827 22.2512 24.3738 22.0045 25.4546H20.9863L21.7545 20.4546H22.2726C22.5236 20.4546 22.7272 20.251 22.7272 20C22.7272 19.749 22.5236 19.5454 22.2726 19.5454H17.7273C17.4763 19.5454 17.2727 19.749 17.2727 20C17.2727 20.251 17.4763 20.4546 17.7273 20.4546H18.2454L19.0136 25.4546H17.9772C17.7236 24.3699 17.1835 23.3731 16.4136 22.5682C15.4817 21.6173 14.9722 20.3312 15 19.0001C15.0744 16.3655 17.159 14.2295 19.7909 14.0909Z" fill="white"/>
<path d="M20.4545 12.2728V10.4546C20.4545 10.2035 20.251 10 20 10C19.7489 10 19.5454 10.2035 19.5454 10.4546V12.2728C19.5454 12.5238 19.7489 12.7273 20 12.7273C20.251 12.7272 20.4545 12.5238 20.4545 12.2728Z" fill="white"/>
<path d="M26.9502 12.4045L25.132 14.2228C24.9538 14.3995 24.9526 14.6873 25.1294 14.8656C25.1303 14.8665 25.1312 14.8674 25.132 14.8682C25.3088 15.0465 25.5966 15.0477 25.7749 14.8708C25.7758 14.87 25.7766 14.8691 25.7775 14.8682L27.5957 13.05C27.774 12.8717 27.774 12.5828 27.5957 12.4045C27.4175 12.2263 27.1284 12.2263 26.9502 12.4045Z" fill="white"/>
<path d="M13.0502 12.4045C12.8719 12.2263 12.583 12.2263 12.4047 12.4045C12.2264 12.5828 12.2264 12.8717 12.4047 13.05L14.2229 14.8682C14.3997 15.0465 14.6875 15.0477 14.8658 14.8708L14.8684 14.8682C15.0467 14.6915 15.0479 14.4037 14.871 14.2254C14.8701 14.2245 14.8693 14.2236 14.8684 14.2228L13.0502 12.4045Z" fill="white"/>
<path d="M26.3638 20C26.3638 20.251 26.5673 20.4546 26.8183 20.4546H28.6365C28.8876 20.4546 29.0911 20.251 29.0911 20C29.0911 19.749 28.8876 19.5454 28.6365 19.5454H26.8183C26.5673 19.5454 26.3638 19.749 26.3638 20Z" fill="white"/>
<path d="M10.9092 20C10.9092 20.251 11.1127 20.4546 11.3637 20.4546H13.182C13.433 20.4546 13.6365 20.251 13.6365 20C13.6365 19.749 13.433 19.5454 13.182 19.5454H11.3637C11.1127 19.5454 10.9092 19.749 10.9092 20Z" fill="white"/>
</g>
<defs>
<clipPath id="clip0_211_13">
<rect width="20" height="20" fill="white" transform="translate(10 10)"/>
</clipPath>
</defs>
</svg>
