<svg width="40" height="40" viewBox="0 0 40 40" fill="none" xmlns="http://www.w3.org/2000/svg">
<path d="M20 13.75C22.7614 13.75 25 11.5114 25 8.75C25 5.98858 22.7614 3.75 20 3.75C17.2386 3.75 15 5.98858 15 8.75C15 11.5114 17.2386 13.75 20 13.75Z" fill="#0197F6"/>
<path d="M21.25 13.75H18.75C17.0924 13.75 15.5027 14.4085 14.3306 15.5806C13.1585 16.7527 12.5 18.3424 12.5 20V27.5C12.5 27.8315 12.6317 28.1495 12.8661 28.3839C13.1005 28.6183 13.4185 28.75 13.75 28.75H15.625V36.25C15.625 36.5815 15.7567 36.8995 15.9911 37.1339C16.2255 37.3683 16.5435 37.5 16.875 37.5H23.125C23.4565 37.5 23.7745 37.3683 24.0089 37.1339C24.2433 36.8995 24.375 36.5815 24.375 36.25V28.75H26.25C26.5815 28.75 26.8995 28.6183 27.1339 28.3839C27.3683 28.1495 27.5 27.8315 27.5 27.5V20C27.5 18.3424 26.8415 16.7527 25.6694 15.5806C24.4973 14.4085 22.9076 13.75 21.25 13.75Z" fill="#0197F6"/>
</svg>
