<svg width="22" height="22" viewBox="0 0 22 22" fill="none" xmlns="http://www.w3.org/2000/svg">
<g clip-path="url(#clip0_388_282)">
<path d="M2.33496 0V22H15.1631L19.6657 17.4974V0L2.33496 0ZM3.62402 1.28906H18.3766V16.3138H13.9795V20.7109H3.62398L3.62402 1.28906ZM17.7372 17.6029L15.2685 20.0716V17.6029H17.7372Z" fill="black"/>
<path d="M8.25 3.93884H13.75V5.22791H8.25V3.93884Z" fill="black"/>
<path d="M5.72949 7.14709H16.2711V8.43616H5.72949V7.14709Z" fill="black"/>
<path d="M5.72949 9.89709H16.2711V11.1862H5.72949V9.89709Z" fill="black"/>
<path d="M5.72949 12.6471H16.2711V13.9362H5.72949V12.6471Z" fill="black"/>
<path d="M5.72949 16.3138H7.08297V17.6029H5.72949V16.3138Z" fill="black"/>
<path d="M8.37207 16.3138H11.0004V17.6029H8.37207V16.3138Z" fill="black"/>
</g>
<defs>
<clipPath id="clip0_388_282">
<rect width="22" height="22" fill="white"/>
</clipPath>
</defs>
</svg>
