<svg width="14" height="16" viewBox="0 0 14 16" fill="none" xmlns="http://www.w3.org/2000/svg">
<path d="M7.26025 4.27499H3.26025C3.12765 4.27499 3.00047 4.32767 2.9067 4.42144C2.81293 4.51521 2.76025 4.64239 2.76025 4.77499C2.76025 4.9076 2.81293 5.03478 2.9067 5.12855C3.00047 5.22232 3.12765 5.27499 3.26025 5.27499H7.26025C7.39286 5.27499 7.52004 5.22232 7.61381 5.12855C7.70757 5.03478 7.76025 4.9076 7.76025 4.77499C7.76025 4.64239 7.70757 4.51521 7.61381 4.42144C7.52004 4.32767 7.39286 4.27499 7.26025 4.27499Z" fill="#4A0ADD"/>
<path d="M7.26025 6.95001H3.26025C3.12765 6.95001 3.00047 7.00269 2.9067 7.09646C2.81293 7.19023 2.76025 7.3174 2.76025 7.45001C2.76025 7.58262 2.81293 7.7098 2.9067 7.80357C3.00047 7.89733 3.12765 7.95001 3.26025 7.95001H7.26025C7.39286 7.95001 7.52004 7.89733 7.61381 7.80357C7.70757 7.7098 7.76025 7.58262 7.76025 7.45001C7.76025 7.3174 7.70757 7.19023 7.61381 7.09646C7.52004 7.00269 7.39286 6.95001 7.26025 6.95001Z" fill="#4A0ADD"/>
<path d="M7.26025 9.685H3.26025C3.12765 9.685 3.00047 9.73768 2.9067 9.83144C2.81293 9.92521 2.76025 10.0524 2.76025 10.185C2.76025 10.3176 2.81293 10.4448 2.9067 10.5386C3.00047 10.6323 3.12765 10.685 3.26025 10.685H7.26025C7.39286 10.685 7.52004 10.6323 7.61381 10.5386C7.70757 10.4448 7.76025 10.3176 7.76025 10.185C7.76025 10.0524 7.70757 9.92521 7.61381 9.83144C7.52004 9.73768 7.39286 9.685 7.26025 9.685Z" fill="#4A0ADD"/>
<path d="M11.9351 0.5H2.06514C1.80864 0.500654 1.55479 0.551907 1.31813 0.650823C1.08147 0.749738 0.866648 0.894373 0.685973 1.07644C0.505297 1.25851 0.362317 1.47444 0.265222 1.71185C0.168128 1.94927 0.118827 2.2035 0.120143 2.46V14.655C0.119816 14.7801 0.152804 14.9031 0.21572 15.0113C0.278636 15.1195 0.369212 15.2089 0.478146 15.2705C0.58708 15.3321 0.710445 15.3636 0.835572 15.3618C0.9607 15.3599 1.08308 15.3248 1.19014 15.26L3.03014 14.155C3.0579 14.1377 3.08995 14.1286 3.12264 14.1286C3.15534 14.1286 3.18739 14.1377 3.21514 14.155L5.26014 15.38C5.3677 15.4486 5.4926 15.485 5.62014 15.485C5.74849 15.4843 5.87438 15.4498 5.98514 15.385L8.04014 14.155C8.0679 14.1377 8.09995 14.1286 8.13264 14.1286C8.16534 14.1286 8.19739 14.1377 8.22515 14.155L10.0551 15.26C10.1626 15.3238 10.2852 15.3575 10.4101 15.3575C10.5351 15.3575 10.6577 15.3238 10.7651 15.26C10.8727 15.1985 10.9622 15.1097 11.0245 15.0026C11.0868 14.8955 11.1198 14.7739 11.1201 14.65V6.22H12.6901C13.0053 6.21868 13.3073 6.09289 13.5301 5.87C13.753 5.64712 13.8788 5.3452 13.8801 5.03V2.46C13.8815 2.2035 13.8322 1.94927 13.7351 1.71185C13.638 1.47444 13.495 1.25851 13.3143 1.07644C13.1336 0.894373 12.9188 0.749738 12.6822 0.650823C12.4455 0.551907 12.1916 0.500654 11.9351 0.5ZM10.1201 14.13L8.74014 13.3C8.5563 13.1909 8.34645 13.1333 8.13264 13.1333C7.91884 13.1333 7.70899 13.1909 7.52514 13.3L5.62514 14.44L3.73014 13.295C3.54411 13.1837 3.33122 13.1254 3.11445 13.1263C2.89768 13.1271 2.68527 13.1872 2.50014 13.3L1.12014 14.135V2.46C1.11815 2.33464 1.14113 2.21015 1.18773 2.09376C1.23432 1.97737 1.30362 1.87141 1.39157 1.78207C1.47952 1.69272 1.58437 1.62177 1.70001 1.57334C1.81565 1.52492 1.93977 1.49998 2.06514 1.5H10.3251C10.1931 1.75155 10.1228 2.03091 10.1201 2.315V14.115V14.13ZM12.8801 5.03C12.8801 5.08039 12.8601 5.12872 12.8245 5.16435C12.7889 5.19998 12.7405 5.22 12.6901 5.22H11.1201V2.33C11.1182 2.22172 11.1378 2.11412 11.1778 2.0135C11.2179 1.91289 11.2776 1.82126 11.3535 1.74399C11.4294 1.66671 11.5199 1.60533 11.6198 1.56344C11.7196 1.52155 11.8268 1.49998 11.9351 1.5C12.1858 1.5 12.4261 1.59956 12.6034 1.77678C12.7806 1.95401 12.8801 2.19437 12.8801 2.445V5.03Z" fill="#4A0ADD"/>
</svg>
