<svg id="Layer_1" height="512" viewBox="0 0 512 512" width="512" xmlns="http://www.w3.org/2000/svg" data-name="Layer 1"><circle cx="256" cy="256" fill="#6aaf50" r="256"/><path d="m256 406c-82.706 0-150-67.292-150-150s67.293-150 150-150 150 67.292 150 150-67.293 150-150 150zm33.886-47.238a108.762 108.762 0 0 0 58.856-47.089h-42.1a185.687 185.687 0 0 1 -8.685 30.334 111.221 111.221 0 0 1 -8.074 16.753zm-126.623-47.087a108.748 108.748 0 0 0 58.853 47.089 111.435 111.435 0 0 1 -8.076-16.755 185.648 185.648 0 0 1 -8.683-30.334zm58.86-158.439a108.736 108.736 0 0 0 -58.86 47.087h42.092a185.642 185.642 0 0 1 8.685-30.335 110.624 110.624 0 0 1 8.083-16.755zm126.617 47.087a108.734 108.734 0 0 0 -58.862-47.089 110.332 110.332 0 0 1 8.082 16.766 185.428 185.428 0 0 1 8.686 30.325zm-38.725 21.432a300.355 300.355 0 0 1 1.92 34.245 300.566 300.566 0 0 1 -1.92 34.242h48.627a108.3 108.3 0 0 0 0-68.491zm-54.015-71.171c-6.931 0-15.561 10.668-21.992 27.189a157.906 157.906 0 0 0 -6.756 22.55h57.5a157.754 157.754 0 0 0 -6.757-22.553c-6.429-16.52-15.061-27.189-21.991-27.189zm-108.2 105.416a107.752 107.752 0 0 0 5.56 34.242h48.628a305.969 305.969 0 0 1 0-68.491h-48.63a107.711 107.711 0 0 0 -5.558 34.249zm75.757 34.244h64.886a277.565 277.565 0 0 0 2.064-34.244 277.833 277.833 0 0 0 -2.061-34.246h-64.89a285.1 285.1 0 0 0 0 68.488zm32.443 71.17c6.93 0 15.565-10.668 21.991-27.185a158 158 0 0 0 6.757-22.554h-57.5a158.055 158.055 0 0 0 6.756 22.554c6.429 16.52 15.061 27.185 21.992 27.185zm0-235.045a129.779 129.779 0 0 0 -129.63 129.631c0 71.476 58.152 129.629 129.63 129.629a129.631 129.631 0 0 0 0-259.261z" fill="#fff" fill-rule="evenodd"/></svg>