<svg width="26" height="26" viewBox="0 0 26 26" fill="none" xmlns="http://www.w3.org/2000/svg">
<g clip-path="url(#clip0_388_302)">
<path d="M13 26C20.1797 26 26 20.1797 26 13C26 5.8203 20.1797 0 13 0C5.8203 0 0 5.8203 0 13C0 20.1797 5.8203 26 13 26Z" fill="#FF0000"/>
<path d="M17.2544 8.10962H8.74623C8.40622 8.10962 8.06955 8.17662 7.75544 8.30678C7.44133 8.43695 7.15596 8.62774 6.91561 8.86824C6.67527 9.10874 6.48467 9.39424 6.35471 9.70844C6.22475 10.0226 6.15798 10.3593 6.1582 10.6994V15.3007C6.15798 15.6407 6.22475 15.9774 6.35471 16.2916C6.48467 16.6058 6.67527 16.8913 6.91561 17.1318C7.15596 17.3723 7.44133 17.5631 7.75544 17.6932C8.06955 17.8234 8.40622 17.8904 8.74623 17.8904H17.2544C17.5944 17.8904 17.9311 17.8234 18.2452 17.6932C18.5593 17.5631 18.8447 17.3723 19.085 17.1318C19.3253 16.8913 19.5159 16.6058 19.6459 16.2916C19.7759 15.9774 19.8426 15.6407 19.8424 15.3007V10.6994C19.8426 10.3593 19.7759 10.0226 19.6459 9.70844C19.5159 9.39424 19.3253 9.10874 19.085 8.86824C18.8447 8.62774 18.5593 8.43695 18.2452 8.30678C17.9311 8.17662 17.5944 8.10962 17.2544 8.10962ZM11.1974 15.0971V10.9029L14.8032 13L11.1974 15.0971Z" fill="white"/>
</g>
<defs>
<clipPath id="clip0_388_302">
<rect width="26" height="26" fill="white"/>
</clipPath>
</defs>
</svg>
