<svg width="16" height="16" viewBox="0 0 16 16" fill="none" xmlns="http://www.w3.org/2000/svg">
<g clip-path="url(#clip0_100_10667)">
<path d="M10.4625 7.28101L6.92773 5.34693C6.72449 5.23572 6.48425 5.23987 6.28503 5.35791C6.08569 5.47608 5.9668 5.68482 5.9668 5.91651V9.75147C5.9668 9.98206 6.08496 10.1904 6.28296 10.3087C6.38635 10.3705 6.50098 10.4015 6.61584 10.4015C6.72107 10.4015 6.82654 10.3755 6.92358 10.3232L10.4585 8.42249C10.6683 8.30957 10.7993 8.09143 10.8003 7.85303C10.8011 7.61463 10.6718 7.39551 10.4625 7.28101ZM6.90442 9.26904V6.40283L9.54626 7.84839L6.90442 9.26904Z" fill="#5E5E5E"/>
<path d="M15.8823 4.79773L15.8816 4.79041C15.868 4.66162 15.7332 3.51611 15.1763 2.93347C14.5326 2.24817 13.8029 2.16492 13.4519 2.125C13.4229 2.1217 13.3962 2.11865 13.3724 2.11548L13.3445 2.11255C11.2292 1.95874 8.03479 1.93774 8.00281 1.93762L8 1.9375L7.99719 1.93762C7.96521 1.93774 4.77075 1.95874 2.63647 2.11255L2.60828 2.11548C2.58557 2.11853 2.56055 2.12134 2.53333 2.12451C2.1864 2.16455 1.46448 2.24792 0.81897 2.95801C0.288574 3.53442 0.135254 4.6554 0.119507 4.78137L0.117676 4.79773C0.112915 4.85132 0 6.12708 0 7.40784V8.6051C0 9.88586 0.112915 11.1616 0.117676 11.2153L0.11853 11.2234C0.13208 11.3501 0.266846 12.4746 0.821167 13.0575C1.42639 13.7198 2.19165 13.8075 2.60327 13.8546C2.66833 13.8621 2.72437 13.8684 2.76257 13.8751L2.79956 13.8802C4.02087 13.9965 7.8501 14.0537 8.01245 14.056L8.01733 14.0562L8.02222 14.056C8.0542 14.0559 11.2485 14.0349 13.3638 13.8811L13.3917 13.8782C13.4185 13.8746 13.4485 13.8715 13.4814 13.868C13.8264 13.8314 14.5444 13.7554 15.181 13.0549C15.7114 12.4784 15.8649 11.3574 15.8805 11.2316L15.8823 11.2152C15.8871 11.1615 16.0001 9.88586 16.0001 8.6051V7.40784C16 6.12708 15.8871 4.85144 15.8823 4.79773ZM15.0624 8.6051C15.0624 9.79053 14.9589 11.0114 14.9491 11.1234C14.9093 11.4321 14.7476 12.1414 14.4891 12.4222C14.0907 12.8606 13.6814 12.9041 13.3826 12.9357C13.3464 12.9395 13.313 12.9431 13.2827 12.9469C11.2368 13.0948 8.16296 13.1176 8.02136 13.1184C7.86255 13.1161 4.08936 13.0583 2.90527 12.9484C2.8446 12.9385 2.77905 12.9309 2.70996 12.9231C2.3595 12.8829 1.87976 12.828 1.51086 12.4222L1.5022 12.413C1.24829 12.1484 1.09119 11.4852 1.05127 11.1271C1.04382 11.0424 0.937622 9.80713 0.937622 8.6051V7.40784C0.937622 6.22375 1.04089 5.00427 1.0509 4.88989C1.09839 4.52625 1.26318 3.85999 1.51086 3.5907C1.92151 3.13904 2.35449 3.08899 2.64087 3.05591C2.66821 3.05273 2.69373 3.0498 2.71729 3.04675C4.79297 2.89807 7.88892 2.87598 8 2.87512C8.11108 2.87585 11.2059 2.89807 13.2632 3.04675C13.2885 3.04993 13.316 3.0531 13.3457 3.05652C13.6403 3.09009 14.0854 3.14087 14.494 3.57666L14.4978 3.58069C14.7517 3.84521 14.9088 4.52002 14.9487 4.88538C14.9558 4.96533 15.0624 6.20325 15.0624 7.40784V8.6051Z" fill="#5E5E5E"/>
</g>
<defs>
<clipPath id="clip0_100_10667">
<rect width="16.0001" height="16" fill="white"/>
</clipPath>
</defs>
</svg>
